<?xml version="1.0" encoding="utf-8"?>
<!-- Generator: Adobe Illustrator 22.1.0, SVG Export Plug-In . SVG Version: 6.00 Build 0)  -->
<svg version="1.1" id="Layer_1" xmlns="http://www.w3.org/2000/svg" xmlns:xlink="http://www.w3.org/1999/xlink" x="0px" y="0px"
	 viewBox="0 0 87 100.9" style="enable-background:new 0 0 87 100.9;" xml:space="preserve">
<style type="text/css">
	.st0{fill:#FFFFFF;}
	.st1{fill:#B92C2E;}
	.st2{fill:#42A5F4;}
	.st3{fill:#D4A635;}
</style>
<title>Asset 1</title>
<g id="Layer_2_1_">
	<g id="图层_1">
		<g id="_Group_">
			<path id="_Path_" class="st0" d="M20.5,1h-6.8C11.5,1,7.6,0.9,2.5,0.7c-0.6,0-1.2,0-1.8-0.1C0.9,2.9,1,5.3,1,7.6v6.3l0.1,6.4
				v33.8c0,21.2,4.9,27.7,27.1,38.7l4.1,2c2.9,1.4,6.1,2.9,9.3,4.6c0,0,1.6,0.9,1.9,1c0.3-0.1,1.9-1,1.9-1c3.1-1.6,6.4-3.2,9.3-4.6
				l4.1-2C81,81.8,86,75.3,86,54.1V20.3l0.1-6.4V7.6c0-2.3,0.1-4.7,0.3-7c-0.6,0-1.9,0.1-1.9,0.1C79.4,0.9,75.5,1,73.3,1
				C73.3,1,20.5,1,20.5,1z"/>
			<path class="st1" d="M52.6,53l0.1,0.3v42.4c0.7-0.3,1.3-0.6,1.9-0.9l4.1-2c22.2-11,27.2-17.5,27.2-38.7v-0.9H52.8L52.6,53z
				 M1.1,53.1V54c0,21.2,4.9,27.7,27.1,38.7l4.1,2c0.6,0.3,1.3,0.6,1.9,0.9V53.3l0.1-0.3l-0.1,0.1H1.1z M84.4,0.6
				c-5.1,0.2-9,0.3-11.2,0.3H52.7v33.6l-0.1,0.3l0.3-0.1h33V20.3l0.1-6.4V7.6c0-2.3,0.1-4.7,0.3-7L84.4,0.6 M1.1,34.8H34l0.3,0.1
				l-0.1-0.3V1H13.7C11.5,1,7.6,0.9,2.5,0.7c-0.6,0-1.2,0-1.8-0.1C0.9,2.9,1,5.3,1,7.6v6.3l0.1,6.4V34.8z"/>
			<path id="_Path_2" class="st2" d="M27.2,17.8l0.1,0.4c0.1,0.3,0.2,0.6,0.2,0.9c0.4,1.6,0.7,2.1,1.5,2.1c0.4,0,0.8-0.2,0.9-0.6
				l0.2-0.6c0-0.1,0.1-0.2,0.3-0.2s0.5,0.3,0.5,1c0,0.2,0.1,0.7,0.2,1.4c0.1,0.4,0.1,0.8,0.1,1.2c0,0.3,0,0.6-0.2,0.9
				c0.1,0.6,0.2,1.1,0.2,1.7c0,0.6-0.1,1.2-0.3,1.7c0.1,0.4,0.1,0.7,0.1,1.1c0,0.3,0,0.7-0.1,1c-0.1,0.3-0.1,0.7-0.1,1
				c0,0.1,0,0.3,0.1,0.4c0.1,0.1,0.1,0.2,0.1,0.3c0,0.1,0,0.1-0.1,0.1l-0.6-0.2l-0.6-0.3c-0.2-0.1-0.5-0.3-0.7-0.5
				c-0.6,0.5-1.4,0.9-2.2,1c-0.2,0.1-0.4,0.2-0.6,0.3c-0.2,0.1-0.3,0.2-0.4,0.2s-0.4-0.4-0.4-1.2c0-0.5,0.1-1.1,0.2-1.6
				c-0.3-0.2-0.7-0.3-1-0.3c-0.1,0-0.3,0-0.4,0.1h-0.1c-0.1,0-0.2-0.1-0.2-0.3c0-0.2,0.1-0.4,0.2-0.6l0.3-0.7
				c0.2-0.3,0.4-0.6,0.7-0.8c0.3-0.2,0.5-0.4,0.7-0.4l1-0.2c0.6-0.1,1-0.4,1-0.9s-0.3-0.7-0.9-0.9l-1.2-0.5
				c-0.4-0.1-0.7-0.3-1.1-0.5c-0.7-0.4-0.8-0.5-1-0.5c-0.2,0-0.4,0.3-0.4,0.5c0,0.5,0.3,0.9,0.7,0.9c0,0,0,0,0.1,0
				c0.1,0,0.2,0,0.3-0.1s0.2-0.1,0.3-0.1c0.1,0,0.2,0.1,0.2,0.2v0.1l-0.1,0.5c-0.1,0.6-0.4,1.2-0.9,1.7l-0.3,0.3
				c-0.2,0.9-0.7,1.7-1.5,2.3c-0.1,0.1-0.2,0.1-0.3,0.2l-0.2,0.4c-0.2,0.2-0.4,0.5-0.6,0.7c-0.2,0.3-0.4,0.5-0.7,0.7
				c-0.2,0.1-0.4,0.3-0.6,0.5l-0.3,0.5c0,0.1-0.1,0.1-0.2,0.1s-0.5-0.3-0.6-0.7s-0.2-0.4-0.4-0.4c-0.2,0-0.3,0-0.5,0.1l-0.4,0.1h-1
				c-0.5,0-1.1,0.1-1.6,0.3c-0.1,0.1-0.2,0.1-0.3,0.1c-0.1,0-0.1,0-0.2-0.2S14,31.4,14,31.3c0.1-0.8,0.4-1.6,0.9-2.3
				c0.2-0.4,0.5-0.7,0.8-0.9c-0.1-0.5-0.4-0.8-0.8-1L14.4,27c-0.1-0.1-0.1-0.1-0.1-0.2s0.2-0.3,0.7-0.6c0.5-0.3,1-0.5,1.6-0.5
				c0.6,0,1.1,0.2,1.5,0.6c0.8,0.6,1,0.7,1.4,0.7c0.6,0,1.1-0.5,1.2-1.1c0-0.4-0.2-0.8-0.8-1.5c-0.6-0.6-1-1.4-1-2.3
				c0-0.5,0.1-0.9,0.3-1.3l0.3-0.4c0.1-0.1,0.1-0.2,0.1-0.3c0-0.2-0.2-0.3-0.5-0.3c-0.7,0.1-1.4,0.3-2,0.7c-0.3,0.2-0.6,0.5-0.6,0.6
				s0,0.2,0.1,0.2l0.3,0.2l0.1,0.1c0,0.1,0,0.1-0.1,0.2l-0.6,0.7c-0.3,0.5-0.7,0.9-1.2,1.3l-0.3,0.3c-0.1,0.1-0.2,0.3-0.2,0.4
				c-0.3,0.5-0.8,1-1.3,1.3c-0.2,0.1-0.3,0.3-0.4,0.3s-0.1,0.2-0.2,0.4c-0.1,0.2-0.3,0.4-0.4,0.6c-0.2,0.3-0.4,0.6-0.7,0.9l-0.9,0.8
				c-0.4,0.5-0.7,1.1-0.8,1.8c-0.2,0.6-0.4,1-0.5,1l-0.2-0.2c-0.3-0.4-0.8-0.8-1.3-1c-0.1,0-0.2,0-0.3,0.1c-0.3,0.1-0.5,0.2-0.8,0.3
				L5.7,31c-0.6,0-1.2,0.4-1.6,0.9l-0.2,0.2c-0.1,0-0.2-0.1-0.2-0.3v-0.3l0.1-0.8c0.1-0.7,0.3-1.3,0.6-1.9l0.5-0.9
				C5,27.7,5,27.6,5,27.4c-0.1-0.8-0.7-1.3-1.5-1.3c-0.2,0-0.3-0.1-0.3-0.2c0.1-0.3,0.3-0.5,0.5-0.7c0.5-0.4,1.1-0.6,1.8-0.7
				c0.4,0,0.9,0.1,1.3,0.3l0.6,0.3c0.2,0.1,0.4,0.1,0.6,0.1c0.7,0,1.3-0.6,2.1-2c0.3-0.4,0.5-1,0.5-1.5c0-0.7-0.3-1.2-0.9-1.2
				c-0.4,0-0.9,0.2-1.2,0.5c-0.3,0.2-0.4,0.6-0.4,0.9v0.4c0,0.3-0.1,0.4-0.2,0.4c-0.3,0-0.7-0.4-1.8-1.7c-0.6-0.6-1-1.5-1.1-2.4
				C4.3,17.9,3.8,17,3.8,16v-0.6c-0.6-0.5-0.9-1.2-0.9-2c0-0.3,0.1-0.6,0.2-0.8c-0.2-0.3-0.4-0.7-0.5-1.1l-0.1-0.6
				C2.4,10.5,2.3,10.1,2,9.8C1.7,9.4,1.7,9.4,1.7,9.3c0-0.3,0.2-0.5,1.2-0.7c0-0.2,0-0.4-0.1-0.6c0-0.2,0-0.5,0.1-0.7l0.2-1.1
				c0.1-0.3,0.1-0.6,0.1-0.9C3.2,5,3.1,4.7,3,4.4C2.9,4.2,2.8,3.9,2.7,3.7C2.6,3.6,2.5,3.5,2.5,3.3c0-0.1,0.1-0.2,0.2-0.2
				C3.4,3.3,4,3.7,4.5,4.2c1.6,1.4,2,1.9,2.2,3.5c0,0.2,0,0.4,0.1,0.6c0.7,0.4,1.1,1.2,1.2,2c0,0.6-0.2,1.3-0.6,1.8L6.8,13
				c-0.2,0.3-0.3,0.6-0.3,0.9c0.1,0.6,0.2,1.2,0.5,1.7c0.4,0.8,0.8,1.1,1.3,1.1c0.7,0,1.4-1.3,1.4-2.8v-0.7c0-0.3,0-0.6,0.1-0.9
				c0.5-0.1,0.5-0.4,0.5-0.5v-1.2c0-0.2-0.1-0.3-0.3-0.5L9.4,9.4C8.7,8.7,8.2,7.8,8,6.8C8,6,8.6,5.3,9.3,5.3c0.1,0,0.1,0,0.2,0
				c0.2,0,0.4,0,0.6,0.1V5.2c0-1.3,0.3-2.2,0.6-2.2h0.1l0.5,0.5l0.6,0.4l0.2,0.2c0-0.4,0-0.4,0.4-0.8c0.1-0.1,0.2-0.3,0.4-0.5
				s0.2-0.4,0.3-0.4s0.1-0.2,0.1-0.3l0.2-0.2c0.1,0,0.1,0.1,0.2,0.4s0.1,0.2,0.6,0.7c0.2,0.2,0.3,0.3,0.3,0.4
				c0.1,0.2,0.1,0.4,0.2,0.6c0,0.1,0,0.1,0.1,0.2C15,4,15.2,3.8,15.5,3.7l0.4-0.3c0.1-0.1,0.2-0.1,0.3-0.1c0.1,0.1,0.1,0.1,0.1,0.2
				c0,0.1,0.1,0.2,0.2,0.4c0.2,0.3,0.4,0.6,0.4,1v0.6c0.8,0.2,1.4,1,1.3,1.8c-0.1,0.9-0.5,1.7-1.1,2.4c-0.5,0.6-0.5,0.7-0.5,1.1
				c0,2.1,1.5,3.3,4,3.4h1.9c1.1,0,2.1,0.1,3.1,0.5c0.7,0.3,1.4,0.4,2.1,0.5c0.1,0,0.3,0,0.4-0.1c0.1-0.1,0.2-0.2,0.2-0.3
				c0-0.4-0.7-0.7-3-1.4c-4.7-1.3-6.7-3.2-6.7-6.3c0.1-2.4,2.1-4.4,4.5-4.3c0,0,0.1,0,0.1,0c1,0,2,0.2,2.9,0.5l1.2,0.4
				c0.2,0.1,0.4,0.1,0.6,0.1c0.4,0,0.6-0.3,0.6-1c0-0.4,0.1-0.5,0.3-0.5s0.8,0.4,1.3,1.1c0.4,0.5,0.7,1.2,0.8,1.9
				c0,0.7-0.4,1.2-1,1.5c-0.5,0.9-1.5,1.5-2.5,1.4c-0.8,0-2-0.5-3.9-1.6c-0.4-0.3-0.9-0.5-1.4-0.5c-0.4,0-0.7,0.2-0.8,0.6
				c0,0,0,0.1,0,0.1c0,0.4,0.3,0.7,1.2,1c0.8,0.2,1.5,0.5,2,1.1c1.1,0.1,2.2,0.5,3,1.2c2.5,0.8,4,2.5,4,4.5c0.1,1.7-1.2,3.2-2.9,3.3
				c-0.1,0-0.1,0-0.2,0C28.2,18,27.9,17.9,27.2,17.8"/>
			<path id="_Path_3" class="st2" d="M80.4,17.8l0.1,0.4c0.1,0.3,0.2,0.6,0.2,0.9c0.4,1.6,0.7,2.1,1.5,2.1c0.4,0,0.7-0.2,0.9-0.6
				l0.2-0.6c0-0.1,0.1-0.2,0.3-0.2s0.5,0.3,0.5,1c0,0.3,0.1,0.7,0.2,1.4c0.1,0.4,0.1,0.9,0.1,1.3c0,0.3,0,0.6-0.2,0.8l0.1,0.3
				c0.1,0.3,0.1,0.7,0.1,1c0.1,0.7,0,1.4-0.3,2.1c0.1,0.3,0.1,0.7,0.1,1c0,0.3,0,0.7-0.1,1L84,30.6v0.5c0.1,0.1,0.1,0.2,0.1,0.3
				c0,0.1,0,0.1-0.1,0.1l-0.6-0.2L82.8,31c-0.2-0.1-0.5-0.3-0.7-0.5c-0.3,0.4-0.8,0.6-1.3,0.7c-0.9,0.3-1.3,0.4-1.5,0.5
				s-0.3,0.2-0.4,0.2s-0.4-0.4-0.4-1.1c0-0.6,0-1.1,0.2-1.7c-0.3-0.1-0.7-0.2-1-0.3c-0.1,0-0.1,0-0.4,0.1h-0.1
				c-0.1,0-0.1-0.1-0.1-0.3c0.1-0.5,0.2-0.9,0.5-1.3c0.4-0.6,0.9-1.2,1.4-1.3l1-0.2c0.6-0.1,1-0.4,1-0.9s-0.3-0.7-0.9-0.9l-1.2-0.2
				c-0.4-0.1-0.8-0.3-1.1-0.5c-0.2-0.1-0.4-0.3-0.6-0.4c-0.1-0.1-0.3-0.1-0.4-0.1c-0.2,0-0.4,0.3-0.4,0.5c0,0.5,0.3,0.9,0.8,0.9
				c0.1,0,0.2,0,0.3-0.1s0.2-0.1,0.3-0.1c0.1,0,0.2,0.1,0.2,0.3c0,0.7-0.3,1.3-0.7,1.8L77,26.5l-0.3,0.3c-0.2,0.9-0.8,1.7-1.5,2.3
				c-0.1,0.1-0.2,0.1-0.3,0.2l-0.2,0.4c-0.2,0.2-0.4,0.5-0.6,0.7c-0.2,0.3-0.4,0.5-0.7,0.7c-0.2,0.1-0.4,0.3-0.6,0.5l-0.3,0.5
				c-0.1,0.1-0.1,0.1-0.2,0.1c-0.3,0-0.5-0.3-0.6-0.7s-0.2-0.4-0.4-0.4c-0.2,0-0.3,0-0.5,0.1l-0.5,0.1h-1c-0.5,0-1.1,0.1-1.6,0.3
				c-0.1,0.1-0.2,0.1-0.3,0.1c-0.1,0-0.2-0.1-0.2-0.4c0.2-1.2,0.7-2.3,1.6-3.2c-0.1-0.5-0.4-0.8-0.8-1C67.8,27,67.7,27,67.5,27
				c-0.1,0-0.1,0-0.1-0.1c0-0.2,0.2-0.4,0.7-0.6c0.4-0.3,1-0.5,1.5-0.5c0.6,0,1.1,0.2,1.5,0.6c0.8,0.6,1,0.7,1.4,0.7
				c0.6,0,1.1-0.5,1.2-1.1c0-0.4-0.2-0.8-0.8-1.5c-0.6-0.6-1-1.5-1-2.4c0-0.6,0.2-1.2,0.6-1.7c0.1-0.1,0.1-0.2,0.1-0.3
				c0-0.2-0.3-0.3-0.5-0.3c-0.4,0-0.8,0.1-1.2,0.3c-0.9,0.4-1.4,0.8-1.4,1c0,0.1,0,0.1,0.1,0.2l0.3,0.2l0.1,0.1c0,0.1,0,0.1-0.1,0.2
				c-0.2,0.2-0.4,0.5-0.6,0.7c-0.4,0.5-0.8,0.9-1.2,1.3l-0.3,0.3l-0.2,0.4c-0.3,0.5-0.7,0.9-1.2,1.3c-0.2,0.2-0.3,0.3-0.4,0.3
				s-0.1,0.2-0.3,0.4c-0.3,0.5-0.7,1-1.1,1.5l-0.7,0.8c-0.4,0.6-0.6,1.2-0.8,1.8c-0.2,0.7-0.4,1-0.5,1l-0.2-0.2c-0.6-0.6-1-1-1.3-1
				c-0.1,0-0.2,0-0.3,0.1c-0.3,0.1-0.5,0.2-0.8,0.3L59,31c-0.9,0.2-1.2,0.3-1.6,0.9l-0.2,0.2c-0.1,0-0.2-0.1-0.2-0.4v-0.2
				c0.1-0.3,0.1-0.5,0.1-0.8c0.1-0.7,0.3-1.3,0.6-1.9l0.5-0.9c0.1-0.1,0.1-0.2,0.1-0.4c0-0.7-0.6-1.2-1.5-1.3
				c-0.2,0-0.3-0.1-0.3-0.2c0.1-0.3,0.3-0.5,0.6-0.6c0.5-0.4,1.1-0.7,1.7-0.7c0.4,0,0.9,0.1,1.3,0.3l0.6,0.3
				c0.2,0.1,0.4,0.1,0.6,0.1c0.7,0,1.3-0.6,2.1-2c0.3-0.4,0.5-1,0.5-1.5c0-0.7-0.3-1.2-0.9-1.2c-0.4,0-0.9,0.2-1.2,0.5
				c-0.3,0.2-0.5,0.5-0.5,0.9v0.4c0,0.2-0.1,0.3-0.2,0.3s-0.5-0.2-1-0.8c-0.2-0.2-0.5-0.6-0.8-0.9c-0.7-0.6-1.1-1.5-1.1-2.4
				C57.5,18,57,17.1,57,16.1v-0.6c-0.6-0.5-0.9-1.2-0.8-2c0-0.3,0-0.6,0.2-0.8c-0.2-0.3-0.4-0.7-0.5-1.1L55.8,11
				c-0.1-0.4-0.2-0.8-0.5-1.1C55,9.5,55,9.5,55,9.4c0-0.3,0.3-0.5,1-0.7l0.3,0.1c0-0.2,0-0.4-0.1-0.6c0-0.2,0-0.5,0.1-0.7l0.2-1.1
				c0.1-0.3,0.1-0.6,0.1-0.9c0-0.3-0.1-0.6-0.2-0.9c-0.1-0.2-0.2-0.5-0.3-0.7c-0.1-0.2-0.2-0.3-0.2-0.4c0-0.1,0.1-0.2,0.2-0.2
				c0.1,0,0.2,0,0.3,0.1c1,0.6,2,1.3,2.8,2.2c0.7,0.8,1,1.8,1,2.9c0.8,0.4,1.3,1.3,1.2,2.2c0,0.6-0.2,1.2-0.6,1.7
				c-0.2,0.3-0.4,0.6-0.6,0.9c-0.2,0.3-0.3,0.6-0.3,1c0.1,0.6,0.2,1.2,0.5,1.7c0.4,0.8,0.8,1.1,1.3,1.1c0.7,0,1.4-1.3,1.4-2.7v-1.1
				l0.1-0.7l0.1-0.8l0.1-0.7v-0.4c0-0.3-0.1-0.4-0.9-1.3c-0.8-0.7-1.3-1.6-1.4-2.7c0-0.8,0.7-1.4,1.5-1.4c0,0,0,0,0,0
				c0.2,0,0.4,0,0.6,0.1V4.5l0.2-0.7c0.1-0.6,0.2-0.7,0.4-0.7h0.1l0.5,0.5L65,4l0.2,0.2c0-0.4,0.1-0.4,0.4-0.8
				C65.7,3.2,65.8,3,66,2.9l0.3-0.4l0.2-0.3C66.6,2,66.7,2,66.7,2s0.1,0.1,0.2,0.4c0,0.2,0.1,0.3,0.3,0.4l0.4,0.3
				c0.3,0.3,0.5,0.7,0.6,1.2c0.1-0.2,0.3-0.4,0.6-0.5l0.5-0.3c0.1-0.1,0.2-0.1,0.3-0.1c0.1,0.1,0.1,0.1,0.1,0.2
				c0.1,0.1,0.1,0.3,0.2,0.4c0.4,0.6,0.4,0.7,0.4,1.1v0.5c0.8,0.1,1.4,0.9,1.3,1.8c-0.1,0.9-0.5,1.8-1.1,2.4
				c-0.5,0.6-0.6,0.8-0.6,1.2c0,2,1.5,3.2,4.1,3.3h1.9c1.1,0,2.1,0.1,3.1,0.5c0.7,0.3,1.4,0.4,2.1,0.5c0.2,0,0.5-0.2,0.5-0.4
				c0-0.4-0.7-0.7-3-1.4c-4.7-1.3-6.7-3.2-6.7-6.3C72,4.8,74,2.8,76.4,2.9c0,0,0.1,0,0.1,0c1,0,1.9,0.2,2.8,0.5l1.2,0.4
				c0.2,0.1,0.4,0.1,0.6,0.1c0.4,0,0.6-0.2,0.6-1c0-0.3,0.1-0.5,0.3-0.5s0.9,0.5,1.3,1.1c0.4,0.6,0.6,1.2,0.7,1.9
				c0,0.6-0.4,1.2-1,1.4c-0.5,0.9-1.5,1.5-2.5,1.4c-1.4-0.2-2.8-0.7-3.9-1.6c-0.4-0.3-0.9-0.5-1.4-0.5c-0.4,0-0.7,0.2-0.8,0.6
				c0,0,0,0.1,0,0.1c0,0.4,0.3,0.7,1.2,1c1.3,0.5,1.6,0.6,2,1.1c1.1,0.1,2.2,0.5,3,1.2c2.6,0.8,4,2.4,4,4.5c0.1,1.7-1.1,3.1-2.8,3.2
				c-0.1,0-0.1,0-0.2,0C81.3,18,81.1,17.9,80.4,17.8"/>
			<path id="_Path_4" class="st2" d="M27.8,71.6c0.2,0.6,0.3,0.9,0.4,1.3l0.1,1.2c0,1.2,0.4,1.8,1.2,1.8c0.2,0,0.4-0.1,0.6-0.2
				l0.3-0.3h0.1c0.2,0,0.3,0.1,0.3,0.4v0.5c0,0.4,0,0.9,0.1,1.3C31,78,31,78.4,31,78.8c0,0.5-0.1,1-0.3,1.4c0.2,0.5,0.3,1.1,0.3,1.7
				c0,0.5-0.1,1-0.3,1.4c0.1,0.3,0.1,0.7,0.1,1c0,0.4,0,0.7-0.1,1.1c-0.1,0.5-0.1,0.9-0.1,1.4v0.1c0,0.2-0.1,0.3-0.2,0.3
				s-0.2-0.1-0.3-0.2s-0.3-0.3-0.4-0.3s-0.3,0.1-0.5,1c-0.2,0.4-0.4,0.8-0.7,1.1c-0.3,0.2-0.4,0.5-0.5,0.8c-0.1,0.3-0.1,0.5-0.2,0.6
				s-0.1,0.1-0.2,0.1l0,0c-0.5,0-1-1-1.6-2.9c-0.2-0.5-0.4-0.8-0.6-0.8c-0.2,0-0.4,0.1-0.5,0.3l-0.2,0.4c0,0.1,0,0.1-0.1,0.1
				c-0.2,0-0.6-0.4-0.8-0.9c-0.2-0.4-0.3-0.8-0.3-1.3c0-0.9,0.7-1.6,2.6-2.7c0.8-0.4,1.3-1.3,1.2-2.2c0-0.8-0.3-1.5-1-2
				c-0.3-0.4-0.8-0.6-1.3-0.6c-0.2,0-0.5,0.2-0.5,0.4c0,0.3,0.2,0.4,0.5,0.6s0.6,0.3,0.6,0.5c-0.1,0.4-0.3,0.7-0.5,1
				c-0.2,0.4-0.5,0.7-0.9,0.9c-0.1,0.8-0.7,1.5-1.4,1.9c-0.1,0.4-0.3,0.8-0.6,1.1l-0.6,0.8c-0.2,0.3-0.4,0.6-0.4,0.9
				c-0.1,0.4-0.1,0.5-0.3,0.5c-0.5-0.2-0.9-0.6-1.2-1c-0.2-0.3-0.4-0.6-0.4-0.9c-0.3,0.2-0.6,0.3-1,0.3c-0.3,0-0.6,0.1-0.8,0.2
				c-0.2-0.2-0.3-0.1-0.4-0.1s-0.2-0.1-0.2-0.3v-0.6c0-0.9,0.3-1.8,0.9-2.5c-0.4-0.4-0.9-0.6-1.4-0.7c-0.2,0-0.2,0-0.2-0.1
				c0-0.2,0.1-0.4,0.3-0.5c0.1-0.2,0.3-0.4,0.5-0.6c0.5-0.4,1.1-0.6,1.7-0.6c0.6,0,1.1,0.2,1.6,0.4c0.2,0.1,0.5,0.1,0.7,0.1
				c0.3,0,0.5-0.2,0.5-0.6c-0.1-0.9-0.4-1.8-0.8-2.6c-0.3-0.6-0.5-1.2-0.6-1.9c0-0.9,0.4-1.8,1.1-2.3c-0.2-0.1-0.5-0.2-0.8-0.2
				c-0.3,0-0.6,0.1-0.9,0.3c-0.4,0.2-0.7,0.5-0.7,0.6s0.1,0.1,0.2,0.2s0.3,0.2,0.3,0.4c-0.2,0.9-0.7,1.7-1.4,2.3
				c-0.1,0.9-0.7,1.7-1.5,2c-0.1,0.5-0.3,0.9-0.6,1.3c-0.5,0.6-0.8,1.3-1.1,2c-0.1,0.3-0.1,0.4-0.2,0.4c-0.3-0.1-0.5-0.3-0.6-0.5
				c-0.1-0.2-0.3-0.4-0.5-0.5c-0.1-0.3-0.2-0.6-0.3-0.9c-0.1,0.1-0.3,0.1-0.4,0.1H12c-0.5,0-1.1,0.1-1.6,0.3
				c-0.1,0.1-0.1,0.1-0.2,0.1c-0.2,0-0.3-0.4-0.3-0.9c0-1,0.4-2,1-2.8l-0.5-0.5l-0.2-0.2l-0.3-0.2c-0.1-0.1-0.2-0.1-0.2-0.2
				c0.2-0.4,0.5-0.7,0.9-0.9c0.4-0.3,0.9-0.5,1.4-0.5c0.5,0,0.7,0.1,1.3,0.6c0.2,0.3,0.5,0.5,0.9,0.5c0.2,0,0.3-0.1,0.4-0.3
				c0.1-0.1,0.1-0.3,0.1-0.4c-0.2-0.8-0.7-1.5-1.4-1.9c-0.5-0.4-1.1-0.5-1.7-0.5c-0.7,0-1.4,0.4-1.8,1l-0.5,0.7
				c-0.1,0.2-0.2,0.2-0.3,0.2s-0.3-0.1-0.9-0.8l-0.7-0.9c-0.2-0.3-0.4-0.5-0.5-0.7c-0.1-0.1-0.1-0.3-0.1-0.4
				c-0.1-0.1-0.2-0.1-0.3-0.2c-0.7-0.6-1.1-1.5-1.2-2.4c0-0.1,0-0.3-0.1-0.4C4.5,67,4.2,66,4.1,65c0-0.1,0-0.3,0.1-0.4
				c-0.4-0.4-0.5-0.5-0.8-1.6c-0.1-0.5-0.3-1.1-0.7-1.5c-0.1-0.1-0.1-0.1-0.1-0.2c0-0.1,0.2-0.3,0.7-0.3c0.2-0.1,0.4-0.1,0.6-0.1
				h0.6v-0.8c0-0.4,0-0.9,0.1-1.3c0.1-0.4,0.1-0.7,0-1.1c0-0.1,0-0.3-0.1-0.4c0-0.1,0-0.1-0.1-0.2C4.4,57,4.5,57,4.6,57
				c0.1,0,0.3,0,0.4,0.1c0.4,0.2,0.8,0.4,1.2,0.7c0.9,0.6,1.6,1.6,1.8,2.7v0.2c0,0.1,0,0.3-0.1,0.4c0,0.2,0.1,0.3,0.2,0.5L8.4,62
				c0.3,0.3,0.4,0.7,0.5,1.1c0,0.3-0.1,0.4-0.5,1c-0.3,0.4-0.5,0.8-0.5,1.3c0,0.6,0.2,1.3,0.6,1.8c0.3,0.6,0.7,0.9,1.1,0.9
				c0.6,0,0.9-0.6,1-2.1c0-0.7,0.1-1.5,0.2-2.2v-0.4c0-0.2-0.1-0.3-0.3-0.6l-0.9-1c-0.8-1-1.1-1.4-1.1-2.1c-0.1-0.7,0.4-1.2,1.1-1.3
				c0.1,0,0.1,0,0.2,0h0.3v-0.2c0-0.3,0-0.5,0.1-0.8c0.2-0.6,0.4-1.1,0.5-1.1c0.1,0,0.2,0,0.3,0.1c0.2,0.1,0.3,0.1,0.5,0.2
				c0.2,0.1,0.4,0.2,0.6,0.3c0-0.4,0.2-0.7,0.5-1c0.2-0.4,0.5-0.7,0.9-0.9c0.2,0,0.4,0.1,0.5,0.3l0.5,0.6c0.1,0.2,0.2,0.3,0.3,0.5
				l0.1,0.3c0.1-0.1,0.2-0.1,0.3-0.2c0.2-0.1,0.3-0.2,0.5-0.3c0.2-0.1,0.3-0.2,0.5-0.3c0.1-0.1,0.2-0.1,0.3-0.1
				c0.1,0,0.1,0.2,0.4,1.1c0.1,0.4,0.2,0.9,0.2,1.3c0.9,0.1,1.3,0.6,1.3,1.6c-0.1,1.1-0.6,2.1-1.4,2.9c-0.2,0.2-0.3,0.4-0.3,0.7
				c0,2.5,0.9,3.3,4,3.6c1.6,0.1,3.2,0.5,4.8,1c0.8,0.3,1.6,0.5,2.4,0.5c0.5,0,0.8-0.2,0.8-0.5c0-0.5-0.4-0.7-2.7-1.2
				c-5.3-1.1-7.4-2.9-7.4-6.4c-0.1-2.3,1.8-4.2,4.1-4.3c0.1,0,0.1,0,0.2,0c1.3,0,2.5,0.5,3.6,1.2c1.4,0.8,1.7,1,2.1,1
				s0.5-0.2,0.5-0.9c0-0.4,0.1-0.6,0.4-0.6c0.4,0.1,0.7,0.3,0.9,0.6c0.4,0.4,0.7,1,0.7,1.6c0,1-0.6,1.8-1.6,2l-0.3,0.3
				c-0.5,0.6-1.2,1-2,0.9c-0.9,0-1.8-0.3-2.5-0.8l-1.4-1c-0.4-0.3-0.9-0.5-1.4-0.6c-0.4-0.1-0.8,0.2-0.9,0.7c0,0.1,0,0.1,0,0.2
				c0,0.6,0.4,1.1,1,1.2l1.3,0.4c0.4,0.1,0.8,0.2,1.2,0.5c0.2,0,0.4,0,0.6-0.1c0.8,0,1.7,0.2,2.4,0.6c0.2,0.1,0.3,0.2,0.5,0.2
				l0.7,0.2c1.7,0.6,2.8,2.2,2.9,4c0.1,1.7-1.2,3.2-2.9,3.3c-0.2,0-0.3,0-0.5,0L27.8,71.6z"/>
			<path id="_Path_5" class="st2" d="M77.3,71.1c0.4,0.6,1.1,1,1.8,1.1c0.3,0,0.5,0,0.8-0.1c0.2,0,0.3-0.1,0.4-0.1s0.2,0,0.2,0.2
				c0,0.2-0.1,0.3-0.1,0.5c-0.1,0.2-0.1,0.4-0.2,0.5l-0.1,0.6l-0.3,0.5l-0.5,0.5l-0.1,0.1v0.4c0.1,0.6-0.3,1.2-0.8,1.5
				c-0.1,0.1-0.1,0.1-0.2,0.1l-0.1,0.2c0,0.3-0.1,0.7-0.3,1c-0.1,0.2-0.3,0.4-0.5,0.8c-0.3,0.4-0.5,0.8-0.7,1.2
				c-0.1,0.3-0.2,0.4-0.4,0.4s-0.6-0.3-0.6-0.8c-0.1,0.1-0.1,0.1-0.1,0.2l-0.3,0.2l-0.5,0.4c-0.1,0.2-0.3,0.3-0.5,0.3l-0.3,0.3
				c-0.1,0.1-0.1,0.1-0.2,0.1s-0.3-0.2-0.4-0.7L73,79.6c-0.1-0.3-0.1-0.6-0.1-0.9c0-0.3,0-0.7,0.2-1c-0.3,0-0.7,0.1-1,0.2
				c-0.1,0-0.1,0-0.2,0.1c-0.1,0-0.2-0.1-0.2-0.2c0-0.1,0.1-0.3,0.1-0.4l0.4-1c0.3-0.8,1.1-1.3,1.9-1.4c0.2,0,0.5,0,0.7,0.1
				c0.1,0.1,0.3,0.1,0.4,0.1c0.3,0,0.6-0.2,0.6-0.5c0-0.2-0.1-0.3-0.2-0.4c0,0-0.4-0.1-1-0.3s-0.7-0.3-1.3-0.9
				c-0.4-0.4-0.5-0.6-0.7-0.6c-0.1,0-0.2,0.1-0.2,0.2v0.6c0,0.9-0.3,1.8-0.8,2.6l-0.8,1.5c-0.3,0.5-0.5,1.1-0.5,1.7
				c0,0.6,0.2,1.1,0.6,1.2l0.4,0.1c0.1,0,0.1,0,0.1,0.1s0.1,0.1,0.1,0.2c0,0.1,0,0.2-0.1,0.3c0,0.1-0.2,0.3-0.5,0.7
				c-0.3,0.5-0.8,0.9-1.4,1.1c-0.3,0.8-1,1.4-1.9,1.7l-0.1,0.2c-0.3,0.6-0.9,1-1.6,1.1h-0.1c-0.1,0.6-0.5,1.2-1,1.5
				c-0.4,0.3-0.6,0.4-0.7,0.5C64,87.9,64,88,64,88.1c-0.1,0.3-0.2,0.4-0.4,0.4s-0.6-0.3-0.7-0.8c-0.1,0.1-0.2,0.1-0.3,0.2
				c-0.2,0.1-0.3,0.3-0.5,0.4c-0.3,0.2-0.7,0.3-1,0.3c-0.5,0.1-1.1,0.4-1.5,0.7l-0.3,0.4h-0.1c-0.1,0-0.3-0.2-0.4-0.4
				c-0.2-0.5-0.3-1.1-0.3-1.6c0-1.1,0.5-2.1,1.4-2.7v-0.2c0-1.6,1.2-2.6,3-2.6h0.3l1,0.1h0.1c0.6,0,1.1-0.2,1.5-0.6
				c0.7-0.6,0.9-0.9,0.9-1.6c-0.1-0.4-0.2-0.8-0.3-1.2c0-1.1-0.1-1.6-0.1-2c0.1-1.4,0.9-2.6,2-3.4c0.2-0.1,0.4-0.3,0.5-0.6
				c0-0.1,0-0.1-0.1-0.1s-0.2,0.1-0.4,0.2c-0.2,0.2-0.4,0.3-0.7,0.4l-0.3,0.2l-0.6,0.2c-0.2,0.1-0.2,0.1-0.2,0.3
				c0,0.1,0,0.2,0.1,0.3c0,0.1,0,0.1,0.1,0.2c0,0.1,0,0.2-0.1,0.3l-0.4,0.7c-0.3,0.5-0.7,0.9-1.2,1.1c-0.2,0.8-0.7,1.3-1.5,1.5
				c-0.3,0.9-1.1,1.5-2,1.6c-0.2,0.5-0.5,1-0.9,1.3c-0.2,0.2-0.3,0.4-0.4,0.5C60,82,60,82,59.9,82c-0.3-0.1-0.5-0.2-0.7-0.4
				l-0.3-0.3l-0.3-0.5c-0.1-0.1-0.2-0.2-0.3-0.2h-0.2l-0.6,0.1c-0.4,0.1-1,0.4-1.1,0.7l-0.3,0.5L56,82c-0.3,0-0.4-0.6-0.4-1.5
				c-0.1-0.6,0.1-1.3,0.4-1.8l0.8-1.1c0.1-0.2,0.2-0.3,0.2-0.4c0-0.1,0-0.3-0.1-0.4c-0.2-0.2-0.3-0.3-0.5-0.3l-0.6-0.1
				c-0.1,0-0.2,0-0.2-0.1c0-0.1,0-0.1,0.1-0.2c0.2-0.2,0.4-0.5,0.7-0.6c0.5-0.3,1-0.5,1.6-0.6c0.5,0,1.1,0.2,1.5,0.5l0.8,0.5
				c0.1,0.1,0.3,0.1,0.4,0.1c0.4,0,0.8-0.3,0.9-0.7c0.3-0.4,0.4-0.8,0.4-1.3c0-1-0.7-1.8-1.7-1.8c0,0-0.1,0-0.1,0
				c-0.6,0-1.1,0.2-1.5,0.6l-0.3,0.3l-0.1,0.2c-0.1,0.1-0.1,0.2-0.2,0.2c-0.3-0.2-0.6-0.5-0.7-0.9c-0.2-0.3-0.3-0.7-0.4-1
				c-0.2-0.5-0.2-0.9-0.2-1.4v-0.8c-0.4-0.5-0.6-1.2-0.5-1.8c0-0.3,0.1-0.7,0.2-1c-0.2-0.4-0.3-0.8-0.3-1.3v-0.4l0.1-0.4l0.1-0.3
				c-0.3-0.4-0.4-0.6-0.6-1.9c-0.2-0.7-0.2-1-0.4-1.2c-0.1,0-0.1,0-0.1-0.1s0.4-0.3,0.8-0.3h0.4c-0.1-0.2-0.1-0.4-0.1-0.6
				c0-0.4,0.1-0.7,0.2-1.1c0.1-0.4,0.2-0.6,0.2-0.7c0-0.3,0-0.6-0.1-0.9l-0.2-0.6c0-0.1-0.1-0.2-0.1-0.3s0-0.1,0.1-0.1
				c1,0.2,1.8,0.7,2.5,1.4c0.8,0.6,1.2,1.6,1.1,2.6V61c0.7,0.4,1.1,1.1,1.1,1.9c0,0.5-0.2,0.9-0.6,1.2c-0.6,0.5-1,1.3-0.9,2.1
				c0,1.5,0.5,2.3,1.3,2.3s1.3-0.8,1.4-2l0.1-1.1c0-0.3,0.1-0.6,0.1-1c0-0.2,0.1-0.5,0.1-0.7c0-0.4-0.3-0.8-1-1.7
				c-0.6-0.6-1-1.4-1.1-2.2c-0.1-0.8,0.5-1.4,1.3-1.5c0,0,0.1,0,0.1,0c0.2,0,0.4,0.1,0.6,0.2c0-0.5,0.1-0.9,0.3-1.3
				c0.2-0.6,0.5-0.9,0.6-0.9c0.1,0,0.1,0,0.2,0.1c0.1,0.1,0.2,0.2,0.4,0.3c0.1,0.1,0.2,0.1,0.3,0.2l0.3,0.3c0.2-0.6,0.5-1.1,0.9-1.5
				c0.4-0.4,0.5-0.5,0.6-0.5s0.1,0,0.2,0.1l0.3,0.5l0.5,0.5c0.2,0.2,0.3,0.6,0.3,0.9l0.3-0.2l0.5-0.3c0.1,0,0.2-0.1,0.3-0.2
				s0.1-0.1,0.2-0.1c0.1,0.1,0.1,0.1,0.1,0.2l0.2,0.7l0.4,0.7c0.1,0.2,0.1,0.5,0.1,0.7v0.2h0.2c0.6,0,1,0.7,1,1.4
				c-0.1,1.2-0.8,2.4-1.9,3c-0.1,0.3-0.1,0.5-0.1,0.8c0,2.3,0.6,2.7,4.1,3.3c0.8,0.1,1.5,0.3,2.3,0.5c0.1,0,0.9,0.3,2.3,0.7
				c0.5,0.2,1.1,0.4,1.7,0.4c0.4,0,0.7-0.1,0.7-0.3c0-0.4-0.6-0.7-2.3-1.4l-2.5-1c-2.5-1-3.7-2.5-3.7-4.8c0-2.5,2-4.6,4.5-4.6
				c0,0,0.1,0,0.1,0c1.2,0,2.3,0.3,3.4,0.7c1.8,0.7,1.9,0.7,2.1,0.7s0.5-0.2,0.6-0.7s0.2-0.6,0.4-0.6s0.7,0.3,1,0.9
				c0.2,0.5,0.4,1,0.4,1.5c0.1,0.9-0.5,1.6-1.4,1.7c-0.5,0.8-1.4,1.2-2.3,1.2c-1.1,0-1.7-0.2-3.6-1.4c-0.4-0.3-1-0.5-1.5-0.5
				c-0.7,0-1.2,0.4-1.2,1s0.4,0.9,1.4,1.1c0.4,0,0.7,0.2,0.9,0.5c0-0.2,0.1-0.2,0.2-0.2c1.1,0.1,2.2,0.5,3,1.3
				c1.8,0.5,3.1,2.1,3.3,4c0,1.8-1.4,3.2-3.2,3.3C78.8,71.4,78,71.3,77.3,71.1"/>
			<path id="_Path_6" class="st3" d="M30.1,30.3C30,30.1,30,29.8,30,29.6v-0.2l0.1-0.5v-0.4c0-0.3-0.1-0.6-0.2-0.9l-0.3-0.5
				c-0.1-0.2-0.2-0.3-0.3-0.5c0-0.1,0-0.1-0.1-0.2c0-0.1,0.1-0.2,0.2-0.2c0.1,0,0.1,0,0.4,0.2c0.1,0.1,0.2,0.1,0.3,0.1
				c0.2,0,0.3-0.3,0.3-0.8c0-0.3,0-0.7-0.2-1l-0.4-0.5l-0.5-0.3c-0.1-0.1-0.1-0.1-0.1-0.2c0-0.1,0.1-0.2,0.2-0.2
				c0.1,0,0.4,0.1,0.6,0.1h0.1c0.1,0,0.2-0.1,0.2-0.2v-0.7l-0.2-0.6c-0.1-0.2-0.1-0.2-0.2-0.2h-0.1L29.1,22H29
				c-1-0.1-1.9-0.8-2.2-1.8l-0.6-1.8c-0.3-0.7-0.8-1.3-1.4-1.7c-0.2-0.2-0.4-0.3-0.6-0.3l-0.5-0.1c-0.1,0-0.1,0-0.2-0.1
				c0-0.1,0.1-0.2,0.4-0.2l0.9,0.1c0.5,0.1,1,0.2,1.5,0.4c0.6,0.2,1.2,0.4,1.9,0.4c1.1,0.1,2.1-0.7,2.3-1.8c0-0.1,0-0.2,0-0.3
				c0-1-0.5-1.9-1.2-2.5c-0.2-0.3-0.6-0.5-0.9-0.6c-0.1,0-0.1,0.1-0.1,0.2v0.4l0,0c0,0.1-0.1,0.3-0.2,0.3s-0.3-0.2-0.5-0.6
				c-0.4-1-1.3-1.7-2.3-1.8c-0.2,0-0.3,0.1-0.3,0.2c0,0.1,0,0.3,0.1,0.4l0.2,0.5c0.1,0.1,0.1,0.2,0.1,0.3l-0.1,0.1
				c-0.2,0-0.4-0.1-0.5-0.3l-0.2-0.6l-0.4-0.6c-0.2-0.5-0.7-0.8-1.2-1c-0.2-0.1-0.5-0.2-0.7-0.4c-0.1-0.1-0.3-0.1-0.4-0.1
				c-0.1,0-0.1,0-0.2,0.1c0,0.1,0,0.2,0.1,0.3c0.1,0.2,0.2,0.4,0.3,0.6c0,0.1,0,0.1-0.1,0.2c-0.2,0-0.7-0.4-1.1-1.1
				c-0.3-0.5-0.5-1-0.5-1.6c0-1.1,0.9-2.1,2-2.1c0,0,0.1,0,0.1,0c0.7,0.1,1.5,0.3,2.1,0.7l1.3,0.8c0.5,0.3,1,0.5,1.6,0.5
				c0.2,0,0.6-0.1,0.8-0.1s0.2-0.1,0.3-0.1s0.1-0.1,0.1-0.2s0-0.1-0.1-0.1l-0.2-0.1l-0.6-0.1c-0.3,0-0.6-0.1-0.8-0.3
				c-0.5-0.2-1-0.4-1.4-0.7C25.3,5.2,25,5,24.7,4.9c-0.2-0.1-0.4-0.2-0.4-0.3s0-0.1,0.1-0.1c0.1,0,0.2,0,0.3,0.1
				C25,4.8,25.4,5,25.8,5L27,5.4c0.6,0.2,1.3,0.3,1.9,0.4c0.5,0,0.9-0.4,0.9-0.9c-0.1-0.4-0.2-0.9-0.5-1.2c-0.1-0.1-0.1-0.1-0.2-0.1
				c-0.1,0-0.2,0.1-0.2,0.2v0.5c0,0.4-0.2,0.7-0.6,0.7c-0.1,0-0.3,0-0.4-0.1L26,4.3c-1-0.4-2-0.6-3-0.7C21,3.5,19.2,5,19.1,7
				c0,0,0,0.1,0,0.1c0,2.3,1.6,3.7,5.5,5.1s4.4,1.7,4.4,2.7c-0.1,0.6-0.6,1.1-1.2,1.1c-0.2,0-0.5,0-0.7-0.1c-0.1,0-0.8-0.2-1.9-0.5
				c-1.1-0.3-2.3-0.4-3.5-0.4c-2.8,0-4.3,0.5-5.7,1.8c-0.3,0.3-0.4,0.4-0.8,0.4h-0.6c-0.3,0-0.6,0.2-0.8,0.5
				c-0.2,0.3-0.4,0.5-0.5,0.8c-0.1,0.1-0.2,0.2-0.3,0.2c-0.3,0-0.4-0.2-0.7-0.9c-0.1-0.3-0.3-0.7-0.6-0.9l-0.6-0.5
				c0.2-0.1,0.2-0.2,0.2-0.2c0-0.1,0-0.2,0.1-0.3c0.3-0.4,0.4-0.6,0.4-0.7c0.1-0.4,0.1-0.4,0.2-0.4s0.2,0.2,0.2,0.8
				c0,0.3,0.1,0.5,0.2,0.8l0.3,0.7c0,0.1,0.1,0.1,0.3,0.1s0.7-0.7,0.8-1.4s0.1-0.8,0.3-0.8c0.1,0,0.1,0,0.1,0.1v0
				c0.1,0.2,0.2,0.3,0.3,0.5c0.1,0.2,0.2,0.3,0.4,0.4c0.1,0.1,0.2,0.1,0.3,0.2l0,0c0.2,0,0.3-0.1,0.4-0.7v-1c0-0.2,0.1-0.3,0.2-0.3
				s0.1,0,0.2,0.1l0.3,0.3c0.2,0.2,0.4,0.3,0.6,0.3c0.2,0,0.4-0.1,0.4-0.3c-0.1-0.2-0.2-0.5-0.3-0.7l-0.2-0.4
				c-0.2-0.4-0.4-0.6-0.6-0.6h-0.3L15.6,13c-0.1,0-0.1,0-0.2,0.1c-0.1,0-0.1,0-0.1-0.1v0c0.1-0.4,0.2-0.8,0.5-1.2
				c0.3-0.7,0.5-1.4,0.5-2.2c0.1-1.5,0.3-2.5,0.5-2.5S17,7.2,17,7.5v0.7c0,0.2,0,0.3,0.1,0.5c0.2,0,0.5-0.4,0.8-1
				C18,7.5,18,7.3,18,7.1V7l-0.6-1.1l-0.6-0.2c-0.1,0-0.1,0-0.2-0.1V4.9l-0.2-0.1l-0.1-0.3l-0.1-0.3c-0.4,0.2-0.8,0.5-1.1,0.9
				c-0.2,0.3-0.3,0.4-0.5,0.4c-0.1,0-0.1,0-0.1-0.1c0,0,0,0,0,0c0-0.2,0-0.3,0.1-0.5V4.7c0-0.7-0.4-1.3-1-1.6l-0.3,0.2l-0.2,0.3
				L12.8,4c-0.1,0.2-0.2,0.4-0.3,0.6c0,0.1-0.1,0.2-0.1,0.3l0,0V5c0,0.2,0,0.3-0.1,0.3h-0.1L12,5l-0.3-0.3l-0.5-0.3l-0.3-0.2
				c0,0.1-0.1,0.2-0.1,0.3c-0.1,0.2-0.1,0.3-0.1,0.5v1.1c0,0.2-0.1,0.3-0.2,0.3s-0.2-0.1-0.3-0.1c-0.1-0.1-0.3-0.1-0.4-0.1
				c-0.4,0-0.7,0.3-0.7,0.7c0,0,0,0.1,0,0.1c0,0.5,0.2,1.1,0.5,1.5L10,9c0.1,0.1,0.2,0.1,0.3,0.2l0.1-0.6l-0.1-0.5V7.9
				c0-0.2,0.1-0.3,0.2-0.3s0.3,0.2,0.4,0.7l0.2,1.1l0.2,1.3c0.1,0.4,0.2,0.7,0.3,1.1c0.1,0.4,0.3,0.7,0.5,1c0.1,0.2,0.3,0.3,0.4,0.5
				c0,0.1,0,0.1-0.1,0.1h0c-0.1,0-0.1,0-0.3-0.1s-0.2-0.1-0.3-0.1h-0.2c-0.5,0-0.6,0.4-0.6,2.3c0,1.2,0.2,2.4,0.5,3.5l0.6,1.5
				c0.1,0.2,0.1,0.5,0.1,0.7c0,2.1-2.8,5.3-5.8,6.8c-1,0.4-1.6,1.3-1.6,2.3v0.4c0.3-0.2,0.7-0.3,1-0.4c0.8-0.2,1-0.3,1.1-0.7L7,29.2
				c0-0.1,0.1-0.2,0.8-0.5c0.2-0.1,0.4-0.2,0.5-0.4c0.1-0.1,0.2-0.3,0.3-0.4c0.1,0,0.1,0,0.1,0.1v0.1l-0.5,0.7V29
				c0,0.6,0.3,1.2,0.9,1.4c0-0.4,0.2-0.8,0.4-1.2l0.5-0.8c0.2-0.4,0.3-0.8,0.3-1.2c0-0.3,0-0.6-0.1-0.9v-0.2c0-0.1,0.1-0.2,0.2-0.2
				c0.1,0,0.2,0,0.2,0.1l0.1,0.5c0,0.1,0.1,0.2,0.3,0.2s0.6-0.3,1-1c0.1-0.2,0.2-0.5,0.2-0.8v-0.4l-0.1-0.4V24
				c0-0.1,0.1-0.3,0.2-0.3c0,0,0,0,0.1,0c0.1,0,0.1,0,0.1,0.1l0.2,0.7c0.1,0.2,0.2,0.4,0.4,0.4s0.5-0.3,0.7-0.7
				c0.2-0.4,0.3-0.8,0.3-1.2c0-0.6,0.1-0.8,0.3-0.8s0.1,0,0.1,0.1l0.1,0.4c0,0.1,0.1,0.2,0.2,0.2c0.1,0,0.4-0.3,0.6-0.7
				c0.1-0.1,0.1-0.2,0.1-0.3c0-0.1-0.1-0.2-0.3-0.4s-0.3-0.3-0.3-0.7c0-0.4,0.1-0.7,0.3-1c0.1-0.2,0.3-0.5,0.4-0.7
				c0.4-0.7,0.5-0.9,0.6-0.9c0.1,0,0.2,0.1,0.2,0.2c0,0.1,0,0.2-0.1,0.2c-0.1,0.1-0.1,0.2-0.1,0.3c0,0.1,0.1,0.2,0.2,0.2
				c0.2,0,0.3-0.1,0.5-0.2c0.3-0.1,0.5-0.2,0.8-0.3l0.9-0.3c0.2-0.1,0.4-0.1,0.6-0.1c0.2,0,0.3,0,0.5,0.1c0.2,0.1,0.5,0.1,0.7,0.1
				c0.3,0,0.5-0.2,0.5-0.4c0,0,0,0,0-0.1c-0.1-0.3-0.2-0.7-0.5-0.9c-0.1,0-0.1,0-0.1-0.1l0,0v-0.1c0-0.1,0.1-0.1,0.2-0.1
				s0.6,0.5,1,1.1c2.5,3.9,3.3,4.8,5,5.3s2.1,0.9,2.1,1.9c-0.1,0.7-0.4,1.4-0.9,2c-1.2,1.7-1.5,2.4-1.5,3.6v0.2
				c0.1-0.1,0.2-0.1,0.3-0.1c0.2-0.1,0.3-0.2,0.5-0.2l0.7-0.1c0.2,0,0.4-0.3,0.4-0.6v-0.1L28,29.1V29c0-0.2,0.1-0.5,0.3-0.6l0.1-0.1
				c0.1,0,0.2,0.1,0.2,0.2l0.5,1C29.3,29.9,29.7,30.1,30.1,30.3"/>
			<path id="_Path_7" class="st3" d="M7.1,9.6c-0.2,0-0.3,0.2-0.3,0.6l-0.1,0.5c-0.1,0.2-0.1,0.5-0.1,0.7c0,0.4,0.1,0.7,0.3,0.7
				s0.5-0.3,0.6-0.7c0.1-0.2,0.1-0.5,0.1-0.7c0-0.2,0-0.4-0.1-0.6C7.4,9.8,7.3,9.6,7.1,9.6"/>
			<path id="_Path_8" class="st3" d="M4.5,5.2v0.2C4.4,6,4.3,6.7,4.1,7.3C4,7.5,4,7.6,4,7.8C4,8,4.1,8.2,4.2,8.4l0.3,0.3l0.3,0.2
				l0.1,0.4c0,0.2,0,0.4,0.1,0.6c0.1,0.3,0.1,0.5,0.1,0.8c0,0.2,0,0.3-0.1,0.3s-0.3-0.3-0.5-0.7C4.2,9.6,4,9.4,3.6,9.4
				c-0.3,0-0.6,0-0.9,0.2c0.1,0.1,0.1,0.2,0.2,0.2C3,10,3.1,10.1,3.2,10.3l0.4,0.8C3.9,11.6,4,11.9,4.1,12c0.1,0.2,0.2,0.3,0.4,0.4
				c0.2,0.1,0.3,0.2,0.5,0.3c0.1,0.1,0.2,0.2,0.2,0.3c0,0.1-0.1,0.2-0.2,0.2l0,0l-0.4-0.1H4.4c-0.1,0-0.2,0.1-0.2,0.3
				c0.1,1,0.8,1.9,1.7,2.4C6,15.9,6.1,16,6.1,16.1c0,0.1-0.1,0.2-0.2,0.2c-0.1,0-0.2-0.1-0.4-0.1s-0.1-0.1-0.2-0.1s-0.2,0.1-0.2,0.3
				c0.1,0.5,0.3,0.9,0.5,1.3c0.2,0.4,0.6,0.7,1,0.9l1.3,0.5C8,19.1,8,19.2,8,19.3c0,0.1-0.1,0.2-0.2,0.2h-1c-0.2,0-0.2,0-0.2,0.1
				c0.1,0.3,0.2,0.6,0.4,0.9c0.3,0.5,0.6,0.8,0.7,0.8s0.1-0.1,0.2-0.1l0.3-0.7c0.2-0.2,0.5-0.4,0.7-0.6c0.2-0.2,0.5-0.3,0.8-0.3
				l0.5-0.1c0.1,0,0.2-0.1,0.2-0.3v-0.4l-0.1-0.6v-1.1c0-0.2-0.1-0.2-0.1-0.2S10,17,9.9,17.1C9.5,17.8,9.1,18,8.7,18
				C7.2,18,6,15.3,6,11.8c0-0.4,0-0.8,0.1-1.2c0.1-0.5,0.1-1,0.1-1.5c0.1-1.2-0.2-2.4-1-3.3L4.8,5.4L4.5,5.2z"/>
			<path id="_Path_9" class="st3" d="M8.2,26c-0.3,0-0.5-0.1-0.8-0.2c-0.1,0-0.2-0.1-0.5-0.2c-0.3-0.2-0.7-0.3-1.1-0.3
				c-0.5,0-0.9,0.2-1.2,0.5L4.9,26l0.6,0.4L6,26.8C6.1,26.9,6.3,27,6.5,27C6.9,27,7.4,26.7,8.2,26"/>
			<path id="_Path_10" class="st3" d="M19.1,31.2c0.1-0.3,0.3-0.5,0.6-0.7c0.8-0.7,1.2-1.2,1.2-1.6v-0.6c0-0.4,0.1-0.5,0.3-0.5
				s0.2,0,0.2,0.1l0.1,0.3c0,0.1,0.1,0.1,0.2,0.1c0.2,0,0.3-0.1,0.4-0.3l0.3-0.4c0.1-0.2,0.2-0.4,0.2-0.6c0-0.1,0-0.2-0.1-0.3
				c0-0.1-0.1-0.2-0.2-0.5c-0.1-0.1-0.1-0.3-0.1-0.4c0-0.1,0.1-0.3,0.2-0.3c0,0,0,0,0.1,0c0.1,0,0.2,0,0.2,0.1l0.2,0.3
				C23,26,23,26,23.1,26s0.2-0.1,0.3-0.2l0.2-0.5c0.1-0.1,0.1-0.2,0.1-0.3c0-0.1-0.1-0.2-0.3-0.3L23,24.5c-0.6-0.4-0.9-1.1-0.9-1.8
				c0-0.1,0-0.2,0.1-0.3l0.2-0.5c0.1-0.1,0.1-0.3,0.1-0.5c0-0.3-0.1-0.6-0.3-0.9l-0.4-0.6c-0.2-0.4-0.3-0.6-0.4-0.6h-0.1l-0.2,0.1
				l-0.2,0.4l-0.4,0.5l-0.4,0.2c-0.3,0.2-0.5,0.6-0.5,1c0,0.7,0.1,0.9,1.1,2.6c0.3,0.5,0.5,1,0.6,1.6c0,1.2-1,2-3.1,2.5l-1.3,0.3
				c-1,0.2-1.7,1-1.7,2c0.4-0.2,0.9-0.3,1.3-0.2H17c0.4,0,0.4,0,0.7-0.4c0.2-0.3,0.6-0.6,0.9-0.8l0.5-0.2l0.2-0.1h0.1
				c0.1,0,0.2,0,0.2,0.1c0,0.2-0.1,0.4-0.3,0.5c-0.3,0.3-0.5,0.7-0.5,1.1C18.8,30.8,18.9,31,19.1,31.2"/>
			<path id="_Path_11" class="st3" d="M15.5,26.8c0.3,0.2,0.6,0.5,0.9,0.8C16.7,28,16.7,28,17,28c0.1,0,0.3,0,0.4-0.1l0.3-0.1
				c0.5-0.1,0.6-0.2,0.6-0.3s0-0.2-0.1-0.2L17.9,27l-0.3-0.3c-0.3-0.2-0.6-0.3-0.9-0.3C16.3,26.4,15.8,26.5,15.5,26.8"/>
			<path id="_Path_12" class="st3" d="M24.8,28.3h0.9c0.6,0,1.1-0.5,1.2-1.1c0-0.2-0.2-0.3-0.5-0.3C25.5,26.9,25.1,27.3,24.8,28.3"
				/>
			<path id="_Path_13" class="st3" d="M83.2,30.3c-0.1-0.2-0.1-0.3-0.1-0.5v-0.4c0.1-0.4,0.1-0.7,0.1-1.1c0-0.2-0.1-0.4-0.2-0.6
				l-0.3-0.5c-0.2-0.2-0.3-0.5-0.3-0.8c0-0.2,0-0.2,0.2-0.2h0.1c0.1,0.1,0.2,0.1,0.3,0.1c0.1,0.1,0.2,0.1,0.3,0.1
				c0.2,0,0.3-0.3,0.3-0.8c0-0.7-0.1-1.1-0.6-1.4l-0.4-0.3c-0.1-0.1-0.1-0.1-0.1-0.2c0-0.1,0.1-0.2,0.2-0.2c0.1,0,0.2,0,0.3,0.1
				l0.3,0.1h0.1c0.1,0,0.1-0.1,0.1-0.2v-0.1l-0.1-0.6c-0.1-0.6-0.2-0.9-0.4-0.9l0,0L82.3,22h-0.1c-1-0.1-1.9-0.8-2.2-1.8l-0.5-1.8
				c-0.2-0.7-0.7-1.3-1.4-1.7c-0.2-0.2-0.4-0.3-0.6-0.3L77,16.3c-0.1,0-0.1,0-0.2-0.1c0-0.1,0.1-0.2,0.3-0.2c0.9,0,1.7,0.2,2.5,0.5
				c0.6,0.2,1.2,0.4,1.9,0.4c1.4,0,2.3-0.7,2.3-2c0-0.7-0.2-1.3-0.5-1.9c-0.4-0.5-0.8-0.9-1.3-1.3c-0.1-0.1-0.1-0.1-0.2-0.1
				c-0.1,0-0.1,0-0.1,0.1v0.4l0,0c0,0.1-0.1,0.3-0.2,0.3s-0.3-0.2-0.5-0.6c-0.3-1-1.2-1.7-2.2-1.8c-0.2,0-0.3,0.1-0.3,0.2
				s0.1,0.2,0.1,0.4c0.1,0.2,0.2,0.3,0.3,0.5c0,0.1,0,0.1,0.1,0.2c0,0.1,0,0.1-0.1,0.1c-0.2,0-0.4-0.1-0.5-0.3
				c-0.2-0.1-0.3-0.3-0.4-0.5L77.6,10c-0.3-0.4-0.7-0.7-1.1-1l-1-0.2c-0.1-0.1-0.3-0.1-0.4-0.1c-0.1,0-0.1,0-0.1,0.1
				c0,0.1,0,0.2,0.1,0.3c0.1,0.2,0.2,0.4,0.3,0.6c0,0.1,0,0.1-0.1,0.2c-0.2,0-0.6-0.4-1.1-1.1c-0.4-0.5-0.5-1-0.5-1.6
				c0-1.1,0.9-2.1,2-2.1c0,0,0.1,0,0.1,0c0.7,0.1,1.5,0.3,2.1,0.7l1.4,0.8c0.5,0.3,1,0.5,1.6,0.5c0.3,0,0.5,0,0.8-0.1
				c0.2,0,0.3-0.1,0.4-0.1s0.1-0.1,0.1-0.2c0-0.1-0.1-0.2-0.2-0.2c-1-0.2-1.9-0.6-2.8-1.1c-0.3-0.2-0.6-0.4-0.9-0.5
				c-0.2-0.1-0.4-0.2-0.4-0.3c0-0.1,0-0.1,0.1-0.1h0.2L79.4,5l1.2,0.4c0.6,0.2,1.3,0.3,1.9,0.4c0.5,0,0.9-0.4,0.9-0.9c0,0,0,0,0,0
				c0-0.3-0.1-0.6-0.2-0.8c-0.2-0.3-0.4-0.6-0.5-0.6s-0.2,0.1-0.2,0.3v0.5c0,0.4-0.2,0.6-0.5,0.6c-0.2,0-0.3,0-0.5-0.1l-1.9-0.6
				c-1-0.4-2-0.6-3-0.7c-2-0.1-3.8,1.4-3.9,3.4c0,0,0,0.1,0,0.1c0,2.3,1.6,3.7,5.6,5.1s4.4,1.7,4.4,2.7c-0.1,0.6-0.6,1.1-1.2,1.1
				c-0.2,0-0.5,0-0.7-0.1c-0.6-0.1-1.3-0.3-1.9-0.5c-1.1-0.3-2.3-0.4-3.5-0.4c-2.8,0-4.2,0.4-5.7,1.8c-0.2,0.3-0.6,0.4-0.9,0.4h-0.6
				c-0.3,0-0.6,0.2-0.8,0.5l-0.5,0.8c-0.1,0.1-0.2,0.2-0.3,0.2c-0.3,0-0.5-0.2-0.7-0.9c-0.1-0.4-0.3-0.7-0.6-0.9l-0.6-0.5
				c-0.1-0.1-0.1-0.1-0.1-0.2c0-0.1,0-0.2,0.1-0.3c0.1-0.1,0.2-0.3,0.3-0.4c0.1-0.1,0.1-0.2,0.1-0.3v-0.3c0-0.1,0.1-0.1,0.2-0.1
				s0.2,0.1,0.2,0.8c0,0.3,0.1,0.5,0.2,0.8L66,17c0,0.1,0.1,0.1,0.3,0.1s0.7-0.7,0.8-1.4s0.1-0.8,0.3-0.8s0.2,0.1,0.4,0.6
				c0.1,0.2,0.2,0.3,0.3,0.4c0.1,0.1,0.2,0.1,0.3,0.2l0,0c0.2,0,0.3-0.1,0.4-0.7v-0.3l-0.1-0.3v-0.3c0-0.2,0.1-0.3,0.2-0.3
				s0.1,0,0.2,0.1l0.3,0.3c0.2,0.2,0.4,0.3,0.6,0.3c0.2,0,0.4-0.1,0.4-0.3s0-0.2-0.3-0.6l-0.2-0.4c-0.3-0.5-0.4-0.6-0.6-0.6H69
				l-0.4,0.1c-0.1,0-0.1,0-0.2,0.1l-0.1-0.1c0.1-0.4,0.2-0.8,0.5-1.2c0.3-0.7,0.5-1.4,0.5-2.2l0.1-1.3c0.1-0.8,0.2-1.1,0.3-1.1
				s0.1,0,0.1,0.1l0.1,0.4v0.3c0,0.4,0,0.7,0.1,0.7s0.3-0.1,0.5-0.4l0.3-0.6c0.1-0.2,0.1-0.5,0.1-0.7c0-0.7-0.3-0.9-1.2-1.2
				c-0.1,0-0.1-0.1-0.2-0.1v-1l-0.1-0.3l-0.1-0.3l-0.2,0.1c-0.3,0.2-0.6,0.4-0.9,0.7c-0.3,0.3-0.4,0.4-0.5,0.4c-0.1,0-0.1,0-0.1-0.1
				l0.1-0.5V4.7c-0.1-0.7-0.4-1.3-1-1.7l-0.2,0.2l-0.2,0.4L66,4c-0.2,0.2-0.3,0.5-0.3,0.8V5c0,0.2,0,0.3-0.1,0.3h-0.1L65.3,5L65,4.7
				l-0.5-0.3l-0.3-0.2c-0.3,0.4-0.4,0.9-0.3,1.4v0.2c0,0.3-0.1,0.4-0.2,0.4c-0.1,0-0.2,0-0.3-0.1C63.3,6,63.1,6,63,6
				c-0.4,0-0.7,0.4-0.7,0.8c0,0.5,0.2,1,0.5,1.4c0.2,0.4,0.5,0.7,0.7,0.7c0.1-0.2,0.1-0.4,0.1-0.6l-0.1-0.5V7.6
				c0-0.2,0.1-0.3,0.2-0.3S64,7.5,64.1,8l0.2,1.1l0.2,1.3c0.1,0.4,0.2,0.7,0.3,1.1c0.1,0.4,0.3,0.7,0.5,1c0.3,0.4,0.3,0.5,0.3,0.5
				c0,0.1,0,0.1-0.1,0.1c-0.1,0-0.1,0-0.3-0.1s-0.2-0.1-0.3-0.1h-0.2c-0.5,0-0.6,0.4-0.6,2.3c0,1.2,0.2,2.4,0.5,3.5l0.6,1.5
				c0.1,0.2,0.1,0.5,0.1,0.7c0,2.1-2.8,5.4-5.8,6.8c-1.2,0.6-1.5,1.1-1.6,2.7c0.5-0.2,0.7-0.3,1-0.4c0.8-0.2,1-0.4,1.1-0.7l0.1-0.4
				c0-0.2,0.2-0.2,0.7-0.5c0.2-0.1,0.4-0.2,0.5-0.4c0.1-0.1,0.2-0.3,0.3-0.4c0.1,0,0.1,0,0.1,0.1l0,0l-0.3,1.1V29
				c0,0.6,0.3,1.2,0.9,1.4c0-0.1,0-0.2,0.1-0.3c0.1-0.3,0.2-0.6,0.3-0.9l0.5-0.8c0.2-0.3,0.2-0.5,0.2-1.2v-1.1
				c0-0.1,0.1-0.2,0.2-0.2c0.1,0,0.2,0,0.2,0.1l0.1,0.5c0,0.1,0.1,0.2,0.3,0.2s0.6-0.3,1-1c0.1-0.2,0.2-0.5,0.2-0.7
				c0-0.3,0-0.6-0.1-0.9v-0.2c0-0.1,0.1-0.2,0.2-0.2c0.1,0,0.1,0,0.1,0.1l0.2,0.7c0.1,0.2,0.2,0.4,0.4,0.4c0.4,0,0.9-0.9,0.9-1.9
				c0-0.6,0.1-0.8,0.3-0.8s0.1,0,0.1,0.1l0.1,0.4c0,0.1,0.1,0.2,0.2,0.2c0.1,0,0.2-0.1,0.4-0.3c0.1-0.1,0.2-0.2,0.3-0.4
				c0.1-0.1,0.1-0.2,0.1-0.3c0-0.1,0-0.2-0.3-0.4c-0.2-0.2-0.3-0.4-0.3-0.6c0.1-0.6,0.3-1.2,0.7-1.7c0.5-0.8,0.5-0.9,0.6-0.9
				c0.1,0,0.2,0.1,0.2,0.2c0,0.1,0,0.2-0.1,0.3c-0.1,0.1-0.1,0.2-0.1,0.3c0,0.1,0.1,0.2,0.2,0.2c0.2,0,0.3-0.1,0.5-0.2
				c0.2-0.2,0.5-0.3,0.8-0.3c0.3-0.1,0.7-0.2,1-0.3c0.2-0.1,0.4-0.1,0.6-0.1c0.2,0,0.3,0,0.5,0.1c0.2,0.1,0.5,0.1,0.7,0.1
				c0.3,0,0.5-0.2,0.5-0.4c0,0,0,0,0-0.1c0-0.2-0.1-0.3-0.2-0.5c-0.1-0.2-0.2-0.4-0.3-0.4s-0.2-0.2-0.2-0.3v-0.1
				c0-0.1,0.1-0.1,0.2-0.1s0.7,0.5,1.1,1.1c2.2,3.6,3.3,4.8,5,5.3s2.1,0.9,2.1,1.9c-0.1,0.7-0.4,1.4-0.9,2c-1.1,1.6-1.5,2.5-1.5,3.6
				v0.2c0.1-0.1,0.2-0.1,0.3-0.1c0.2-0.1,0.3-0.2,0.5-0.2l0.7-0.1c0.2,0,0.4-0.3,0.4-0.6v-0.1l-0.1-0.6V29c0-0.4,0.2-0.6,0.4-0.6
				c0.1,0,0.2,0.1,0.2,0.2l0.5,1C82.4,29.8,82.6,30,83.2,30.3"/>
			<path id="_Path_14" class="st3" d="M59.9,10.7v0.8c0,0.5,0.1,0.7,0.2,0.7s0.5-0.4,0.6-0.7c0.1-0.3,0.1-0.5,0.1-0.8
				c0-0.2,0-0.3-0.1-0.5c-0.1-0.3-0.3-0.5-0.4-0.5C60,9.6,59.9,9.9,59.9,10.7"/>
			<path id="_Path_15" class="st3" d="M57.6,5.2v0.2c0,0.4-0.1,0.8-0.2,1.2c-0.1,0.2-0.1,0.5-0.1,0.7c0,0.2-0.1,0.3-0.1,0.5
				c0,0.4,0.2,0.7,0.5,0.9L58,8.9l0.1,0.4c0,0.2,0,0.4,0.1,0.6c0.1,0.3,0.1,0.6,0.1,0.9c0,0.2,0,0.3-0.1,0.3s-0.3-0.3-0.5-0.7
				c-0.3-0.7-0.5-0.9-0.9-0.9c-0.3,0-0.6,0-0.9,0.2c0.4,0.5,0.6,1,0.8,1.5c0.5,1,0.6,1.2,1.3,1.6c0.2,0.1,0.3,0.2,0.3,0.3
				s-0.1,0.2-0.3,0.2c-0.1,0-0.3,0-0.4-0.1h-0.2c-0.1,0-0.2,0.1-0.2,0.3c0.1,1,0.8,1.9,1.7,2.4c0.1,0.1,0.2,0.2,0.2,0.3
				c0,0.1,0,0.1-0.1,0.1c-0.1,0.1-0.1,0.1-0.2,0.1c-0.1,0-0.2,0-0.3-0.1c-0.1,0-0.1,0-0.2-0.1c-0.1,0-0.2,0.1-0.2,0.3
				c0.1,0.4,0.2,0.8,0.5,1.2c0.2,0.4,0.5,0.7,0.9,0.9l1.3,0.5c0.1,0,0.1,0.1,0.1,0.2c0,0.1-0.1,0.2-0.2,0.2h-0.9
				c-0.2,0-0.2,0-0.2,0.1c0.1,0.3,0.2,0.6,0.4,0.9c0.3,0.5,0.5,0.8,0.7,0.8s0.1-0.1,0.2-0.1l0.3-0.7c0-0.1,0.3-0.3,0.7-0.6
				c0.2-0.2,0.5-0.3,0.8-0.3c0.7-0.1,0.7-0.1,0.7-0.4c0-0.2,0-0.4-0.1-0.6c-0.1-0.2-0.1-0.4-0.1-0.6l-0.1-0.5L63,16.9
				c0-0.2,0-0.2-0.1-0.2c-0.1,0-0.2,0.1-0.2,0.2c-0.2,0.5-0.7,0.8-1.2,0.9c-1.6,0-2.7-2.5-2.7-6.3v-1.1l0.1-1.3V8.6
				c0-1.1-0.3-2.1-1-2.9l-0.4-0.4L57.6,5.2z"/>
			<path id="_Path_16" class="st3" d="M61.3,26c-0.5-0.1-1-0.2-1.4-0.4c-0.3-0.2-0.7-0.3-1.1-0.3c-0.5,0-0.9,0.2-1.2,0.5l0.3,0.2
				l0.6,0.4l0.5,0.4c0.1,0.1,0.3,0.2,0.5,0.2C60.1,27,60.5,26.7,61.3,26"/>
			<path id="_Path_17" class="st3" d="M72.3,31.2c0.1-0.3,0.3-0.5,0.6-0.7c0.8-0.7,1.2-1.2,1.2-1.6v-0.6c0-0.4,0.1-0.5,0.3-0.5
				s0.1,0,0.2,0.1l0.1,0.3c0,0.1,0.1,0.1,0.2,0.1s0.3-0.1,0.7-0.7c0.1-0.2,0.2-0.4,0.2-0.6c0-0.1,0-0.2-0.1-0.3
				c0-0.1-0.1-0.2-0.2-0.5c-0.1-0.1-0.2-0.2-0.2-0.4c0-0.1,0.1-0.3,0.2-0.3c0,0,0,0,0.1,0c0.1,0,0.2,0,0.2,0.1l0.2,0.3
				c0,0.1,0,0.1,0.1,0.1c0.2,0,0.3-0.1,0.4-0.2l0.2-0.5c0.1-0.1,0.1-0.2,0.1-0.3c0-0.1-0.1-0.2-0.2-0.3l-0.4-0.2
				c-0.6-0.4-0.9-1.1-0.9-1.8c0-0.1,0-0.3,0.1-0.4l0.2-0.5c0.1-0.2,0.1-0.3,0.1-0.5c0-0.3-0.1-0.6-0.3-0.9c-0.1-0.2-0.2-0.4-0.3-0.6
				c-0.2-0.4-0.3-0.6-0.4-0.6c-0.1,0-0.3,0-0.4,0.1L74,19.8l-0.4,0.5l-0.4,0.2c-0.3,0.3-0.5,0.7-0.5,1.1c0,0.6,0.1,1,1.1,2.6
				c0.3,0.5,0.5,1,0.6,1.6c0,1.2-1.2,2.1-3.1,2.5c-2.3,0.5-2.8,0.9-3.1,2.3c0.4-0.2,0.9-0.3,1.3-0.2H70c0.4,0,0.4,0,0.7-0.4
				c0.2-0.3,0.6-0.6,0.9-0.8l0.5-0.2l0.4-0.2h0.1c0.1,0,0.2,0,0.2,0.1c0,0.2-0.1,0.4-0.3,0.5c-0.2,0.2-0.4,0.6-0.4,0.9
				C72,30.6,72.1,31,72.3,31.2"/>
			<path id="_Path_18" class="st3" d="M68.7,26.8c0.3,0.2,0.6,0.5,0.9,0.8c0.3,0.4,0.3,0.4,0.6,0.4c0.1,0,0.3,0,0.4-0.1l0.3-0.1
				c0.5-0.1,0.6-0.2,0.6-0.3s0-0.2-0.1-0.2L71.1,27l-0.3-0.3c-0.3-0.2-0.6-0.3-0.9-0.3C69.5,26.4,69,26.5,68.7,26.8"/>
			<path id="_Path_19" class="st3" d="M77.9,28.3h0.9c0.2,0,0.4,0,0.6-0.1c0.2-0.2,0.4-0.4,0.5-0.7c0.1-0.1,0.1-0.2,0.1-0.3
				c0-0.2-0.2-0.3-0.5-0.3C78.7,26.9,78.2,27.3,77.9,28.3"/>
			<path id="_Path_20" class="st3" d="M27.3,88.5l0.2-0.3l0.4-0.4c0.3-0.4,0.5-1,0.5-1.5c0-0.3,0-0.6-0.1-0.9
				c-0.1-0.2-0.1-0.3-0.1-0.5c0-0.1,0.1-0.3,0.2-0.3c0,0,0,0,0.1,0c0.1,0,0.1,0,0.2,0.1l0.4,0.5c0.3,0.3,0.4,0.4,0.7,0.4v-0.9
				c0-0.7-0.2-1.3-0.6-1.9c-0.1-0.2-0.2-0.4-0.3-0.6c0-0.1,0.1-0.2,0.2-0.2c0.1,0,0.1,0,0.1,0.1c0.3,0.2,0.4,0.3,0.5,0.3
				s0.3-0.3,0.3-0.7c0-0.6-0.2-1.2-0.6-1.6c-0.1-0.1-0.2-0.3-0.3-0.4C29,79.6,29,79.6,29,79.5c0-0.1,0.1-0.2,0.2-0.2
				c0.1,0,0.3,0,0.4,0.1c0.1,0.1,0.1,0.1,0.2,0.1c0.2,0,0.3-0.3,0.3-1.2v-0.9c0-0.6-0.1-0.7-0.3-0.7h-0.2c-1.4,0-2-0.9-2.4-3.2
				c-0.3-1.7-0.9-2.9-1.7-3.2c-0.5-0.2-0.6-0.3-0.6-0.4s0.1-0.2,0.3-0.2c0.2,0,0.3,0.1,0.5,0.1c0.9,0.4,1.9,0.7,2.9,0.7
				c1.3,0.1,2.3-0.9,2.4-2.2c0,0,0-0.1,0-0.1c0-1.1-0.5-2.1-1.3-2.8c-0.2-0.2-0.4-0.3-0.7-0.4h-0.2l0.1,0.4l0.1,0.3v0.1
				c0,0.1,0,0.1-0.1,0.1c-0.1,0-0.2,0-0.2-0.1L28.2,65c-0.5-0.6-1.2-1-2-1.1c-0.2,0-0.4,0.1-0.4,0.3s0.1,0.2,0.2,0.3
				c0.1,0.1,0.2,0.3,0.3,0.4V65c0,0.1,0,0.1-0.1,0.1l0,0c-0.1,0-0.2-0.1-0.8-0.8c-0.5-0.6-1.3-1-2.1-1.1c-0.1,0-0.2,0-0.2,0.1
				L23,63.4c0,0.1,0.1,0.2,0.2,0.3c0.1,0.1,0.2,0.3,0.3,0.4c0,0.1-0.1,0.1-0.2,0.1s-0.5-0.2-1.2-0.8c-0.9-0.5-1.5-1.5-1.5-2.5
				c-0.1-1,0.8-1.9,1.8-2c0.7,0,1.4,0.3,1.9,0.7l1.4,1.1c0.6,0.5,1.4,0.7,2.2,0.7c0.2,0,0.3,0,0.5-0.1c0.1-0.1,0.2-0.1,0.2-0.2
				C28.5,61,28.4,61,28.3,61c-0.4-0.1-0.8-0.3-1.2-0.5l-1.4-1.1c-0.3-0.3-0.7-0.6-1.1-0.8c-0.8-0.4-0.9-0.5-0.9-0.6
				c0.1-0.1,0.1-0.1,0.2-0.1c0.1,0,0.2,0,0.2,0.1l0.7,0.3c0.4,0.2,0.8,0.4,1.2,0.7c0.9,0.8,2,1.2,3.2,1.3c0.8,0,1.5-0.6,1.5-1.4
				c0,0,0,0,0,0c0-0.2,0-0.3-0.1-0.5l-0.1-0.3c0-0.1-0.1-0.2-0.2-0.1l-0.1,0.1l-0.1,0.6c0,0.1,0,0.1-0.1,0.2
				c-0.1,0.1-0.1,0.2-0.2,0.3s-0.3,0.2-0.5,0.2c-0.4,0-0.9-0.2-2.3-1.1c-1-0.7-2.2-1.2-3.5-1.3c-2,0-3.7,1.7-3.7,3.7
				c0,2.9,1.7,4.1,7.2,5.3c2.1,0.4,3,1.1,3,2s-0.7,1.4-1.8,1.4c-0.3,0-0.5,0-0.8-0.1c-0.2,0-1.2-0.3-2.9-0.8
				C23.3,68.2,22,68,20.7,68c-2.1,0-3.6,0.6-4.6,2c-0.1,0.2-0.2,0.3-0.3,0.3s-0.1,0-0.2-0.1l-0.4-0.3c-0.3-0.2-0.6-0.4-1-0.4
				c-0.2,0-0.4,0.1-0.6,0.2c-0.1,0.1-0.2,0.2-0.3,0.2s-0.5-0.4-0.7-0.8c-0.3-0.6-0.5-1.2-0.5-1.9c0-0.3,0.1-0.5,0.2-0.5
				c0.1,0,0.2,0.1,0.2,0.2l0.2,0.8c0.1,0.5,0.4,0.8,0.6,0.8s0.2-0.1,0.4-0.3c0.1-0.1,0.2-0.2,0.2-0.4c0.2-0.5,0.2-0.6,0.4-0.6
				s0.3,0.1,0.4,0.6c0,0.1,0.1,0.2,0.2,0.5c0.1,0.2,0.2,0.3,0.3,0.5c0.1,0.1,0.2,0.1,0.3,0.1c0.2,0,0.5-0.4,0.5-0.9v-0.6
				c0-0.2,0-0.3,0.1-0.3s0.1,0,0.2,0.1c0.1,0.2,0.3,0.3,0.5,0.4c0.1,0.1,0.3,0.1,0.4,0.1c0.1,0,0.2-0.1,0.3-0.1
				c0.1-0.1,0.1-0.1,0.1-0.2c0-0.1-0.1-0.2-0.4-0.5c-0.3-0.3-0.5-0.7-0.6-1.1c-0.2,0.1-0.3,0-0.4,0c-0.1,0-0.1,0-0.2,0.1L15.6,66
				l-0.3,0.1h-0.1c-0.1,0-0.2-0.1-0.2-0.2c0-0.1,0.3-0.4,0.6-0.7c0.2-0.2,0.4-0.5,0.4-0.8c0-0.5,0.1-0.9,0.2-0.9l0.1-1
				c0-0.7,0.2-1.4,0.4-2c0-0.1,0-0.1,0.1-0.2c0.1,0,0.2,0.2,0.2,0.4v0.4c0,0.4,0.1,0.5,0.2,0.5s0.3-0.2,0.4-0.5l0.3-0.7
				c0.1-0.2,0.1-0.3,0.1-0.5c0-0.6-0.3-1-0.8-1H17c-0.1,0-0.1,0-0.2,0.1c-0.2-0.1-0.3-0.2-0.3-0.4v-1l-0.2-0.2v-0.3L16,57.2
				l-0.3,0.3l-0.5,0.4l-0.4,0.3c-0.1,0.1-0.1,0.1-0.2,0.1s-0.2-0.1-0.2-0.5v-0.1c0-0.4-0.2-0.6-0.7-1.3c-0.1-0.1-0.1-0.1-0.1-0.2
				l-0.1,0.2l-0.3,0.5l-0.3,0.8l-0.1,0.5c0,0.1-0.1,0.2-0.1,0.3c-0.1,0-0.2-0.1-0.3-0.2c-0.3-0.4-0.7-0.7-1.2-0.8l-0.1,0.2
				c-0.1,0.2-0.1,0.4-0.2,0.6v0.9c0,0.2-0.1,0.2-0.1,0.2l0,0c-0.1-0.1-0.1-0.1-0.2-0.1c-0.1-0.1-0.2-0.1-0.3-0.1
				c-0.4-0.1-0.8,0.3-0.9,0.7c0,0.3,0.1,0.6,0.6,1.4c0.1,0.3,0.3,0.5,0.6,0.6c0.1,0,0.1-0.2,0.1-0.4v-0.3c-0.1-0.1-0.1-0.3-0.1-0.4
				c0-0.2,0-0.2,0.1-0.2c0.3,0,0.5,0.7,0.6,1.8l0.1,1.1c0,0.4,0.1,0.8,0.3,1.1c0.2,0.4,0.4,0.8,0.7,1.1c0.3,0.2,0.4,0.4,0.4,0.5
				c0,0.1,0,0.1-0.1,0.2c-0.2-0.1-0.4-0.2-0.6-0.2h-0.2c-0.6,0-0.8,0.3-0.8,1.3c0.1,1.4,0.7,2.7,1.7,3.6l1.3,1.1
				c0.7,0.5,1.1,1.3,1.2,2.1c0,0.8-0.9,1.7-2.5,2.2l-0.9,0.3c-0.7,0.3-1,0.7-1.3,2.1c0.3-0.1,0.5-0.1,0.8-0.1h0.5
				c0.4,0,0.7-0.2,0.7-0.6v-0.3c0-0.1,0.1-0.2,0.3-0.3c0.1,0,0.3-0.1,0.4-0.2l0.3-0.3c0.1,0,0.1-0.1,0.2-0.1c0.1,0,0.2,0.1,0.2,0.2
				c0,0.1,0,0.2-0.1,0.3c-0.1,0.3-0.1,0.7-0.1,1c-0.1,0.6,0.1,1.2,0.5,1.6c0-0.2,0.1-0.3,0.1-0.4s0.2-0.4,0.5-0.8
				c0.4-0.5,0.6-1.1,0.7-1.7v-0.1l-0.1-0.7c0-0.1,0-0.2,0.1-0.3c0.1-0.1,0.1-0.1,0.2-0.1s0.2,0.1,0.3,0.3c0.1,0.2,0.1,0.3,0.2,0.3
				s0.3-0.3,0.4-0.6c0.1-0.2,0.1-0.4,0.1-0.6c0-0.1,0-0.3-0.1-0.4c-0.1-0.1-0.1-0.2-0.1-0.3c0-0.1,0-0.1,0.1-0.2l0.1-0.1
				c0.1,0,0.1,0,0.2,0.1l0.3,0.2c0.1,0.1,0.1,0.1,0.2,0.1c0.2,0,0.3-0.1,0.4-0.3c0.2-0.3,0.3-0.5,0.4-0.8c0-0.1,0-0.1-0.2-0.2
				c-0.5-0.3-0.9-0.9-0.9-1.5c0-0.1,0-0.3,0.1-0.4l0.3-0.8c0-0.2,0.1-0.4,0.2-0.6h0.1c0.1,0,0.2,0.1,0.2,0.2c0,0.1,0,0.2-0.1,0.3
				c-0.1,0.2-0.1,0.3-0.1,0.5c0,0.1,0.1,0.3,0.2,0.3c0,0,0,0,0.1,0c0.2,0,0.3,0,0.5-0.1c0.6-0.3,1.3-0.5,2-0.6c0.4,0,0.7,0.1,1,0.4
				c0.1,0.1,0.2,0.1,0.3,0.1c0.1,0,0.1,0,0.2-0.1l0.1-0.1c0-0.1-0.1-0.2-0.2-0.4s-0.2-0.3-0.2-0.4s0.1-0.1,0.2-0.1
				c0.4,0,1.1,1.4,1.8,3.7c0.5,1.8,0.7,1.9,2.4,2.9c1.4,0.8,2,1.6,2,2.9c-0.1,1.7-0.5,3.5-1.1,5.1c-0.2,0.5-0.3,1-0.3,1.5
				c0.1,0.5,0.2,0.9,0.3,1.4c0.1,0.4,0.2,0.6,0.2,0.7C27.1,88.1,27.2,88.3,27.3,88.5"/>
			<path id="_Path_21" class="st3" d="M20.7,84.5c0.1-0.3,0.3-0.7,0.5-1c0.3-0.4,0.6-0.9,0.6-1.4v-0.5c0-0.4,0.1-0.6,0.2-0.6
				s0.1,0,0.2,0.1l0.1,0.2c0,0.1,0.1,0.1,0.2,0.1s0.2-0.1,0.3-0.2c0.2-0.3,0.3-0.6,0.3-1v-0.6c0-0.2,0.1-0.2,0.2-0.2s0.2,0,0.2,0.3
				c0.1,0.1,0.1,0.2,0.2,0.2c0.1,0,0.2-0.1,0.2-0.2l0.2-0.3l0.2-0.3V79c0-0.1-0.1-0.2-0.2-0.3c-0.6-0.5-0.9-1.2-0.8-2
				c0-0.8-0.1-1.3-0.1-1.6c-0.1-0.4-0.3-0.8-0.5-1.2c-0.1-0.3-0.2-0.6-0.3-1s-0.1-0.3-0.4-0.3c-0.8,0-1.4,0.7-1.4,1.5c0,0,0,0,0,0
				c0.1,0.8,0.3,1.6,0.6,2.3c0.4,0.7,0.6,1.6,0.7,2.4c0,1-0.4,1.5-1.9,2c-1.4,0.3-2.5,1.5-2.7,2.9c0.1,0,0.2-0.1,0.3-0.1
				c0.1-0.1,0.3-0.1,0.4-0.1l0.5-0.1c0.3-0.1,0.6-0.2,0.8-0.5l0.1-0.4c0-0.1,0.1-0.2,0.2-0.2l0.3-0.1l0.3-0.1l0.1,0.1v0.2
				c-0.1,0.2-0.1,0.5-0.1,0.7C20.2,83.6,20.3,84.1,20.7,84.5"/>
			<path id="_Path_22" class="st3" d="M5.4,58.1c0,0.1,0,0.2,0.1,0.3c0,0.2,0,0.5-0.1,0.7l-0.1,0.7c0,0.5,0.1,1,0.3,1.5
				c0.1,0.2,0.2,0.5,0.2,0.7v0.1c0,0.1,0,0.1-0.1,0.2c-0.1,0-0.2-0.1-0.3-0.2c-0.3-0.3-0.7-0.4-1.1-0.4c-0.2,0-0.3,0-0.5,0.1
				l0.1,0.3l0.4,1.1l0.6,0.9l0.6,0.4c0.1,0,0.1,0.1,0.2,0.2s0.1,0.1,0.1,0.2s0,0.1-0.1,0.1H5.1C5,65,5,65,4.9,65.1
				c0,0.1,0.1,0.4,0.2,0.8l0.3,0.8l0.5,0.5l0.5,0.4c0.1,0.1,0.2,0.2,0.2,0.3s0,0.2-0.1,0.2H6.2c-0.1,0-0.1,0.1-0.1,0.2
				c0.1,0.4,0.3,0.8,0.6,1.1C7,69.9,7.5,70.2,8,70.2h0.4c0.1,0,0.3,0.1,0.3,0.2c0,0,0,0,0,0.1c0,0.1-0.1,0.2-0.3,0.3
				C8,70.9,7.9,71,7.9,71.1c0,0.1,0,0.2,0.1,0.3l0.2,0.3c0.2,0.3,0.4,0.4,0.5,0.4c0.2,0,0.3-0.1,0.4-0.3c0.2-0.3,0.5-0.5,0.9-0.6
				c1-0.3,1.2-0.4,1.2-0.6c0-0.1,0-0.2-0.1-0.3c-0.3-0.4-0.4-0.9-0.4-1.4c0-0.4-0.1-0.6-0.2-0.6s-0.1,0.1-0.2,0.2
				c-0.2,0.4-0.6,0.6-1,0.6c-1,0-2.2-1.5-2.8-3.6c-0.1-0.5-0.2-1-0.2-1.5c0-0.6,0.1-1.1,0.2-1.7c0.1-0.5,0.2-0.9,0.3-1.4v-0.4
				C7.1,59.8,6.4,58.9,5.4,58.1"/>
			<path id="_Path_23" class="st3" d="M7.4,62.1C7.2,62.7,7,63.3,7,64c0,0.3,0.1,0.6,0.2,0.6c0.1-0.1,0.1-0.1,0.2-0.1l0.3-0.6
				c0.1-0.1,0.1-0.2,0.2-0.3s0.2-0.3,0.2-0.4C8.1,62.7,7.9,62.3,7.4,62.1"/>
			<path id="_Path_24" class="st3" d="M10.6,75l0.1,0.1l0.2,0.2c0.6,0.6,0.6,0.6,0.9,0.6c0.4,0,0.8-0.1,1.1-0.3
				c0.1-0.1,0.2-0.1,0.2-0.2l-0.3-0.3l-0.3-0.3c-0.2-0.2-0.5-0.3-0.8-0.4C11.3,74.5,10.9,74.7,10.6,75"/>
			<path id="_Path_25" class="st3" d="M17.2,80.1c0.2,0.1,0.4,0.2,0.6,0.3c0.3,0.2,0.4,0.3,0.5,0.3s0.2,0.1,0.4,0.1
				c0.1,0,0.2,0,0.3-0.1l0.6-0.2l0.6-0.2c0.2-0.1,0.3-0.1,0.3-0.2c-0.1-0.1-0.2-0.1-0.3-0.2c-0.1,0-0.3-0.1-0.4-0.1
				c-0.3-0.2-0.7-0.3-1.1-0.3C18.1,79.4,17.6,79.6,17.2,80.1"/>
			<path id="_Path_26" class="st3" d="M24.4,85.8c0.2-0.5,0.3-0.5,1-0.6s1.4-1.4,1.4-2.2c0-0.1,0-0.2-0.1-0.2c-0.1,0-0.1,0-0.2,0.1
				c-0.2,0.1-0.3,0.2-0.4,0.3l-0.8,0.4c-0.6,0.3-1,0.9-1,1.6C24.2,85.3,24.3,85.5,24.4,85.8"/>
			<path id="_Path_27" class="st3" d="M76.3,79l0.1-0.3l0.1-0.4c0-0.1,0.1-0.2,0.3-0.5c0.3-0.4,0.4-0.9,0.4-1.4c0-0.2,0-0.3-0.1-0.5
				C77,75.8,77,75.7,77,75.6c0-0.1,0-0.1,0.1-0.1l0.1-0.1l0,0c0.1,0,0.2,0.1,0.3,0.2s0.2,0.2,0.3,0.2s0.3-0.2,0.3-0.5
				c0-0.1,0-0.2,0.1-0.3c0-0.3-0.1-0.6-0.3-0.8c-0.1-0.1-0.1-0.2-0.1-0.3c0-0.1,0.1-0.2,0.2-0.2c0.1,0,0.2,0.1,0.4,0.2
				s0.1,0.1,0.2,0.1s0.3-0.2,0.4-0.6c0.1-0.1,0.1-0.3,0.1-0.4c0-0.1,0-0.1-0.1-0.1h-0.4c-0.6-0.1-1.2-0.3-1.6-0.8l-0.8-1
				c-0.3-0.4-0.7-0.9-0.7-0.9l-0.6-0.4l-0.2-0.2c0-0.1,0.1-0.2,0.3-0.2s0.6,0.2,1.5,0.5c0.9,0.3,1.9,0.5,2.9,0.6
				c1.4,0,2.5-1,2.5-2.4c-0.1-0.9-0.5-1.7-1.1-2.3c-0.1-0.2-0.3-0.3-0.5-0.3c-0.1,0-0.2,0.1-0.2,0.2c0,0.1,0,0.2,0.1,0.3
				c0,0.1,0.1,0.2,0.1,0.3s0,0.2-0.1,0.2s-0.4-0.3-0.5-0.8c-0.3-0.7-0.8-1.2-1.4-1.5c-0.3-0.2-0.7-0.3-1.1-0.4c-0.1,0-0.1,0-0.1,0.1
				c0,0.1,0,0.2,0.1,0.3c0.1,0.2,0.2,0.3,0.2,0.5l0,0c0,0.1-0.1,0.2-0.2,0.2c-0.2,0-0.2,0-0.6-0.7c-0.3-0.4-0.8-0.8-1.3-1
				c-0.2-0.1-0.3-0.1-0.5-0.1l0,0c-0.1,0-0.2,0-0.2,0.1c0,0.1,0,0.2,0.1,0.3v0.2c0,0.1,0,0.1-0.1,0.2c-0.4-0.2-0.8-0.5-1.1-0.9
				c-0.4-0.5-0.7-1.1-0.7-1.7c0.1-1.2,1-2.1,2.2-2.1c0.3,0,0.5,0.1,0.7,0.1l1,0.5l1.2,0.8c0.7,0.4,1.4,0.7,2.2,0.8
				c0.3,0,0.6-0.1,0.9-0.2c0.3-0.1,0.5-0.2,0.5-0.3h-0.2l-0.6-0.1c-0.6-0.2-1.2-0.4-1.8-0.8l-1.3-0.9l-1.2-0.5c-0.1,0-0.1,0-0.1-0.1
				c0-0.1,0-0.1,0.1-0.1c0.1,0,0.2,0,0.3,0.1l1.1,0.3c0.4,0.2,0.9,0.4,1.3,0.6c0.8,0.5,1.6,0.8,2.5,0.9c0.5,0.1,1-0.3,1.1-0.9
				c0-0.1,0-0.1,0-0.2c0-0.3,0-0.5-0.1-0.8c0-0.2-0.1-0.3-0.2-0.4c0-0.1,0-0.1-0.1-0.1c-0.1,0-0.1,0.1-0.1,0.2v0.4
				c0,0.5-0.2,0.7-0.8,0.7c-0.9-0.1-1.8-0.4-2.6-0.8c-1-0.4-2-0.7-3.1-0.7c-2.1,0-3.8,1.6-4,3.7c0,1.7,1.1,3,3.5,4l2.4,1
				c2,0.8,2.7,1.4,2.7,2.2c0,0.6-0.6,1.1-1.5,1.1c-0.6,0-1.2-0.2-1.8-0.4c-1.6-0.6-3.3-0.9-5-1c-1.8-0.1-3.5,0.5-4.8,1.8
				c-0.2,0.2-0.3,0.2-0.4,0.2s-0.2,0-0.4-0.2c-0.2-0.1-0.4-0.2-0.6-0.2c-0.3,0.1-0.5,0.2-0.7,0.4l-0.2,0.5c-0.1,0.1-0.2,0.2-0.3,0.2
				s-0.6-0.4-0.8-0.8c-0.1-0.2-0.2-0.5-0.3-0.7c0-0.2-0.1-0.5-0.1-0.8v-0.5l0.1-0.6c0-0.2,0-0.3,0.1-0.5c0-0.1,0-0.1,0.1-0.1
				c0.1,0,0.2,0.1,0.2,0.4v0.3c0,0.8,0.3,1.6,0.7,1.6s0.5-0.5,0.7-1.5c0-0.2,0.1-0.3,0.2-0.3s0.2,0.1,0.3,0.6
				c0.1,0.3,0.2,0.6,0.4,0.9c0.1,0.1,0.2,0.2,0.3,0.2s0.4-0.4,0.5-1.2c0-0.3,0.1-0.5,0.2-0.5c0.1,0,0.1,0,0.1,0.1
				c0.1,0.1,0.1,0.2,0.2,0.3l0.3,0.3c0.1,0.1,0.2,0.1,0.3,0.1c0.1,0,0.2,0,0.3-0.1l0.2-0.2c-0.1-0.1-0.1-0.2-0.2-0.3
				c-0.2-0.3-0.4-0.6-0.5-0.9c-0.1-0.2-0.2-0.5-0.3-0.7c0-0.1,0-0.1-0.1-0.2h-0.3c-0.2,0.1-0.4,0.2-0.6,0.2h-0.2
				c-0.1,0-0.1,0-0.1-0.1c0-0.1,0.1-0.2,0.2-0.3c0.8-0.7,1.3-1.8,1.3-2.9c0-0.6,0.2-1.2,0.6-1.7c0.1-0.1,0.1-0.2,0.2-0.2
				s0.2,0.1,0.2,0.3c0,0.1,0,0.3-0.1,0.4c0,0.1-0.1,0.2-0.1,0.3V62l0.1,0.2l0.3-0.1l0.3-0.4c0.3-0.4,0.4-0.8,0.4-1.2
				c0-0.2-0.1-0.5-0.2-0.7c-0.2-0.2-0.3-0.3-0.4-0.3h-0.4c-0.2,0-0.3-0.1-0.3-0.2v-0.5l-0.2-0.7l0.2-0.3l-0.1-0.3l-0.2,0.1l-0.4,0.3
				l-0.3,0.3c-0.4,0.5-0.4,0.5-0.6,0.5s-0.2,0-0.2-0.1v-0.1c0.1-0.2,0.1-0.4,0.1-0.6c-0.1-0.6-0.4-1.2-0.8-1.7
				C65.4,56.7,65,57.3,65,58v0.3c0,0.1,0,0.2-0.1,0.2l0,0c-0.1,0-0.1-0.1-0.2-0.1L64.3,58c-0.2-0.1-0.3-0.3-0.5-0.4
				c-0.1,0-0.1-0.1-0.2-0.2l-0.1,0.2c-0.3,0.4-0.4,0.9-0.4,1.4c0,0.4,0,0.5-0.1,0.5c-0.1,0-0.1,0-0.2-0.1c-0.4-0.2-0.5-0.3-0.7-0.3
				c-0.5,0-0.9,0.4-0.9,0.9v0c0,0.3,0.2,0.6,0.4,0.9c0.2,0.4,0.5,0.7,0.8,0.9c0,0,0.1,0,0.1-0.2V61l-0.1-0.2l0,0
				c0-0.1,0-0.2,0.1-0.2c0.3,0,0.5,0.8,0.7,2.3c0.1,1,0.4,2,1.1,2.8c0.1,0.1,0.2,0.2,0.2,0.3l-0.1,0.1c-0.1,0-0.3,0-0.4-0.1
				c0-0.2-0.1-0.2-0.2-0.2c-0.4,0.1-0.6,0.3-0.7,0.7l-0.3,1.6l-0.2,2.3c0,0.6,0.1,1.1,0.2,1.7c0.1,0.5,0.2,0.9,0.2,1.4
				c0,1.7-1.2,3.2-2.8,3.6l-1.8,0.5c-1.1,0.3-1.9,1.3-1.9,2.5c0.2-0.2,0.5-0.3,0.8-0.3l0.5-0.1c0.2,0,0.3-0.1,0.5-0.1
				c0.1-0.1,0.2-0.2,0.3-0.3l0.5-0.5c0.2-0.2,0.3-0.3,0.4-0.3s0.1,0.1,0.1,0.2c0,0.2-0.1,0.3-0.2,0.5c-0.1,0.2-0.2,0.5-0.2,0.7
				c0,0.4,0.1,0.6,0.5,1.1c0-0.1,0-0.2,0.1-0.3c0-0.1,0.2-0.3,0.4-0.6c0.3-0.4,0.6-0.8,0.7-1.3c0-0.4,0-0.6,0.2-0.6s0.1,0,0.2,0.3
				c0,0.1,0,0.1,0.1,0.2s0.1,0.1,0.2,0.1c0.1,0,0.1,0,0.2-0.1c0.4-0.2,0.6-0.5,0.8-0.9c0.1-0.2,0.1-0.3,0.1-0.5v-0.4
				c0-0.1,0-0.2,0.1-0.2s0.2,0.1,0.3,0.3s0.1,0.1,0.2,0.1l0,0c0.1,0,0.2-0.1,0.3-0.1c0.3-0.3,0.5-0.7,0.6-1.1v-0.5L64.1,75l0,0
				c0-0.1,0-0.1,0.1-0.2c0.1,0,0.3,0.2,0.5,0.6c0.1,0.2,0.2,0.3,0.3,0.3s0.2-0.1,0.5-0.5l0.3-0.4c0.1-0.2,0.1-0.4,0-0.6l-0.2-0.3
				c0-0.1-0.1-0.2-0.1-0.3c0-0.5,0.1-0.9,0.4-1.3c0.1-0.2,0.2-0.5,0.4-0.7c0-0.1,0.1-0.2,0.2-0.2l0.1,0.1v0.3l0,0V72
				c0,0.1,0.1,0.1,0.2,0.1c0.1,0,0.2,0,0.3-0.1l0.7-0.3c0.2-0.1,0.5-0.2,0.7-0.3c0.6-0.4,1.3-0.7,2-0.7c0.5,0,1,0.2,1.4,0.4
				c0.1,0.1,0.2,0.1,0.3,0.1c0.1,0,0.1,0,0.2-0.1c0.1-0.1,0.1-0.1,0.1-0.2c0-0.1,0-0.3-0.1-0.4l-0.2-0.4c0-0.1,0-0.1,0.1-0.1
				c0.1,0,0.2,0.1,0.2,0.2c0.1,0.1,0.3,0.5,0.7,1.1c0.3,0.8,1,1.4,1.8,1.7l1.3,0.3c0.4,0.1,0.5,0.2,0.5,0.7c0,0.8-0.4,1.6-1.1,2.1
				l-1,0.7c-0.4,0.3-0.7,0.8-0.7,1.4c0,0.5,0.1,1,0.2,1.5l0.2-0.2l0.5-0.3l0.4-0.4l0.2-0.6l0.2-0.6c0.1-0.3,0.2-0.5,0.3-0.5
				s0.2,0.2,0.2,0.4v0.2C75.9,78.2,76,78.4,76.3,79"/>
			<path id="_Path_28" class="st3" d="M59.5,87.7c0.3-0.3,0.4-0.3,1.4-0.5c0.7-0.1,1.2-0.6,1.3-1.3c0-0.4,0.3-0.8,0.7-1
				c0.2-0.1,0.3-0.2,0.4-0.3l0.1-0.1c0.1,0,0.1,0,0.1,0.1c0,0.2-0.1,0.3-0.2,0.5c-0.1,0.1-0.1,0.3-0.1,0.5c0,0.4,0.1,0.8,0.3,1.1
				c0.1-0.3,0.4-0.6,0.7-0.8c0.6-0.4,0.9-1.2,0.9-1.9c0-0.4,0.1-0.7,0.2-0.7s0.1,0,0.1,0.1l0.2,0.4c0,0.1,0.1,0.1,0.2,0.1
				s0.2-0.1,0.4-0.2l0.4-0.4c0.2-0.3,0.4-0.8,0.3-1.2c0-0.2,0.1-0.4,0.2-0.4c0.1,0,0.1,0,0.1,0.1l0.2,0.6c0,0.1,0.1,0.2,0.2,0.2
				c0.1,0,0.1,0,0.2-0.1c0.2-0.1,0.3-0.3,0.4-0.4c0.1-0.2,0.2-0.4,0.2-0.6V81c0-0.1,0-0.2,0.1-0.3l0.1-0.1c0.1,0,0.1,0.1,0.2,0.1
				l0.1,0.3c0,0.1,0.2,0.2,0.3,0.2s0.3-0.1,0.5-0.5c0.1-0.1,0.1-0.2,0.2-0.2c0.1-0.2,0.2-0.3,0.2-0.4c0-0.1,0-0.1-0.1-0.2
				c-0.4-0.5-0.6-1.2-0.6-1.9c0-0.9,0.4-1.7,1.5-3.2c0.6-0.6,0.9-1.4,1-2.3c0-0.2-0.1-0.2-0.2-0.2c-0.1,0-0.2,0-0.3,0.1
				c-0.1,0.1-0.1,0.1-0.2,0.1c-0.1,0-0.1,0-0.2-0.1l-0.2-0.2L70.7,72c-0.1-0.1-0.1-0.1-0.2-0.1c-0.1,0-0.1,0-0.2,0.1H70
				c-0.3,0-0.4,0.1-0.4,0.4v0.3c0,0.4-0.2,0.7-0.5,0.9l-0.5,0.5c-0.7,0.6-1.1,1.3-1.2,2.2c0,0.4,0.1,0.8,0.2,1.2
				c0.2,0.5,0.3,1,0.3,1.5c0,1.4-2.1,3.2-6,5.1c-2,1-2.5,1.6-2.5,2.9L59.5,87.7z"/>
			<path id="_Path_29" class="st3" d="M57.6,57.8v0.7c0,0.2,0,0.3-0.1,0.5c-0.1,0.2-0.1,0.4-0.1,0.6c0,0.5,0.1,1,0.4,1.4
				c0.2,0.3,0.3,0.6,0.3,1c0,0.1,0,0.2-0.1,0.2c-0.1,0-0.1,0-0.1-0.1l-0.2-0.3c-0.2-0.2-0.5-0.3-0.8-0.3h-0.5c0.2,0.3,0.3,0.7,0.3,1
				c0.1,0.6,0.3,1.1,0.8,1.5c0.5,0.5,0.6,0.5,0.6,0.7c0,0.1-0.1,0.2-0.2,0.2h-0.3c-0.2,0-0.3,0.3-0.3,0.6c0,0.2,0.1,0.5,0.2,0.7
				c0.1,0.2,0.1,0.3,0.2,0.3l0.3,0.3c0.1,0.1,0.1,0.2,0.1,0.3c0,0.1-0.1,0.3-0.2,0.3s-0.1,0-0.3-0.1s-0.1-0.1-0.2-0.1
				c-0.1,0-0.2,0.1-0.2,0.2v0.4l0.2,0.7c0,0.2,0.1,0.3,0.3,0.5c0.1,0.2,0.2,0.3,0.4,0.3c0.4,0.2,0.5,0.2,0.6,0.3s0.1,0.1,0.1,0.2
				c0,0.1-0.1,0.2-0.2,0.2c-0.1,0-0.2,0-0.3-0.1H58c-0.3,0-0.3,0-0.3,0.2c0,0.1,0,0.3,0.1,0.4l0.1,0.5c0.1,0.5,0.3,0.7,0.4,0.7
				c0.1,0,0.1,0,0.2-0.1c0.5-0.4,1.2-0.6,1.8-0.6c0.5,0,1.1,0.1,1.4,0.1c0.1,0,0.2,0.1,0.3,0.1s0.1-0.1,0.1-0.3l0.1-0.5l0.1-0.9
				l0.1-0.7v-0.4l-0.2,0.2c-0.3,0.4-0.8,0.6-1.3,0.6c-1.3,0-2.1-1.5-2.1-4c0.1-1.4,0.2-2.9,0.4-4.3c0.1-0.3,0.1-0.5,0.1-0.8
				C59.1,59.1,58.5,58.3,57.6,57.8"/>
			<path id="_Path_30" class="st3" d="M59.5,64.2l0.3-0.3l0.3-0.2c0.2-0.2,0.4-0.6,0.4-0.9c0-0.1,0-0.3-0.1-0.4
				C60.3,62.2,60.1,62,60,62s-0.2,0.2-0.2,0.6L59.7,63l-0.1,0.4v0.8H59.5z"/>
			<path id="_Path_31" class="st3" d="M57,75.8c0.3,0.1,0.5,0.3,0.7,0.5c0.4,0.5,0.6,0.6,1.1,0.6c0.1,0,0.3,0,0.4-0.1l0.4-0.1
				l0.3-0.1c0.1,0,0.1,0,0.2-0.1c0-0.1-0.2-0.2-0.6-0.5c-0.2-0.2-0.4-0.3-0.7-0.4c-0.2-0.1-0.4-0.2-0.6-0.2
				C57.8,75.4,57.4,75.6,57,75.8"/>
			<path id="_Path_32" class="st3" d="M60.9,84.2c0.4-0.2,0.9-0.4,1.3-0.6c0.5-0.3,0.8-0.4,0.8-0.5c0.5-0.3,0.8-0.5,0.8-0.6
				s-0.3-0.3-0.9-0.3c-1-0.1-1.9,0.7-2,1.7L60.9,84.2z"/>
			<path id="_Path_33" class="st3" d="M72.5,76.9c0.2-0.1,0.5-0.2,0.7-0.2h0.5c0.1,0,0.2-0.1,0.3-0.2c0.1-0.1,0.2-0.2,0.4-0.3
				c0.6-0.4,0.6-0.4,0.6-0.5s-0.2-0.2-0.7-0.2C73.5,75.5,72.7,76.1,72.5,76.9"/>
			<path id="_Path_34" class="st2" d="M14.1,8.3L14,7.9V7.7c0-0.2,0.2-0.4,0.4-0.5c0.4-0.1,0.7-0.3,1-0.5l0.3-0.3l0,0
				c0.1,0,0.1,0.1,0.1,0.2c-0.2,0.6-0.4,1.2-0.8,1.7c-0.3,0.5-0.4,0.8-0.6,0.8s-0.3-0.2-0.3-0.5L14.1,8.3z"/>
			<path id="_Path_35" class="st2" d="M12.4,7.1l0.5,0.3c0.1,0.1,0.2,0.2,0.2,0.3v0.2c-0.1,0.2,0,0.5,0,0.6C13.1,9,12.7,9,12.5,9
				s0-0.1-0.3-0.3L11.6,8c-0.3-0.4-0.4-0.8-0.4-1.3V6.6c0-0.2,0-0.2,0.2-0.2s0.2,0.1,0.3,0.1L12.4,7.1z"/>
			<path id="_Path_36" class="st2" d="M67.3,8.4l-0.2-0.5V7.7c0-0.2,0.1-0.4,0.5-0.5c0.3-0.1,0.7-0.2,0.9-0.5l0.3-0.3l0,0
				c0.1,0,0.1,0.1,0.1,0.2c0,0.4-0.4,0.9-0.8,1.6c-0.3,0.5-0.4,0.9-0.5,0.9s-0.3-0.2-0.3-0.5V8.4z"/>
			<path id="_Path_37" class="st2" d="M65.5,7.1L66,7.4c0.1,0.1,0.2,0.2,0.2,0.3v0.1l-0.1,0.5L66,8.9C66,9,65.9,9,65.8,9l0,0
				c-0.2-0.1-0.4-0.2-0.6-0.4l-0.5-0.7c-0.2-0.2-0.3-0.5-0.3-0.8c0-0.1-0.1-0.3-0.1-0.4V6.6c0-0.1,0.1-0.2,0.2-0.2
				c0.1,0,0.2,0.1,0.3,0.1L65.5,7.1z"/>
			<path id="_Path_38" class="st2" d="M11.7,60.4L11.6,60v-0.1l0.1-0.1c0.1,0,0.2,0.1,0.3,0.2s0.2,0.1,0.4,0.1
				c0.8,0.2,0.9,0.3,0.9,0.7v0.5l-0.1,0.4c0,0.2-0.1,0.2-0.2,0.2s-0.4-0.2-0.6-0.4l-0.3-0.4L11.7,60.4z"/>
			<path id="_Path_39" class="st2" d="M15.1,61.1l-0.4,0.6c-0.1,0.1-0.1,0.1-0.1,0.2l0,0c-0.2,0-0.3-0.3-0.3-0.7l-0.1-0.6
				c0-0.2,0.2-0.3,0.5-0.4c0.2,0,0.4-0.1,0.6-0.2c0.3-0.2,0.4-0.3,0.5-0.3l0,0c0.1,0,0.1,0,0.1,0.1l0,0l-0.2,0.5L15.1,61.1z"/>
			<path id="_Path_40" class="st2" d="M63.9,59.6l0.4,0.2l0.6,0.3c0.4,0.2,0.6,0.3,0.6,0.5s0,0.1-0.1,0.3s-0.1,0.3-0.1,0.4
				c0,0.2-0.1,0.5-0.4,0.5c0,0,0,0,0,0c-0.2,0-0.4-0.3-0.7-0.9c-0.1-0.4-0.3-0.8-0.5-1.1v-0.1C63.7,59.6,63.7,59.6,63.9,59.6z"/>
			<path id="_Path_41" class="st2" d="M67.7,60.6L67,61.2c-0.2,0.3-0.2,0.6-0.3,0.6c-0.1,0.1-0.1,0.1-0.2,0.1l0,0
				c-0.1,0-0.3-0.1-0.3-0.2c0,0,0,0,0-0.1v-1l0,0c0-0.2,0.1-0.3,0.2-0.3l0.6-0.2l0.6-0.3c0.2-0.1,0.2-0.1,0.3-0.1s0.1,0.1,0.1,0.2
				c0,0.1,0,0.1-0.1,0.2L67.7,60.6z"/>
			<path class="st2" d="M14.8,9.9l-0.2-0.1l-0.5,0.3H13c-0.1-0.1-0.2-0.1-0.3-0.2c-0.1-0.1-0.3-0.1-0.4-0.1c-0.3,0-0.4,0.1-0.4,0.4
				c0.1,0.5,0.2,0.9,0.4,1.3l0.4,0.9c0.3,0.8,0.6,1.1,1.1,1.1s0.4-0.4,0.7-1c0.6-1.4,0.9-1.6,0.9-2.1C15.2,10,15.1,9.9,14.8,9.9
				 M14.1,11.7L14,12.3c0,0.4-0.2,0.5-0.5,0.5s-0.4-0.1-0.4-0.5v-0.5L13,11.1l0.1-0.1c0-0.1,0-0.1,0.1-0.1h0h0.4l0.5-0.1l0,0
				c0.1,0,0.1,0,0.1,0.1s0.1,0.1,0.1,0.2S14.2,11.3,14.1,11.7"/>
			<path class="st2" d="M15.1,62.7c-0.1,0-0.1,0-0.2,0.1L14.4,63c-0.1,0.1-0.3,0.1-0.5,0.1c-0.2,0-0.5-0.1-0.7-0.2l-0.3-0.2
				c-0.1-0.1-0.2-0.1-0.3-0.1c-0.3,0-0.5,0.2-0.5,0.6c0,0.3,0.1,0.5,0.2,0.8c0.6,1.1,1.1,1.7,1.6,1.7c0.3,0,0.6-0.5,1-1.1
				c0.3-0.4,0.5-0.8,0.6-1.3C15.5,63,15.3,62.7,15.1,62.7 M14.3,64v0.4c-0.1,0.6-0.2,0.9-0.4,0.9s-0.2,0-0.2-0.1
				c-0.3-0.3-0.4-0.8-0.5-1.2c0-0.1,0.1-0.3,0.2-0.3c0,0,0,0,0.1,0l0,0l0.3,0.1l0.3-0.1h0.1C14.3,63.6,14.3,63.7,14.3,64z"/>
			<path class="st2" d="M66.9,62.5c-0.1,0-0.1,0-0.2,0.1l-0.4,0.1c-0.2,0.1-0.5,0.2-0.7,0.2c-0.1,0-0.3,0-0.4-0.1l-0.4-0.3
				c-0.1-0.1-0.2-0.1-0.3-0.1c-0.2,0-0.4,0.3-0.4,0.5c0,0.5,0.2,1.1,0.5,1.5c0.5,1,0.7,1.2,1,1.2s0.4-0.1,0.6-0.5l0.3-0.7
				c0.4-0.4,0.6-0.9,0.7-1.5C67.3,62.7,67.1,62.5,66.9,62.5 M66.2,64.1c-0.1,0.6-0.3,1-0.6,1c-0.2,0-0.4-0.3-0.4-0.5V64
				c0-0.4,0.1-0.5,0.2-0.5h0.5c0.3,0,0.3,0.1,0.3,0.3C66.3,63.8,66.3,63.8,66.2,64.1"/>
			<path id="_Path_42" class="st2" d="M38.3,4.5l0.2,0.3L38.7,5L39,5.3c0.1,0.1,0.2,0.2,0.3,0.2l-0.1,0.1l-0.3,0.3l-0.3,0.2
				l-0.1,0.1v0.2c0,2.3,0.8,4.3,1.9,4.9c0.2,0.1,0.2,0.2,0.2,0.2l0,0l-0.2,0.1h-0.3c-0.4,0-0.9-0.1-1.3-0.2l-0.3,2h-0.4l-0.3-2
				c-0.4,0.1-0.9,0.2-1.3,0.2h-0.2c-0.2,0-0.2,0-0.2-0.1c0-0.1,0.1-0.2,0.2-0.2c1.1-0.6,1.9-2.6,1.9-4.9V6.2l-0.1-0.1l-0.3-0.2
				l-0.3-0.3l-0.1-0.1c0.1-0.1,0.2-0.2,0.3-0.2L38,5l0.2-0.2L38.3,4.5z"/>
			<path id="_Path_43" class="st2" d="M48.6,4.5l0.2,0.3L49,5l0.3,0.3c0.1,0.1,0.2,0.2,0.3,0.2l-0.1,0.1l-0.3,0.3l-0.3,0.2l-0.1,0.1
				v0.2c0,2.3,0.8,4.3,1.9,4.9c0.2,0.1,0.2,0.2,0.2,0.2l0,0l-0.2,0.1h-0.3c-0.4,0-0.9-0.1-1.3-0.2l-0.3,2h-0.4l-0.3-2
				c-0.4,0.1-0.9,0.2-1.3,0.2h-0.3c-0.2,0-0.2,0-0.2-0.1c0-0.1,0.1-0.2,0.2-0.2c1.1-0.6,1.9-2.6,1.9-4.9V6.2l-0.1-0.1L48,5.9
				l-0.3-0.3l-0.1-0.1c0.1-0.1,0.2-0.2,0.3-0.2L48.2,5l0.2-0.2L48.6,4.5z"/>
			<path id="_Path_44" class="st2" d="M38.3,22.4l0.2,0.3l0.2,0.2c0.1,0.2,0.2,0.2,0.3,0.3c0.1,0.1,0.2,0.2,0.3,0.2l-0.1,0.1
				l-0.4,0.3L38.5,24l-0.1,0.1v0.2c0,2.3,0.8,4.3,1.9,4.9c0.2,0.1,0.2,0.2,0.2,0.3l0,0l-0.2,0.1H40c-0.4,0-0.9-0.1-1.3-0.2l-0.3,2.1
				H38l-0.3-2.1c-0.4,0.1-0.9,0.2-1.3,0.2h-0.1c-0.2,0-0.2,0-0.2-0.1c0-0.1,0.1-0.2,0.2-0.2c1.1-0.6,1.9-2.6,1.9-4.9v-0.2l-0.1-0.1
				l-0.3-0.3l-0.3-0.3l-0.1-0.1c0.1-0.1,0.2-0.2,0.3-0.2l0.3-0.3l0.2-0.2L38.3,22.4z"/>
			<path id="_Path_45" class="st2" d="M48.6,22.4l0.2,0.3l0.2,0.2c0.1,0.2,0.2,0.2,0.3,0.3c0.1,0.1,0.2,0.2,0.3,0.2l-0.1,0.1
				l-0.4,0.3L48.8,24l-0.1,0.1v0.2c0,2.3,0.8,4.3,1.9,4.9c0.2,0.1,0.2,0.2,0.2,0.3l0,0l-0.2,0.1h-0.3c-0.4,0-0.9-0.1-1.3-0.2
				l-0.3,2.1h-0.4L48,29.4c-0.4,0.1-0.9,0.2-1.3,0.2h-0.3c-0.2,0-0.2,0-0.2-0.1c0-0.1,0.1-0.2,0.2-0.2c1.1-0.6,1.9-2.6,1.9-4.9V24
				l-0.2-0.2l-0.3-0.3l-0.1-0.1c0.1-0.1,0.2-0.2,0.3-0.2l0.3-0.3l0.2-0.2L48.6,22.4z"/>
			<path id="_Path_46" class="st2" d="M43.4,13.5l0.2,0.3l0.2,0.2c0.1,0.2,0.2,0.2,0.3,0.3c0.1,0.1,0.2,0.2,0.3,0.2l-0.1,0.1
				L44,14.9l-0.3,0.2l-0.1,0.1v0.2c0,2.3,0.8,4.3,1.9,4.9c0.2,0.1,0.2,0.2,0.2,0.2l0,0l-0.2,0.1h-0.3c-0.4,0-0.9-0.1-1.3-0.2l-0.3,2
				h-0.4l-0.3-2c-0.4,0.1-0.9,0.2-1.3,0.2h-0.3c-0.2,0-0.2,0-0.2-0.1c0-0.1,0.1-0.2,0.2-0.2c1.1-0.6,1.9-2.6,1.9-4.9v-0.2l-0.1-0.1
				l-0.3-0.2l-0.3-0.3l-0.1-0.1c0.1-0.1,0.2-0.2,0.3-0.2L43,14l0.2-0.2L43.4,13.5z"/>
			<path id="_Path_47" class="st2" d="M38.3,65.8l0.2,0.3l0.2,0.2c0.1,0.2,0.2,0.2,0.3,0.3c0.1,0.1,0.2,0.2,0.3,0.2l-0.1,0.1
				l-0.3,0.3l-0.3,0.2l-0.1,0.1v0.2c0,2.3,0.8,4.3,1.9,4.9c0.2,0.1,0.2,0.2,0.2,0.3l0,0L40.4,73h-0.3c-0.4,0-0.9-0.1-1.3-0.2l-0.3,2
				h-0.4l-0.3-2c-0.4,0.1-0.9,0.2-1.3,0.2h-0.2c-0.2,0-0.2,0-0.2-0.1c0-0.1,0.1-0.2,0.2-0.2c1.1-0.6,1.9-2.6,1.9-4.9v-0.2l-0.1-0.1
				l-0.3-0.2L37.5,67l-0.1-0.2c0.1-0.1,0.2-0.2,0.3-0.2l0.3-0.3l0.2-0.2L38.3,65.8z"/>
			<path id="_Path_48" class="st2" d="M48.6,65.8l0.2,0.3l0.2,0.2c0.1,0.2,0.2,0.2,0.3,0.3c0.1,0.1,0.2,0.2,0.3,0.2l-0.1,0.1
				l-0.3,0.3l-0.3,0.2l-0.1,0.1v0.3c0,2.3,0.8,4.3,1.9,4.9c0.2,0.1,0.2,0.2,0.2,0.3l0,0l-0.2,0.1h-0.3c-0.4,0-0.9-0.1-1.3-0.2
				l-0.3,2h-0.4l-0.3-2c-0.4,0.1-0.9,0.2-1.3,0.2h-0.3c-0.2,0-0.2,0-0.2-0.1c0-0.1,0.1-0.2,0.2-0.2c1.1-0.6,1.9-2.6,1.9-4.9v-0.2
				l-0.1-0.3L48,67.2l-0.3-0.3v-0.1c0.1-0.1,0.2-0.2,0.3-0.2l0.3-0.3l0.2-0.2L48.6,65.8z"/>
			<path id="_Path_49" class="st2" d="M38.3,84.5l0.2,0.3l0.2,0.2c0.1,0.2,0.2,0.2,0.3,0.3c0.1,0.1,0.2,0.2,0.3,0.2l-0.1,0.1
				l-0.3,0.3l-0.3,0.2l-0.1,0.1v0.2c0,2.3,0.8,4.3,1.9,4.9c0.2,0.1,0.2,0.2,0.2,0.2l0,0l-0.2,0.1h-0.3c-0.4,0-0.9-0.1-1.3-0.2
				l-0.3,2h-0.4l-0.3-2c-0.4,0.1-0.9,0.2-1.3,0.2h-0.2c-0.2,0-0.2,0-0.2-0.1c0-0.1,0.1-0.2,0.2-0.2c1.1-0.6,1.9-2.6,1.9-4.9v-0.2
				l-0.1-0.1l-0.3-0.2l-0.3-0.3l-0.1-0.1c0.1-0.1,0.2-0.2,0.3-0.2L38,85l0.2-0.2L38.3,84.5z"/>
			<path id="_Path_50" class="st2" d="M48.6,84.5l0.2,0.3L49,85c0.1,0.2,0.2,0.2,0.3,0.3c0.1,0.1,0.2,0.2,0.3,0.2l-0.1,0.1l-0.3,0.3
				l-0.3,0.2l-0.1,0.1v0.2c0,2.3,0.8,4.3,1.9,4.9c0.2,0.1,0.2,0.2,0.2,0.2l0,0l-0.2,0.1h-0.3c-0.4,0-0.9-0.1-1.3-0.2l-0.3,2h-0.4
				l-0.3-2c-0.4,0.1-0.9,0.2-1.3,0.2h-0.3c-0.2,0-0.2,0-0.2-0.1c0-0.1,0.1-0.2,0.2-0.2c1.1-0.6,1.9-2.6,1.9-4.9v-0.2l-0.1-0.1
				L48,85.9l-0.3-0.3l-0.1-0.1c0.1-0.1,0.2-0.2,0.3-0.2l0.3-0.3l0.2-0.2L48.6,84.5z"/>
			<path id="_Path_51" class="st2" d="M43.4,75.1l0.2,0.3l0.2,0.2c0.1,0.2,0.2,0.2,0.3,0.3c0.1,0.1,0.2,0.2,0.3,0.2l-0.1,0.1
				L44,76.5l-0.3,0.2l-0.1,0.1V77c0,2.3,0.8,4.3,1.9,4.9c0.2,0.1,0.2,0.2,0.2,0.2l0,0l-0.2,0.1h-0.3c-0.4,0-0.9-0.1-1.3-0.2l-0.3,2
				h-0.4l-0.3-2c-0.4,0.1-0.9,0.2-1.3,0.2h-0.3c-0.2,0-0.2,0-0.2-0.1c0-0.1,0.1-0.2,0.2-0.2c1.1-0.6,1.9-2.6,1.9-4.9v-0.2l-0.1-0.1
				l-0.3-0.2l-0.3-0.3l-0.1-0.1c0.1-0.1,0.2-0.2,0.3-0.2l0.3-0.3l0.2-0.2L43.4,75.1z"/>
			<path id="_Path_52" class="st2" d="M43.4,56.6l0.2,0.3l0.2,0.2c0.1,0.2,0.2,0.2,0.3,0.3c0.1,0.1,0.2,0.2,0.3,0.2l-0.1,0.1L44,58
				l-0.3,0.2l-0.1,0.1v0.2c0,2.3,0.8,4.3,1.9,4.9c0.2,0.1,0.2,0.2,0.2,0.2l0,0l-0.2,0.2h-0.3c-0.4,0-0.9-0.1-1.3-0.2l-0.3,2h-0.4
				l-0.3-2c-0.4,0.1-0.9,0.2-1.3,0.2h-0.3c-0.2,0-0.2,0-0.2-0.1c0-0.1,0.1-0.2,0.2-0.2c1.1-0.6,1.9-2.6,1.9-4.9v-0.2l-0.1-0.1
				l-0.3-0.2l-0.3-0.3l-0.1-0.1c0.1-0.1,0.2-0.2,0.3-0.2l0.3-0.3l0.2-0.2L43.4,56.6z"/>
			<path id="_Path_53" class="st2" d="M6.4,36.4l0.2,0.3l0.2,0.2c0.1,0.2,0.2,0.2,0.3,0.3c0.1,0.1,0.2,0.2,0.3,0.2l-0.1,0.1L7,37.8
				L6.7,38l-0.1,0.1v0.2c0,2.3,0.8,4.3,1.9,4.9c0.2,0.1,0.2,0.2,0.2,0.2l0,0l-0.2,0.1H8.2c-0.4,0-0.9-0.1-1.3-0.2l-0.3,2.1H6.3
				L6,43.3c-0.4,0.1-0.9,0.2-1.3,0.2H4.4c-0.2,0-0.2,0-0.2-0.1c0-0.1,0.1-0.2,0.2-0.2c1.1-0.6,1.9-2.6,1.9-4.9v-0.2L6.2,38l-0.3-0.2
				l-0.3-0.3l-0.1-0.1c0.1-0.1,0.2-0.2,0.3-0.2l0.3-0.3l0.2-0.2L6.4,36.4z"/>
			<path id="_Path_54" class="st2" d="M17.3,36.4l0.2,0.3l0.2,0.2c0.1,0.2,0.2,0.2,0.3,0.3c0.1,0.1,0.2,0.2,0.3,0.2l-0.1,0.1
				l-0.4,0.3L17.5,38l-0.1,0.1v0.2c0,2.3,0.8,4.3,1.9,4.9c0.2,0.1,0.2,0.2,0.2,0.2l0,0l-0.2,0.3H19c-0.4,0-0.9-0.1-1.3-0.2l-0.3,2.1
				H17l-0.3-2.1c-0.4,0.1-0.9,0.2-1.3,0.2h-0.3c-0.2,0-0.2,0-0.2-0.1c0-0.1,0.1-0.2,0.2-0.2c1.1-0.6,1.9-2.6,1.9-4.9v-0.2l-0.1-0.1
				l-0.2-0.4l-0.3-0.3l-0.1-0.1c0.1-0.1,0.2-0.2,0.3-0.2l0.3-0.3l0.2-0.2L17.3,36.4z"/>
			<path id="_Path_55" class="st2" d="M28.1,36.4l0.2,0.3l0.2,0.2c0.1,0.2,0.2,0.2,0.3,0.3c0.1,0.1,0.2,0.2,0.3,0.2L29,37.5
				l-0.4,0.3L28.3,38l-0.1,0.1v0.2c0,2.3,0.8,4.3,1.9,4.9c0.2,0.1,0.2,0.2,0.2,0.2l0,0l-0.2,0.1h-0.3c-0.4,0-0.9-0.1-1.3-0.2
				l-0.2,2.2h-0.4l-0.3-2.1c-0.4,0.1-0.9,0.2-1.3,0.2H26c-0.2,0-0.2,0-0.2-0.1c0-0.1,0.1-0.2,0.2-0.2c1.1-0.6,1.9-2.6,1.9-4.9v-0.2
				l-0.1-0.1l-0.3-0.3l-0.2-0.2l-0.1-0.1c0.1-0.1,0.2-0.2,0.3-0.2l0.3-0.3l0.2-0.2L28.1,36.4z"/>
			<path id="_Path_56" class="st2" d="M22.7,42.7l0.2,0.3l0.2,0.2l0.3,0.3c0.1,0.1,0.2,0.2,0.3,0.2l-0.3,0.1l-0.3,0.3l-0.3,0.2
				l-0.1,0.1v0.2c0,2.3,0.8,4.3,1.9,4.9c0.2,0.1,0.2,0.2,0.2,0.2l0,0l-0.2,0.1h-0.3c-0.4,0-0.9-0.1-1.3-0.2l-0.1,2.2h-0.4l-0.3-2.1
				c-0.4,0.1-0.9,0.2-1.3,0.2h-0.3c-0.2,0-0.2,0-0.2-0.1c0-0.1,0.1-0.2,0.2-0.2c1.1-0.6,1.9-2.6,1.9-4.9v-0.2l-0.1-0.1l-0.3-0.2
				l-0.2-0.4l-0.1-0.1c0.1-0.1,0.2-0.2,0.3-0.2l0.3-0.3l0.2-0.2L22.7,42.7z"/>
			<path id="_Path_57" class="st2" d="M11.9,42.7l0.2,0.3l0.2,0.2l0.3,0.3c0.1,0.1,0.2,0.2,0.3,0.2l-0.3,0.1l-0.3,0.3L12,44.3
				l-0.1,0.1v0.2c0,2.3,0.8,4.3,1.9,4.9c0.2,0.1,0.2,0.2,0.2,0.2l0,0l-0.2,0.1h-0.3c-0.4,0-0.9-0.1-1.3-0.2l-0.1,2.2h-0.4l-0.3-2.1
				c-0.4,0.1-0.9,0.2-1.3,0.2H9.8c-0.2,0-0.2,0-0.2-0.1c0-0.1,0.1-0.2,0.2-0.2c1.1-0.6,1.9-2.6,1.9-4.9v-0.2l-0.1-0.1l-0.3-0.3
				l-0.2-0.3L11,43.7c0.1-0.1,0.2-0.2,0.3-0.2l0.3-0.3l0.2-0.2L11.9,42.7z"/>
			<path id="_Path_58" class="st2" d="M58.9,36.4l0.2,0.3l0.2,0.2c0.1,0.2,0.2,0.2,0.3,0.3c0.1,0.1,0.2,0.2,0.3,0.2l-0.1,0.1
				l-0.4,0.3L59.1,38L59,38.1v0.2c0,2.3,0.8,4.3,1.9,4.9c0.2,0.1,0.2,0.2,0.2,0.2l0,0l-0.2,0.1h-0.3c-0.4,0-0.9-0.1-1.3-0.2L59,45.4
				h-0.4l-0.3-2.1c-0.4,0.1-0.9,0.2-1.3,0.2h-0.3c-0.2,0-0.2,0-0.2-0.1c0-0.1,0.1-0.2,0.2-0.2c1.1-0.6,1.9-2.6,1.9-4.9v-0.2L58.5,38
				l-0.1-0.2l-0.3-0.3L58,37.4c0.1-0.1,0.2-0.2,0.3-0.2l0.3-0.3l0.2-0.2L58.9,36.4z"/>
			<path id="_Path_59" class="st2" d="M69.7,36.4l0.2,0.3l0.2,0.2c0.1,0.2,0.2,0.2,0.3,0.3c0.1,0.1,0.2,0.2,0.3,0.2l-0.1,0.1
				l-0.4,0.3L69.9,38l-0.1,0.1v0.2c0,2.3,0.8,4.3,1.9,4.9c0.2,0.1,0.2,0.2,0.2,0.2l0,0l-0.2,0.1h-0.3c-0.4,0-0.9-0.1-1.3-0.2
				l-0.3,2.1h-0.4l-0.3-2.1c-0.4,0.1-0.9,0.2-1.3,0.2h-0.3c-0.2,0-0.2,0-0.2-0.1c0-0.1,0.1-0.2,0.2-0.2c1.1-0.6,1.9-2.6,1.9-4.9
				v-0.2L69.3,38l-0.1-0.2l-0.3-0.3l-0.1-0.1c0.1-0.1,0.2-0.2,0.3-0.2l0.3-0.3l0.2-0.2L69.7,36.4z"/>
			<path id="_Path_60" class="st2" d="M80.5,36.4l0.2,0.3l0.2,0.2c0.1,0.2,0.2,0.2,0.3,0.3c0.1,0.1,0.2,0.2,0.3,0.2l-0.2,0.2
				L81,37.8L80.7,38l-0.1,0.1v0.2c0,2.3,0.8,4.3,1.9,4.9c0.2,0.1,0.2,0.2,0.2,0.2l0,0l-0.2,0.1h-0.2c-0.4,0-0.9-0.1-1.3-0.2
				l-0.3,2.1h-0.4L80,43.3c-0.4,0.1-0.9,0.2-1.3,0.2h-0.3c-0.2,0-0.2,0-0.2-0.1c0-0.1,0.1-0.2,0.2-0.2c1.1-0.6,1.9-2.6,1.9-4.9V38
				L80,37.8l-0.3-0.3l-0.1-0.1c0.1-0.1,0.2-0.2,0.3-0.2l0.3-0.3l0.2-0.2L80.5,36.4z"/>
			<path id="_Path_61" class="st2" d="M75.1,42.7l0.2,0.3l0.2,0.2l0.3,0.3c0.1,0.1,0.2,0.2,0.3,0.2l-0.2,0.1l-0.3,0.3l-0.3,0.2v0.3
				c0,2.3,0.8,4.3,1.9,4.9c0.2,0.1,0.2,0.2,0.2,0.2l0,0l-0.2,0.1h-0.3c-0.4,0-0.9-0.1-1.3-0.2l-0.3,2.2h-0.4l-0.3-2.1
				c-0.4,0.1-0.9,0.2-1.3,0.2H73c-0.2,0-0.2,0-0.2-0.1c0-0.1,0.1-0.2,0.2-0.2c1.1-0.6,1.9-2.6,1.9-4.9v-0.2l-0.1-0.1l-0.3-0.2
				l-0.2-0.4l-0.1-0.1c0.1-0.1,0.2-0.2,0.3-0.2l0.3-0.3L75,43L75.1,42.7z"/>
			<path id="_Path_62" class="st2" d="M64.3,42.7l0.2,0.3l0.2,0.2l0.3,0.3c0.1,0.1,0.2,0.2,0.3,0.2l-0.2,0.1l-0.3,0.3l-0.3,0.2
				l-0.1,0.1v0.2c0,2.3,0.8,4.3,1.9,4.9c0.2,0.1,0.2,0.2,0.2,0.2l0,0l-0.2,0.1H66c-0.4,0-0.9-0.1-1.3-0.2l-0.2,2.2h-0.4l-0.3-2.1
				c-0.4,0.1-0.9,0.2-1.3,0.2h-0.2c-0.2,0-0.2,0-0.2-0.1c0-0.1,0.1-0.2,0.2-0.2c1.1-0.6,1.9-2.6,1.9-4.9v-0.2l-0.1-0.1l-0.3-0.2
				l-0.3-0.4l-0.1-0.1c0.1-0.1,0.2-0.2,0.3-0.2l0.3-0.3l0.2-0.2L64.3,42.7z"/>
			<path id="_Path_63" class="st2" d="M33.3,36.5h3c0.2-0.6,0.8-1,1.5-1c0.7,0,1.3,0.4,1.6,1h2.5c0.3-0.6,0.9-1,1.6-1
				c0.7,0,1.3,0.4,1.5,1h2.3c0.2-0.6,0.8-1,1.5-1c0.6,0,1.2,0.3,1.5,0.9l0.1,0.2h3.2v14.8h-2.8v5.7h-3.3v-5.7h-8.2v5.7H36v-5.7h-2.7
				V36.5z"/>
			<path class="st1" d="M34.4,38.1h18.1v-0.5H34.4V38.1z M34.4,50h18.1V39H34.4V50z"/>
			<path id="_Path_64" class="st3" d="M36.3,40.5c-0.5,0-0.9,0.4-0.9,0.9s0.4,0.9,0.9,0.9s0.9-0.4,0.9-0.9S36.8,40.5,36.3,40.5
				L36.3,40.5"/>
			<path id="_Path_65" class="st3" d="M50.6,40.5c-0.5,0-0.9,0.4-0.9,0.9s0.4,0.9,0.9,0.9s0.9-0.4,0.9-0.9S51.1,40.5,50.6,40.5
				L50.6,40.5"/>
			<path id="_Path_66" class="st3" d="M36.3,47.3c-0.5,0-0.9,0.4-0.9,0.9c0,0.5,0.4,0.9,0.9,0.9c0,0,0,0,0,0c0.5,0,0.8-0.4,0.8-0.8
				c0,0,0,0,0-0.1c0.1-0.4-0.2-0.8-0.6-0.9C36.4,47.3,36.4,47.3,36.3,47.3"/>
			<path id="_Path_67" class="st3" d="M50.6,47.3c-0.5,0-0.9,0.4-0.9,0.9s0.4,0.9,0.9,0.9s0.9-0.4,0.9-0.9S51.1,47.3,50.6,47.3
				L50.6,47.3"/>
			<path id="_Path_68" class="st3" d="M39,44.7c1,1.4,2.7,2.3,4.5,2.2c1.7,0,2.8-0.6,4.2-2.2c-1.1-1.3-2.6-2-4.3-2
				C41.7,42.6,40.1,43.4,39,44.7"/>
			<rect id="_Path_69" x="36.6" y="52.5" class="st3" width="1.7" height="2.2"/>
			<rect id="_Path_70" x="36.6" y="55.2" class="st3" width="1.7" height="0.7"/>
			<rect id="_Path_71" x="48.2" y="52.5" class="st3" width="1.7" height="2.2"/>
			<rect id="_Path_72" x="48.2" y="55.2" class="st3" width="1.7" height="0.7"/>
			<path id="_Path_73" class="st3" d="M37.8,36.4c-0.4,0-0.8,0.3-0.8,0.8c0,0,0,0,0,0v2c0,0.4,0.4,0.8,0.8,0.8
				c0.4,0,0.8-0.4,0.8-0.8v-2C38.6,36.8,38.2,36.4,37.8,36.4"/>
			<path id="_Path_74" class="st3" d="M43.5,36.4c-0.4,0-0.8,0.3-0.8,0.8c0,0,0,0,0,0v2c0,0.4,0.4,0.8,0.8,0.8
				c0.4,0,0.8-0.4,0.8-0.8v-2C44.2,36.8,43.9,36.4,43.5,36.4"/>
			<path id="_Path_75" class="st3" d="M48.8,36.4c-0.4,0-0.8,0.3-0.8,0.8c0,0,0,0,0,0v2c0,0.4,0.4,0.8,0.8,0.8
				c0.4,0,0.8-0.4,0.8-0.8v-2C49.6,36.8,49.2,36.4,48.8,36.4"/>
			<path class="st2" d="M49.4,48.1c0,0.7,0.5,1.2,1.2,1.2s1.2-0.5,1.2-1.2c0-0.7-0.5-1.2-1.2-1.2C49.9,46.9,49.4,47.4,49.4,48.1
				 M50.1,48.1c0-0.3,0.2-0.5,0.5-0.5s0.5,0.2,0.5,0.5s-0.2,0.5-0.5,0.5C50.3,48.6,50.1,48.4,50.1,48.1
				C50.1,48.1,50.1,48.1,50.1,48.1"/>
			<path class="st2" d="M43.3,43.3c-1.3,0-2.5,0.5-3.5,1.3c0.9,1,2.2,1.5,3.5,1.5c1.3,0,2.6-0.5,3.5-1.5
				C45.8,43.8,44.6,43.3,43.3,43.3 M43.3,45c-0.7,0-1.4-0.2-2-0.6c0.6-0.3,1.3-0.5,2-0.5c0.7,0,1.4,0.2,2.1,0.5
				C44.8,44.8,44,45,43.3,45"/>
			<path class="st2" d="M35.1,41.4c0,0.7,0.5,1.2,1.2,1.2s1.2-0.5,1.2-1.2c0-0.7-0.5-1.2-1.2-1.2C35.7,40.2,35.1,40.7,35.1,41.4
				C35.1,41.3,35.1,41.4,35.1,41.4 M35.8,41.4c0-0.3,0.2-0.5,0.5-0.5s0.5,0.2,0.5,0.5s-0.2,0.5-0.5,0.5C36,41.9,35.8,41.7,35.8,41.4
				C35.8,41.4,35.8,41.4,35.8,41.4"/>
			<path class="st2" d="M35.1,48.1c0,0.7,0.5,1.2,1.2,1.2c0.7,0,1.2-0.5,1.2-1.2s-0.5-1.2-1.2-1.2C35.6,46.9,35.1,47.4,35.1,48.1
				 M35.8,48.1c0-0.3,0.2-0.5,0.5-0.5s0.5,0.2,0.5,0.5s-0.2,0.5-0.5,0.5C36,48.6,35.8,48.4,35.8,48.1C35.8,48.1,35.8,48.1,35.8,48.1
				"/>
			<path class="st2" d="M49.4,41.4c0,0.7,0.5,1.2,1.2,1.2s1.2-0.5,1.2-1.2c0-0.7-0.5-1.2-1.2-1.2C50,40.2,49.4,40.7,49.4,41.4
				C49.4,41.3,49.4,41.4,49.4,41.4 M50.1,41.4c0-0.3,0.2-0.5,0.5-0.5s0.5,0.2,0.5,0.5s-0.2,0.5-0.5,0.5
				C50.3,41.9,50.1,41.7,50.1,41.4C50.1,41.4,50.1,41.4,50.1,41.4"/>
			<path class="st2" d="M84.4,0.1c-5.1,0.2-9,0.3-11.2,0.3H13.7c-2.2,0-6.1-0.1-11.2-0.3L0,0l0.1,0.5C0.4,3,0.5,5.5,0.5,8v6.3l0.1,6
				v33.2c0,21.4,4.8,28.5,27.3,39.6l4.1,2c2.9,1.4,6.1,2.9,9.2,4.6l2.3,1.2l2.3-1.2c3.1-1.6,6.4-3.2,9.2-4.6l4.1-2
				C81.5,82,86.4,75,86.4,53.5V20.3l0.1-5.9V8.1c0-2.5,0.1-5,0.4-7.5L87,0.1H84.4z M85.5,8v6.3l-0.1,5.9v33.2
				c0,21.2-4.5,27.7-26.7,38.7l-4.1,2c-2.9,1.4-6.1,2.9-9.3,4.6c0,0-1.6,0.9-1.9,1c-0.3-0.1-1.9-1-1.9-1c-3.1-1.6-6.4-3.2-9.3-4.6
				l-4.1-2C5.9,81.1,1.4,74.6,1.4,53.4V20.3l-0.1-6V8c0-2.3-0.1-4.7-0.3-7c0.5,0,0.9,0,1.4,0.1c5.1,0.2,9,0.3,11.2,0.3h59.5
				c2.2,0,6.1-0.1,11.2-0.3c0.5,0,0.9,0,1.4-0.1C85.6,3.5,85.5,4.5,85.5,8"/>
		</g>
	</g>
</g>
</svg>
