<svg xmlns="http://www.w3.org/2000/svg" viewBox="0 0 87 100.9"><defs><style>.cls-1{fill:#fff;}.cls-2{fill:#b92c2e;}.cls-3{fill:#000100;}.cls-4{fill:#d4a635;}</style></defs><title>Asset 1</title><g id="Layer_2" data-name="Layer 2"><g id="图层_1" data-name="图层 1"><g id="_Group_" data-name="&lt;Group&gt;"><path id="_Path_" data-name="&lt;Path&gt;" class="cls-1" d="M20.5,1H13.7C11.5,1,7.6.9,2.5.7A15.26,15.26,0,0,1,.7.6a64.13,64.13,0,0,1,.3,7v6.3l.1,6.4V54.1C1.1,75.3,6,81.8,28.2,92.8l4.1,2c2.9,1.4,6.1,2.9,9.3,4.6,0,0,1.6.9,1.9,1,.3-.1,1.9-1,1.9-1,3.1-1.6,6.4-3.2,9.3-4.6l4.1-2C81,81.8,86,75.3,86,54.1V20.3l.1-6.4V7.6a64.13,64.13,0,0,1,.3-7c-.6,0-1.9.1-1.9.1-5.1.2-9,.3-11.2.3H20.5Z"/><path class="cls-2" d="M52.6,53l.1.3V95.7c.7-.3,1.3-.6,1.9-.9l4.1-2c22.2-11,27.2-17.5,27.2-38.7v-.9H52.8Zm-51.5.1V54C1.1,75.2,6,81.7,28.2,92.7l4.1,2c.6.3,1.3.6,1.9.9V53.3l.1-.3-.1.1ZM84.4.6c-5.1.2-9,.3-11.2.3H52.7V34.5l-.1.3.3-.1h33V20.3l.1-6.4V7.6a64.13,64.13,0,0,1,.3-7H84.4M1.1,34.8H34l.3.1-.1-.3V1H13.7C11.5,1,7.6.9,2.5.7A15.26,15.26,0,0,1,.7.6a64.13,64.13,0,0,1,.3,7v6.3l.1,6.4Z"/><path id="_Path_2" data-name="&lt;Path&gt;" class="cls-3" d="M27.2,17.8l.1.4a5.07,5.07,0,0,1,.2.9c.4,1.6.7,2.1,1.5,2.1a.91.91,0,0,0,.9-.6l.2-.6c0-.1.1-.2.3-.2s.5.3.5,1c0,.2.1.7.2,1.4a4.87,4.87,0,0,1,.1,1.2,1.49,1.49,0,0,1-.2.9,12.77,12.77,0,0,1,.2,1.7,3.69,3.69,0,0,1-.3,1.7,4.48,4.48,0,0,1,.1,1.1,3.75,3.75,0,0,1-.1,1,6.73,6.73,0,0,0-.1,1,.6.6,0,0,0,.1.4.77.77,0,0,1,.1.3c0,.1,0,.1-.1.1l-.6-.2-.6-.3a5,5,0,0,1-.7-.5,4.05,4.05,0,0,1-2.2,1,1.63,1.63,0,0,0-.6.3c-.2.1-.3.2-.4.2s-.4-.4-.4-1.2a7,7,0,0,1,.2-1.6,2.65,2.65,0,0,0-1-.3,1,1,0,0,0-.4.1h-.1c-.1,0-.2-.1-.2-.3a2.07,2.07,0,0,1,.2-.6l.3-.7a2.3,2.3,0,0,1,.7-.8c.3-.2.5-.4.7-.4l1-.2c.6-.1,1-.4,1-.9s-.3-.7-.9-.9l-1.2-.5a9.74,9.74,0,0,1-1.1-.5c-.7-.4-.8-.5-1-.5a.46.46,0,0,0-.4.5.82.82,0,0,0,.8.9.37.37,0,0,0,.3-.1.37.37,0,0,1,.3-.1.22.22,0,0,1,.2.2v.1l-.1.5a3.45,3.45,0,0,1-.9,1.7l-.3.3A4.06,4.06,0,0,1,22,29.1a1.24,1.24,0,0,0-.3.2l-.2.4a7.68,7.68,0,0,1-.6.7,4.62,4.62,0,0,1-.7.7,3.81,3.81,0,0,0-.6.5l-.3.5c0,.1-.1.1-.2.1s-.5-.3-.6-.7-.2-.4-.4-.4a1.09,1.09,0,0,0-.5.1l-.4.1h-1a4.15,4.15,0,0,0-1.6.3.37.37,0,0,1-.3.1c-.1,0-.1,0-.2-.2s-.1-.1-.1-.2a5.66,5.66,0,0,1,.9-2.3,2.36,2.36,0,0,1,.8-.9,1.21,1.21,0,0,0-.8-1l-.5-.1c-.1-.1-.1-.1-.1-.2s.2-.3.7-.6a3.68,3.68,0,0,1,1.6-.5,2.63,2.63,0,0,1,1.5.6c.8.6,1,.7,1.4.7a1.28,1.28,0,0,0,1.2-1.1c0-.4-.2-.8-.8-1.5a3.43,3.43,0,0,1-1-2.3,2.27,2.27,0,0,1,.3-1.3l.3-.4a.37.37,0,0,0,.1-.3c0-.2-.2-.3-.5-.3a5.31,5.31,0,0,0-2,.7c-.3.2-.6.5-.6.6s0,.2.1.2l.3.2.1.1a.31.31,0,0,1-.1.2l-.6.7a7.1,7.1,0,0,1-1.2,1.3l-.3.3a1.09,1.09,0,0,0-.2.4,4,4,0,0,1-1.3,1.3c-.2.1-.3.3-.4.3s-.1.2-.2.4a5.92,5.92,0,0,0-.4.6,9.68,9.68,0,0,1-.7.9l-.9.8a4.27,4.27,0,0,0-.8,1.8c-.2.6-.4,1-.5,1l-.2-.2a3.55,3.55,0,0,0-1.3-1,.37.37,0,0,0-.3.1,6.89,6.89,0,0,1-.8.3L5.7,31a2,2,0,0,0-1.6.9l-.2.2c-.1,0-.2-.1-.2-.3v-.3l.1-.8a7.1,7.1,0,0,1,.6-1.9l.5-.9a.9.9,0,0,0,.1-.5,1.44,1.44,0,0,0-1.5-1.3c-.2,0-.3-.1-.3-.2a1.79,1.79,0,0,1,.5-.7,3.73,3.73,0,0,1,1.8-.7,4.51,4.51,0,0,1,1.3.3l.6.3a1.27,1.27,0,0,0,.6.1c.7,0,1.3-.6,2.1-2a2.64,2.64,0,0,0,.5-1.5c0-.7-.3-1.2-.9-1.2a1.85,1.85,0,0,0-1.2.5,1.22,1.22,0,0,0-.4.9v.4c0,.3-.1.4-.2.4-.3,0-.7-.4-1.8-1.7A3.75,3.75,0,0,1,5,18.6,3.69,3.69,0,0,1,3.8,16v-.6a2.61,2.61,0,0,1-.9-2,1.34,1.34,0,0,1,.2-.8,3.45,3.45,0,0,1-.5-1.1l-.1-.6A2.22,2.22,0,0,0,2,9.8c-.3-.4-.3-.4-.3-.5,0-.3.2-.5,1.2-.7A3.54,3.54,0,0,0,2.8,8a2.25,2.25,0,0,1,.1-.7l.2-1.1a3.44,3.44,0,0,0,.1-.9A2.31,2.31,0,0,0,3,4.4a4.88,4.88,0,0,0-.3-.7.76.76,0,0,1-.2-.4.22.22,0,0,1,.2-.2A5.55,5.55,0,0,1,4.5,4.2c1.6,1.4,2,1.9,2.2,3.5a1.76,1.76,0,0,0,.1.6,2.57,2.57,0,0,1,1.2,2,3,3,0,0,1-.6,1.8l-.6.9a1.61,1.61,0,0,0-.3.9A4.51,4.51,0,0,0,7,15.6c.4.8.8,1.1,1.3,1.1.7,0,1.4-1.3,1.4-2.8v-.7a2.77,2.77,0,0,1,.1-.9c.5-.1.5-.4.5-.5V10.6c0-.2-.1-.3-.3-.5l-.6-.7A4.46,4.46,0,0,1,8,6.8,1.42,1.42,0,0,1,9.5,5.3a1.49,1.49,0,0,1,.6.1V5.2c0-1.3.3-2.2.6-2.2h.1l.5.5.6.4.2.2c0-.4,0-.4.4-.8.1-.1.2-.3.4-.5s.2-.4.3-.4.1-.2.1-.3l.2-.2c.1,0,.1.1.2.4s.1.2.6.7c.2.2.3.3.3.4a3.93,3.93,0,0,0,.2.6.31.31,0,0,0,.1.2,1,1,0,0,1,.6-.5l.4-.3a.77.77,0,0,1,.3-.1.35.35,0,0,1,.1.2c0,.1.1.2.2.4a2.18,2.18,0,0,1,.4,1v.6a1.66,1.66,0,0,1,1.3,1.8,4,4,0,0,1-1.1,2.4c-.5.6-.5.7-.5,1.1,0,2.1,1.5,3.3,4,3.4h1.9a8.08,8.08,0,0,1,3.1.5,8.55,8.55,0,0,0,2.1.5.6.6,0,0,0,.4-.1c.1-.1.2-.2.2-.3,0-.4-.7-.7-3-1.4-4.7-1.3-6.7-3.2-6.7-6.3a4.4,4.4,0,0,1,4.6-4.3,9.82,9.82,0,0,1,2.9.5l1.2.4a1.27,1.27,0,0,0,.6.1c.4,0,.6-.3.6-1,0-.4.1-.5.3-.5s.8.4,1.3,1.1a3.7,3.7,0,0,1,.8,1.9,1.68,1.68,0,0,1-1,1.5,2.66,2.66,0,0,1-2.5,1.4c-.8,0-2-.5-3.9-1.6a2.61,2.61,0,0,0-1.4-.5.71.71,0,0,0-.8.7c0,.4.3.7,1.2,1a4,4,0,0,1,2,1.1,5.16,5.16,0,0,1,3,1.2c2.5.8,4,2.5,4,4.5a3.1,3.1,0,0,1-3.1,3.3c-.2.1-.5,0-1.2-.1"/><path id="_Path_3" data-name="&lt;Path&gt;" class="cls-3" d="M80.4,17.8l.1.4a5.07,5.07,0,0,1,.2.9c.4,1.6.7,2.1,1.5,2.1a1,1,0,0,0,.9-.6l.2-.6c0-.1.1-.2.3-.2s.5.3.5,1c0,.3.1.7.2,1.4a6.15,6.15,0,0,1,.1,1.3,1.2,1.2,0,0,1-.2.8l.1.3a5.13,5.13,0,0,1,.1,1,4.83,4.83,0,0,1-.3,2.1,4.14,4.14,0,0,1,.1,1,4.59,4.59,0,0,1-.1,1l-.1.9v.5a.77.77,0,0,1,.1.3c0,.1,0,.1-.1.1l-.6-.2-.6-.3a5,5,0,0,1-.7-.5,2.09,2.09,0,0,1-1.3.7c-.9.3-1.3.4-1.5.5s-.3.2-.4.2-.4-.4-.4-1.1a5.42,5.42,0,0,1,.2-1.7,4.28,4.28,0,0,0-1-.3c-.1,0-.1,0-.4.1h-.1c-.1,0-.1-.1-.1-.3a3.07,3.07,0,0,1,.5-1.3c.4-.6.9-1.2,1.4-1.3l1-.2c.6-.1,1-.4,1-.9s-.3-.7-.9-.9l-1.2-.2a3.7,3.7,0,0,1-1.1-.5,5.92,5.92,0,0,1-.6-.4.76.76,0,0,0-.4-.1.46.46,0,0,0-.4.5.88.88,0,0,0,.8.9.37.37,0,0,0,.3-.1.37.37,0,0,1,.3-.1c.1,0,.2.1.2.3a3.12,3.12,0,0,1-.7,1.8l-.3.4-.3.3a4.22,4.22,0,0,1-1.5,2.3,1.24,1.24,0,0,0-.3.2l-.2.4a7.68,7.68,0,0,1-.6.7,4.62,4.62,0,0,1-.7.7,3.81,3.81,0,0,0-.6.5l-.3.5c-.1.1-.1.1-.2.1-.3,0-.5-.3-.6-.7s-.2-.4-.4-.4a1.09,1.09,0,0,0-.5.1l-.5.1h-1a3.81,3.81,0,0,0-1.6.3.37.37,0,0,1-.3.1c-.1,0-.2-.1-.2-.4a5.42,5.42,0,0,1,1.6-3.2,1.21,1.21,0,0,0-.8-1,1.75,1.75,0,0,0-.5-.1.1.1,0,0,1-.1-.1c0-.2.2-.4.7-.6a2.87,2.87,0,0,1,1.5-.5,2.4,2.4,0,0,1,1.5.6c.8.6,1,.7,1.4.7A1.28,1.28,0,0,0,73.7,26c0-.4-.2-.8-.8-1.5a3.47,3.47,0,0,1-1-2.4,2.89,2.89,0,0,1,.6-1.7.37.37,0,0,0,.1-.3c0-.2-.3-.3-.5-.3a3.46,3.46,0,0,0-1.2.3c-.9.4-1.4.8-1.4,1a.35.35,0,0,0,.1.2l.3.2.1.1a.31.31,0,0,1-.1.2,7.68,7.68,0,0,1-.6.7,15.38,15.38,0,0,1-1.2,1.3l-.3.3-.2.4a7.1,7.1,0,0,1-1.2,1.3c-.2.2-.3.3-.4.3s-.1.2-.3.4A9.73,9.73,0,0,1,64.6,28l-.7.8a6.3,6.3,0,0,0-.8,1.8c-.2.7-.4,1-.5,1l-.2-.2c-.6-.6-1-1-1.3-1a.37.37,0,0,0-.3.1,6.89,6.89,0,0,1-.8.3L59,31c-.9.2-1.2.3-1.6.9l-.2.2c-.1,0-.2-.1-.2-.4v-.2a2.77,2.77,0,0,0,.1-.8,6.07,6.07,0,0,1,.6-1.9l.5-.9c.1-.1.1-.2.1-.4,0-.7-.6-1.2-1.5-1.3-.2,0-.3-.1-.3-.2a1.07,1.07,0,0,1,.6-.6,2.92,2.92,0,0,1,1.7-.7,4.51,4.51,0,0,1,1.3.3l.6.3a1.27,1.27,0,0,0,.6.1c.7,0,1.3-.6,2.1-2a2.64,2.64,0,0,0,.5-1.5c0-.7-.3-1.2-.9-1.2a1.85,1.85,0,0,0-1.2.5,1.38,1.38,0,0,0-.5.9v.4c0,.2-.1.3-.2.3s-.5-.2-1-.8c-.2-.2-.5-.6-.8-.9a3.3,3.3,0,0,1-1.1-2.4A3.69,3.69,0,0,1,57,16.1v-.6a2.37,2.37,0,0,1-.8-2,1.08,1.08,0,0,1,.2-.8,3.45,3.45,0,0,1-.5-1.1l-.1-.6a2.22,2.22,0,0,0-.5-1.1c-.3-.4-.3-.4-.3-.5,0-.3.3-.5,1-.7l.3.1a3.54,3.54,0,0,0-.1-.6,2.25,2.25,0,0,1,.1-.7l.2-1.1a3.44,3.44,0,0,0,.1-.9,2,2,0,0,0-.2-.9,4.88,4.88,0,0,0-.3-.7c-.1-.2-.2-.3-.2-.4a.22.22,0,0,1,.2-.2.37.37,0,0,1,.3.1,11.83,11.83,0,0,1,2.8,2.2,4.66,4.66,0,0,1,1,2.9,2.32,2.32,0,0,1,1.2,2.2,2.93,2.93,0,0,1-.6,1.7,6.38,6.38,0,0,1-.6.9,1.69,1.69,0,0,0-.3,1,4.51,4.51,0,0,0,.5,1.7c.4.8.8,1.1,1.3,1.1.7,0,1.4-1.3,1.4-2.7V13.3l.1-.7.1-.8.1-.7v-.4c0-.3-.1-.4-.9-1.3a3.94,3.94,0,0,1-1.4-2.7,1.45,1.45,0,0,1,1.5-1.4,1.49,1.49,0,0,1,.6.1V4.5l.2-.7c.1-.6.2-.7.4-.7h.1l.5.5L65,4l.2.2c0-.4.1-.4.4-.8a2.18,2.18,0,0,1,.4-.5l.3-.4.2-.3c.1-.2.2-.2.2-.2s.1.1.2.4a.54.54,0,0,0,.3.4l.4.3a2,2,0,0,1,.6,1.2,1,1,0,0,1,.6-.5l.5-.3a.77.77,0,0,1,.3-.1.35.35,0,0,1,.1.2c.1.1.1.3.2.4.4.6.4.7.4,1.1v.5a1.59,1.59,0,0,1,1.3,1.8,3.75,3.75,0,0,1-1.1,2.4c-.5.6-.6.8-.6,1.2,0,2,1.5,3.2,4.1,3.3h1.9a8.08,8.08,0,0,1,3.1.5,8.55,8.55,0,0,0,2.1.5.46.46,0,0,0,.5-.4c0-.4-.7-.7-3-1.4-4.7-1.3-6.7-3.2-6.7-6.3a4.4,4.4,0,0,1,4.6-4.3,8.68,8.68,0,0,1,2.8.5l1.2.4a1.27,1.27,0,0,0,.6.1c.4,0,.6-.2.6-1,0-.3.1-.5.3-.5s.9.5,1.3,1.1A4,4,0,0,1,84,5.4a1.46,1.46,0,0,1-1,1.4,2.66,2.66,0,0,1-2.5,1.4,8.47,8.47,0,0,1-3.9-1.6,2.61,2.61,0,0,0-1.4-.5.71.71,0,0,0-.8.7c0,.4.3.7,1.2,1,1.3.5,1.6.6,2,1.1a5.16,5.16,0,0,1,3,1.2c2.6.8,4,2.4,4,4.5a3,3,0,0,1-3,3.2c-.3.2-.5.1-1.2,0"/><path id="_Path_4" data-name="&lt;Path&gt;" class="cls-3" d="M27.8,71.6c.2.6.3.9.4,1.3l.1,1.2q0,1.8,1.2,1.8a.85.85,0,0,0,.6-.2l.3-.3h.1c.2,0,.3.1.3.4v.5a7.77,7.77,0,0,0,.1,1.3,4.87,4.87,0,0,1,.1,1.2,2.38,2.38,0,0,1-.3,1.4,5.55,5.55,0,0,1,.3,1.7,2.9,2.9,0,0,1-.3,1.4,4.14,4.14,0,0,1,.1,1,4.91,4.91,0,0,1-.1,1.1,8.17,8.17,0,0,0-.1,1.4v.1c0,.2-.1.3-.2.3s-.2-.1-.3-.2-.3-.3-.4-.3-.3.1-.5,1a3.78,3.78,0,0,1-.7,1.1,1.46,1.46,0,0,0-.5.8c-.1.3-.1.5-.2.6s-.1.1-.2.1h0c-.5,0-1-1-1.6-2.9-.2-.5-.4-.8-.6-.8a.55.55,0,0,0-.5.3l-.2.4a.1.1,0,0,1-.1.1c-.2,0-.6-.4-.8-.9a3.08,3.08,0,0,1-.3-1.3c0-.9.7-1.6,2.6-2.7a2.14,2.14,0,0,0,1.2-2.2,2.33,2.33,0,0,0-1-2,2,2,0,0,0-1.3-.6.46.46,0,0,0-.5.4c0,.3.2.4.5.6s.6.3.6.5a2.26,2.26,0,0,1-.5,1,2.58,2.58,0,0,1-.9.9A2.56,2.56,0,0,1,22.8,83a3.88,3.88,0,0,1-.6,1.1l-.6.8a1.8,1.8,0,0,0-.4.9c-.1.4-.1.5-.3.5a2.82,2.82,0,0,1-1.2-1,1.8,1.8,0,0,1-.4-.9,1.33,1.33,0,0,1-1,.3,1.88,1.88,0,0,0-.8.2c-.2-.2-.3-.1-.4-.1s-.2-.1-.2-.3v-.6a3.66,3.66,0,0,1,.9-2.5,2.63,2.63,0,0,0-1.4-.7c-.2,0-.2,0-.2-.1a.91.91,0,0,1,.3-.5,3.81,3.81,0,0,1,.5-.6,3.16,3.16,0,0,1,1.7-.6,4.08,4.08,0,0,1,1.6.4,2,2,0,0,0,.7.1c.3,0,.5-.2.5-.6a9.58,9.58,0,0,0-.8-2.6,5.49,5.49,0,0,1-.6-1.9A2.7,2.7,0,0,1,21.2,72a1.51,1.51,0,0,0-.8-.2,1.9,1.9,0,0,0-.9.3c-.4.2-.7.5-.7.6s.1.1.2.2.3.2.3.4a3.62,3.62,0,0,1-1.4,2.3,2.44,2.44,0,0,1-1.5,2,3,3,0,0,1-.6,1.3,6.86,6.86,0,0,0-1.1,2c-.1.3-.1.4-.2.4a1.18,1.18,0,0,1-.6-.5,2.25,2.25,0,0,0-.5-.5,3,3,0,0,1-.3-.9.76.76,0,0,1-.4.1H12a3.51,3.51,0,0,0-1.6.3.31.31,0,0,1-.2.1c-.2,0-.3-.4-.3-.9a4.38,4.38,0,0,1,1-2.8l-.5-.5-.2-.2-.3-.2c-.1-.1-.2-.1-.2-.2a3.43,3.43,0,0,1,.9-.9,2.18,2.18,0,0,1,1.4-.5c.5,0,.7.1,1.3.6a1.35,1.35,0,0,0,.9.5.54.54,0,0,0,.4-.3.6.6,0,0,0,.1-.4,2.73,2.73,0,0,0-1.4-1.9,2.62,2.62,0,0,0-1.7-.5,2,2,0,0,0-1.8,1l-.5.7c-.1.2-.2.2-.3.2s-.3-.1-.9-.8l-.7-.9c-.2-.3-.4-.5-.5-.7a.76.76,0,0,1-.1-.4,1.24,1.24,0,0,0-.3-.2,3.42,3.42,0,0,1-1.2-2.4.76.76,0,0,0-.1-.4A4.73,4.73,0,0,1,4.1,65a.76.76,0,0,1,.1-.4c-.4-.4-.5-.5-.8-1.6a3.49,3.49,0,0,0-.7-1.5.31.31,0,0,1-.1-.2c0-.1.2-.3.7-.3a1.76,1.76,0,0,1,.6-.1h.6v-.8a5.7,5.7,0,0,1,.1-1.3,1.55,1.55,0,0,0,0-1.1,1,1,0,0,0-.1-.4.35.35,0,0,0-.1-.2c0-.1.1-.1.2-.1a.76.76,0,0,1,.4.1,6.35,6.35,0,0,1,1.2.7A4.57,4.57,0,0,1,8,60.5v.2a.58.58,0,0,1-.1.4,1.69,1.69,0,0,0,.2.5l.3.4a2.11,2.11,0,0,1,.5,1.1c0,.3-.1.4-.5,1a2.66,2.66,0,0,0-.5,1.3,3.49,3.49,0,0,0,.6,1.8c.3.6.7.9,1.1.9.6,0,.9-.6,1-2.1a15,15,0,0,1,.2-2.2v-.4c0-.2-.1-.3-.3-.6l-.9-1c-.8-1-1.1-1.4-1.1-2.1a1.21,1.21,0,0,1,1.3-1.3h.3v-.2a2.81,2.81,0,0,1,.1-.8c.2-.6.4-1.1.5-1.1a.77.77,0,0,1,.3.1,4.2,4.2,0,0,0,.5.2,3.29,3.29,0,0,1,.6.3,1.6,1.6,0,0,1,.5-1,3.43,3.43,0,0,1,.9-.9.91.91,0,0,1,.5.3l.5.6a2.19,2.19,0,0,1,.3.5l.1.3a1.24,1.24,0,0,0,.3-.2,2.19,2.19,0,0,0,.5-.3,5.2,5.2,0,0,1,.5-.3.37.37,0,0,1,.3-.1c.1,0,.1.2.4,1.1a6.88,6.88,0,0,1,.2,1.3c.9.1,1.3.6,1.3,1.6A4.32,4.32,0,0,1,17,62.7a.74.74,0,0,0-.3.7c0,2.5.9,3.3,4,3.6a19.61,19.61,0,0,1,4.8,1,7.66,7.66,0,0,0,2.4.5c.5,0,.8-.2.8-.5,0-.5-.4-.7-2.7-1.2-5.3-1.1-7.4-2.9-7.4-6.4a4.21,4.21,0,0,1,4.3-4.3,6.63,6.63,0,0,1,3.6,1.2c1.4.8,1.7,1,2.1,1s.5-.2.5-.9c0-.4.1-.6.4-.6a1.4,1.4,0,0,1,.9.6,2.29,2.29,0,0,1,.7,1.6,1.93,1.93,0,0,1-1.6,2l-.3.3a2.25,2.25,0,0,1-2,.9,4.63,4.63,0,0,1-2.5-.8l-1.4-1a2.66,2.66,0,0,0-1.4-.6.8.8,0,0,0-.9.9,1.27,1.27,0,0,0,1,1.2l1.3.4a3.08,3.08,0,0,1,1.2.5,3.54,3.54,0,0,0,.6-.1,5,5,0,0,1,2.4.6,1.69,1.69,0,0,0,.5.2l.7.2a4.44,4.44,0,0,1,2.9,4A3.13,3.13,0,0,1,28.2,71Z"/><path id="_Path_5" data-name="&lt;Path&gt;" class="cls-3" d="M77.3,71.1a2.39,2.39,0,0,0,1.8,1.1,2.49,2.49,0,0,0,.8-.1c.2,0,.3-.1.4-.1s.2,0,.2.2a4.33,4.33,0,0,0-.1.5c-.1.2-.1.4-.2.5l-.1.6-.3.5-.5.5-.1.1v.4a1.56,1.56,0,0,1-.8,1.5.35.35,0,0,1-.2.1l-.1.2a3,3,0,0,1-.3,1c-.1.2-.3.4-.5.8a5.23,5.23,0,0,0-.7,1.2c-.1.3-.2.4-.4.4s-.6-.3-.6-.8c-.1.1-.1.1-.1.2l-.3.2-.5.4a.91.91,0,0,1-.5.3l-.3.3c-.1.1-.1.1-.2.1s-.3-.2-.4-.7l-.3-.9a2.77,2.77,0,0,1-.1-.9,1.64,1.64,0,0,1,.2-1,5.63,5.63,0,0,0-1,.2.35.35,0,0,0-.2.1.22.22,0,0,1-.2-.2c0-.1.1-.3.1-.4l.4-1A2.27,2.27,0,0,1,74.1,75a2,2,0,0,1,.7.1.76.76,0,0,0,.4.1.56.56,0,0,0,.6-.5.76.76,0,0,0-.2-.4s-.4-.1-1-.3-.7-.3-1.3-.9c-.4-.4-.5-.6-.7-.6a.22.22,0,0,0-.2.2v.6a5.09,5.09,0,0,1-.8,2.6l-.8,1.5a3.21,3.21,0,0,0-.5,1.7c0,.6.2,1.1.6,1.2l.4.1c.1,0,.1,0,.1.1s.1.1.1.2a.37.37,0,0,1-.1.3c0,.1-.2.3-.5.7a2.87,2.87,0,0,1-1.4,1.1,3,3,0,0,1-1.9,1.7l-.1.2a2.17,2.17,0,0,1-1.6,1.1h-.1a2.37,2.37,0,0,1-1,1.5c-.4.3-.6.4-.7.5a.44.44,0,0,0-.1.3c-.1.3-.2.4-.4.4s-.6-.3-.7-.8c-.1.1-.2.1-.3.2a3.61,3.61,0,0,0-.5.4,3,3,0,0,1-1,.3,4.18,4.18,0,0,0-1.5.7l-.3.4h-.1c-.1,0-.3-.2-.4-.4a5.5,5.5,0,0,1-.3-1.6A3.3,3.3,0,0,1,59.9,85v-.2c0-1.6,1.2-2.6,3-2.6h.3l1,.1h.1a2.4,2.4,0,0,0,1.5-.6c.7-.6.9-.9.9-1.6a9,9,0,0,0-.3-1.2c0-1.1-.1-1.6-.1-2a4.72,4.72,0,0,1,2-3.4,1.18,1.18,0,0,0,.5-.6c0-.1,0-.1-.1-.1s-.2.1-.4.2a2.15,2.15,0,0,1-.7.4l-.3.2-.6.2c-.2.1-.2.1-.2.3a.37.37,0,0,0,.1.3.35.35,0,0,0,.1.2.37.37,0,0,1-.1.3l-.4.7A2.49,2.49,0,0,1,65,76.7a1.91,1.91,0,0,1-1.5,1.5,2.2,2.2,0,0,1-2,1.6,3.05,3.05,0,0,1-.9,1.3c-.2.2-.3.4-.4.5-.2.4-.2.4-.3.4a2.74,2.74,0,0,1-.7-.4l-.3-.3-.3-.5c-.1-.1-.2-.2-.3-.2h-.2l-.6.1c-.4.1-1,.4-1.1.7l-.3.5L56,82c-.3,0-.4-.6-.4-1.5a3,3,0,0,1,.4-1.8l.8-1.1c.1-.2.2-.3.2-.4a.6.6,0,0,0-.1-.4c-.2-.2-.3-.3-.5-.3l-.6-.1c-.1,0-.2,0-.2-.1a.31.31,0,0,1,.1-.2c.2-.2.4-.5.7-.6a3.55,3.55,0,0,1,1.6-.6,3,3,0,0,1,1.5.5l.8.5a.6.6,0,0,0,.4.1.93.93,0,0,0,.9-.7A2.42,2.42,0,0,0,62,74a1.73,1.73,0,0,0-1.8-1.8,2.4,2.4,0,0,0-1.5.6l-.3.3-.1.2c-.1.1-.1.2-.2.2a1.78,1.78,0,0,1-.7-.9,10.37,10.37,0,0,1-.4-1,3.9,3.9,0,0,1-.2-1.4v-.8a2.73,2.73,0,0,1-.5-1.8,2.17,2.17,0,0,1,.2-1,2.5,2.5,0,0,1-.3-1.3v-.4l.1-.4.1-.3c-.3-.4-.4-.6-.6-1.9-.2-.7-.2-1-.4-1.2-.1,0-.1,0-.1-.1s.4-.3.8-.3h.4a1.49,1.49,0,0,1-.1-.6,5.16,5.16,0,0,1,.2-1.1c.1-.4.2-.6.2-.7a2.48,2.48,0,0,0-.1-.9l-.2-.6c0-.1-.1-.2-.1-.3s0-.1.1-.1A4.93,4.93,0,0,1,59,57.8a3.14,3.14,0,0,1,1.1,2.6V61a2.41,2.41,0,0,1,1.1,1.9,1.53,1.53,0,0,1-.6,1.2,2.38,2.38,0,0,0-.9,2.1c0,1.5.5,2.3,1.3,2.3s1.3-.8,1.4-2l.1-1.1c0-.3.1-.6.1-1a5.64,5.64,0,0,1,.1-.7c0-.4-.3-.8-1-1.7a3.26,3.26,0,0,1-1.1-2.2A1.39,1.39,0,0,1,62,58.3a.85.85,0,0,1,.6.2,2.4,2.4,0,0,1,.3-1.3c.2-.6.5-.9.6-.9a.31.31,0,0,1,.2.1,1.38,1.38,0,0,0,.4.3,1.24,1.24,0,0,1,.3.2l.3.3a4,4,0,0,1,.9-1.5c.4-.4.5-.5.6-.5s.1,0,.2.1l.3.5.5.5a1.08,1.08,0,0,1,.3.9l.3-.2.5-.3c.1,0,.2-.1.3-.2s.1-.1.2-.1a.35.35,0,0,1,.1.2l.2.7.4.7a1.48,1.48,0,0,1,.1.7v.2h.2c.6,0,1,.7,1,1.4a4,4,0,0,1-1.9,3,2.2,2.2,0,0,0-.1.8c0,2.3.6,2.7,4.1,3.3a13.16,13.16,0,0,1,2.3.5c.1,0,.9.3,2.3.7a4.92,4.92,0,0,0,1.7.4c.4,0,.7-.1.7-.3,0-.4-.6-.7-2.3-1.4l-2.5-1c-2.5-1-3.7-2.5-3.7-4.8A4.53,4.53,0,0,1,76,56.9a9.79,9.79,0,0,1,3.4.7c1.8.7,1.9.7,2.1.7s.5-.2.6-.7.2-.6.4-.6.7.3,1,.9a4.19,4.19,0,0,1,.4,1.5,1.57,1.57,0,0,1-1.4,1.7,2.8,2.8,0,0,1-2.3,1.2c-1.1,0-1.7-.2-3.6-1.4a2.64,2.64,0,0,0-1.5-.5c-.7,0-1.2.4-1.2,1s.4.9,1.4,1.1a1.15,1.15,0,0,1,.9.5c0-.2.1-.2.2-.2a5,5,0,0,1,3,1.3,4.68,4.68,0,0,1,3.3,4,3.31,3.31,0,0,1-3.2,3.3,7,7,0,0,1-2.2-.3"/><path id="_Path_6" data-name="&lt;Path&gt;" class="cls-4" d="M30.1,30.3a2,2,0,0,1-.1-.7v-.2l.1-.5v-.4a2,2,0,0,0-.2-.9l-.3-.5c-.1-.2-.2-.3-.3-.5a.35.35,0,0,0-.1-.2.22.22,0,0,1,.2-.2c.1,0,.1,0,.4.2a.37.37,0,0,0,.3.1c.2,0,.3-.3.3-.8a1.85,1.85,0,0,0-.2-1l-.4-.5-.5-.3a.31.31,0,0,1-.1-.2.22.22,0,0,1,.2-.2c.1,0,.4.1.6.1h.1a.22.22,0,0,0,.2-.2v-.7l-.2-.6c-.1-.2-.1-.2-.2-.2h-.1l-.7.1H29a2.55,2.55,0,0,1-2.2-1.8l-.6-1.8a3.52,3.52,0,0,0-1.4-1.7.86.86,0,0,0-.6-.3l-.5-.1a.35.35,0,0,1-.2-.1c0-.1.1-.2.4-.2l.9.1a6.76,6.76,0,0,1,1.5.4,5.81,5.81,0,0,0,1.9.4,2.05,2.05,0,0,0,2.3-2.1,3.51,3.51,0,0,0-1.2-2.5,2.13,2.13,0,0,0-.9-.6c-.1,0-.1.1-.1.2v.4h0c0,.1-.1.3-.2.3s-.3-.2-.5-.6a2.74,2.74,0,0,0-2.3-1.8c-.2,0-.3.1-.3.2a.76.76,0,0,0,.1.4l.2.5a.37.37,0,0,1,.1.3l-.1.1a.91.91,0,0,1-.5-.3l-.2-.6-.4-.6a2,2,0,0,0-1.2-1,3.22,3.22,0,0,1-.7-.4.6.6,0,0,0-.4-.1.35.35,0,0,0-.2.1.37.37,0,0,0,.1.3,1.55,1.55,0,0,1,.3.6.35.35,0,0,1-.1.2c-.2,0-.7-.4-1.1-1.1a3.32,3.32,0,0,1-.5-1.6,2.05,2.05,0,0,1,2.1-2.1,4.74,4.74,0,0,1,2.1.7l1.3.8a3.68,3.68,0,0,0,1.6.5c.2,0,.6-.1.8-.1s.2-.1.3-.1.1-.1.1-.2,0-.1-.1-.1l-.2-.1-.6-.1a2,2,0,0,1-.8-.3,8.33,8.33,0,0,1-1.4-.7,4.54,4.54,0,0,0-.9-.5c-.2-.1-.4-.2-.4-.3s0-.1.1-.1a.37.37,0,0,1,.3.1,1.86,1.86,0,0,0,1.1.4l1.2.4a8.09,8.09,0,0,0,1.9.4.9.9,0,0,0,.9-.9,2.37,2.37,0,0,0-.5-1.2c-.1-.1-.1-.1-.2-.1a.22.22,0,0,0-.2.2v.5c0,.4-.2.7-.6.7a.6.6,0,0,1-.4-.1L26,4.3a10.61,10.61,0,0,0-3-.7,3.65,3.65,0,0,0-3.9,3.5c0,2.3,1.6,3.7,5.5,5.1S29,13.9,29,14.9A1.2,1.2,0,0,1,27.8,16a1.48,1.48,0,0,1-.7-.1c-.1,0-.8-.2-1.9-.5a13.42,13.42,0,0,0-3.5-.4c-2.8,0-4.3.5-5.7,1.8-.3.3-.4.4-.8.4h-.6a1,1,0,0,0-.8.5,5.91,5.91,0,0,0-.5.8c-.1.1-.2.2-.3.2-.3,0-.4-.2-.7-.9a2.36,2.36,0,0,0-.6-.9l-.6-.5c.2-.1.2-.2.2-.2a.37.37,0,0,1,.1-.3c.3-.4.4-.6.4-.7.1-.4.1-.4.2-.4s.2.2.2.8a4.5,4.5,0,0,0,.2.8l.3.7c0,.1.1.1.3.1s.7-.7.8-1.4.1-.8.3-.8a.1.1,0,0,1,.1.1,5.2,5.2,0,0,0,.3.5.78.78,0,0,0,.4.4,1.24,1.24,0,0,1,.3.2h0c.2,0,.3-.1.4-.7v-1c0-.2.1-.3.2-.3s.1,0,.2.1l.3.3a.86.86,0,0,0,.6.3c.2,0,.4-.1.4-.3a2.6,2.6,0,0,0-.3-.7l-.2-.4q-.3-.6-.6-.6h-.3l-.3.1a.35.35,0,0,0-.2.1.1.1,0,0,1-.1-.1,2.77,2.77,0,0,1,.5-1.2,6.44,6.44,0,0,0,.5-2.2c.1-1.5.3-2.5.5-2.5s.2.1.2.4v.7a1.21,1.21,0,0,0,.1.5c.2,0,.5-.4.8-1a1.27,1.27,0,0,0,.1-.6V7l-.6-1.1-.6-.2a.35.35,0,0,1-.2-.1V4.9l-.2-.1-.1-.3-.1-.3a2.64,2.64,0,0,0-1.1.9c-.2.3-.3.4-.5.4a.1.1,0,0,1-.1-.1,1.34,1.34,0,0,1,.1-.5V4.7a2,2,0,0,0-1-1.6l-.3.2-.2.3-.3.4a1.63,1.63,0,0,0-.3.6c0,.1-.1.2-.1.3h0V5c0,.2,0,.3-.1.3h-.1L12,5l-.3-.3-.5-.3-.3-.2c0,.1-.1.2-.1.3a1.09,1.09,0,0,0-.1.5V6.1c0,.2-.1.3-.2.3s-.2-.1-.3-.1a.6.6,0,0,0-.4-.1.71.71,0,0,0-.7.8,2.46,2.46,0,0,0,.5,1.5L10,9a1.44,1.44,0,0,0,.3.2l.1-.6-.1-.5V7.9c0-.2.1-.3.2-.3s.3.2.4.7l.2,1.1.2,1.3c.1.4.2.7.3,1.1a4.34,4.34,0,0,0,.5,1,5.76,5.76,0,0,0,.4.5.1.1,0,0,1-.1.1c-.1,0-.1,0-.3-.1s-.2-.1-.3-.1h-.2c-.5,0-.6.4-.6,2.3a11.79,11.79,0,0,0,.5,3.5l.6,1.5a1.7,1.7,0,0,1,.1.7c0,2.1-2.8,5.3-5.8,6.8a2.47,2.47,0,0,0-1.6,2.3v.4a6.89,6.89,0,0,1,1-.4c.8-.2,1-.3,1.1-.7l.1-.4c0-.1.1-.2.8-.5a1,1,0,0,0,.5-.4,1.87,1.87,0,0,1,.3-.4c.1,0,.1,0,.1.1v.1l-.5.7V29a1.51,1.51,0,0,0,.9,1.4,2.35,2.35,0,0,1,.4-1.2l.5-.8a2.13,2.13,0,0,0,.3-1.2,2.77,2.77,0,0,0-.1-.9v-.2a.22.22,0,0,1,.2-.2c.1,0,.2,0,.2.1l.1.5c0,.1.1.2.3.2s.6-.3,1-1a1.88,1.88,0,0,0,.2-.8v-.4l-.1-.4V24a.27.27,0,0,1,.3-.3c.1,0,.1,0,.1.1l.2.7c.1.2.2.4.4.4s.5-.3.7-.7a2.13,2.13,0,0,0,.3-1.2c0-.6.1-.8.3-.8s.1,0,.1.1l.1.4a.22.22,0,0,0,.2.2c.1,0,.4-.3.6-.7a.37.37,0,0,0,.1-.3c0-.1-.1-.2-.3-.4s-.3-.3-.3-.7a2.24,2.24,0,0,1,.3-1c.1-.2.3-.5.4-.7.4-.7.5-.9.6-.9a.22.22,0,0,1,.2.2c0,.1,0,.2-.1.2a.77.77,0,0,0-.1.3.22.22,0,0,0,.2.2,1.69,1.69,0,0,0,.5-.2,4.42,4.42,0,0,0,.8-.3l.9-.3a1.08,1.08,0,0,1,.6-.1.9.9,0,0,1,.5.1,2.25,2.25,0,0,0,.7.1.47.47,0,0,0,.5-.5,1.65,1.65,0,0,0-.5-.9.1.1,0,0,1-.1-.1v-.1c0-.1.1-.1.2-.1s.6.5,1,1.1c2.5,3.9,3.3,4.8,5,5.3s2.1.9,2.1,1.9a3.75,3.75,0,0,1-.9,2c-1.2,1.7-1.5,2.4-1.5,3.6v.2a.37.37,0,0,1,.3-.1,1.69,1.69,0,0,1,.5-.2l.7-.1c.2,0,.4-.3.4-.6v-.1l-.1-.6V29a.71.71,0,0,1,.3-.6l.1-.1a.22.22,0,0,1,.2.2l.5,1a2.16,2.16,0,0,0,1,.8"/><path id="_Path_7" data-name="&lt;Path&gt;" class="cls-4" d="M7.1,9.6q-.3,0-.3.6l-.1.5a3.2,3.2,0,0,0-.1.7c0,.4.1.7.3.7s.5-.3.6-.7a1.7,1.7,0,0,0,.1-.7,1.27,1.27,0,0,0-.1-.6c-.1-.3-.2-.5-.4-.5"/><path id="_Path_8" data-name="&lt;Path&gt;" class="cls-4" d="M4.5,5.2v.2a7.75,7.75,0,0,1-.4,1.9,1.09,1.09,0,0,0-.1.5,1.42,1.42,0,0,0,.2.6l.3.3.3.2.1.4a1.27,1.27,0,0,0,.1.6,2.49,2.49,0,0,1,.1.8c0,.2,0,.3-.1.3s-.3-.3-.5-.7c-.3-.7-.5-.9-.9-.9a1.64,1.64,0,0,0-.9.2c.1.1.1.2.2.2a5.2,5.2,0,0,0,.3.5l.4.8c.3.5.4.8.5.9a.78.78,0,0,0,.4.4,5.2,5.2,0,0,1,.5.3c.1.1.2.2.2.3a.22.22,0,0,1-.2.2H5l-.4-.1H4.4c-.1,0-.2.1-.2.3a3.14,3.14,0,0,0,1.7,2.4c.1.1.2.2.2.3a.22.22,0,0,1-.2.2c-.1,0-.2-.1-.4-.1s-.1-.1-.2-.1-.2.1-.2.3a5.84,5.84,0,0,0,.5,1.3,1.76,1.76,0,0,0,1,.9l1.3.5c.1,0,.1.1.1.2a.22.22,0,0,1-.2.2h-1c-.2,0-.2,0-.2.1a4.93,4.93,0,0,0,.4.9c.3.5.6.8.7.8s.1-.1.2-.1l.3-.7a6,6,0,0,1,.7-.6,1.33,1.33,0,0,1,.8-.3l.5-.1c.1,0,.2-.1.2-.3v-.4l-.1-.6V17.1c0-.2-.1-.2-.1-.2s-.2.1-.3.2c-.4.7-.8.9-1.2.9C7.2,18,6,15.3,6,11.8a5.74,5.74,0,0,1,.1-1.2,10.62,10.62,0,0,0,.1-1.5,4.5,4.5,0,0,0-1-3.3l-.4-.4Z"/><path id="_Path_9" data-name="&lt;Path&gt;" class="cls-4" d="M8.2,26a4.54,4.54,0,0,1-.8-.2c-.1,0-.2-.1-.5-.2a3,3,0,0,0-1.1-.3,1.58,1.58,0,0,0-1.2.5l.3.2.6.4.5.4a.76.76,0,0,0,.5.2c.4,0,.9-.3,1.7-1"/><path id="_Path_10" data-name="&lt;Path&gt;" class="cls-4" d="M19.1,31.2a1.34,1.34,0,0,1,.6-.7c.8-.7,1.2-1.2,1.2-1.6v-.6c0-.4.1-.5.3-.5s.2,0,.2.1l.1.3c0,.1.1.1.2.1a.54.54,0,0,0,.4-.3l.3-.4a1.42,1.42,0,0,0,.2-.6.37.37,0,0,0-.1-.3c0-.1-.1-.2-.2-.5a.6.6,0,0,1-.1-.4.27.27,0,0,1,.3-.3c.1,0,.2,0,.2.1l.2.3c.1.1.1.1.2.1s.2-.1.3-.2l.2-.5a.37.37,0,0,0,.1-.3q0-.15-.3-.3l-.4-.2a2,2,0,0,1-.9-1.8.37.37,0,0,1,.1-.3l.2-.5a.75.75,0,0,0,.1-.5,1.61,1.61,0,0,0-.3-.9l-.4-.6c-.2-.4-.3-.6-.4-.6h-.1l-.2.1-.2.4-.4.5-.4.2a1.37,1.37,0,0,0-.5,1c0,.7.1.9,1.1,2.6a3.19,3.19,0,0,1,.6,1.6c0,1.2-1,2-3.1,2.5l-1.3.3a2.15,2.15,0,0,0-1.7,2,2.36,2.36,0,0,1,1.3-.2H17c.4,0,.4,0,.7-.4a3.24,3.24,0,0,1,.9-.8l.5-.2.2-.1h.1c.1,0,.2,0,.2.1a.91.91,0,0,1-.3.5,1.82,1.82,0,0,0-.5,1.1,1.33,1.33,0,0,0,.3.7"/><path id="_Path_11" data-name="&lt;Path&gt;" class="cls-4" d="M15.5,26.8a3.45,3.45,0,0,1,.9.8c.3.4.3.4.6.4a.6.6,0,0,0,.4-.1l.3-.1c.5-.1.6-.2.6-.3s0-.2-.1-.2l-.3-.3-.3-.3a1.4,1.4,0,0,0-.9-.3,1.92,1.92,0,0,0-1.2.4"/><path id="_Path_12" data-name="&lt;Path&gt;" class="cls-4" d="M24.8,28.3h.9a1.2,1.2,0,0,0,1.2-1.1c0-.2-.2-.3-.5-.3-.9,0-1.3.4-1.6,1.4"/><path id="_Path_13" data-name="&lt;Path&gt;" class="cls-4" d="M83.2,30.3a1.34,1.34,0,0,1-.1-.5v-.4a4.91,4.91,0,0,0,.1-1.1,1.42,1.42,0,0,0-.2-.6l-.3-.5a1.33,1.33,0,0,1-.3-.8c0-.2,0-.2.2-.2h.1a.44.44,0,0,0,.3.1.37.37,0,0,0,.3.1c.2,0,.3-.3.3-.8,0-.7-.1-1.1-.6-1.4l-.4-.3c-.1-.1-.1-.1-.1-.2a.22.22,0,0,1,.2-.2.37.37,0,0,1,.3.1l.3.1h.1c.1,0,.1-.1.1-.2v-.1l-.1-.6c-.1-.6-.2-.9-.4-.9h0l-.7.1h-.1A2.55,2.55,0,0,1,80,20.2l-.5-1.8a3.14,3.14,0,0,0-1.4-1.7.86.86,0,0,0-.6-.3l-.5-.1a.35.35,0,0,1-.2-.1c0-.1.1-.2.3-.2a6.48,6.48,0,0,1,2.5.5,5.81,5.81,0,0,0,1.9.4c1.4,0,2.3-.7,2.3-2a4.14,4.14,0,0,0-.5-1.9A5.31,5.31,0,0,0,82,11.7a.31.31,0,0,0-.2-.1.1.1,0,0,0-.1.1v.4h0c0,.1-.1.3-.2.3s-.3-.2-.5-.6A2.75,2.75,0,0,0,78.8,10c-.2,0-.3.1-.3.2s.1.2.1.4a2.19,2.19,0,0,1,.3.5.35.35,0,0,0,.1.2c0,.1,0,.1-.1.1a.91.91,0,0,1-.5-.3,2.22,2.22,0,0,1-.4-.5l-.4-.6a3.57,3.57,0,0,0-1.1-1l-1-.2a.6.6,0,0,0-.4-.1c-.1,0-.1,0-.1.1a.37.37,0,0,0,.1.3,3.29,3.29,0,0,1,.3.6.35.35,0,0,1-.1.2c-.2,0-.6-.4-1.1-1.1a2.35,2.35,0,0,1-.5-1.6,2.05,2.05,0,0,1,2.1-2.1,4.74,4.74,0,0,1,2.1.7l1.4.8a3.68,3.68,0,0,0,1.6.5,3.22,3.22,0,0,0,.8-.1c.2,0,.3-.1.4-.1s.1-.1.1-.2a.22.22,0,0,0-.2-.2,7.7,7.7,0,0,1-2.8-1.1,4.54,4.54,0,0,0-.9-.5c-.2-.1-.4-.2-.4-.3a.1.1,0,0,1,.1-.1h.2l1.2.5,1.2.4a8.09,8.09,0,0,0,1.9.4.9.9,0,0,0,.9-.9,1.88,1.88,0,0,0-.2-.8c-.2-.3-.4-.6-.5-.6s-.2.1-.2.3v.5c0,.4-.2.6-.5.6a1.09,1.09,0,0,1-.5-.1l-1.9-.6a9.94,9.94,0,0,0-3-.7A3.65,3.65,0,0,0,72.7,7c0,2.3,1.6,3.7,5.6,5.1s4.4,1.7,4.4,2.7a1.2,1.2,0,0,1-1.2,1.1,1.48,1.48,0,0,1-.7-.1,18.33,18.33,0,0,1-1.9-.5,13.42,13.42,0,0,0-3.5-.4c-2.8,0-4.2.4-5.7,1.8a1.09,1.09,0,0,1-.9.4h-.6a1,1,0,0,0-.8.5l-.5.8c-.1.1-.2.2-.3.2-.3,0-.5-.2-.7-.9a1.46,1.46,0,0,0-.6-.9l-.6-.5a.31.31,0,0,1-.1-.2.37.37,0,0,1,.1-.3c.1-.1.2-.3.3-.4a.77.77,0,0,0,.1-.3v-.3c0-.1.1-.1.2-.1s.2.1.2.8a4.5,4.5,0,0,0,.2.8l.3.7c0,.1.1.1.3.1s.7-.7.8-1.4.1-.8.3-.8.2.1.4.6a1.38,1.38,0,0,0,.3.4,1.44,1.44,0,0,0,.3.2h0c.2,0,.3-.1.4-.7v-.3l-.1-.3v-.3c0-.2.1-.3.2-.3s.1,0,.2.1l.3.3a.86.86,0,0,0,.6.3c.2,0,.4-.1.4-.3s0-.2-.3-.6l-.2-.4c-.3-.5-.4-.6-.6-.6H69l-.4.1a.35.35,0,0,0-.2.1l-.1-.1a2.77,2.77,0,0,1,.5-1.2,5.84,5.84,0,0,0,.5-2.2l.1-1.3c.1-.8.2-1.1.3-1.1s.1,0,.1.1l.1.4v.3c0,.4,0,.7.1.7s.3-.1.5-.4l.3-.6a2.25,2.25,0,0,0,.1-.7c0-.7-.3-.9-1.2-1.2-.1,0-.1-.1-.2-.1v-1l-.1-.3-.1-.3-.2.1a4.55,4.55,0,0,0-.9.7c-.3.3-.4.4-.5.4a.1.1,0,0,1-.1-.1l.1-.5V4.7a2.38,2.38,0,0,0-1-1.7l-.2.2-.2.4L66,4a1.14,1.14,0,0,0-.3.8V5c0,.2,0,.3-.1.3h-.1L65.3,5,65,4.7l-.5-.3-.3-.2a2.23,2.23,0,0,0-.3,1.4v.2c0,.3-.1.4-.2.4a.37.37,0,0,1-.3-.1A.6.6,0,0,0,63,6a.77.77,0,0,0-.7.8,2,2,0,0,0,.5,1.4c.2.4.5.7.7.7a2.18,2.18,0,0,0,.1-.6l-.1-.5V7.6c0-.2.1-.3.2-.3s.3.2.4.7l.2,1.1.2,1.3c.1.4.2.7.3,1.1a4.34,4.34,0,0,0,.5,1c.3.4.3.5.3.5a.1.1,0,0,1-.1.1c-.1,0-.1,0-.3-.1s-.2-.1-.3-.1h-.2c-.5,0-.6.4-.6,2.3a11.3,11.3,0,0,0,.5,3.5l.6,1.5a1.7,1.7,0,0,1,.1.7c0,2.1-2.8,5.4-5.8,6.8-1.2.6-1.5,1.1-1.6,2.7.5-.2.7-.3,1-.4.8-.2,1-.4,1.1-.7l.1-.4c0-.2.2-.2.7-.5a1,1,0,0,0,.5-.4,1.87,1.87,0,0,1,.3-.4.1.1,0,0,1,.1.1h0l-.3,1.1V29a1.51,1.51,0,0,0,.9,1.4.44.44,0,0,1,.1-.3,4.65,4.65,0,0,1,.3-.9l.5-.8c.2-.3.2-.5.2-1.2V26.1a.22.22,0,0,1,.2-.2c.1,0,.2,0,.2.1l.1.5c0,.1.1.2.3.2s.6-.3,1-1a1.45,1.45,0,0,0,.2-.7,3.08,3.08,0,0,0-.1-.9v-.2a.22.22,0,0,1,.2-.2c.1,0,.1,0,.1.1l.2.7c.1.2.2.4.4.4.4,0,.9-.9.9-1.9,0-.6.1-.8.3-.8s.1,0,.1.1l.1.4a.22.22,0,0,0,.2.2c.1,0,.2-.1.4-.3a1.38,1.38,0,0,0,.3-.4.37.37,0,0,0,.1-.3c0-.1,0-.2-.3-.4a.86.86,0,0,1-.3-.6,3.51,3.51,0,0,1,.7-1.7c.5-.8.5-.9.6-.9a.22.22,0,0,1,.2.2.37.37,0,0,1-.1.3.77.77,0,0,0-.1.3.22.22,0,0,0,.2.2,1.69,1.69,0,0,0,.5-.2,2.19,2.19,0,0,1,.8-.3,4.28,4.28,0,0,1,1-.3,1.27,1.27,0,0,1,.6-.1.9.9,0,0,1,.5.1,2,2,0,0,0,.7.1.47.47,0,0,0,.5-.5,1.69,1.69,0,0,0-.2-.5c-.1-.2-.2-.4-.3-.4s-.2-.2-.2-.3v-.1c0-.1.1-.1.2-.1s.7.5,1.1,1.1c2.2,3.6,3.3,4.8,5,5.3s2.1.9,2.1,1.9a3.75,3.75,0,0,1-.9,2c-1.1,1.6-1.5,2.5-1.5,3.6v.2a.37.37,0,0,1,.3-.1,1.69,1.69,0,0,1,.5-.2l.7-.1c.2,0,.4-.3.4-.6v-.1l-.1-.6V29c0-.4.2-.6.4-.6a.22.22,0,0,1,.2.2l.5,1c.1.2.3.4.9.7"/><path id="_Path_14" data-name="&lt;Path&gt;" class="cls-4" d="M59.9,10.7v.8c0,.5.1.7.2.7s.5-.4.6-.7a2.2,2.2,0,0,0,.1-.8,1.09,1.09,0,0,0-.1-.5c-.1-.3-.3-.5-.4-.5-.3-.1-.4.2-.4,1"/><path id="_Path_15" data-name="&lt;Path&gt;" class="cls-4" d="M57.6,5.2v.2a7.38,7.38,0,0,1-.2,1.2,2.64,2.64,0,0,0-.1.7c0,.2-.1.3-.1.5a.94.94,0,0,0,.5.9l.3.2.1.4a1.27,1.27,0,0,0,.1.6,2.77,2.77,0,0,1,.1.9c0,.2,0,.3-.1.3s-.3-.3-.5-.7c-.3-.7-.5-.9-.9-.9a1.64,1.64,0,0,0-.9.2,5,5,0,0,1,.8,1.5c.5,1,.6,1.2,1.3,1.6q.3.15.3.3c0,.1-.1.2-.3.2a.76.76,0,0,1-.4-.1h-.2c-.1,0-.2.1-.2.3a3.14,3.14,0,0,0,1.7,2.4c.1.1.2.2.2.3a.1.1,0,0,1-.1.1.35.35,0,0,1-.2.1.37.37,0,0,1-.3-.1.35.35,0,0,1-.2-.1c-.1,0-.2.1-.2.3a2.77,2.77,0,0,0,.5,1.2,1.91,1.91,0,0,0,.9.9l1.3.5c.1,0,.1.1.1.2a.22.22,0,0,1-.2.2h-.9c-.2,0-.2,0-.2.1a2.52,2.52,0,0,0,.4.9c.3.5.5.8.7.8s.1-.1.2-.1l.3-.7c0-.1.3-.3.7-.6a1.33,1.33,0,0,1,.8-.3c.7-.1.7-.1.7-.4a1.76,1.76,0,0,0-.1-.6,3.54,3.54,0,0,1-.1-.6l-.1-.5-.1-.6c0-.2,0-.2-.1-.2a.22.22,0,0,0-.2.2,1.7,1.7,0,0,1-1.2.9c-1.6,0-2.7-2.5-2.7-6.3V10.4l.1-1.3V8.6a4.41,4.41,0,0,0-1-2.9l-.4-.4Z"/><path id="_Path_16" data-name="&lt;Path&gt;" class="cls-4" d="M61.3,26a4.29,4.29,0,0,1-1.4-.4,3,3,0,0,0-1.1-.3,1.46,1.46,0,0,0-1.2.5l.3.2.6.4.5.4a.76.76,0,0,0,.5.2c.6,0,1-.3,1.8-1"/><path id="_Path_17" data-name="&lt;Path&gt;" class="cls-4" d="M72.3,31.2a1.34,1.34,0,0,1,.6-.7c.8-.7,1.2-1.2,1.2-1.6v-.6c0-.4.1-.5.3-.5s.1,0,.2.1l.1.3c0,.1.1.1.2.1s.3-.1.7-.7a1.42,1.42,0,0,0,.2-.6.37.37,0,0,0-.1-.3c0-.1-.1-.2-.2-.5a.76.76,0,0,1-.2-.4.27.27,0,0,1,.3-.3c.1,0,.2,0,.2.1l.2.3a.1.1,0,0,0,.1.1.76.76,0,0,0,.4-.2l.2-.5a.37.37,0,0,0,.1-.3c0-.1-.1-.2-.2-.3l-.4-.2a2,2,0,0,1-.9-1.8.76.76,0,0,1,.1-.4l.2-.5a.9.9,0,0,0,.1-.5,1.9,1.9,0,0,0-.3-.9,1.55,1.55,0,0,1-.3-.6c-.2-.4-.3-.6-.4-.6a.76.76,0,0,0-.4.1l-.3.5-.4.5-.4.2a1.43,1.43,0,0,0-.5,1.1c0,.6.1,1,1.1,2.6a3.55,3.55,0,0,1,.6,1.6c0,1.2-1.2,2.1-3.1,2.5-2.3.5-2.8.9-3.1,2.3a2.36,2.36,0,0,1,1.3-.2H70c.4,0,.4,0,.7-.4a3.24,3.24,0,0,1,.9-.8l.5-.2.4-.2h.1c.1,0,.2,0,.2.1a.91.91,0,0,1-.3.5,1.39,1.39,0,0,0-.4.9.82.82,0,0,0,.2.9"/><path id="_Path_18" data-name="&lt;Path&gt;" class="cls-4" d="M68.7,26.8a3.45,3.45,0,0,1,.9.8c.3.4.3.4.6.4a.6.6,0,0,0,.4-.1l.3-.1c.5-.1.6-.2.6-.3s0-.2-.1-.2l-.3-.3-.3-.3a1.4,1.4,0,0,0-.9-.3,1.75,1.75,0,0,0-1.2.4"/><path id="_Path_19" data-name="&lt;Path&gt;" class="cls-4" d="M77.9,28.3h.9a1.08,1.08,0,0,0,.6-.1,1.28,1.28,0,0,0,.5-.7.37.37,0,0,0,.1-.3c0-.2-.2-.3-.5-.3-.8,0-1.3.4-1.6,1.4"/><path id="_Path_20" data-name="&lt;Path&gt;" class="cls-4" d="M27.3,88.5l.2-.3.4-.4a2.46,2.46,0,0,0,.5-1.5,2.77,2.77,0,0,0-.1-.9,1.09,1.09,0,0,1-.1-.5.27.27,0,0,1,.3-.3c.1,0,.1,0,.2.1l.4.5c.3.3.4.4.7.4v-.9a3.88,3.88,0,0,0-.6-1.9,1.55,1.55,0,0,1-.3-.6.22.22,0,0,1,.2-.2.1.1,0,0,1,.1.1c.3.2.4.3.5.3s.3-.3.3-.7a2.45,2.45,0,0,0-.6-1.6,1.73,1.73,0,0,1-.3-.4.35.35,0,0,1-.1-.2.22.22,0,0,1,.2-.2.76.76,0,0,1,.4.1.31.31,0,0,0,.2.1c.2,0,.3-.3.3-1.2v-.9c0-.6-.1-.7-.3-.7h-.2c-1.4,0-2-.9-2.4-3.2-.3-1.7-.9-2.9-1.7-3.2-.5-.2-.6-.3-.6-.4s.1-.2.3-.2a4.33,4.33,0,0,0,.5.1,7.14,7.14,0,0,0,2.9.7A2.29,2.29,0,0,0,31,68.2a4.07,4.07,0,0,0-1.3-2.8A1.27,1.27,0,0,0,29,65h-.2l.1.4.1.3v.1a.1.1,0,0,1-.1.1c-.1,0-.2,0-.2-.1l-.5-.8a2.72,2.72,0,0,0-2-1.1c-.2,0-.4.1-.4.3s.1.2.2.3a1.87,1.87,0,0,0,.3.4V65a.1.1,0,0,1-.1.1h0c-.1,0-.2-.1-.8-.8a3.34,3.34,0,0,0-2.1-1.1c-.1,0-.2,0-.2.1l-.1.1c0,.1.1.2.2.3a1.73,1.73,0,0,1,.3.4c0,.1-.1.1-.2.1s-.5-.2-1.2-.8a3,3,0,0,1-1.5-2.5,1.91,1.91,0,0,1,1.8-2,3.41,3.41,0,0,1,1.9.7l1.4,1.1a3.41,3.41,0,0,0,2.2.7.9.9,0,0,0,.5-.1c.1-.1.2-.1.2-.2a.44.44,0,0,0-.3-.1,3.34,3.34,0,0,1-1.2-.5l-1.4-1.1a8.84,8.84,0,0,0-1.1-.8c-.8-.4-.9-.5-.9-.6a.35.35,0,0,1,.2-.1c.1,0,.2,0,.2.1l.7.3A10.38,10.38,0,0,1,26,59a5.59,5.59,0,0,0,3.2,1.3,1.45,1.45,0,0,0,1.5-1.4.9.9,0,0,0-.1-.5l-.1-.3c0-.1-.1-.2-.2-.1l-.1.1-.1.6a.31.31,0,0,1-.1.2c-.1.1-.1.2-.2.3s-.3.2-.5.2c-.4,0-.9-.2-2.3-1.1A6.9,6.9,0,0,0,23.5,57a3.76,3.76,0,0,0-3.7,3.7c0,2.9,1.7,4.1,7.2,5.3,2.1.4,3,1.1,3,2s-.7,1.4-1.8,1.4a2,2,0,0,1-.8-.1c-.2,0-1.2-.3-2.9-.8a16.52,16.52,0,0,0-3.8-.5c-2.1,0-3.6.6-4.6,2q-.15.3-.3.3c-.1,0-.1,0-.2-.1l-.4-.3a2.11,2.11,0,0,0-1-.4,1.42,1.42,0,0,0-.6.2c-.1.1-.2.2-.3.2s-.5-.4-.7-.8a4.89,4.89,0,0,1-.5-1.9c0-.3.1-.5.2-.5a.22.22,0,0,1,.2.2l.2.8c.1.5.4.8.6.8s.2-.1.4-.3a.76.76,0,0,0,.2-.4c.2-.5.2-.6.4-.6s.3.1.4.6c0,.1.1.2.2.5a2.19,2.19,0,0,0,.3.5.37.37,0,0,0,.3.1c.2,0,.5-.4.5-.9v-.6c0-.2,0-.3.1-.3s.1,0,.2.1a1,1,0,0,0,.5.4.76.76,0,0,0,.4.1c.1,0,.2-.1.3-.1a.31.31,0,0,0,.1-.2c0-.1-.1-.2-.4-.5a3.58,3.58,0,0,1-.6-1.1c-.2.1-.3,0-.4,0a.31.31,0,0,0-.2.1l-.4.1-.3.1h-.1a.22.22,0,0,1-.2-.2c0-.1.3-.4.6-.7a1.23,1.23,0,0,0,.4-.8c0-.5.1-.9.2-.9l.1-1a7.87,7.87,0,0,1,.4-2,.35.35,0,0,1,.1-.2c.1,0,.2.2.2.4v.4c0,.4.1.5.2.5s.3-.2.4-.5l.3-.7a1.09,1.09,0,0,0,.1-.5c0-.6-.3-1-.8-1H17a.35.35,0,0,0-.2.1.45.45,0,0,1-.3-.4v-1l-.2-.2v-.3l-.3.1-.3.3-.5.4-.4.3c-.1.1-.1.1-.2.1s-.2-.1-.2-.5v-.1c0-.4-.2-.6-.7-1.3a.35.35,0,0,1-.1-.2l-.1.2-.3.5-.3.8-.1.5a1,1,0,0,1-.1.3c-.1,0-.2-.1-.3-.2a2,2,0,0,0-1.2-.8l-.1.2a3.93,3.93,0,0,0-.2.6v.9c0,.2-.1.2-.1.2h0a.35.35,0,0,0-.2-.1.37.37,0,0,0-.3-.1.81.81,0,0,0-.9.7c0,.3.1.6.6,1.4a1.07,1.07,0,0,0,.6.6c.1,0,.1-.2.1-.4v-.3a.76.76,0,0,1-.1-.4c0-.2,0-.2.1-.2.3,0,.5.7.6,1.8l.1,1.1a3.54,3.54,0,0,0,.3,1.1,7.17,7.17,0,0,0,.7,1.1c.3.2.4.4.4.5a.35.35,0,0,1-.1.2,3.22,3.22,0,0,0-.6-.2h-.2c-.6,0-.8.3-.8,1.3a5.33,5.33,0,0,0,1.7,3.6l1.3,1.1a2.88,2.88,0,0,1,1.2,2.1c0,.8-.9,1.7-2.5,2.2l-.9.3c-.7.3-1,.7-1.3,2.1a2.49,2.49,0,0,1,.8-.1h.5c.4,0,.7-.2.7-.6v-.3q0-.15.3-.3a1.09,1.09,0,0,0,.4-.2l.3-.3c.1,0,.1-.1.2-.1a.22.22,0,0,1,.2.2.37.37,0,0,1-.1.3,2.79,2.79,0,0,0-.1,1,2.2,2.2,0,0,0,.5,1.6c0-.2.1-.3.1-.4s.2-.4.5-.8a3.82,3.82,0,0,0,.7-1.7v-.1l-.1-.7a.37.37,0,0,1,.1-.3c.1-.1.1-.1.2-.1s.2.1.3.3.1.3.2.3.3-.3.4-.6a1.27,1.27,0,0,0,.1-.6.76.76,0,0,0-.1-.4.49.49,0,0,1-.1-.3c0-.1,0-.1.1-.2l.1-.1c.1,0,.1,0,.2.1l.3.2a.31.31,0,0,0,.2.1.54.54,0,0,0,.4-.3,5.44,5.44,0,0,0,.4-.8c0-.1,0-.1-.2-.2a1.89,1.89,0,0,1-.9-1.5.6.6,0,0,1,.1-.4l.3-.8a3.22,3.22,0,0,1,.2-.6h.1a.22.22,0,0,1,.2.2.37.37,0,0,1-.1.3,1.09,1.09,0,0,0-.1.5.27.27,0,0,0,.3.3,1.09,1.09,0,0,0,.5-.1,5.3,5.3,0,0,1,2-.6,1.43,1.43,0,0,1,1,.4.37.37,0,0,0,.3.1.31.31,0,0,0,.2-.1l.1-.1c0-.1-.1-.2-.2-.4s-.2-.3-.2-.4.1-.1.2-.1c.4,0,1.1,1.4,1.8,3.7.5,1.8.7,1.9,2.4,2.9,1.4.8,2,1.6,2,2.9a18,18,0,0,1-1.1,5.1,5.56,5.56,0,0,0-.3,1.5,7,7,0,0,0,.3,1.4c.1.4.2.6.2.7-.3-.3-.2-.1-.1.1"/><path id="_Path_21" data-name="&lt;Path&gt;" class="cls-4" d="M20.7,84.5a9.25,9.25,0,0,1,.5-1,2.43,2.43,0,0,0,.6-1.4v-.5c0-.4.1-.6.2-.6s.1,0,.2.1l.1.2c0,.1.1.1.2.1s.2-.1.3-.2a1.93,1.93,0,0,0,.3-1v-.6c0-.2.1-.2.2-.2s.2,0,.2.3c.1.1.1.2.2.2a.22.22,0,0,0,.2-.2l.2-.3.2-.3V79c0-.1-.1-.2-.2-.3a2.35,2.35,0,0,1-.8-2c0-.8-.1-1.3-.1-1.6a10.4,10.4,0,0,0-.5-1.2c-.1-.3-.2-.6-.3-1s-.1-.3-.4-.3a1.45,1.45,0,0,0-1.4,1.5,7,7,0,0,0,.6,2.3,5.89,5.89,0,0,1,.7,2.4c0,1-.4,1.5-1.9,2a3.63,3.63,0,0,0-2.7,2.9c.1,0,.2-.1.3-.1a.76.76,0,0,1,.4-.1l.5-.1a1.23,1.23,0,0,0,.8-.5l.1-.4a.22.22,0,0,1,.2-.2l.3-.1.3-.1.1.1v.2a3.55,3.55,0,0,0-.1.7,1.87,1.87,0,0,0,.5,1.4"/><path id="_Path_22" data-name="&lt;Path&gt;" class="cls-4" d="M5.4,58.1a.44.44,0,0,0,.1.3,2.64,2.64,0,0,1-.1.7l-.1.7a3.65,3.65,0,0,0,.3,1.5,4.08,4.08,0,0,1,.2.7v.1a.35.35,0,0,1-.1.2c-.1,0-.2-.1-.3-.2a1.5,1.5,0,0,0-1.1-.4,1.09,1.09,0,0,0-.5.1l.1.3.4,1.1.6.9.6.4c.1,0,.1.1.2.2s.1.1.1.2,0,.1-.1.1H5.1a.35.35,0,0,0-.2.1c0,.1.1.4.2.8l.3.8.5.5.5.4c.1.1.2.2.2.3s0,.2-.1.2H6.2c-.1,0-.1.1-.1.2a2.38,2.38,0,0,0,.6,1.1,1.47,1.47,0,0,0,1.3.8h.4a.27.27,0,0,1,.3.3q0,.15-.3.3c-.4.1-.5.2-.5.3a.37.37,0,0,0,.1.3l.2.3c.2.3.4.4.5.4a.54.54,0,0,0,.4-.3,1.8,1.8,0,0,1,.9-.6c1-.3,1.2-.4,1.2-.6a.37.37,0,0,0-.1-.3,2.73,2.73,0,0,1-.4-1.4c0-.4-.1-.6-.2-.6s-.1.1-.2.2a1.1,1.1,0,0,1-1,.6c-1,0-2.2-1.5-2.8-3.6A7.72,7.72,0,0,1,6.3,64a11.14,11.14,0,0,1,.2-1.7,12,12,0,0,0,.3-1.4v-.4c.3-.7-.4-1.6-1.4-2.4"/><path id="_Path_23" data-name="&lt;Path&gt;" class="cls-4" d="M7.4,62.1A5.33,5.33,0,0,0,7,64c0,.3.1.6.2.6a.35.35,0,0,1,.2-.1l.3-.6c.1-.1.1-.2.2-.3s.2-.3.2-.4a1.08,1.08,0,0,0-.7-1.1"/><path id="_Path_24" data-name="&lt;Path&gt;" class="cls-4" d="M10.6,75l.1.1.2.2c.6.6.6.6.9.6a2.61,2.61,0,0,0,1.1-.3c.1-.1.2-.1.2-.2l-.3-.3-.3-.3a1.52,1.52,0,0,0-.8-.4,3,3,0,0,0-1.1.6"/><path id="_Path_25" data-name="&lt;Path&gt;" class="cls-4" d="M17.2,80.1a3.33,3.33,0,0,1,.6.3c.3.2.4.3.5.3s.2.1.4.1a.37.37,0,0,0,.3-.1l.6-.2.6-.2c.2-.1.3-.1.3-.2a1.24,1.24,0,0,0-.3-.2c-.1,0-.3-.1-.4-.1a2.17,2.17,0,0,0-1.1-.3,1.62,1.62,0,0,0-1.5.6"/><path id="_Path_26" data-name="&lt;Path&gt;" class="cls-4" d="M24.4,85.8c.2-.5.3-.5,1-.6s1.4-1.4,1.4-2.2c0-.1,0-.2-.1-.2a.31.31,0,0,0-.2.1,1.38,1.38,0,0,0-.4.3l-.8.4a2,2,0,0,0-1,1.6c-.1.1,0,.3.1.6"/><path id="_Path_27" data-name="&lt;Path&gt;" class="cls-4" d="M76.3,79l.1-.3.1-.4c0-.1.1-.2.3-.5a2.3,2.3,0,0,0,.4-1.4.9.9,0,0,0-.1-.5.37.37,0,0,1-.1-.3.1.1,0,0,1,.1-.1l.1-.1h0c.1,0,.2.1.3.2s.2.2.3.2.3-.2.3-.5a.44.44,0,0,1,.1-.3,2,2,0,0,0-.3-.8.37.37,0,0,1-.1-.3.22.22,0,0,1,.2-.2c.1,0,.2.1.4.2s.1.1.2.1.3-.2.4-.6a1.58,1.58,0,0,0,.1-.4c0-.1,0-.1-.1-.1h-.4a2.47,2.47,0,0,1-1.6-.8l-.8-1c-.3-.4-.7-.9-.7-.9l-.6-.4-.2-.2c0-.1.1-.2.3-.2s.6.2,1.5.5a10,10,0,0,0,2.9.6,2.46,2.46,0,0,0,2.5-2.4,3.45,3.45,0,0,0-1.1-2.3.91.91,0,0,0-.5-.3.22.22,0,0,0-.2.2.37.37,0,0,0,.1.3c0,.1.1.2.1.3s0,.2-.1.2-.4-.3-.5-.8a2.82,2.82,0,0,0-1.4-1.5,2.88,2.88,0,0,0-1.1-.4.1.1,0,0,0-.1.1.37.37,0,0,0,.1.3,1.69,1.69,0,0,1,.2.5h0a.22.22,0,0,1-.2.2c-.2,0-.2,0-.6-.7a3.45,3.45,0,0,0-1.3-1,.9.9,0,0,0-.5-.1h0c-.1,0-.2,0-.2.1a.77.77,0,0,0,.1.3v.2a.35.35,0,0,1-.1.2,2.48,2.48,0,0,1-1.1-.9,2.51,2.51,0,0,1-.7-1.7A2.2,2.2,0,0,1,75,59.2c.3,0,.5.1.7.1l1,.5,1.2.8a5.38,5.38,0,0,0,2.2.8,2,2,0,0,0,.9-.2c.3-.1.5-.2.5-.3h-.2l-.6-.1a6.15,6.15,0,0,1-1.8-.8l-1.3-.9-1.2-.5a.1.1,0,0,1,0-.2.77.77,0,0,1,.3.1l1.1.3a11.82,11.82,0,0,1,1.3.6,6.83,6.83,0,0,0,2.5.9,1,1,0,0,0,1.1-1.1,2.49,2.49,0,0,0-.1-.8.76.76,0,0,0-.2-.4.1.1,0,0,0-.1-.1c-.1,0-.1.1-.1.2v.4c0,.5-.2.7-.8.7a8,8,0,0,1-2.6-.8,8.81,8.81,0,0,0-3.1-.7,4,4,0,0,0-4,3.7c0,1.7,1.1,3,3.5,4l2.4,1c2,.8,2.7,1.4,2.7,2.2,0,.6-.6,1.1-1.5,1.1a5.87,5.87,0,0,1-1.8-.4,17.3,17.3,0,0,0-5-1,6.33,6.33,0,0,0-4.8,1.8c-.2.2-.3.2-.4.2s-.2,0-.4-.2a2.07,2.07,0,0,0-.6-.2,1.27,1.27,0,0,0-.7.4l-.2.5c-.1.1-.2.2-.3.2s-.6-.4-.8-.8a4.88,4.88,0,0,0-.3-.7c0-.2-.1-.5-.1-.8v-.5l.1-.6a2,2,0,0,1,.1-.5.1.1,0,0,1,.1-.1c.1,0,.2.1.2.4v.3c0,.8.3,1.6.7,1.6s.5-.5.7-1.5c0-.2.1-.3.2-.3s.2.1.3.6a2.47,2.47,0,0,0,.4.9c.1.1.2.2.3.2s.4-.4.5-1.2c0-.3.1-.5.2-.5a.1.1,0,0,1,.1.1,1.24,1.24,0,0,1,.2.3l.3.3a.49.49,0,0,0,.3.1.37.37,0,0,0,.3-.1l.2-.2a1.24,1.24,0,0,1-.2-.3,3.6,3.6,0,0,1-.5-.9,4.88,4.88,0,0,0-.3-.7.35.35,0,0,0-.1-.2h-.3a3.22,3.22,0,0,1-.6.2h-.2a.1.1,0,0,1-.1-.1c0-.1.1-.2.2-.3a4,4,0,0,0,1.3-2.9,2.89,2.89,0,0,1,.6-1.7c.1-.1.1-.2.2-.2s.2.1.2.3a.76.76,0,0,1-.1.4c0,.1-.1.2-.1.3V62l.1.2.3-.1.3-.4a2.14,2.14,0,0,0,.4-1.2,1.45,1.45,0,0,0-.2-.7c-.2-.2-.3-.3-.4-.3h-.4c-.2,0-.3-.1-.3-.2v-.5l-.2-.7.2-.3-.1-.3-.2.1-.4.3-.3.3c-.4.5-.4.5-.6.5s-.2,0-.2-.1v-.1a1.76,1.76,0,0,0,.1-.6,3.3,3.3,0,0,0-.8-1.7A2.59,2.59,0,0,0,65,58v.3c0,.1,0,.2-.1.2h0c-.1,0-.1-.1-.2-.1l-.4-.4a3.61,3.61,0,0,0-.5-.4c-.1,0-.1-.1-.2-.2l-.1.2a2.73,2.73,0,0,0-.4,1.4c0,.4,0,.5-.1.5a.31.31,0,0,1-.2-.1c-.4-.2-.5-.3-.7-.3a.9.9,0,0,0-.9.9,1.63,1.63,0,0,0,.4.9,2.42,2.42,0,0,0,.8.9s.1,0,.1-.2V61l-.1-.2h0c0-.1,0-.2.1-.2.3,0,.5.8.7,2.3a4.85,4.85,0,0,0,1.1,2.8c.1.1.2.2.2.3l-.1.1A.76.76,0,0,1,64,66c0-.2-.1-.2-.2-.2a.84.84,0,0,0-.7.7l-.3,1.6-.2,2.3a5.88,5.88,0,0,0,.2,1.7,11.48,11.48,0,0,1,.2,1.4,3.72,3.72,0,0,1-2.8,3.6l-1.8.5a2.63,2.63,0,0,0-1.9,2.5,1.14,1.14,0,0,1,.8-.3l.5-.1a4.33,4.33,0,0,0,.5-.1.75.75,0,0,0,.3-.3l.5-.5c.2-.2.3-.3.4-.3s.1.1.1.2a1.69,1.69,0,0,1-.2.5,1.85,1.85,0,0,0-.2.7c0,.4.1.6.5,1.1a.44.44,0,0,1,.1-.3c0-.1.2-.3.4-.6a2.78,2.78,0,0,0,.7-1.3c0-.4,0-.6.2-.6s.1,0,.2.3c0,.1,0,.1.1.2s.1.1.2.1a.31.31,0,0,0,.2-.1,1.73,1.73,0,0,0,.8-.9,1.09,1.09,0,0,0,.1-.5v-.4c0-.1,0-.2.1-.2s.2.1.3.3.1.1.2.1h0c.1,0,.2-.1.3-.1a1.74,1.74,0,0,0,.6-1.1v-.5l-.1-.4h0a.35.35,0,0,1,.1-.2c.1,0,.3.2.5.6q.15.3.3.3c.1,0,.2-.1.5-.5l.3-.4a.5.5,0,0,0,0-.6l-.2-.3c0-.1-.1-.2-.1-.3a2.42,2.42,0,0,1,.4-1.3,3.22,3.22,0,0,1,.4-.7.22.22,0,0,1,.2-.2l.1.1v.3h0V72c0,.1.1.1.2.1a.37.37,0,0,0,.3-.1l.7-.3a4.88,4.88,0,0,1,.7-.3,3.85,3.85,0,0,1,2-.7,3.77,3.77,0,0,1,1.4.4.37.37,0,0,0,.3.1.35.35,0,0,0,.2-.1c.1-.1.1-.1.1-.2a.76.76,0,0,0-.1-.4l-.2-.4c0-.1,0-.1.1-.1a.22.22,0,0,1,.2.2c.1.1.3.5.7,1.1A3.2,3.2,0,0,0,75,73l1.3.3c.4.1.5.2.5.7a2.36,2.36,0,0,1-1.1,2.1l-1,.7a1.75,1.75,0,0,0-.7,1.4,8.87,8.87,0,0,0,.2,1.5l.2-.2.5-.3.4-.4.2-.6.2-.6c.1-.3.2-.5.3-.5s.2.2.2.4v.2c-.3.5-.2.7.1,1.3"/><path id="_Path_28" data-name="&lt;Path&gt;" class="cls-4" d="M59.5,87.7c.3-.3.4-.3,1.4-.5a1.49,1.49,0,0,0,1.3-1.3,1.09,1.09,0,0,1,.7-1,1.38,1.38,0,0,0,.4-.3l.1-.1a.1.1,0,0,1,.1.1,1.69,1.69,0,0,1-.2.5.75.75,0,0,0-.1.5,1.8,1.8,0,0,0,.3,1.1,1.78,1.78,0,0,1,.7-.8,2.19,2.19,0,0,0,.9-1.9c0-.4.1-.7.2-.7s.1,0,.1.1l.2.4c0,.1.1.1.2.1s.2-.1.4-.2l.4-.4a1.74,1.74,0,0,0,.3-1.2c0-.2.1-.4.2-.4a.1.1,0,0,1,.1.1l.2.6a.22.22,0,0,0,.2.2.31.31,0,0,0,.2-.1c.2-.1.3-.3.4-.4a1.42,1.42,0,0,0,.2-.6V81a.37.37,0,0,1,.1-.3l.1-.1c.1,0,.1.1.2.1l.1.3c0,.1.2.2.3.2s.3-.1.5-.5c.1-.1.1-.2.2-.2.1-.2.2-.3.2-.4a.31.31,0,0,0-.1-.2,3.08,3.08,0,0,1-.6-1.9c0-.9.4-1.7,1.5-3.2a4,4,0,0,0,1-2.3c0-.2-.1-.2-.2-.2a.37.37,0,0,0-.3.1.31.31,0,0,1-.2.1c-.1,0-.1,0-.2-.1l-.2-.2-.1-.2c-.1-.1-.1-.1-.2-.1a.31.31,0,0,0-.2.1H70c-.3,0-.4.1-.4.4v.3a1.38,1.38,0,0,1-.5.9l-.5.5a3.49,3.49,0,0,0-1.2,2.2,7.38,7.38,0,0,0,.2,1.2,4.35,4.35,0,0,1,.3,1.5c0,1.4-2.1,3.2-6,5.1-2,1-2.5,1.6-2.5,2.9Z"/><path id="_Path_29" data-name="&lt;Path&gt;" class="cls-4" d="M57.6,57.8v.7a1.09,1.09,0,0,1-.1.5,2.14,2.14,0,0,0-.1.6,2.73,2.73,0,0,0,.4,1.4,1.93,1.93,0,0,1,.3,1c0,.1,0,.2-.1.2a.1.1,0,0,1-.1-.1l-.2-.3a1,1,0,0,0-.8-.3h-.5a2.65,2.65,0,0,1,.3,1,2.19,2.19,0,0,0,.8,1.5c.5.5.6.5.6.7a.22.22,0,0,1-.2.2h-.3c-.2,0-.3.3-.3.6a1.85,1.85,0,0,0,.2.7c.1.2.1.3.2.3l.3.3a.37.37,0,0,1,.1.3c0,.1-.1.3-.2.3s-.1,0-.3-.1-.1-.1-.2-.1a.22.22,0,0,0-.2.2v.4l.2.7c0,.2.1.3.3.5a.54.54,0,0,0,.4.3c.4.2.5.2.6.3s.1.1.1.2a.22.22,0,0,1-.2.2.77.77,0,0,1-.3-.1H58c-.3,0-.3,0-.3.2a.6.6,0,0,0,.1.4l.1.5c.1.5.3.7.4.7a.31.31,0,0,0,.2-.1,3.51,3.51,0,0,1,1.8-.6c.5,0,1.1.1,1.4.1.1,0,.2.1.3.1s.1-.1.1-.3l.1-.5.1-.9.1-.7v-.4l-.2.2a1.57,1.57,0,0,1-1.3.6c-1.3,0-2.1-1.5-2.1-4a42.83,42.83,0,0,1,.4-4.3,2.81,2.81,0,0,0,.1-.8,3.58,3.58,0,0,0-1.7-2.3"/><path id="_Path_30" data-name="&lt;Path&gt;" class="cls-4" d="M59.5,64.2l.3-.3.3-.2a1.49,1.49,0,0,0,.4-.9.6.6,0,0,0-.1-.4c-.1-.2-.3-.4-.4-.4s-.2.2-.2.6l-.1.4-.1.4v.8Z"/><path id="_Path_31" data-name="&lt;Path&gt;" class="cls-4" d="M57,75.8a1.53,1.53,0,0,1,.7.5c.4.5.6.6,1.1.6a.6.6,0,0,0,.4-.1l.4-.1.3-.1a.35.35,0,0,0,.2-.1c0-.1-.2-.2-.6-.5a2.51,2.51,0,0,0-.7-.4,1.42,1.42,0,0,0-.6-.2,2.84,2.84,0,0,0-1.2.4"/><path id="_Path_32" data-name="&lt;Path&gt;" class="cls-4" d="M60.9,84.2a13.92,13.92,0,0,0,1.3-.6c.5-.3.8-.4.8-.5.5-.3.8-.5.8-.6s-.3-.3-.9-.3a1.9,1.9,0,0,0-2,1.7Z"/><path id="_Path_33" data-name="&lt;Path&gt;" class="cls-4" d="M72.5,76.9a4.08,4.08,0,0,1,.7-.2h.5c.1,0,.2-.1.3-.2a1.38,1.38,0,0,1,.4-.3c.6-.4.6-.4.6-.5s-.2-.2-.7-.2a1.86,1.86,0,0,0-1.8,1.4"/><path id="_Path_34" data-name="&lt;Path&gt;" class="cls-3" d="M14.1,8.3,14,7.9V7.7a.51.51,0,0,1,.4-.5,3,3,0,0,0,1-.5l.3-.3h0c.1,0,.1.1.1.2A4.91,4.91,0,0,1,15,8.3c-.3.5-.4.8-.6.8s-.3-.2-.3-.5Z"/><path id="_Path_35" data-name="&lt;Path&gt;" class="cls-3" d="M12.4,7.1l.5.3c.1.1.2.2.2.3v.2c-.1.2,0,.5,0,.6,0,.5-.4.5-.6.5s0-.1-.3-.3L11.6,8a2,2,0,0,1-.4-1.3V6.6c0-.2,0-.2.2-.2s.2.1.3.1Z"/><path id="_Path_36" data-name="&lt;Path&gt;" class="cls-3" d="M67.3,8.4l-.2-.5V7.7c0-.2.1-.4.5-.5a1.52,1.52,0,0,0,.9-.5l.3-.3h0c.1,0,.1.1.1.2,0,.4-.4.9-.8,1.6-.3.5-.4.9-.5.9s-.3-.2-.3-.5Z"/><path id="_Path_37" data-name="&lt;Path&gt;" class="cls-3" d="M65.5,7.1l.5.3c.1.1.2.2.2.3v.1l-.1.5-.1.6c0,.1-.1.1-.2.1h0a1.52,1.52,0,0,1-.6-.4l-.5-.7a1.58,1.58,0,0,1-.3-.8c0-.1-.1-.3-.1-.4V6.6a.22.22,0,0,1,.2-.2c.1,0,.2.1.3.1Z"/><path id="_Path_38" data-name="&lt;Path&gt;" class="cls-3" d="M11.7,60.4l-.1-.4v-.1l.1-.1c.1,0,.2.1.3.2s.2.1.4.1c.8.2.9.3.9.7v.5l-.1.4c0,.2-.1.2-.2.2s-.4-.2-.6-.4l-.3-.4Z"/><path id="_Path_39" data-name="&lt;Path&gt;" class="cls-3" d="M15.1,61.1l-.4.6a.31.31,0,0,0-.1.2h0c-.2,0-.3-.3-.3-.7l-.1-.6c0-.2.2-.3.5-.4a.85.85,0,0,0,.6-.2c.3-.2.4-.3.5-.3h0a.1.1,0,0,1,.1.1h0l-.2.5Z"/><path id="_Path_40" data-name="&lt;Path&gt;" class="cls-3" d="M63.9,59.6l.4.2.6.3c.4.2.6.3.6.5s0,.1-.1.3-.1.3-.1.4a.45.45,0,0,1-.4.5c-.2,0-.4-.3-.7-.9a5.36,5.36,0,0,0-.5-1.1v-.1c0-.1,0-.1.2-.1Z"/><path id="_Path_41" data-name="&lt;Path&gt;" class="cls-3" d="M67.7,60.6l-.7.6c-.2.3-.2.6-.3.6a.35.35,0,0,1-.2.1h0a.27.27,0,0,1-.3-.3v-1h0c0-.2.1-.3.2-.3l.6-.2.6-.3c.2-.1.2-.1.3-.1s.1.1.1.2a.31.31,0,0,1-.1.2Z"/><path class="cls-3" d="M14.8,9.9l-.2-.1-.5.3H13a1.24,1.24,0,0,0-.3-.2.6.6,0,0,0-.4-.1c-.3,0-.4.1-.4.4a4,4,0,0,0,.4,1.3l.4.9c.3.8.6,1.1,1.1,1.1s.4-.4.7-1c.6-1.4.9-1.6.9-2.1-.2-.4-.3-.5-.6-.5m-.7,1.8-.1.6c0,.4-.2.5-.5.5s-.4-.1-.4-.5v-.5l-.1-.7.1-.1a.1.1,0,0,1,.1-.1h.4l.5-.1h0c.1,0,.1,0,.1.1s.1.1.1.2-.1.2-.2.6"/><path class="cls-3" d="M67.9,9.8h-.2l-.4.3H66.2a1.24,1.24,0,0,0-.3-.2.9.9,0,0,0-.5-.1.37.37,0,0,0-.4.4,3.14,3.14,0,0,0,.4,1.2c.1.2.2.5.4.9.3.8.6,1.1,1.1,1.1s.7-.3.9-.9l.3-1.3c.2-.4.5-.6.5-.9a.94.94,0,0,0-.7-.5m-.6,1.9-.1.6a.47.47,0,0,1-.5.5c-.2,0-.3-.1-.4-.5l-.1-.5-.1-.7a1990328647664.37,1990328647664.37,0,0,0,.2-.2h.3l.5-.1h0a.1.1,0,0,1,.1.1c.1.1.1.1.1.2v.6"/><path class="cls-3" d="M15.1,62.7c-.1,0-.1,0-.2.1l-.5.2a.75.75,0,0,1-.5.1,1.85,1.85,0,0,1-.7-.2l-.3-.2a.37.37,0,0,0-.3-.1c-.3,0-.5.2-.5.6a3.09,3.09,0,0,0,.2.8c.6,1.1,1.1,1.7,1.6,1.7.3,0,.6-.5,1-1.1a4.49,4.49,0,0,0,.6-1.3c0-.3-.2-.6-.4-.6M14.3,64v.4c-.1.6-.2.9-.4.9s-.2,0-.2-.1a2.37,2.37,0,0,1-.5-1.2.27.27,0,0,1,.3-.3h0l.3.1.3-.1h.1c.1-.1.1,0,.1.3Z"/><path class="cls-3" d="M66.9,62.5c-.1,0-.1,0-.2.1l-.4.1a1.85,1.85,0,0,1-.7.2.6.6,0,0,1-.4-.1l-.4-.3a.37.37,0,0,0-.3-.1.46.46,0,0,0-.4.5,3.16,3.16,0,0,0,.5,1.5c.5,1,.7,1.2,1,1.2s.4-.1.6-.5l.3-.7a3.26,3.26,0,0,0,.7-1.5c.1-.2-.1-.4-.3-.4m-.7,1.6c-.1.6-.3,1-.6,1a.46.46,0,0,1-.4-.5V64c0-.4.1-.5.2-.5h.5c.3,0,.3.1.3.3.1,0,.1,0,0,.3"/><path id="_Path_42" data-name="&lt;Path&gt;" class="cls-3" d="M38.3,4.5l.2.3.2.2.3.3a.77.77,0,0,0,.3.2l-.1.1-.3.3-.3.2-.1.1v.2c0,2.3.8,4.3,1.9,4.9.2.1.2.2.2.2h0l-.2.1h-.3a6.88,6.88,0,0,1-1.3-.2l-.3,2h-.4l-.3-2a6.88,6.88,0,0,1-1.3.2h-.2c-.2,0-.2,0-.2-.1a.22.22,0,0,1,.2-.2c1.1-.6,1.9-2.6,1.9-4.9V6.2l-.1-.1-.3-.2-.3-.3-.1-.1c.1-.1.2-.2.3-.2L38,5l.2-.2Z"/><path id="_Path_43" data-name="&lt;Path&gt;" class="cls-3" d="M48.6,4.5l.2.3L49,5l.3.3a.77.77,0,0,0,.3.2l-.1.1-.3.3-.3.2-.1.1v.2c0,2.3.8,4.3,1.9,4.9.2.1.2.2.2.2h0l-.2.1h-.3a6.88,6.88,0,0,1-1.3-.2l-.3,2h-.4l-.3-2a6.88,6.88,0,0,1-1.3.2h-.3c-.2,0-.2,0-.2-.1a.22.22,0,0,1,.2-.2c1.1-.6,1.9-2.6,1.9-4.9V6.2l-.1-.1L48,5.9l-.3-.3-.1-.1c.1-.1.2-.2.3-.2l.3-.3.2-.2Z"/><path id="_Path_44" data-name="&lt;Path&gt;" class="cls-3" d="M38.3,22.4l.2.3.2.2c.1.2.2.2.3.3a.77.77,0,0,0,.3.2l-.1.1-.4.3-.3.2-.1.1v.2c0,2.3.8,4.3,1.9,4.9.2.1.2.2.2.3h0l-.2.1H40a6.88,6.88,0,0,1-1.3-.2l-.3,2.1H38l-.3-2.1a6.88,6.88,0,0,1-1.3.2h-.1c-.2,0-.2,0-.2-.1a.22.22,0,0,1,.2-.2c1.1-.6,1.9-2.6,1.9-4.9v-.2l-.1-.1-.3-.3-.3-.3-.1-.1c.1-.1.2-.2.3-.2l.3-.3.2-.2Z"/><path id="_Path_45" data-name="&lt;Path&gt;" class="cls-3" d="M48.6,22.4l.2.3.2.2c.1.2.2.2.3.3a.77.77,0,0,0,.3.2l-.1.1-.4.3-.3.2-.1.1v.2c0,2.3.8,4.3,1.9,4.9.2.1.2.2.2.3h0l-.2.1h-.3a6.88,6.88,0,0,1-1.3-.2l-.3,2.1h-.4L48,29.4a6.88,6.88,0,0,1-1.3.2h-.3c-.2,0-.2,0-.2-.1a.22.22,0,0,1,.2-.2c1.1-.6,1.9-2.6,1.9-4.9V24l-.2-.2-.3-.3-.1-.1c.1-.1.2-.2.3-.2l.3-.3.2-.2Z"/><path id="_Path_46" data-name="&lt;Path&gt;" class="cls-3" d="M43.4,13.5l.2.3.2.2c.1.2.2.2.3.3a.77.77,0,0,0,.3.2l-.1.1-.3.3-.3.2-.1.1v.2c0,2.3.8,4.3,1.9,4.9.2.1.2.2.2.2h0l-.2.1h-.3a6.88,6.88,0,0,1-1.3-.2l-.3,2h-.4l-.3-2a6.88,6.88,0,0,1-1.3.2h-.3c-.2,0-.2,0-.2-.1a.22.22,0,0,1,.2-.2c1.1-.6,1.9-2.6,1.9-4.9v-.2l-.1-.1-.3-.2-.3-.3-.1-.1c.1-.1.2-.2.3-.2L43,14l.2-.2Z"/><path id="_Path_47" data-name="&lt;Path&gt;" class="cls-3" d="M38.3,65.8l.2.3.2.2c.1.2.2.2.3.3a.77.77,0,0,0,.3.2l-.1.1-.3.3-.3.2-.1.1v.2c0,2.3.8,4.3,1.9,4.9.2.1.2.2.2.3h0l-.2.1h-.3a6.88,6.88,0,0,1-1.3-.2l-.3,2h-.4l-.3-2a6.88,6.88,0,0,1-1.3.2h-.2c-.2,0-.2,0-.2-.1a.22.22,0,0,1,.2-.2c1.1-.6,1.9-2.6,1.9-4.9v-.2l-.1-.1-.3-.2-.3-.3-.1-.2c.1-.1.2-.2.3-.2l.3-.3.2-.2Z"/><path id="_Path_48" data-name="&lt;Path&gt;" class="cls-3" d="M48.6,65.8l.2.3.2.2c.1.2.2.2.3.3a.77.77,0,0,0,.3.2l-.1.1-.3.3-.3.2-.1.1v.3c0,2.3.8,4.3,1.9,4.9.2.1.2.2.2.3h0l-.2.1h-.3a6.88,6.88,0,0,1-1.3-.2l-.3,2h-.4l-.3-2a6.88,6.88,0,0,1-1.3.2h-.3c-.2,0-.2,0-.2-.1a.22.22,0,0,1,.2-.2c1.1-.6,1.9-2.6,1.9-4.9v-.2l-.1-.3-.3-.2-.3-.3v-.1c.1-.1.2-.2.3-.2l.3-.3.2-.2Z"/><path id="_Path_49" data-name="&lt;Path&gt;" class="cls-3" d="M38.3,84.5l.2.3.2.2c.1.2.2.2.3.3a.77.77,0,0,0,.3.2l-.1.1-.3.3-.3.2-.1.1v.2c0,2.3.8,4.3,1.9,4.9.2.1.2.2.2.2h0l-.2.1h-.3a6.88,6.88,0,0,1-1.3-.2l-.3,2h-.4l-.3-2a6.88,6.88,0,0,1-1.3.2h-.2c-.2,0-.2,0-.2-.1a.22.22,0,0,1,.2-.2c1.1-.6,1.9-2.6,1.9-4.9v-.2l-.1-.1-.3-.2-.3-.3-.1-.1c.1-.1.2-.2.3-.2L38,85l.2-.2Z"/><path id="_Path_50" data-name="&lt;Path&gt;" class="cls-3" d="M48.6,84.5l.2.3.2.2c.1.2.2.2.3.3a.77.77,0,0,0,.3.2l-.1.1-.3.3-.3.2-.1.1v.2c0,2.3.8,4.3,1.9,4.9.2.1.2.2.2.2h0l-.2.1h-.3a6.88,6.88,0,0,1-1.3-.2l-.3,2h-.4l-.3-2a6.88,6.88,0,0,1-1.3.2h-.3c-.2,0-.2,0-.2-.1a.22.22,0,0,1,.2-.2c1.1-.6,1.9-2.6,1.9-4.9v-.2l-.1-.1-.3-.2-.3-.3-.1-.1c.1-.1.2-.2.3-.2l.3-.3.2-.2Z"/><path id="_Path_51" data-name="&lt;Path&gt;" class="cls-3" d="M43.4,75.1l.2.3.2.2c.1.2.2.2.3.3a.77.77,0,0,0,.3.2l-.1.1-.3.3-.3.2-.1.1V77c0,2.3.8,4.3,1.9,4.9.2.1.2.2.2.2h0l-.2.1h-.3a6.88,6.88,0,0,1-1.3-.2l-.3,2h-.4l-.3-2a6.88,6.88,0,0,1-1.3.2h-.3c-.2,0-.2,0-.2-.1a.22.22,0,0,1,.2-.2c1.1-.6,1.9-2.6,1.9-4.9v-.2l-.1-.1-.3-.2-.3-.3-.1-.1c.1-.1.2-.2.3-.2l.3-.3.2-.2Z"/><path id="_Path_52" data-name="&lt;Path&gt;" class="cls-3" d="M43.4,56.6l.2.3.2.2c.1.2.2.2.3.3a.77.77,0,0,0,.3.2l-.1.1L44,58l-.3.2-.1.1v.2c0,2.3.8,4.3,1.9,4.9.2.1.2.2.2.2h0l-.2.2h-.3a6.88,6.88,0,0,1-1.3-.2l-.3,2h-.4l-.3-2a6.88,6.88,0,0,1-1.3.2h-.3c-.2,0-.2,0-.2-.1a.22.22,0,0,1,.2-.2c1.1-.6,1.9-2.6,1.9-4.9v-.2l-.1-.1-.3-.2-.3-.3-.1-.1c.1-.1.2-.2.3-.2l.3-.3.2-.2Z"/><path id="_Path_53" data-name="&lt;Path&gt;" class="cls-3" d="M6.4,36.4l.2.3.2.2c.1.2.2.2.3.3a.77.77,0,0,0,.3.2l-.1.1-.3.3-.3.2-.1.1v.2c0,2.3.8,4.3,1.9,4.9.2.1.2.2.2.2h0l-.2.1H8.2a6.88,6.88,0,0,1-1.3-.2l-.3,2.1H6.3L6,43.3a6.88,6.88,0,0,1-1.3.2H4.4c-.2,0-.2,0-.2-.1a.22.22,0,0,1,.2-.2c1.1-.6,1.9-2.6,1.9-4.9v-.2L6.2,38l-.3-.2-.3-.3-.1-.1c.1-.1.2-.2.3-.2l.3-.3.2-.2Z"/><path id="_Path_54" data-name="&lt;Path&gt;" class="cls-3" d="M17.3,36.4l.2.3.2.2c.1.2.2.2.3.3a.77.77,0,0,0,.3.2l-.1.1-.4.3-.3.2-.1.1v.2c0,2.3.8,4.3,1.9,4.9.2.1.2.2.2.2h0l-.2.3H19a6.88,6.88,0,0,1-1.3-.2l-.3,2.1H17l-.3-2.1a6.88,6.88,0,0,1-1.3.2h-.3c-.2,0-.2,0-.2-.1a.22.22,0,0,1,.2-.2c1.1-.6,1.9-2.6,1.9-4.9v-.2l-.1-.1-.2-.4-.3-.3-.1-.1c.1-.1.2-.2.3-.2l.3-.3.2-.2Z"/><path id="_Path_55" data-name="&lt;Path&gt;" class="cls-3" d="M28.1,36.4l.2.3.2.2c.1.2.2.2.3.3a.77.77,0,0,0,.3.2l-.1.1-.4.3-.3.2-.1.1v.2c0,2.3.8,4.3,1.9,4.9.2.1.2.2.2.2h0l-.2.1h-.3a6.88,6.88,0,0,1-1.3-.2l-.2,2.2h-.4l-.3-2.1a6.88,6.88,0,0,1-1.3.2H26c-.2,0-.2,0-.2-.1a.22.22,0,0,1,.2-.2c1.1-.6,1.9-2.6,1.9-4.9v-.2l-.1-.1-.3-.3-.2-.2-.1-.1c.1-.1.2-.2.3-.2l.3-.3.2-.2Z"/><path id="_Path_56" data-name="&lt;Path&gt;" class="cls-3" d="M22.7,42.7l.2.3.2.2.3.3a.77.77,0,0,0,.3.2l-.3.1-.3.3-.3.2-.1.1v.2c0,2.3.8,4.3,1.9,4.9.2.1.2.2.2.2h0l-.2.1h-.3a6.88,6.88,0,0,1-1.3-.2l-.1,2.2h-.4l-.3-2.1a6.88,6.88,0,0,1-1.3.2h-.3c-.2,0-.2,0-.2-.1a.22.22,0,0,1,.2-.2c1.1-.6,1.9-2.6,1.9-4.9v-.2l-.1-.1-.3-.2-.2-.4-.1-.1c.1-.1.2-.2.3-.2l.3-.3.2-.2Z"/><path id="_Path_57" data-name="&lt;Path&gt;" class="cls-3" d="M11.9,42.7l.2.3.2.2.3.3a.77.77,0,0,0,.3.2l-.3.1-.3.3-.3.2-.1.1v.2c0,2.3.8,4.3,1.9,4.9.2.1.2.2.2.2h0l-.2.1h-.3a6.88,6.88,0,0,1-1.3-.2l-.1,2.2h-.4l-.3-2.1a6.88,6.88,0,0,1-1.3.2H9.8c-.2,0-.2,0-.2-.1a.22.22,0,0,1,.2-.2c1.1-.6,1.9-2.6,1.9-4.9v-.2l-.1-.1-.3-.3-.2-.3-.1-.1c.1-.1.2-.2.3-.2l.3-.3.2-.2Z"/><path id="_Path_58" data-name="&lt;Path&gt;" class="cls-3" d="M58.9,36.4l.2.3.2.2c.1.2.2.2.3.3a.77.77,0,0,0,.3.2l-.1.1-.4.3-.3.2-.1.1v.2c0,2.3.8,4.3,1.9,4.9.2.1.2.2.2.2h0l-.2.1h-.3a6.88,6.88,0,0,1-1.3-.2L59,45.4h-.4l-.3-2.1a6.88,6.88,0,0,1-1.3.2h-.3c-.2,0-.2,0-.2-.1a.22.22,0,0,1,.2-.2c1.1-.6,1.9-2.6,1.9-4.9v-.2l-.1-.1-.1-.2-.3-.3-.1-.1c.1-.1.2-.2.3-.2l.3-.3.2-.2Z"/><path id="_Path_59" data-name="&lt;Path&gt;" class="cls-3" d="M69.7,36.4l.2.3.2.2c.1.2.2.2.3.3a.77.77,0,0,0,.3.2l-.1.1-.4.3-.3.2-.1.1v.2c0,2.3.8,4.3,1.9,4.9.2.1.2.2.2.2h0l-.2.1h-.3a6.88,6.88,0,0,1-1.3-.2l-.3,2.1h-.4l-.3-2.1a6.88,6.88,0,0,1-1.3.2h-.3c-.2,0-.2,0-.2-.1a.22.22,0,0,1,.2-.2c1.1-.6,1.9-2.6,1.9-4.9v-.2l-.1-.1-.1-.2-.3-.3-.1-.1c.1-.1.2-.2.3-.2l.3-.3.2-.2Z"/><path id="_Path_60" data-name="&lt;Path&gt;" class="cls-3" d="M80.5,36.4l.2.3.2.2c.1.2.2.2.3.3a.77.77,0,0,0,.3.2l-.2.2-.3.2-.3.2-.1.1v.2c0,2.3.8,4.3,1.9,4.9.2.1.2.2.2.2h0l-.2.1h-.2a6.88,6.88,0,0,1-1.3-.2l-.3,2.1h-.4L80,43.3a6.88,6.88,0,0,1-1.3.2h-.3c-.2,0-.2,0-.2-.1a.22.22,0,0,1,.2-.2c1.1-.6,1.9-2.6,1.9-4.9V38l-.3-.2-.3-.3-.1-.1c.1-.1.2-.2.3-.2l.3-.3.2-.2Z"/><path id="_Path_61" data-name="&lt;Path&gt;" class="cls-3" d="M75.1,42.7l.2.3.2.2.3.3a.77.77,0,0,0,.3.2l-.2.1-.3.3-.3.2v.3c0,2.3.8,4.3,1.9,4.9.2.1.2.2.2.2h0l-.2.1h-.3a6.88,6.88,0,0,1-1.3-.2l-.3,2.2h-.4l-.3-2.1a6.88,6.88,0,0,1-1.3.2H73c-.2,0-.2,0-.2-.1a.22.22,0,0,1,.2-.2c1.1-.6,1.9-2.6,1.9-4.9v-.2l-.1-.1-.3-.2-.2-.4-.1-.1c.1-.1.2-.2.3-.2l.3-.3L75,43Z"/><path id="_Path_62" data-name="&lt;Path&gt;" class="cls-3" d="M64.3,42.7l.2.3.2.2.3.3a.77.77,0,0,0,.3.2l-.2.1-.3.3-.3.2-.1.1v.2c0,2.3.8,4.3,1.9,4.9.2.1.2.2.2.2h0l-.2.1H66a6.88,6.88,0,0,1-1.3-.2l-.2,2.2h-.4l-.3-2.1a6.88,6.88,0,0,1-1.3.2h-.2c-.2,0-.2,0-.2-.1a.22.22,0,0,1,.2-.2c1.1-.6,1.9-2.6,1.9-4.9v-.2l-.1-.1-.3-.2-.3-.4-.1-.1c.1-.1.2-.2.3-.2l.3-.3.2-.2Z"/><path id="_Path_63" data-name="&lt;Path&gt;" class="cls-3" d="M33.3,36.5h3a1.5,1.5,0,0,1,1.5-1,1.72,1.72,0,0,1,1.6,1h2.5a1.62,1.62,0,0,1,1.6-1,1.54,1.54,0,0,1,1.5,1h2.3a1.58,1.58,0,0,1,1.5-1,1.65,1.65,0,0,1,1.5.9l.1.2h3.2V51.4H50.8v5.7H47.5V51.4H39.3v5.7H36V51.4H33.3Z"/><path class="cls-2" d="M34.4,38.1H52.5v-.5H34.4Zm0,11.9H52.5V39H34.4Z"/><path id="_Path_64" data-name="&lt;Path&gt;" class="cls-4" d="M36.3,40.5a.9.9,0,1,0,.9.9.9.9,0,0,0-.9-.9"/><path id="_Path_65" data-name="&lt;Path&gt;" class="cls-4" d="M50.6,40.5a.9.9,0,1,0,.9.9.9.9,0,0,0-.9-.9"/><path id="_Path_66" data-name="&lt;Path&gt;" class="cls-4" d="M36.3,47.3a.9.9,0,1,0,0,1.8.82.82,0,0,0,.8-.9.77.77,0,0,0-.8-.9"/><path id="_Path_67" data-name="&lt;Path&gt;" class="cls-4" d="M50.6,47.3a.9.9,0,1,0,.9.9.9.9,0,0,0-.9-.9"/><path id="_Path_68" data-name="&lt;Path&gt;" class="cls-4" d="M39,44.7a5.36,5.36,0,0,0,4.5,2.2c1.7,0,2.8-.6,4.2-2.2a5.62,5.62,0,0,0-4.3-2,5.42,5.42,0,0,0-4.4,2"/><rect id="_Path_69" data-name="&lt;Path&gt;" class="cls-4" x="36.6" y="52.5" width="1.7" height="2.2"/><rect id="_Path_70" data-name="&lt;Path&gt;" class="cls-4" x="36.6" y="55.2" width="1.7" height="0.7"/><rect id="_Path_71" data-name="&lt;Path&gt;" class="cls-4" x="48.2" y="52.5" width="1.7" height="2.2"/><rect id="_Path_72" data-name="&lt;Path&gt;" class="cls-4" x="48.2" y="55.2" width="1.7" height="0.7"/><path id="_Path_73" data-name="&lt;Path&gt;" class="cls-4" d="M37.8,36.4a.79.79,0,0,0-.8.8v2a.8.8,0,0,0,1.6,0v-2a.86.86,0,0,0-.8-.8"/><path id="_Path_74" data-name="&lt;Path&gt;" class="cls-4" d="M43.5,36.4a.79.79,0,0,0-.8.8v2a.8.8,0,0,0,1.6,0v-2c-.1-.4-.4-.8-.8-.8"/><path id="_Path_75" data-name="&lt;Path&gt;" class="cls-4" d="M48.8,36.4a.79.79,0,0,0-.8.8v2a.8.8,0,0,0,1.6,0v-2a.86.86,0,0,0-.8-.8"/><path class="cls-3" d="M49.4,48.1a1.2,1.2,0,1,0,1.2-1.2,1.22,1.22,0,0,0-1.2,1.2m.7,0a.5.5,0,1,1,.5.5.47.47,0,0,1-.5-.5"/><path class="cls-3" d="M43.3,43.3a5.44,5.44,0,0,0-3.5,1.3,4.85,4.85,0,0,0,3.5,1.5,4.49,4.49,0,0,0,3.5-1.5,5.65,5.65,0,0,0-3.5-1.3m0,1.7a4.14,4.14,0,0,1-2-.6,4.55,4.55,0,0,1,2-.5,5.37,5.37,0,0,1,2.1.5,3.94,3.94,0,0,1-2.1.6"/><path class="cls-3" d="M35.1,41.4a1.2,1.2,0,1,0,1.2-1.2,1.16,1.16,0,0,0-1.2,1.2m.7,0a.5.5,0,1,1,.5.5.47.47,0,0,1-.5-.5"/><path class="cls-3" d="M35.1,48.1a1.22,1.22,0,0,0,1.2,1.2,1.2,1.2,0,1,0,0-2.4,1.22,1.22,0,0,0-1.2,1.2m.7,0a.5.5,0,1,1,.5.5.47.47,0,0,1-.5-.5"/><path class="cls-3" d="M49.4,41.4a1.2,1.2,0,1,0,1.2-1.2,1.16,1.16,0,0,0-1.2,1.2m.7,0a.5.5,0,1,1,.5.5.47.47,0,0,1-.5-.5"/><path class="cls-3" d="M84.4.1c-5.1.2-9,.3-11.2.3H13.7C11.5.4,7.6.3,2.5.1L0,0,.1.5A73.65,73.65,0,0,1,.5,8v6.3l.1,6V53.5C.6,74.9,5.4,82,27.9,93.1l4.1,2c2.9,1.4,6.1,2.9,9.2,4.6l2.3,1.2,2.3-1.2c3.1-1.6,6.4-3.2,9.2-4.6l4.1-2C81.5,82,86.4,75,86.4,53.5V20.3l.1-5.9V8.1A53.76,53.76,0,0,1,86.9.6L87,.1ZM85.5,8v6.3l-.1,5.9V53.4c0,21.2-4.5,27.7-26.7,38.7l-4.1,2c-2.9,1.4-6.1,2.9-9.3,4.6,0,0-1.6.9-1.9,1-.3-.1-1.9-1-1.9-1-3.1-1.6-6.4-3.2-9.3-4.6l-4.1-2C5.9,81.1,1.4,74.6,1.4,53.4V20.3l-.1-6V8A64.13,64.13,0,0,0,1,1a13.8,13.8,0,0,1,1.4.1c5.1.2,9,.3,11.2.3H73.1c2.2,0,6.1-.1,11.2-.3A10.33,10.33,0,0,0,85.7,1c-.1,2.5-.2,3.5-.2,7"/></g></g></g></svg>