<svg xmlns="http://www.w3.org/2000/svg" viewBox="0 0 1795.31 1709.93"><defs><style>.cls-1,.cls-3{fill:none;stroke:#292311;stroke-miterlimit:10;}.cls-1{stroke-width:80px;}.cls-2{fill:#606161;}.cls-3{stroke-width:30px;}</style></defs><title>ic_A_logo_dark</title><g id="Layer_2" data-name="Layer 2"><g id="Layer_1-2" data-name="Layer 1"><path class="cls-1" d="M1362.91,1401.08"/><rect class="cls-2" width="1795.31" height="1709.93"/><line class="cls-1" x1="1309.1" y1="1002.15" x2="778.76" y2="1002.15"/><line class="cls-1" x1="959.24" y1="838.34" x2="555.17" y2="838.34"/><path class="cls-1" d="M441.74,1067.51l203.46-416L888.82,152.88c393.65,0,712.76,319.11,712.76,712.76A713.59,713.59,0,0,1,1577,1052.06"/><path class="cls-1" d="M1035,437.63l177,362,243.63,498.13c-130.23,170.57-335.69,280.62-566.86,280.62-393.64,0-712.76-319.11-712.76-712.76,0-293.55,177.47-545.66,431-654.88"/><circle class="cls-3" cx="1015.37" cy="390.45" r="56.12"/><circle class="cls-3" cx="658.76" cy="187.69" r="56.12"/><circle class="cls-3" cx="1563.13" cy="1102.61" r="56.12"/><circle class="cls-3" cx="720.32" cy="1002.15" r="56.12"/><circle class="cls-3" cx="1015.37" cy="837.64" r="56.12"/><circle class="cls-3" cx="410.33" cy="1110.91" r="56.12"/></g></g></svg>