<svg xmlns="http://www.w3.org/2000/svg" viewBox="0 0 1500 1500"><defs><style>.cls-1{fill:#000f26;}.cls-2{fill:#53ff45;}</style></defs><title>ic_Asset 3</title><g id="Layer_2" data-name="Layer 2"><g id="Layer_1-2" data-name="Layer 1"><rect class="cls-1" width="1500" height="1500"/><path class="cls-2" d="M1134,555q78.29-141.78,78.29-273.74,0-95.49-45.3-151.64T1043.92,73.53q-55.16,0-116.68,32T800.71,202q-65,64.5-123.09,148.19-48.87,70.44-84.29,138.34l31.57,3.83q16.1-30.87,34-61.42,57.09-94.53,113.73-158t114.22-99.46q57.6-35.92,108.81-35.94,53.16,0,83.69,41.36t30.53,114.22q0,105.38-48.74,227.46T933.64,732.28Q852.9,823.86,749,878T552.57,932.17a142.92,142.92,0,0,1-17.72-1Q560.44,1005,621,1096.11t141.79,180.2q81.24,89.13,160,150.16l71.88-69.91a1218.47,1218.47,0,0,1-128-115.21A1575.28,1575.28,0,0,1,750,1106.45,1386.15,1386.15,0,0,1,648.08,953.83Q794.8,911.5,925.27,804.16T1134,555Z"/><path class="cls-2" d="M541.74,605.25l3.88-27.16,1-7.81Q563.63,428.58,572.26,298q4.92-77.77,4.93-145.73V135.56L468.87,184.8l1,23.63q0,13.8.49,25.11t.49,29q0,247.17-66,568.15L287.69,1397.92h92.56L481.67,917.4c13.88-64.91,21.32-128.46,37-181.68l24-132.88C542.33,603.65,542,604.45,541.74,605.25Z"/></g></g></svg>