<svg xmlns="http://www.w3.org/2000/svg" viewBox="0 0 1186 1186"><defs><style>.cls-1{fill:#ff3264;}.cls-2{fill:none;stroke:#f7f7f7;stroke-linecap:round;stroke-linejoin:round;stroke-width:40px;}</style></defs><title>ic_LP</title><g id="Layer_2" data-name="Layer 2"><g id="Layer_1-2" data-name="Layer 1"><rect class="cls-1" width="1186" height="1186" rx="219.17" ry="219.17"/><line class="cls-2" x1="273.07" y1="466.17" x2="599.41" y2="466.17"/><line class="cls-2" x1="273.07" y1="555.72" x2="628.25" y2="555.72"/><line class="cls-2" x1="273.07" y1="641.48" x2="539.46" y2="641.48"/><line class="cls-2" x1="273.07" y1="716.61" x2="566.78" y2="716.61"/><line class="cls-2" x1="273.07" y1="791.75" x2="635.08" y2="791.75"/><line class="cls-2" x1="273.07" y1="866.88" x2="607.76" y2="866.88"/><polygon class="cls-2" points="707.18 328.04 197.18 328.04 197.18 1007.28 707.18 1007.28 707.18 998.23 707.18 998.23 707.18 328.04"/><polyline class="cls-2" points="866.92 655.66 988.82 394.25 526.6 178.72 457.15 327.66 707.18 327.66 707.18 328.04 707.18 998.23 866.92 655.66"/><polygon class="cls-2" points="707.18 998.23 707.18 998.23 707.18 328.04 707.18 998.23"/><line class="cls-2" x1="719.74" y1="405.08" x2="845.61" y2="463.77"/><line class="cls-2" x1="710.68" y1="499.03" x2="776.61" y2="529.77"/><line class="cls-2" x1="719.68" y1="607.03" x2="785.61" y2="637.77"/></g></g></svg>