<svg xmlns="http://www.w3.org/2000/svg" viewBox="0 0 1186 1186"><defs><style>.cls-1{fill:#87bac0;}.cls-2,.cls-3,.cls-5{fill:none;}.cls-2,.cls-3,.cls-4,.cls-5{stroke:#f7f7f7;}.cls-2{stroke-miterlimit:10;}.cls-2,.cls-3,.cls-4{stroke-width:60px;}.cls-3,.cls-4,.cls-5{stroke-linecap:round;stroke-linejoin:round;}.cls-4{fill:#f7f7f7;}.cls-5{stroke-width:30px;}</style></defs><title>ic_N</title><g id="Layer_2" data-name="Layer 2"><g id="Layer_1-2" data-name="Layer 1"><rect class="cls-1" width="1186" height="1186" rx="219.17" ry="219.17"/><path class="cls-2" d="M887.16,395.66H560V690.57H884.71c96,0,173.79-66.28,173.79-148.05v-.89C1058.5,461,981.79,395.66,887.16,395.66Z"/><path class="cls-3" d="M560,690.57c0,1.16,1,0,0,0Z"/><polygon class="cls-3" points="384.08 275.34 384.08 812.92 560.02 690.57 560.02 395.66 384.08 275.34"/><polygon class="cls-4" points="805.46 910.66 853.24 695.63 745.73 695.63 805.46 910.66"/><path class="cls-5" d="M315.66,607.66a58.65,58.65,0,0,1,0-117.29"/><line class="cls-5" x1="127.5" y1="547.93" x2="195.92" y2="547.93"/><line class="cls-5" x1="127.5" y1="675.29" x2="175.88" y2="626.91"/><line class="cls-5" x1="127.5" y1="421.65" x2="175.88" y2="470.03"/></g></g></svg>