<svg xmlns="http://www.w3.org/2000/svg" viewBox="0 0 1186 1186"><defs><style>.cls-1{fill:#fc6621;}.cls-2{fill:#f7f7f7;}</style></defs><title>ic_SNS</title><g id="Layer_2" data-name="Layer 2"><g id="Layer_1-2" data-name="Layer 1"><rect class="cls-1" width="1186" height="1186" rx="219.17" ry="219.17"/><path class="cls-2" d="M830,335.4h-52.9A244.11,244.11,0,0,1,881.93,536.06h0c0,115.3-79.84,211.94-187.25,237.68h5.12L903,893.29,866.26,770.75q5.15-.86,10.2-2c98.72-21.32,172.68-109.13,172.68-214.23h0C1049.14,433.53,951,335.4,830,335.4Z"/><path class="cls-2" d="M603.48,281.92H381.28c-135,0-244.42,109.43-244.42,244.42h0c0,117.2,82.48,215.13,192.57,238.91q5.64,1.21,11.37,2.17l-41,136.66L526.45,770.76h77c135,0,244.42-109.43,244.42-244.42h0C847.9,391.35,738.47,281.92,603.48,281.92Zm42,337.9H306.41a16.41,16.41,0,0,1,0-32.82H645.52a16.41,16.41,0,0,1,0,32.82Zm0-65.64H306.41a16.41,16.41,0,0,1,0-32.82H645.52a16.41,16.41,0,0,1,0,32.82Zm0-65.63H306.41a16.41,16.41,0,0,1,0-32.82H645.52a16.41,16.41,0,0,1,0,32.82Z"/></g></g></svg>