<svg xmlns="http://www.w3.org/2000/svg" viewBox="0 0 1094.91 360.01"><defs><style>.cls-1{fill:#ea2626;}</style></defs><title>ic_Tadhkiroh</title><g id="Layer_2" data-name="Layer 2"><g id="Layer_1-2" data-name="Layer 1"><path class="cls-1" d="M487.33,0s-61-2-124,60-69,89-69,89-24,34,51,41,212-6,212-6l233-19s30-1,31,21c0,0-94,20-182,22s-195,12-195,12h-139s-61-7-83-31c0,0-27-13-27,14s10,35,10,35,17,9,1,31-38,38-69,56c0,0-50,7-54-7,0,0-25-3-18,21,0,0,13,19,75,21,0,0,49-6,61-27,0,0,47-45,37-74,0,0,77,7,142,6s253-3,400-24,78-119,54-117-66-11-173,11l-157,10-92,2s-52,2-74-8c0,0-8-7,21-31s82-59,117-70S487.33,0,487.33,0Z"/><path class="cls-1" d="M1045.33,189s12-51,37-7,5,83,5,83-5,17-37,21-42-16-42-16l-14-21s0-8-11,6-27,23-27,23-25,7-31,9-46,0-46,0-20,1-25-28,14-29,14-29,14-3,28,10,44-2,44-2l12-7s20-3,26-18a25.75,25.75,0,0,0-4-26l-14-63s16-60,30-4,16,68,16,68,4,25,28,43,27,5,27,5Z"/><circle class="cls-1" cx="943.52" cy="45.19" r="19.81"/><circle class="cls-1" cx="1064.6" cy="65.19" r="19.81"/><circle class="cls-1" cx="1020.81" cy="65.19" r="19.81"/><path class="cls-1" d="M102.33,202c-20-45-63-45-63-45-7-4-12,13-12,13-2,31-11,43-18,58a61.65,61.65,0,0,0-6,28c7,38,60,30,60,30S122.33,247,102.33,202Zm-46.5,43c-8,0-14.5-7.61-14.5-17s6.49-17,14.5-17,14.5,7.61,14.5,17S63.84,245,55.83,245Z"/><circle class="cls-1" cx="63.6" cy="98.19" r="19.81"/><circle class="cls-1" cx="19.81" cy="98.19" r="19.81"/></g></g></svg>