<svg xmlns="http://www.w3.org/2000/svg" viewBox="0 0 1167.92 1330.09"><defs><style>.cls-1{fill:#6e6e22;}.cls-2{fill:#9ec118;}.cls-3{fill:#a2c418;}.cls-4{fill:#706f26;}.cls-5{fill:#7aab2f;}.cls-6{fill:#a5c620;}.cls-7{fill:#a9c82a;}.cls-8{fill:#dee8bf;}.cls-9{fill:#f0f4e5;}.cls-10{fill:#76a82d;}.cls-11{fill:#9fc115;}.cls-12{fill:#77a82b;}.cls-13{fill:#79a92c;}.cls-14{fill:#f9faf8;}.cls-15{fill:#085e6d;}</style></defs><title>LogoAsset 1</title><g id="Layer_2" data-name="Layer 2"><g id="Layer_1-2" data-name="Layer 1"><path class="cls-1" d="M126.54,29.25c1.56,11.47-6.41,19.77-10.19,29.37-7.06,17.9-15.81,35.15-21.23,57.12,28.7-17.2,53-36.82,84.7-44,.33,7.89-4.81,10.7-7.93,14.43-39.76,47.55-77,96.7-102.66,153.71C54.07,273.58,47.7,308.27,55.86,345c7.17,32.26,25.94,55.89,53.3,73.39.92,3,2.91,4,5.9,3.13l-.21-.16c.8,5.3,4.33,6.52,9,6l-.23-.16c8,11.17,20.74,14.9,32.12,20.79,28.88,16.75,59,31.43,86.21,51,10.56,7.59,20.31,16.32,32.9,26.53-4.12-96.37-21.65-187.33-60.16-273.83l14.22-9.07H209.33l-.63-5.53,14.6-14.7c4,.32,5.75,3.17,7.22,6.37,28,60.77,46,124.57,56.78,190.38,5,30.5,7.31,61.43,10.84,92.16-.79,2.5-1.29,5,.84,7.1,2.45,79.32-8.42,156.93-30.39,233-2.77,9.58,1.23,12.19,8.78,14.11,15.53,4,31.19,7.54,45.88,14.2,9.15,4.14,15.85,5.25,14.4-8.75-.68-6.63,1.2-11.61,10.26-8,27.24,11,42.73-7.76,44.7-32.67.28-3.46,0-7.13-3.3-9.13-4-2.42-6.14,1.27-8.55,3.4-5.09,4.48-9.28,9.89-15.44,13.28-19.53,10.72-36.68.78-37.07-21.46-.16-9,2.24-17.27,5.73-25.39,9.22-21.44,22.51-41,30-63.21,3.09-9.2,7.22-19.75-4.59-25.51-9.67-4.72-17.22-10.43-21.31-20.53-1.86-4.62-11.45-7.71-7.3-12.25,5.42-5.93,8.9,4.59,14.18,5.69.65.13,1.5-.75,2.2-1.14-.42-6-7-10.31-5-18.93,7.82,8,18,1.41,24.86,6.46,12,8.83,14.81,21.61,14,36.31-1.63,28.41-10.89,54-24.93,78.37-5.81,10.09-11.82,20.48-12.7,32.36-.47,6.28-4.06,14.69,3.45,18.62,6.29,3.29,12.34-1.7,16.89-6,26-24.35,40.36-56.63,57.63-86.85,1.7-3,6.21-13.55-6.69-9.75-1.95.57-3.68-3-3.9-5.43-.52-6.13-5.59-11.68-6.4-15.48-2.26-10.48-7.83-21.42-4.56-32.6a153.05,153.05,0,0,0,5-21.15c3.77-26.3,11.51-32.87,35.27-28.71,9.84,1.72,19.2,6.47,28.58,10.31,3.12,1.28,5.11,4.32,5.75,8,2,11.54-6.43,26-19.18,30.85,9.6,7.63,18.9,14.53,27.62,22.11,6.14,5.35,10.82,4.78,16.13-1,13.72-14.93,33.68-26.14,29-51.63-.57-3.11,3.31-9.59,6.68-4.67,4.21,6.13,7.33,5.66,13,3.83A9.21,9.21,0,0,1,558.7,544c2.17,4.4-1.42,7.77-4.75,9.46-9.68,4.88-10.8,10-2,16.93,2.17,1.7,4.82,4.28,2.6,7.38-2,2.84-5.08,4-9,3.25-17.14-3.13-21.5-.18-26.75,15.67-4.27,12.92,0,28.47-13,38.89-3.78,3,1.14,7,3.83,9.56,13.72,12.83,26.2,28.6,49,19.36,3.52-1.44,13.56.31,7.63,5.93-9.19,8.73-2,16.06-2.56,23.88l-4.36,7.94c-1.82-2.8-3.74-5.53-5.44-8.39-4.85-8.14-9.62-13.12-16.37-1.36-2,3.5-5,9.41-9.43,7.33-5.58-2.62-4.93-9.43-2.55-14.3,5.05-10.38-1.36-13.21-9.17-14.83-7.63-1.58-15.59-2.44-22.83,1.52-6.31,3.45-11.56,5.2-15.17-3.35-1.69-4-5.08-6.31-9.43-4.08s-3.27,6.69-2.56,10.41c2.77,14.43,13.84,24,29.59,28,5.3,1.36,14.9-.94,15.22,5,.35,6.6-7.53,11.77-13,16.43-2.44,2.09-6.55,2.13-9.24,4-8.21,5.79-9.42,13.74-7.17,23.24s7.88,12.21,16.95,11.73c15.82-.85,29.56-5.33,38.36-19.54,4.3-7,10.92-9.37,17.44-5.88,6,3.2,12.6,7.56,12.86,16.09-11,.07-2.28,18.73-16.37,17-7.66-1-19.7,2.57-19.48,8.85.62,17.79-8.51,7.87-12.24,4.8-6.21-5.14-11.35-5.91-19.48-4.82-16.81,2.26-34.44,2.6-48.55-9.52-6-5.17-11.87-11.56,1.95-16.45,13.56-4.8,16.3-16.21,8.26-28.14-6.72-10-16.33-14.75-28.36-15.25-9-.37-13.22,1.67-8.44,11.58,9.17,19,9.11,40.72,16.79,60.24,1.4,3.56-2.09,8.94-3.88,6.26-6.77-10.13-18.84-4.08-26.84-11.15-10.47-9.26-21.54-7-27.43,3.06a20.49,20.49,0,0,0,10.57,30c10.81,4.11,22,8,33.65,1.39,6.07-3.46,12.19-.66,15.55,4.05,4,5.61,5.4,15.68.35,18.69-11.54,6.91-1.41,8.8,1.67,11.06a562.65,562.65,0,0,1,53.53,44.95c29.8,28.1,56.12,59.2,81.12,91.52,6.05,10.47,7.08,1.9,9.22-2.44,17.24-17.09,29.47-38.37,47.12-55.24,28.09-26.83,53.76-56.28,86.46-78,2.64-1.76,7.29-3.48,1.76-8.59-7.88-7.27-2.12-15.95,1.71-22.25,3.73-6.12,10.91-5.88,18.25-2.66,12.23,5.37,30.63.51,38.86-8.74,6.53-7.34,5.28-15.16,1.59-23.07-2.94-6.28-8.62-11.84-14.83-8.69-11.62,5.89-25.72,4.72-36,13.63-1.85,1.6-4,3.54-6.22,1.42-1-1-1.07-3.68-.65-5.37,4.59-18.31,9.25-36.6,14.15-54.83,1.35-5,6.47-10.84,3.08-14.8-3.74-4.38-11-2.32-16.62-1a31.32,31.32,0,0,0-16.27,9c-12,12.78-11.57,25.11,1.56,32.81,12.28,7.2,12.47,13.48-.25,20.61-13.21,7.41-28.08,7.94-42.6,6.37-8.57-.93-15.64-1.49-22.29,5.41-2.57,2.67-11.23,7.15-11.14-.34.22-16.13-11.27-12.57-19.66-14.47-3.88-.87-17.66-17.15-15.59-20.26,3.61-5.42,6.31-12.42,14-13.7,6.79-1.12,12.53.74,16.2,7.1,9.62,16.69,25.39,19.5,42.71,19.12,6.32-.14,9.41-3,11.44-9,4.38-12.85.76-21.31-13.86-29.16-7.21-3.87-13.8-10.59-14.24-17.11-.35-5.06,10.29-4.71,16.19-5.91,14-2.86,27.47-16.91,28.65-30.79.3-3.58-.18-6.89-3.68-8.82a4.46,4.46,0,0,0-6.33,1.8c-5,12.3-12.49,10.52-22.66,6.1-6.27-2.74-14.53-2-21.52.48-6,2.18-12.6,4.61-6.06,13.37,4.06,5.44,1.92,10.94-2.56,15.88a20.32,20.32,0,0,1-3.74-2.23c-14.62-13.67-14.61-13.68-25.89,3.21-.24.37-.8.53-1.21.79l-6.37-10.23c.62-6,6.56-11.5,1.79-17.95-1.85-2.51-7.26-3.83-4.73-7.7,2.71-4.17,8-2.36,12.17-1.72,17,2.66,43-9.19,50.59-23.11,1.28-2.36,2.4-5.06.31-6.58-12-8.73-9.7-22.53-12.38-34.4-3.7-16.46-11.24-22.09-28-19.35a8.64,8.64,0,0,1-7.88-2.84c-2.84-3-.35-5.57,1.76-7.37,7.46-6.35,9.84-11.8-1.13-17.11-3.31-1.6-6.87-5-5.07-9.43s6.22-5.82,10.9-5.43c3.23.26,5.94,3.11,9.7,1.09,9.33-5,10-4.49,10.74,6.55.5,7.55-1.82,15.48,5.18,21.83,8.29,7.51,15.94,15.74,23.82,23.7,3.69,3.72,7.51,6.51,12.64,2.39,10.06-8.07,20.11-16.18,32.51-26.16-18.64-.28-19.65-12.24-21.3-23.34-1.76-11.76,7.87-13.29,15.46-17.74,14.65-8.61,30.07-6.25,45.51-5.93,3.74,14.06,5.36,29.19,11.78,41.89,6.89,13.64-.14,25.78-1.61,37.55-.74,5.82-3.91,19.81-10.3,22.43-15,6.16-7.45,13.94-3.59,20.74,11,19.41,22.46,38.66,34.84,57.24,6,9.09,12,18.83,23.09,23.69,12.3,5.39,16,3.54,16.33-9.68.43-17.54-8.76-31.68-17.09-45.82C798,651.5,790.2,632.61,788.26,612.19,787,599,784.59,585.13,791.17,572c7.85-15.62,23.94-9.2,35.37-15.46,2.45,8.13-6.68,11.38-5.27,18.15,5.79,1.42,7.13-4.66,11.06-5.85a10.6,10.6,0,0,1,5.42-.08c.56.14,1.22,3.18.77,3.54-8.51,6.75-10.27,18.83-19.64,24.79-19.17,12.2-21.17,18.22-11.2,39.62,8,17.2,17,34,25.3,51,5.21,10.63,8.13,21.91,7.06,33.81-1.49,16.46-16.76,25.34-31.86,18.53-8.43-3.81-16.46-8.52-22.47-15.81-5.32-6.45-8.74-3.63-9.41,2.57-1.32,12.14,2.12,23.42,11.16,31.86,7.95,7.41,18.63,10.73,28.35,6,11-5.32,13.87-.55,14.31,8.4.61,12.47,7.67,9.84,14.55,6.72,13.36-6,27.24-10.87,41.56-13.13,13.71-2.16,16-7.53,12.23-20.4a723.67,723.67,0,0,1-29-225.57,14,14,0,0,0,0-2.67l-.57-8.28c2.51-2,3.06-4.83,3.1-7.82.4-28.15,4.46-55.92,9.12-83.59,10.23-60.89,25.9-120.25,51.65-176.61,9.19-20.14,9.38-20,27-4.89-2.19,11-12.43,2.65-17.46,7.39,2.24,4.05,9,3.84,9.43,9.61-36.58,86.31-54.85,176.52-58.73,273.5,29.18-30.25,63.55-47.37,96.28-67.06,6.84-4.11,16-4.66,20.59-12.42,13.39-4.05,25.83-9.71,35.07-20.77l-.23.17c2.92.74,5-.24,6.06-3.09l-.19.16c1.9-.16,3.34-.79,3.13-3.1l-.2.19c4.58.56,7-2.4,9.31-5.63,45.93-32.1,64.1-86.36,47.68-143.35-11.31-39.27-31.41-74.21-54.2-107.75a899.58,899.58,0,0,0-72.12-92.37c35.83,4.73,59.51,26.48,88.81,43.39-7.57-29.57-20.51-53.86-31.17-79,5.06-3.95,8.49-.66,11.59,2.31,50.92,48.92,93.76,103,109.08,174.14,14.18,65.84,0,125.48-40.56,178.85-11.47,15.08-24.16,29.24-36.29,43.82-3.58,1.84-6.38,4.22-6,8.78l.22-.15c-2.39-.31-3.43.74-3.14,3.13l.19-.22c-2.48-.4-3.28.88-3.12,3.12l.19-.19c-2.27-.2-3.15,1-3.11,3.11l.19-.19c-2.14-.06-3.17,1-3.12,3.11l.19-.19c-2.18-.11-3.2.94-3.11,3.1l.23-.18c-2.1,0-3.14,1-3.18,3.09l0-.11c-2.09-.21-2.74,1.23-3.24,2.84-5.41,3.41-8,8.5-8.76,14.69-5-.64-9.3.31-11.55,5.51a21.28,21.28,0,0,0-8.61,9.26l.17-.15c-6.65,6.2-16,10-17.77,20.51l.11-.11c-3.67-2.33-4.54.8-5.87,3-18.8,17.67-36.92,36-52.47,56.63-12.06,16-21.66,33.22-7.51,53.2,2.86,4.05.22,6.1-2,8.7-10.41,12.48-13.85,30.33-24.48,41-19,19-4.92,36.72-3.59,55q6.15,18.5,12.29,37.05c-1,4.75,4.62,10.19-1.51,14.4-10.11.09-20.53-1.49-29.28,5.63-5.86-1.11-11.34-.54-16,3.56-10.11,1.32-20.59,1.57-28.35,9.72-7.89-.86-14.2,2.75-20.25,7.14A226.06,226.06,0,0,0,764,848c-5.33-.81-7.69,3.55-11,6.32l-3.19,3.16.44.28c-15,4.76-25.57,15.73-36.51,26.17L703,892.05c-3.68,3.12-7.5,6.1-11,9.39-38.55,35.83-72.76,75.39-101.44,119.55-5,7.72-6.89,8.38-12.47.25-16.72-24.35-33.71-48.58-53.67-70.48-18.91-20.76-37.49-41.85-60.12-58.82-2.42-3.52-5.31-6.37-9.81-7-9.63-11.4-19.95-21.84-35.35-25.15l.06.12-2.65-3.67c-3.93-4.53-7.49-9.73-14.79-8.14-18.88-18.78-42.28-29.65-67-38.25-6-4.57-12.54-7.81-20.43-6.92-7.94-7.61-17.94-9.32-28.34-9.91-4.5-4.3-9.93-4.79-15.72-3.84-9.18-5.58-19.3-6-29.6-5.4a4.5,4.5,0,0,0-2.05-.33q.26-6.93.52-13.87a111.5,111.5,0,0,0,10.23-35.23c.57-1.34,1.55-2.64,1.64-4,1.15-16.73,16.37-32.28-2-50.64-11.63-11.66-14.61-31.44-26.84-44.45-2.93-3.11-2.56-5.6-.12-8.85,9-12,7.92-25.14,1-37.05-16.38-28.28-38.67-51.57-64.25-71.76l.21.23c.18-2.33-.88-3.4-3.22-3.16l.28.26c.31-2.37-.34-3.79-3.09-3.21l.25.11c.69-5.36-3.41-6.55-7.07-8.14-.22-5.15-4.34-7-7.87-9.43l.17.16c-2.17-3.65-4.38-7.25-9-8.15-12.57-6-15.61-20.8-26.25-28.58a60.28,60.28,0,0,0-17.15-18.81C63.65,414.61,41,390.28,25.55,360.7c-33.46-64.27-33.13-130-4.42-195.56,23.62-54,60.62-98,105.59-135.58ZM455.87,557.74c5.14-.29,5.88-4.75,6.31-8.14.72-5.73-4.39-6.93-8.49-7.65-4.42-.78-7.73,1.78-7.58,6.39C446.31,554.14,451.45,555.7,455.87,557.74Zm266.29-9.5c0-4.41-2.52-6.65-6.27-6.44-4.36.24-9.23,1.6-9.59,6.84-.25,3.57,1.08,8.78,5.66,8.62C717,557.09,719.75,552.28,722.16,548.24Z"/><path class="cls-2" d="M959.83,236.93c-17.65-15.16-17.84-15.25-27,4.89-25.75,56.36-41.42,115.72-51.65,176.61-4.66,27.67-8.72,55.44-9.12,83.59,0,3-.59,5.8-3.1,7.82-89.87.15-179.74.18-269.61.66-9.62.05-11.3-3.89-11.06-12.14.46-15.53.12-31.09.12-46.63,8-.73,17.21.52,15.06-12.89-1.64-10.19-10.12-4.76-14.83-7.67q-.3-38.61-.61-77.24l.12-40.86q1.9-45.22,0-90.44L587.7,95.26c24.26-2,48.19,1.57,72.18,4.29,74.71,8.45,146.09,29,214.46,59.92,11.3,5.11,21.52,8.66,34.34,2.56-5.61-3.47-10.74-6.14-15.28-9.59-5-3.8-13.52-4.84-12.29-14.14l23.57-.48.11.19c-.28,4,2,5.4,5.53,5.53l0,.05c.28,5.43,2.89,8.52,8.56,8.55l.09.12c6.08,7.53,14.08,11.21,23.64,11.73.26,1.62.51,3.24.76,4.86-1.51,10.75-10.37,12.84-23.18,14.77,6.16,2.16,8.3,3.76,9.55,3.23,10.3-4.37,14.65-.67,17.17,9.84,2.2,9.13,7.84,16.73,19,17l.93.69-1-.57C959,199.5,950.42,186,947.93,169.9c10-2.16,13.07,7.29,19.19,11.55,4.71,3.29,8.81,7.46,13.18,11.24-.38,9.4,4.68,16.76,9.17,24.33,4.93,7,7.17,15.12,9.66,23.13-6.82,5.17-8.62-2.71-12.48-5-4.55-2.67-6.56-9.54-13.76-9,2.07,8.91,9.78,12.78,13.58,19.47-5.72,6.39-10.3.76-14.73-1.8C967.77,241.56,965.12,237,959.83,236.93ZM705,399.12c0,12.63.39,25.29-.14,37.9-.36,8.63,3.45,10.77,11.3,10.62,7.36-.14,12.33-1.33,12-10.26-.34-8.24,0-16.52.09-24.78.05-4.32,2.58-5.71,6.62-5.76,4.21,0,6.34,1.68,6.36,5.92,0,7.78.57,15.6,0,23.32-.73,9.12,3,11.63,11.75,11.65s12-2.54,11.76-11.63c-.54-23.32-.35-46.66-.09-70,.09-8.38.53-14.82-11.62-14.65-11.9.16-12.23,6.39-11.71,14.89.23,3.87,0,7.77,0,11.66,0,4.7-.31,8.83-6.8,8.59s-6.31-4.72-6.37-9.17c-.06-5.34-.31-10.71,0-16,.55-9.47-5.49-9.58-12.36-9.66s-11.17,1.12-10.86,9.46C705.3,373.83,705,386.48,705,399.12ZM687.55,267.8v17.49c0,36.34.35,36.56,37.4,32.69,12-1.26,18.78-7.23,19-19.53.23-11.65.14-23.32.15-35,0-40.69-6.08-46.17-46.74-43.94-7.7.43-10.15,3-9.93,10.38C687.83,242.53,687.56,255.17,687.55,267.8Zm-96.77.32c0,11.68.33,23.37-.11,35-.33,8.53,1,13.52,11.61,13.45S614.45,311.51,614,303c-.34-6.8-.28-13.63,0-20.43.16-3.45-1.67-8.93,4.32-8.9,4.74,0,5.81,4.37,5.83,8.57,0,8.76.17,17.52.06,26.28-.08,5.62,2.64,8.26,8,7.63,4.87-.57,13,3,13.72-4,1.32-12.81,4.31-26.56-2.69-38.54-3-5.2-4.29-7.09-.12-12.85,9.31-12.88,3.51-33.92-9.57-38.76-12.21-4.51-25.06-2.13-37.63-1.94-6.54.09-5.09,6-5.15,10.06C590.66,242.81,590.78,255.46,590.78,268.12Zm187.3-2.53h-.28c0-6.8-.32-13.63.11-20.41.31-4.84-2.39-12.65,5.17-12.93,6.69-.25,4.89,7.13,5,11.6.34,11.54,8.91,7.56,14.94,8.2,8,.83,8.23-4.52,8.08-10.33-.37-13.91-8.24-22.87-21.92-24.69-17.88-2.37-30.48,3.87-33.34,18.13a160.07,160.07,0,0,0-.06,62.26c2.33,12.05,10.49,19,23,17.5,8.73-1.07,16.84-5.14,26.21-1.85,4.88,1.71,6.15-3.11,6.14-7.41,0-11.18.54-22.39-.13-33.53-.87-14.64-12.43-7-19.07-7.63-9.27-.93-8.58,6.91-6,12.05,2.83,5.71,2.71,11.18,2.41,16.94-.17,3.14-1.79,6-5.19,5.93s-4.9-3.08-5-6.13C778,284.06,778.08,274.82,778.08,265.59ZM669.49,448.19c20.57.13,28-7.81,27.85-28.32-.11-13.89-8-22.28-18.23-29.72-5-3.67-11.68-5.8-14.16-12.15-1.56-4-2.66-9.52,2.46-11.46,5.61-2.12,5.73,3.27,6.44,7,2.26,11.85,11.62,6.75,17.64,6.25,7.24-.6,4.42-7.14,3.53-11.67-3.11-15.77-15.1-17-27.95-17.08-13.3-.08-22.8,4.84-25.43,18.81-2.51,13.39,2.18,23.61,13.71,31.19,7.61,5,16.33,9.37,19.31,19,1.65,5.33,2.07,11.73-4.88,13-6.6,1.17-5.94-5.32-5.73-9.3.71-13-8.43-10.66-15.89-10.41-9.86.34-6.69,8-6.16,13.09C643.56,441.36,652.45,448.08,669.49,448.19Zm148.31-180v17.54c0,34.37,0,34.27,34.9,32.4,6.54-.35,11-1,11.27-9.46.24-8.68-3.25-11.45-11.15-10.39-8.5,1.13-11.42-2.88-10.63-10.93.66-6.76-2.57-15.83,9.81-14.73,5.77.51,9.1-1.25,9-8-.08-6.31-2.77-9-8.72-8.8s-10.32-1-10.13-8.67c.19-7.3,4.68-7.69,9.78-7.22,8.18.74,9.52-3.59,9.69-10.59.18-8-3.42-10.06-10.59-9.65a149.74,149.74,0,0,1-21.91,0c-9.45-.85-11.72,3.67-11.44,12C818.12,243.8,817.81,256,817.8,268.18Zm-162.21-.78c0,12.63.47,25.28-.16,37.87-.45,9.17,4.24,10.22,11.6,10.13s12-1.26,11.91-10.27c-.35-25.25-.43-50.51,0-75.75.17-9.44-4.91-9.72-11.94-9.8-7.25-.09-12.11.63-11.61,9.95C656.1,242.12,655.6,254.78,655.59,267.4ZM633.4,401.1c0-12.64-.37-25.3.14-37.92.33-8.39-4-9.66-10.79-9.31-5.85.3-11.83-.95-11.72,8.36q.48,38.65,0,77.32c-.11,9,5.37,8.56,11.51,8.71,6.64.17,11.29-.75,11-9.23C633.06,426.4,633.4,413.75,633.4,401.1Z"/><path class="cls-3" d="M640.46,1035.54c5.11,3.6,10.28,1,15.19-.27,31.81-7.9,62.26-19.07,90.27-36.55,31.42-19.61,65.83-31.28,102.47-36.31,16.93-2.32,17.33-1.49,11.42,13.82-11.78,30.59-20.72,61.75-20.39,95,.19,18.4,3.39,35.86,12.91,51.73,3.15,5.26,5.07,9-2.14,12.6C783.1,1168.77,720,1209.8,649,1235.34c-46,16.52-90.06,15.56-135.06-1.87-38.68-15-75.8-33-112.07-53-26.84-14.81-54-29-81.07-43.44-5.16-2.76-10.83-4.72-5.89-12.86,18.54-30.49,15.95-63.28,9.32-96.29a289.74,289.74,0,0,0-15.29-50.22c-6.71-16.82-6-17.78,12.53-15.07,35.58,5.18,69.21,16.34,99.74,35.47,28.41,17.8,59.12,29.43,91.55,37a215.75,215.75,0,0,0,70.52,13.13c15.34.29,32.58,1.47,46.2-9.86C632.44,1034.82,636,1033.54,640.46,1035.54Zm-154.77,64.21c7.21,5.3,11.86,4.36,12.12-5.4.27-10.19.08-20.4,0-30.6,0-2.91,0-6.14-3.52-7.19-4.51-1.35-7.54.33-8.58,5.1l-4.93,0c-6.22-6-13.23-8-21.05-3.51a10.78,10.78,0,0,0-5.17,12.58c2.1,7.67,11.36,14,.54,23.22-3.13,2.68,3.42,10.07,9.81,11.57,7.31,1.71,13.12-1.66,18.66-5.78l1.05,0Zm79.52-35.14h-2.79c-7.67-11.55-16.52-11.76-26.33-2.74l-4,.16c.08-4.22-1.83-6.3-6.19-5.79-3.77.44-4.49,3.18-4.56,6.24-.1,4.45,0,8.9,0,13.35-4.17-5-6.17-10.34-8.27-15.6-1.23-3.09-3.68-4.31-6.91-4-2.7.29-4.66,1.73-4.68,4.52-.07,12.54-.09,25.08.16,37.62.05,2.7,2.37,4,5.08,4.07s4.61-1.14,5.31-3.83,1.26-5.37,2.38-10.19c3.92,9,5.65,17.08,15.81,14l5.71-2.76c11,9.31,16.62,8.7,26.58-2.92h2.64c4.91,10.6,13.93,6.46,21,4.57,4.15-1.11,2.26-5.46-1.84-6.89-10.58-3.7-9.44-6.51.24-10.17,5.14-1.94,4.69-5.77-.42-7.78-10.18-4-10.85-7.9-.21-12,4-1.53,6-3.8,2.5-7.25C581.43,1052.29,568.12,1057.06,565.21,1064.61ZM645,1167.77c0,9.24.22,18.49-.07,27.72-.23,7.22.79,12,10,12,9,0,12.41-3.06,11.7-11.9a143.78,143.78,0,0,1,.08-17.49c.09-2.23-.14-5.23,3.17-5.64,3.8-.47,5.3,2.48,5.51,5.31a173.31,173.31,0,0,1,.49,20.38c-.29,7.11,3,9.24,9.63,9.23,6.41,0,10.39-1.51,10-8.84-.35-6.78.79-13.91-.91-20.31-2.17-8.2-3.43-15-.33-23.92,3.35-9.64,1.35-21.26-11.71-24.33-11.38-2.68-24.58-4.55-34.34.33-8.09,4.05-2,16.91-3.15,25.77C644.57,1159.93,645,1163.88,645,1167.77Zm-179,.79h.18c0,6.8-.5,13.65.1,20.4,1.48,16.62,9.24,23.7,25.31,23.87,14.85.16,22.52-6.73,25.1-22.6.68-4.21,2.79-9.12-1.65-12.1-4.19-2.81-9.58-1.94-14.18-.89-6.72,1.52-4,7.74-4.82,12.17-.5,2.75,0,6.54-3.8,6.88-4.64.42-5.2-3.61-5.25-6.94-.17-13.61-.16-27.22-.05-40.82,0-3.39.43-7.55,5.05-7.25,4.79.3,3.77,4.78,4.08,8a30.59,30.59,0,0,1,.05,5.82c-.82,8.79,4.86,8.74,11.21,9,7.44.25,10.5-2.46,10.42-10.1-.18-17.61-8.65-27.56-24.63-28-17.7-.51-26.16,7.73-27.08,26.62C465.76,1157.86,466,1163.21,466,1168.56Zm70.18,1.12v11.69c0,29.83,0,29.83,29.37,28.7,5.23-.2,10.87,1.08,11.27-7.4.38-7.91-2.78-10.62-10.17-9.78-6.61.75-9.85-1.74-9.79-8.93.06-6.74,1-11.69,9.41-10.8,5.39.57,8.12-1.58,7.88-7.44-.21-5-2.45-6.92-7.22-6.9s-10.29.51-9.81-7.11c.42-6.74,5.53-5.81,9.67-5.69,6.72.21,7.91-3.38,8.07-9.13.18-6.52-2.66-7.89-8.65-8.31-30-2.12-30-2.3-30,28Zm53.18-2.28c0,10.69.12,21.37-.05,32.06-.1,5.9,2,8.37,8.33,9.09,11.92,1.36,13.4-4.52,13.51-14.5.08-8.46-6.49-22.19,11.87-21.34,3.86.18,3.75-3.67,3.86-6.57.14-3.79-.88-6.62-5.28-7.2s-10.54,1.4-10.53-6.41c0-9,7-6.09,11.72-6.56,5.17-.52,6.47-3.5,6.26-7.89-.19-3.69,1-8.81-4.62-9-10.65-.34-22.38-2.56-31.65,1.11-7.89,3.12-2.29,14.83-3.33,22.65C588.79,1157.61,589.31,1162.54,589.34,1167.4Zm58.41-111.55c-10.8.19-15.41,5.32-15.14,14.75.22,7.37-2.43,17,10,16.84,4.13,0,8.75-1.25,6.87,5-2.16,7.19-5.67,1.27-8.61.12s-6-1.94-7.42,1.61c-1.3,3.16.8,5.57,3.43,7.2a16.09,16.09,0,0,0,24.54-12.82c.39-5.33.12-10.7.13-16.06,0-4.33,1-7.94,6.39-7.58,6.85.46,5.79,5.2,4.82,9.59-1.57,7.1-3.58,14.12-4.92,21.26-.59,3.15-1.32,7.39,3.28,8.45,4.9,1.13,6.9-2.25,7.91-6.44,2.37-9.92,4.36-20,7.27-29.7,2.7-9.08.09-12.08-9.41-12.5C666.78,1055.17,656.75,1062.94,647.75,1055.85ZM716.42,1090c-3.9-9-1.76-18.26-2.33-27.32-.27-4.11-1.07-7.74-5.75-8.86-3.46-.83-7.56-.88-9.32,2.16-6,10.43-11.58,21.58-12.66,33.48-.91,10,11.31,4.39,15.35,9.37,2.86,3.51,6.43,5.29,9.94,2.68S715.94,1094.26,716.42,1090Zm-89.79-11.18h.09c0-4.84.07-9.67,0-14.51-.07-3.88,0-9.13-5.65-7.52-4.7,1.35-13.29,5.81-10.91,9.26,6.88,10,4,20.36,5.1,30.56.34,3.23,1.64,5.54,5.17,5.8,4.37.31,6.13-2.24,6.2-6.18C626.71,1090.45,626.63,1084.65,626.63,1078.84Z"/><path class="cls-4" d="M1077.29,951.89a71.06,71.06,0,0,1,.06-7.3c.35-3.19-1.62-7.54,2.32-9.2s5.84,2.55,8.25,4.65c20.6,18,36,39.73,45.3,65.35q32,88.26-3.87,175.35a127.54,127.54,0,0,1-18.79,31.18c-23.24,29-52.36,37.06-87.08,24-13.82-5.19-26.91-12.25-37.41-22.4-38.53-37.21-97.64-40.14-146.5-13-41.7,23.18-83.09,47-126.31,67.29-13.94,6.56-28,12.84-44.12,20.2,7.27,1.94,12.5,2.49,16.89,4.7,6.87,3.46,8.29,10.14,8.15,17.43-.16,8-4.76,12.49-11.45,15.34-12.09,5.16-25,5.66-37.36,2.87-40.9-9.22-81.54-9.62-122.4.07a63.77,63.77,0,0,1-27.6,0c-11.13-2.3-21.34-5.85-21.37-19.65,0-13.21,8-19.1,20.28-19.12.52-3.13-.67-4.38-2.61-5.2-57.14-24-110.61-55.2-164.95-84.7-26.29-14.27-54.27-20.83-84.46-15.77-20.19,3.39-38.26,11-53.76,24.39-13.36,11.55-27.66,21.61-44.36,27.7-35.21,12.85-63.54,4.83-86.87-24.59-19.3-24.33-29.52-52.69-33.69-83-8.45-61.35-1.95-119.73,38.85-169.9,7-8.64,15.57-16,23.41-24,7.49,8.38,1.73,19,4.68,28.1C60.1,1002.13,58,1046.9,66.16,1093.44c3,16.86,8.18,33.13,17.09,47.93,16.11,26.74,44.44,34.46,71.74,19.43,8.53-4.69,16.57-10.24,24.91-15.28,36.14-21.84,73.14-24.41,111-4.7,55.36,28.78,107.11,63.78,161.7,93.93,38.82,21.44,77.87,42.24,119,59.08,8.77,3.6,16,3.61,24.74,0,74.32-30.28,142.25-72.4,211-113,22.64-13.37,45.26-26.81,68.39-39.3,39.17-21.16,77.6-17.94,114.9,5.36,7.85,4.9,15.5,10.18,23.63,14.58,25.92,14,55.79,7.29,69.36-18.93,29.87-57.75,32.63-116.33-1.35-174-3-5.07-7-9.49-5-16ZM502.34,1293.25c9.07,4,4.11,19.64,17.64,19.87,8.21.15,16-.61,30.12-5.68C533.75,1301.43,519.27,1294,502.34,1293.25Zm113.3,15.06c39,9,40.88,8.3,45.33-17.11Z"/><path class="cls-5" d="M1077.29,951.89l0,.66c-5.65,11.05-5,23.54-8,35.22-16.26,63-61.83,98.51-132.22,102.18-26.49,1.38-52.39-2.6-78.09-8.52-5.46-1.25-10.57-2.82-9.88-10.12,3.28-34.49,7.31-68.75,24.52-99.85,5.87-10.6,11.16-14.15,23.63-6.52,28.65,17.51,58.88,32.34,92.13,39.49a72.65,72.65,0,0,0,17.34,1.58c16.59-.5,24.2-8.5,22.84-25.11-1.57-19.07-7.39-37.1-16.27-54.1-.51-5.54-2.08-10.6-6.55-14.34l.15.27c.14-2.63-.18-5-3.09-6.1l.16.25c.2-2.84-.37-5.22-3.61-6,.22-1.85.15-3.47-2.45-3l.29.12c-4.23-19.39-16.51-34.83-25.9-51.61-5.25-9.36-6.11-14.12,6.34-16.66,9.21-1.88,16.43-8.2,21.21-16.72a29.34,29.34,0,0,1,16.35-13.79c16.12-5.7,21.31-3.55,28.53,12,18.87,40.63,30.72,82.91,30.21,128.12C1074.86,943.63,1074,948.2,1077.29,951.89Z"/><path class="cls-5" d="M91.29,933c4.68-30.65,7.56-61.69,19.35-90.82,3.83-9.45,7.55-19,11.7-28.26,8.8-19.74,27.46-23.24,41.4-6.52,9.24,11.06,17.7,21.38,32.71,24.82,8.51,2,2.54,7.66.61,11.24-9.19,17.1-19.73,33.49-27.22,51.49-2.34,1.44-2.83,3.54-2.18,6l.14-.22c-7.38,6.12-9.87,14.66-11.66,23.55a140.3,140.3,0,0,0-17.48,55.1c-1.86,18.21,5.89,26.34,24.13,26.64,20.5.32,39.13-7.25,57.31-15.28,17.76-7.84,35.39-16.38,51.93-26.5,10.91-6.68,16.14-3.73,21.75,5.77,13.7,23.17,18.77,48.89,22.43,75,4.86,34.55,4.66,34.9-29.56,40.9-48.3,8.48-95,5.77-137.72-21.73-34-21.84-46.94-55.61-53.51-93.12-.5-2.87-.93-5.75-1.39-8.63C93.82,952.59,95.68,942.52,91.29,933Z"/><path class="cls-5" d="M640.46,1035.54c-4.44-2-8-.72-11,2.84-38.35,2.14-76.55,2.39-113.89-8.73a472.19,472.19,0,0,1-95.62-45.5c-10.09-6.24-13-9.74-3.16-19.66,20.6-20.82,36.26-45.36,47.53-72.55,22.63,17,41.21,38.06,60.12,58.82,20,21.9,37,46.13,53.67,70.48,5.58,8.13,7.45,7.47,12.47-.25,28.68-44.16,62.89-83.72,101.44-119.55,3.53-3.29,7.35-6.27,11-9.39,13.52,27.55,28.75,54,51.24,75.37,6.84,6.49,4.71,9.86-2,14.1-30.91,19.41-63.11,36-97.94,47.32C649.44,1030.42,643.43,1030,640.46,1035.54Z"/><path class="cls-4" d="M881.11,138.3c-1.23,9.3,7.28,10.34,12.29,14.14,4.54,3.45,9.67,6.12,15.28,9.59-12.82,6.1-23,2.55-34.34-2.56C806,128.55,734.59,108,659.88,99.55c-24-2.72-47.92-6.25-72.19-4.29L581.18,95c-31-.9-61.61,2.81-92.23,7.39-73.32,11-143.56,31.66-210.09,64.58L260.38,163c4.8-6.25,12.11-8.23,17.87-12.41,4.43-3.2,11.14-5.15,9.16-13q3-3,6-6.1c15.5-3.58,31-7.27,44-17.11l-.13.21c21.77-2.37,41.42-12.22,62.32-17.77C540.9,59.3,680.42,65,818.46,112.41c3.2,1.1,6.49,1.94,9.74,2.9Z"/><path class="cls-6" d="M284.82,906.45l-30.24-14.32c22-12.86,43.24-16.66,66.78-12.24-26.92-20.82-54.65-40.06-72.08-72.87,36.23,4.41,65,20.9,93.29,38.73,7.16,5,11.32,16.07,23.22,11.3,5.5.7,10.95,1.47,12.41,8.25l-9.44.62c15,15.79,30.16,29.35,43.2,48.47-28.64-4.69-51.26-18.37-76.24-24.91,19.43,13.53,37,30.17,62,32.53,1.41,6.87-3.77,7.46-8.3,9-14.62,4.89-29.07,2.19-43.56-.58-14.6-2.54-26.52-12.13-40.8-15.52C299.11,910.23,292.1,908,284.82,906.45Z"/><path class="cls-6" d="M1057,576.75c10.27-9.88,20.29-20.21,37.52-21.15-6.92,21.43-17.64,39.53-26,58.63-5.61,2.72-7.55,7.36-8.07,14.67,7.81-3.22,12.39-7.12,13.72-14.19a81.61,81.61,0,0,1,6.62-5.62c3-2.08,6.46-5.93,10.07-2.19,3,3.05-.68,6.11-2.27,8.88-6,10.44-11.21,21.49-18.32,31.12-13.18,17.84-26.56,19-44.21,5.26,0-6.21,4-6.7,8.71-6.11l2.42-.63-1.58-1.67.27.19-.13-4.21c9.25-15.62,14.77-32.36,15.46-50.66-7.45,17.22-15.12,34.13-27,51.73-4.42-20.24,1-38-.46-55.7,4.78-4.06,3.11-9.61,3.42-14.7,6.32-23.23,15.08-45.31,30.15-64.44l-.21,0c6.88,23.25,2.15,46.18-1.84,69.14-.23,1.11-.47,2.21-.71,3.31Z"/><path class="cls-6" d="M929,769.34q-6.15-18.54-12.29-37.05c6.85-.37,6.35-6.51,7.95-10.63,6.63-17.07,12.91-34.28,20.11-53.55,12.91,14.48,15.92,29.38,14.86,45.62-3.94,7.12-9.13,13.73-11.22,25.7,9-9,11.88-17.27,15-25.4,14-22,29.19-42.84,54.08-58.46-1.85,28.57-13.51,50.59-25.55,72.47-3.34,2.16-5.44,5.08-5.65,9.17l.15-.19c-5.81,3.41-8.85,9-11.7,14.76L939.4,789c-6-3.79-2.07-8.55-1-12.73,3.11-11.76,6.65-23.4,8.85-35.66C937.57,748,934.84,759.67,929,769.34Z"/><path class="cls-6" d="M249.39,734.4a111.5,111.5,0,0,1-10.23,35.23c-7-13.54-11.57-28.77-25.27-37.91,6.49,12.89,10,26.66,14.66,40,1.26,3.65,2.37,8.75-.66,11-4.1,3.1-6.84-2-9.32-4.49-8.49-8.59-16.64-17.5-24.93-26.29-3-5.6-6.21-11-11.41-15l.15.19c-1.21-5.14-4.36-9-8.14-12.48-10.86-21-21.94-41.91-23.79-69.16,26.14,16.32,42,38.36,58,65.31-.91-20.46,1-36.85,13.69-52.15C234.18,690.29,238.81,713.66,249.39,734.4Z"/><path class="cls-7" d="M831.39,111.7c4.22-4.38,9.9-5.64,17.8-7.15L819.93,91.43c3-7.71,11.41-4.84,16.11-13-3.65-2.7-8.2-5.57-12.13-9.11-5-4.51-7.27-12.34-15.51-1.11-6.57,9-19.27.2-29.18,1.39,7.76-16.08-14.74-9.37-14.75-19.59l17.11-4.45c-5.55-4.49-11.14-8.78-16.43-13.41-3.19-2.8-1.83-4.74,1.89-5.54L770,27c2.77,4.44,6.76,7.08,11.73,4.69,5.31-2.56,0-6.41.13-9.7A7.38,7.38,0,0,1,785,16.1c5.24-1.77,9.44,16.85,15.51.82a3,3,0,0,1,2.39.13c5.69,8.21,16.4,12.71,18.05,23.83.95,6.46-3.34,10.31-8.39,13.92,5.15-1.09,14.32,9.76,13.63-6.24-.29-6.64,7.41-7.2,13.36-4,2.62,9.72-5.22,10.85-14.18,12.67l20.63,12V47c3.31,2.74,7,5.11,9.84,8.3,6.64,7.59,11.44,9.24,14.1-4.86,1.93,17.06,34.76,24.2,11.21,46.45-6.23-8.66-15.38-.58-22.55-3.91-1-1.14-2.05-1.81-3.2-.28,0,.06,1.2,1.08,1.84,1.65,4.57,7.75,14.1,3.7,20,8.38-1.46,15.22-11.51,16.65-23.16,13.48C846.53,114.14,839.4,111,831.39,111.7Z"/><path class="cls-6" d="M822.07,891.56c-20.14,8.22-39.84,17.74-65.16,22.73,12.86-20.25,28.71-33.39,42.65-48.13a134.33,134.33,0,0,0,26-20.38c24.94-16,50.64-30.44,80-36.86,3.48-.76,7.88-3.66,10.41.58,2,3.3-1.71,6.2-3.57,8.89-16.84,24.37-39.77,42.09-64,58.35A126.33,126.33,0,0,0,822.07,891.56Z"/><path class="cls-4" d="M1006.54,927c-32.68-2.64-62.44,6.49-89.8,23.54-7.79,4.85-12.84,5.6-20.1-.74-10.46-9.15-22.14-16.91-35-26.53C906,901.67,951.13,895,998.17,898l-.29-.12,1,2.79c1.15,2.5.64,6.36,5.05,6.2l-.16-.25c-.83,3-.74,5.49,3.09,6.1l-.15-.27C1004.86,917.27,1010,922.16,1006.54,927Z"/><path class="cls-4" d="M176.35,897.75l44,.17c1.87,1.55,3.88,2,6.12.81l55.33,13.41c7.07,4.65,15,7.32,23,9.58-10.61,14.65-27.75,21.29-40.72,33.1-3.78,3.45-7-1.24-10.07-3.14-21.2-13.14-43.9-21.95-68.94-24a5.15,5.15,0,0,0-6.07-.74c-6.56-3.29-14.06,1.31-20.56-2.46,2.73-8,9.37-14.5,9.34-23.62l-.14.22Z"/><path class="cls-6" d="M226.93,797.9c6.44,2.68,5.46,6.69,2.42,11.55-6.53,10.39-19.84,14.11-33.75,8.76-10.65-4.09-19.52-11-26.92-19.5-10.14-11.67-22.06-20.36-37.57-24.36,10.51-5,15.24-4.8,29.71.43,2.84,1,5.77,5.71,8.84,1.88s-.48-7.15-3-10c-13.22-14.73-26.48-29.43-41.56-46.16,18.07-3,31.78,1.61,45.16,8.22,3.55,3.55,5.79,9,12.17,8.49l-.15-.19c-1.31,8,3.79,13,8.33,18.27,7.61,14.38,15.5,28.53,30.11,37.25-4.13,6.36-9.55,2.72-14.07,1.24-8.41-2.76-16.51-6.45-24.74-9.75C194.77,796,208.46,805.46,226.93,797.9Z"/><path class="cls-6" d="M995,778c8.87-2.3,17.69-4.8,26.61-6.83,5.24-1.2,10.63-1.44,17.18,3-17.82,3.87-29.84,14.3-41,26.46-9.31,10.12-20.51,18.18-34.85,19.81-16.06,1.82-27.25-8.84-24-22.5,17.22,5.82,32.15,2.56,44.45-11.19,2,0,3.89-.21,4.33-2.56.07-.41-1.19-1.58-1.61-1.48-2.16.53-3,2-2.48,4.27-11.3.12-20.57,11.75-32.94,5.77,10.92-12.62,22.14-25,28.93-40.58,4.15-4.2,8-8.56,6.86-15.14l-.15.19c4.85.76,6.68-2.75,8.64-6.09,13.66-9.22,28.64-12.88,46.93-11.53-14.7,22.3-34.67,37.88-48.87,58.18.12.85.23,1.69.35,2.54Z"/><path class="cls-6" d="M1018.3,649.31c-16,5.59-19,5.4-33.86-2.56-.48,12-3,23.1-18.3,20.88-7.9-1.15-11.75-7.35-9.88-15.09,3.23-13.37,13.18-13.34,27.76-9.1-12-20-.15-41.07-11.3-59.19-1.18-1.92-1-3.92,1.17-4.71a6.07,6.07,0,0,1,6.7,1.49c5.88,6.1,8.72,13.89,11.84,21.52,1.11,5.4,2.21,10.8,4,19.67,2.45-9.32,1.39-14.69,0-20,2.51-21.06-.33-42.57,4.87-64.49,13.83,7.57,19.41,19.52,23.15,32.78-3.19,4.59-2.62,9.72-2.17,14.85C1014.28,606.22,1010.52,627.4,1018.3,649.31Zm-13.85-18-2.31-3.58-3-4.37c-1.92,2.55-.65,4.42,1.31,6.14l2.74,3.12,3.76,2.06,1.27,1.64c0-.33.06-.82-.12-1a4.79,4.79,0,0,0-1.29-.53C1006,633.68,1005.23,632.51,1004.45,631.34Z"/><path class="cls-7" d="M370,24.33l17-9.75c-5.13,16.75-5.13,16.72,13,15.29,1-.09,3.16-.27,2.47,2.54l-19.3,14.25c9.35-.73,14.87,1.73,20.58,3.52-5.08,6-5.08,6-21.4,10.58-1,5.05,7.51,2.68,6,8.68-11.3-1.1-24.19,8.8-33.76-6-2.17-3.35-4.79.16-6.89,2.11-4.94,4.57-10.06,9-14.71,13.06,3.36,8,11.62,5.36,15,11.42-8.33,7.24-19.38,9.32-29.68,14.1,7.11,2.87,16.24,1.1,19,10.49l.13-.21a17.6,17.6,0,0,0-16.39-.29c-8.53,4.06-17.37,4-26.36,2h-.26q-1.54-5.06-3.08-10.11c1.88-8.3,12.54-3.53,16.17-11.76-9,1.05-10.58-2-4.76-8.26,2.6-2.79,5-5.74,7.52-8.62.63-4.6,2.51-8.31,7.17-10,9.21,1.5,15.53-4.66,22.71-8.54l12.76-2.83c-8.42-11.74.62-37.44,14-39.44,2.28-.34.74,4.13,1.51,6.26-1.25,1-2.09,2.07-.37,3.26C368.27,26.14,369.37,24.92,370,24.33Z"/><path class="cls-6" d="M765.49,922.44c24-.41,41.78-14.54,60.27-27.14L849,881.11c22.42-6.42,42.75-.37,65.35,10.51-31.28,15.74-61.65,26.76-91.62,38.71-12.37,2.56-24.94,5-37.4,2.35C778.13,931.16,768.4,932.87,765.49,922.44Z"/><path class="cls-6" d="M1021.45,272.08c.9,10.68,12,17,11.43,28.8,5.17-11.43,7.82-23.17,19.42-32.47,2.57,15.08,4.9,28.18,7,41.32.71,4.46,1.14,8.5,6.62,3.48,4.49-.42,5.21,4.82,8.75,5.84,3.66,11.6,3.5,23.08-2.47,33.82-3.83,6.9-10.35,10.11-18.36,9.53-4.61-.34-9.19-1.07-6.95-7.74a2.72,2.72,0,0,0,1.81-.33c3.41-.79,7.55-2,6.7-6-.62-3-4.08.31-6.26-.19a79,79,0,0,0-12.59-40.39c-.74,17.27,6.3,31.27,5.09,46.17l-1.31.23-1.3-.3-23.49-37.91.21.28-3.18-3.14.18.22-1-6.29c-5.08-16-8.9-32.27-8.09-49.27l3.2-.11c8.43,1.36,6.55,13.15,14.82,14.68Zm37.37,50.82,5.1,3c.4-.75,1.25-1.62,1.09-2.23-.26-1-1.1-2.53-1.82-2.6C1062.11,321,1060.93,322,1058.82,322.9Z"/><path class="cls-6" d="M108.67,313.07c2.25-14.2,4.51-28.4,7.07-44.55,11.41,8.76,14.35,19.83,18,33.6,4.1-10.49,7.32-18.72,10.54-26.94l-.06.13c2.49-1.31,2.57-3.82,3.06-6.13l-.22.11c7.12-2.49,9.16-10.29,14.87-14.24l2.68,2.52c.71,18.82-3.76,36.58-11,53.78-4.81,5.45-7.66,11.89-9.51,18.84-4.92,7.41-9.83,14.83-15.8,23.82-4.14-13.93,3.26-25-.13-38.29-7.48,10.81-8.45,21.56-8.86,32.49l-4.55.05L112,345.17l.19.24c-.33-1.76-.88-3.29-3.13-3.11l.15.22Zm23.08-3-.7-1.22c-.3.36-.91.84-.83,1.07a5.61,5.61,0,0,0,1.11,1.45Z"/><path class="cls-3" d="M764,848a226.06,226.06,0,0,1,69.63-38.18c.58,10.7-4.08,19.88-8.45,29.15L795.48,862c-18.53,11.56-37.46,22.71-46,44.57-3.29-2.37-2.43-6-2.81-9.25C744.42,878.08,754.86,863.26,764,848Z"/><path class="cls-6" d="M822.34,935.29c20.32-1,40.67-2.11,57.51,14.2-23.32-6.48-43.36,3.2-63.85,10.94a79.76,79.76,0,0,1-37.35,4.28c-18.74-2.1-31.09-17.62-28.93-35.38.43-3.56,1.52-5.42,5.32-4.74C775.24,942.21,798.37,941.39,822.34,935.29Z"/><path class="cls-3" d="M378.2,865.3c-1.46-6.78-6.91-7.55-12.41-8.25l-17.85-12.14c-7.94-10.34-13.84-21.43-13.16-35,24.7,8.6,48.1,19.47,67,38.25,11.39,12,19.63,25.52,19.66,42.69,0,4.14,2.71,10.29-5.44,10.43C408.06,884.37,392.8,875.19,378.2,865.3Z"/><path class="cls-6" d="M410.56,926.21c7-3.47,8.13.26,8.27,6.3.39,16.82-12.75,30.81-30.89,32.37-15.27,1.32-29.83-1.76-44-7.23-27.83-10.73-27.84-10.7-57-7.66,17.71-18.29,38.87-14.13,58.86-14.58C368.63,941,390.83,942.32,410.56,926.21Z"/><path class="cls-6" d="M111.7,507.35C127.63,528,137.23,551.26,141.12,577q.47,3.4.91,6.82c3.66,15.11,4.35,30.44,3.3,45.88-.29,4.38-.21,9.12-6.91,7.93l.09.07c-2.12-12-10.07-21.3-14.56-32.2-1.9-8.23-4.31-16.26-9-23.44l.13.22c-.1-3.27.54-6.79-2.88-9-3.43-21.35-6.6-42.72-3.11-64.4Z"/><path class="cls-6" d="M255.38,120.28,273,105.53l-.1.1c4.5.83,7.66-2.67,11.62-3.6q1.53,1.75,3,3.53l-5.86,11.69c-4.87,6.86-13.42,11.08-14.71,20.5-5.6,5.19-8.18,14.08-17.68,14.52-7.43-8.34-10.49,4.7-16.49,3.37l-3.6-.39-.29-5.79c9.22-1.34,9.4-6.39,6.26-12.86-4,3.83-9.05,6.67-9.05,12.71l-5.08,3.47-1.64-1.31,1.34,1.61a7.27,7.27,0,0,1-1,8c-.61,0-1.22-.07-1.82-.12-13.61-9-15.66-16.85-6.91-31.6,4.49-7.56,9.38-14.74,10.72-23.65l.14.14c7.42,4.29,1.71,11.19,3.46,17.73,12-5.39,13.75-19.6,24.18-26.25,7.65,7.41-1,15.23.51,22.61-3.73,2-3.38,5.6-3.46,9l-3.79,3.54,1.72,1.13c.71-1.54,1.41-3.09,2.12-4.63C252.11,128.66,255.06,125.8,255.38,120.28ZM222.11,137c-.8-.34-1.76-1.12-2.34-.9s-.73,1.46-1.08,2.26c.8.34,1.77,1.12,2.33.89S221.77,137.8,222.11,137Z"/><path class="cls-7" d="M1057.1,505.91l.21,0c2.38-4.11-6.07-7.12-1.17-11.48,2.66-4.63,6.2-8.9,6.08-14.68,1.5-4.9,2.64-9.84,1.43-15-.47-.88-.94-1.76-1.4-2.64l0,.11c2.58.53,2.86-1.3,3.18-3.09l-.23.18a2.87,2.87,0,0,0,3.11-3.1l-.19.19a3,3,0,0,0,3.12-3.11l-.19.19a3.05,3.05,0,0,0,3.11-3.11l-.19.19,3.12-3.12-.19.22,3.14-3.13-.22.15,5.65.51-1.62,10.91c-.92,2.36-2.79,5.65.28,6.7,2.18.74,2.33-3.12,3-5.15,6.45-8.07,11.23-18.07,26-21.4-11.7,12.94-13.32,26.81-16.53,40.32C1091.34,498.7,1085.15,502.8,1057.1,505.91Z"/><path class="cls-7" d="M86.12,438.93a60.28,60.28,0,0,1,17.15,18.81c.44,12.87-.33,26.05,9.14,36.67-4.17,11.08-17.2,14-27.54,6-7.25-5.62-11-13.61-13-22.18-3.22-13.89-4.51-28.35-16.64-41.38,14.37,1.93,18.27,12.61,25.69,19.3C84.45,450,81.61,443.37,86.12,438.93Zm11.29,46.85-3-3c-.5-3.89-2.16-7-5.88-8.7-.11-2.37-.33-4.69-2.87-5.88l-1-.83,1.15.67c.45,2.22.32,4.71,2.9,5.88.2,4.08.27,8.25,5.88,8.67a2.69,2.69,0,0,0,2.94,2.95l2.93,2.95.52.78-.66-.64Z"/><path class="cls-6" d="M154.23,631.8c1.12-16.06-5-31-7.09-46.58,0-3,.7-6.24-2.14-8.56-1.87-17.53,7.47-28.9,21.64-39.89,4.65,22,4.06,42.66,4.62,63.22q-1.83,14.53-3.67,29.06l.13-.19c-3.38-1.78-3.95,1.52-5.49,3Z"/><path class="cls-6" d="M97.84,611l-25.2-55.43c17.5,1.18,27.92,9.64,37.07,20.39,1.19,2.61,1.3,6.16,5.4,6.25L115,582c-1.32,8.27.8,16,4.06,23.42,2.24,10.87,6.37,21,11.28,30.95-.28,1.54-.56,3.08-.85,4.62l-5.75-.48.2.15c-1.24-2.55-3.36-3.38-6-3.07l.19.16c-.09-2-1.27-2.86-3.1-3.09l.18.17-3.11-3.1.18.18-3.1-3.11.18.19-3.12-3.1.19.18c-.3-1.78-1.14-3-3.11-3.1l.18.18c-.17-1.9-.7-3.43-3.1-3.1l.16.18C102.15,616.45,100.62,613.56,97.84,611Z"/><path class="cls-7" d="M129.47,641c.29-1.54.57-3.08.85-4.62,2.75.32,4.65,6.09,8.19,1.27l-.09-.07c.94,8.72,5.83,18.7-7.59,22.71-13.58,4.07-23.24-2.08-31.91-11.61-12.06-13.25-14.62-32.82-30.65-43.85,10.61-2.58,10.61-2.58,26.31,9.46,1.19,2.76,2.7,5.19,5.91,6l-.16-.18,3.1,3.1-.18-.18a3.11,3.11,0,0,0,3.11,3.1l-.19-.18c.26,1.82,1.1,3.05,3.12,3.1l-.18-.19c.07,2,1,3.13,3.1,3.11l-.18-.18c0,2.08,1,3.11,3.11,3.1l-.18-.17c-.13,2.19,1,3.12,3.1,3.09l-.19-.16c.7,3.63,3.34,3.43,6,3.07l-.2-.15C125.29,644.83,127.35,643.32,129.47,641Z"/><path class="cls-2" d="M895.63,105.63c5.83,6,11,12.89,20.49,13.3v.47c0-6-2.07-12.08,1-17.89l5.92.91,19.27,26.19c.08,2,.15,4.11.23,6.18-.1,3.61-1.84,5.64-5.57,5.75-1.75.59-5.28-1.19-4.54,2.68.34,1.79,2.55,2.38,4.19.42l0,0c-3.49,3,.38,5.78.23,8.68l-6.86.36-11-.44-.08-.11c.91-6.63-2.29-9.14-8.57-8.56l0-.05c-.1-3.58-1.57-5.8-5.53-5.53l-.11-.19c-7-9.59-17.42-16.82-20.82-29l4.22-3.79,7.61.69ZM920.54,127c-.83,4,.81,5.75,2.6,7.29,2,1.7,4.11,4.71,6.84.38C928.77,130.32,926.3,127.36,920.54,127Z"/><path class="cls-3" d="M209.33,242.58h19.59l-14.22,9.07c-10,5.55-16.85,16.64-29.85,16.89-2.32-2.86-5.51-2.18-8.56-2.11-4.57-1.27-6.66-5.08-8.89-8.74.36-3.89,2.35-5.83,6.39-5.29,3.23,3.51,7.51,1.89,11.37,2.33l1.26.61-1.16-.71q-1.57-4.5-3.14-9c1.3-2.75,4-5,3.14-8.53l-.1.1c4,.22,4.73-2.72,5.44-5.67,2.61-1.18,3.33-3.39,3.3-6l.14-.16c6.79-.82,7.71-6,8.44-11.34l.18-.19,14.8-6c4.41,1,10.9-2.5,12.93,2.88,1.85,4.93-5.66,7-7.09,11.61l-14.6,14.7c-8,.69-11.17,7.89-19.07,12C199.74,251.56,204.26,246.36,209.33,242.58Z"/><path class="cls-7" d="M154.23,631.8l8,.1c4.27,3.39,5,.46,5.5-3l-.13.19c7.63-8.36,6.21-19.46,8.85-29.33,3.83-5.85,5.16-17.83,11.57-16.39,8.23,1.86,1.47,12.21,2.43,18.78,1.92,13-1.05,25.71-2.43,38.52l.25-.07c-2.34-.26-2.8,1.39-3.19,3.12l.11-.28a72.82,72.82,0,0,1-6.39,5.81c-8.39,6-17.73,6.45-25.73.62C145.58,644.38,153.84,637.9,154.23,631.8Z"/><path class="cls-6" d="M924.55,871.42a20.44,20.44,0,0,1-20.77-19.93c-.51-12.12,8.3-21.24,20.55-21.27,11.67,0,20.47,8.19,20.95,19.56S936.12,871.25,924.55,871.42Z"/><path class="cls-6" d="M264.28,850.1c.28,11.1-8.46,20.74-19.31,21.3a21.09,21.09,0,0,1-22-20.25c-.32-11.83,8.83-21,20.93-20.94C255.59,830.26,264,838.47,264.28,850.1Z"/><path class="cls-7" d="M144.16,330.19c1.85-6.95,4.7-13.39,9.51-18.84,10.46-5.54,19.91-13.85,34.73-12.49-5.9,16.66-17,29.28-25.2,43.5-.48,1-1,2-1.47,3l.17-.17-3.12,3.11.2-.21-3.14,3.15.23-.23-3.15,3.15.22-.22L150,357.13l.23-.18c-10.07,1.52-14.61,0-7.6-11C145.32,341.72,152.11,336.13,144.16,330.19Z"/><path class="cls-7" d="M712.67,16.71c-6.18-6.41-1-6.39,3.79-6.88,4.41-.45,14,3.5,6.86-7.57,1.91-.7,4.89-2.56,5.56-1.94,6.68,6.22,15.37,4,22.89,6.18,7.93,2.34,11.36,8.5,8.09,17-4.05.55-8.82-1.42-12.5,4.5,7.93,1.91,11,6.23,5.1,13.21-6.89,2.19-13.93,1.69-20.9,1.34-.92-5.14,9.77-11.92-2.4-15.12C725.41,21.18,719.21,18.69,712.67,16.71Z"/><path class="cls-7" d="M437,43.38c-7.53-3-16.12,1-23.41-3.54l-6.33-25C413.7-.78,429,4.54,441.81,0c-1.05,4-1.83,6.93-2.7,10.25,1.51,2.08,4.25,1.56,6,.71,4.13-2,8.59-1.1,10,2,1.8,4-3.18,7.77-6,7.43-8-1-4.93,10.86-12.31,9.49-3.22.33-5.3,2.15-5.47,5.3s2.71,3.23,5,3.63a7.48,7.48,0,0,0,1.38,2.48l-1,.84Z"/><path class="cls-3" d="M190.61,190.1c9.31-6.21,15.68-16.12,26.21-20.8q.83.88,1.71,1.68c-.22,16.16-11.06,28.39-15.87,42.85l-.18.18c-7.62.21-8.7,5.28-8.44,11.35l-.14.16c-3.19,0-5.35,1.23-5.77,4.65-2.16,1.85-5.79,3.08-3,7l.1-.1c-5-3.36-6.77,3.16-10.58,3.44l-4.73-.63c0-7,6-13,3.66-20.46l.1,0c7-.75,7.51-6.38,8.58-11.56,0-.92,0-1.84.05-2.76,3.64-.28,5.66-2.14,5.77-5.89C191.45,196.87,191.07,193.5,190.61,190.1Z"/><path class="cls-7" d="M1037.28,358.62c5.62,4.78,2,8.58-1.57,11.95-5.22,4.89-11.34,7.29-18.57,4.82-8.67-2.94-14.86-9.14-19.48-16.56-5.47-8.77-11.56-16.59-23-21.29,10.71-6.69,17.94,4.88,26.37,2l-.07-.27c-2.64,3.54.78,4.36,2.64,5.88,9.84.25,15.06,13.6,26.49,9.35Z"/><path class="cls-3" d="M713.74,883.9c10.94-10.44,21.5-21.41,36.5-26.17-9.1,17.78-13.94,35.92-4.68,55.25C727.9,917,715.08,905.26,713.74,883.9Z"/><path class="cls-6" d="M1030.12,354.55c-11.43,4.25-16.65-9.1-26.49-9.35.77-2.7.56-5-2.64-5.88l.07.27c-3.63-14.79-16.66-24.72-20.88-40.07,10.7-2.33,18.75,3,27,7.6,1.86,2.05,3.73,4.1,5.59,6.16l-.18-.22,3.18,3.14-.21-.28C1015.45,330.66,1022.8,342.6,1030.12,354.55Z"/><path class="cls-3" d="M419.14,859.84c15.4,3.31,25.72,13.75,35.35,25.15-1.63,18.63-9.12,26.4-29.29,30.35C427.76,896.34,430.07,877.37,419.14,859.84Z"/><path class="cls-6" d="M989.47,217c-4.49-7.57-9.55-14.93-9.17-24.33l11-24.11a279.55,279.55,0,0,1,18.17,43.53c.4,9.33,1.55,18.76-3.66,27.34C1001.11,231.42,1003.19,218.48,989.47,217Z"/><path class="cls-7" d="M114.82,348.26l4.55-.05c.65,4.44,1.89,8.87.27,13.35-18.65,1.78-27-5.49-28-24.09-.78-13.46,3.63-27.11-3.75-43.8,11.57,6.16,12.92,14.77,15.94,22.16,1.57,8.95.84,18.36,5.45,26.69l-.15-.22c.24,1.85,1,3.16,3.13,3.11l-.19-.23C112.57,346.55,111.69,349.21,114.82,348.26Z"/><path class="cls-7" d="M1005.78,239.46c5.21-8.59,4.06-18,3.66-27.35,6.61-6.34.75-17.3,10.61-24.73-.29,14.89,6.54,27,8.06,40.26,1.71,15.06-5.92,22.18-23.64,23.54l.2-.33-.33-4.63C1007.38,244.51,1007.09,242.09,1005.78,239.46Z"/><path class="cls-6" d="M1034.74,427.23c1.16-18.53-.15-37.52,9.85-56.39,10.32,14.39,12.63,29.5,14.86,44.65-2.5,1.47-5.44,2.52-5.86,6l.2-.19c-2,.09-3.31.83-3.13,3.1l.19-.16c-2.86-.62-5.12-.07-6.06,3.09l.23-.17Z"/><path class="cls-7" d="M109.17,415.5c.9-15.55,5.07-30.08,13.74-45.17,11.07,18.79,9.6,38,10.09,56.9l-9.37,0,.22.16a10.13,10.13,0,0,0-9-6l.21.16C113.1,419.51,111.13,417.51,109.17,415.5Z"/><path class="cls-7" d="M167.65,342.4c7.61-3.66,14.82-8.86,27.61-6-14.81,6.19-20.55,17.41-28.17,27.08-11.7,14.84-22.66,16-37.11,5.14-.8-4.92,1.46-6.67,6.23-6.65,5.18,0,10.2-.94,14-5l-.23.18,3.12-3.15-.22.22,3.15-3.15-.23.23,3.14-3.15-.2.21a3,3,0,0,0,3.12-3.11l-.17.17C164.47,345.93,166.35,344.72,167.65,342.4Z"/><path class="cls-6" d="M190.61,190.1c.46,3.4.84,6.77-2.5,9.12-3.21.7-9.84-1.95-5.77,5.89,0,.92,0,1.84-.05,2.76-5,2.24-10,4.54-8.58,11.56l-.1,0c-7.51,3.51-8.08,11.64-11.78,17.69l-3.45,0c-2.83-6.66-3.24-13.59-2.31-20.67l-.19.36a5.94,5.94,0,0,0,2.48-6.23q7.68-17.43,15.35-34.87l6-.15q2.9,8,5.77,15.91l1.07.89,1.12-.77Z"/><path class="cls-6" d="M317.46,67.31c-4.66,1.74-6.54,5.45-7.17,10C295.21,75.12,295.66,91,287.5,96.87c-10.67-9.65-6.42-35.94,4.38-33.19,17,4.31,17.68-11.85,27.58-14.62C326,55.93,317.61,61.17,317.46,67.31Z"/><path class="cls-7" d="M158.38,237.16l3.45,0q-.09,6.92-.17,13.84c-17.19-2.1-21.8-7.56-21-24.31.61-13,9.3-24.36,6.73-40.11,8.65,7.83,7.17,16.56,9.07,24.07-.18,2.07-.37,4.15-.55,6.22l.19-.36C153.43,223.76,149.36,231.19,158.38,237.16Z"/><path class="cls-7" d="M1057,692.92c-1,9.09-6.8,14-15.51,13.71-7.36-.23-13.22-4.76-13-12.94.23-9.06,5.68-14.39,14.86-14.53C1052.1,679,1056.7,683.85,1057,692.92Z"/><path class="cls-6" d="M125.58,706.78c-8.54-1.38-14.38-5.69-14.15-15.06.19-8,4.91-12.4,12.88-12.48,9.21-.09,14.72,5.26,15.18,14S133.78,705.78,125.58,706.78Z"/><path class="cls-6" d="M188,640.63a95.76,95.76,0,0,1,9.88,0c9,.87,14.28,5.67,14.14,15-.13,8.2-5.11,12.64-13,12.37-8.82-.31-14.4-5.16-14.62-14.57a99.49,99.49,0,0,1,.73-10l-.1.28c2.35.28,3.61-.56,3.18-3.12Z"/><path class="cls-6" d="M138.68,427.34c6.58-7.81,14.27-14,25.25-17.32,2.33,11.63-4.36,21.36-5,31.88C148.91,441.59,139.57,440.33,138.68,427.34Z"/><path class="cls-4" d="M966,213.67c-11.15-.25-16.79-7.85-19-17-2.52-10.51-6.87-14.21-17.17-9.84-1.25.53-3.39-1.07-9.55-3.23,12.81-1.93,21.67-4,23.18-14.77l4.51,1c2.49,16.06,11.11,29.61,17.9,43.9Z"/><path class="cls-6" d="M1009.44,442.41c-1.19-10.4-6.4-20.1-5.69-31.76,11.53,2,18.82,9.31,25.91,16.93C1028.72,440.43,1018.93,441.21,1009.44,442.41Z"/><path class="cls-7" d="M1087.73,544.09c-7.85-.59-11.46-5.17-11.14-12.39.37-8,5.63-12.47,13.22-12.34,7.19.11,11.5,4.72,10.92,12.34C1100.13,539.61,1095.5,543.69,1087.73,544.09Z"/><path class="cls-7" d="M80.27,544.12c-8-.5-12.53-5-12.8-12.89-.26-7.56,4.4-12,11.81-11.78,7.23.19,11.78,4.81,12.2,12S88.13,543.4,80.27,544.12Z"/><path class="cls-7" d="M93.32,394.05c-7.32-1.48-12-5.34-11.49-12.73.43-6.86,5.22-10.22,11.84-9.65s10.11,4.74,10.15,11.61C103.86,390.63,99.38,393.21,93.32,394.05Z"/><path class="cls-7" d="M1076.17,371.46c6.75,1.08,10.48,5,9.77,12s-5.21,10.64-11.86,10.3c-6.85-.34-10.72-4.82-9.94-11.75C1064.89,375.32,1069.33,371.86,1076.17,371.46Z"/><path class="cls-7" d="M158.89,517.65c.06,2.41.22,4.82.16,7.22-.13,6.09-2.69,10.35-9.23,10.84-5.5.42-9.46-2.21-10.95-7.54-1.75-6.23-.66-11.7,6.12-14.32,2.63-1,5.54-1.34,8.33-2l-.25-.11c-.48,2.52,1.28,2.89,3.09,3.21l-.28-.26c.35,1.79,1.06,3.2,3.22,3.16Z"/><path class="cls-2" d="M945.05,125.41c-.17-3.35,1.47-6.83,4.63-4.6,7.93,5.58,11.47,14.23,11.81,23.73.31,8.76-3.63,14.82-13.17,15.77a3.39,3.39,0,0,0-1.79-2.06q-2.1-5.87-4.21-11.71l5.92,0c1,1.93,2.06,2,3,0-.41-4,1.3-8.6-2.91-11.68Z"/><path class="cls-7" d="M1021.65,272.29c.09-2.83,0-5.69.32-8.49.86-6.64,4.57-10.83,11.49-10.14,5.55.56,8.51,4.74,8.07,10.16-.56,6.92-4.94,10.09-11.86,9.46-2.75-.26-5.48-.79-8.22-1.2Z"/><path class="cls-7" d="M1026.88,515.5c2.31,3.29,3.78,6.84,3,11-1.34,6.93-6,10.63-12.54,9.06-9.93-2.37-8.64-10.12-6.59-17.61a2.37,2.37,0,0,0,1.86-3.19l-.11.11Z"/><path class="cls-7" d="M898.23,789.37c8.75-7.12,19.17-5.54,29.28-5.63-1.72,4.49,2.63,11.88-4.75,13.41C913.56,799.07,904.33,798.45,898.23,789.37Z"/><path class="cls-7" d="M144.32,275.18c-2-3.32-5.2-1.37-7.85-1.72-6.2-.83-9.72-4.21-9.67-10.5,0-4.89,2.77-8.59,7.61-9.2,6-.76,10.19,2.27,11.53,8.45.51,2.34.78,4.72,1.16,7.08l.22-.11c-2.89,1.11-5.77,2.22-3.06,6.13Z"/><path class="cls-7" d="M240.69,783.83c10.3-.57,20.42-.18,29.6,5.4-1.89,4.34-5.9,5.91-9.91,7.3C246.64,801.27,242.14,798.33,240.69,783.83Z"/><path class="cls-7" d="M160.22,392.19c-.27,5.72-3.1,9.54-8.74,9.94-6.18.45-10.51-3.05-11.2-9.14-.72-6.3,3.07-10.4,9.34-10.62S159.25,386.19,160.22,392.19Z"/><path class="cls-7" d="M1027.68,391.65c-.26,6.27-3.57,10.14-9.77,10.46-5.46.29-9.66-2.58-9.86-8.4-.23-6.72,3.33-11.33,10.38-11.37C1024,382.31,1027.09,386,1027.68,391.65Z"/><path class="cls-7" d="M176.29,266.43c3.05-.07,6.24-.75,8.56,2.11.74,1.7,1.2,3.58,2.25,5.06,3.59,5.06,4,9.71-1.36,13.75-3.57,2.7-7.28,2.3-10.49-.57-4.26-3.81-4.46-8.44-1.12-12.81C176,271.57,177.89,269.63,176.29,266.43Z"/><path class="cls-7" d="M981.93,164.64c-.25,6.09-3.41,9.33-9.06,9.28-4.9,0-8.29-2.81-8.37-8-.09-5.53,3-9.53,8.37-9.94C978.53,155.53,981.47,159.33,981.93,164.64Z"/><path class="cls-7" d="M120.09,499.75q4.75-5.58,9.53-11.15c.18,6.2,4.18,6.61,8.93,5.87l-.17-.16c-.09,5.44,3.44,7.83,7.91,9.43C135.42,516.42,127.94,506.86,120.09,499.75Z"/><path class="cls-7" d="M203.81,164.3c-.18,6.16-3.18,9.42-8.89,9.57-5.13.14-8.21-3.06-8.68-7.86-.55-5.51,2.41-9.56,8-10S202.83,159.34,203.81,164.3Z"/><path class="cls-7" d="M853.84,802.65c7.76-8.15,18.24-8.4,28.35-9.72C876.21,808.33,868.08,811.12,853.84,802.65Z"/><path class="cls-7" d="M286,793.07c10.4.59,20.4,2.3,28.34,9.91C299.67,810.92,292.18,808.3,286,793.07Z"/><path class="cls-7" d="M1039.06,488.83l8.44,9.05c-2.94,10.3-11.63,10.77-20,11.73-8.14-6.76,5.2-9.59,2.79-15.3l-.17.15C1034.78,495.3,1038.45,494.51,1039.06,488.83Z"/><path class="cls-7" d="M895.69,105.69c3.44-2.91-.17-6.17.46-9.27,1-4.83,3.37-8,8.6-7.59,3.77.28,5.89,3,6.63,6.52,1.12,5.39-2.21,7.67-6.65,9.3-3,1.11-6.48-3-9.1,1Z"/><path class="cls-7" d="M273,105.53c-2.66-4.18-6.07.09-9.09-.82-4.75-1.42-7.58-4.3-7.19-9.34a6.71,6.71,0,0,1,6.59-6.51c5.15-.34,7.78,2.68,8.77,7.62.61,3-3.22,6.46.82,9.15Z"/><path class="cls-7" d="M1074.67,319.05c-3.54-1-4.26-6.26-8.75-5.84a22,22,0,0,1,6.54-12.84C1075,307.32,1076.11,313,1074.67,319.05Z"/><path class="cls-7" d="M945.77,105.28c1.74,4.56,4.05,9.44.56,15C940.34,114.77,942.75,110.12,945.77,105.28Z"/><path class="cls-7" d="M246.58,128.93c.08-3.42-.27-7,3.46-9l5.34.37c-.32,5.52-3.27,8.38-8.75,8.69Z"/><path class="cls-7" d="M145,576.66c2.84,2.32,2.17,5.52,2.14,8.56l-5.1-1.43c-.31-2.28-.61-4.55-.92-6.82Z"/><path class="cls-7" d="M945.05,125.41l3.33,9.39h-5.86c-.08-2.07-.15-4.13-.23-6.18Z"/><path class="cls-8" d="M226.46,898.73c-2.24,1.21-4.25.74-6.12-.81C222.88,894.36,224.8,895.55,226.46,898.73Z"/><path class="cls-7" d="M179.69,175.6l-6,.15c0-2.6,1.07-4.76,3.76-4.58C178.3,171.23,179,174,179.69,175.6Z"/><path class="cls-8" d="M179,926.89a5.15,5.15,0,0,1,6.07.74C182.65,930.79,180.72,929.83,179,926.89Z"/><path class="cls-8" d="M100.49,620.26c-3.21-.76-4.72-3.19-5.91-6L97.84,611C100.62,613.56,102.15,616.45,100.49,620.26Z"/><path class="cls-6" d="M881.2,102.65l3-.43,3.91,2.78-4.22,3.79C881.66,107.31,881,105.15,881.2,102.65Z"/><path class="cls-8" d="M109.17,415.5c2,2,3.93,4,5.89,6-3,.88-5-.12-5.9-3.13A5.32,5.32,0,0,1,109.17,415.5Z"/><path class="cls-8" d="M155.88,216.85c.18-2.07.37-4.15.55-6.22a11.31,11.31,0,0,1,1.93,0A5.94,5.94,0,0,1,155.88,216.85Z"/><path class="cls-8" d="M167.65,342.4c-1.3,2.32-3.18,3.53-5.92,3,.49-1,1-2,1.47-3Z"/><path class="cls-8" d="M995,778l-1.66,2.33c-.12-.85-.23-1.69-.35-2.54A3.15,3.15,0,0,1,995,778Z"/><path class="cls-7" d="M923,102.42l-5.92-.91C919.86,96.72,921.45,99.5,923,102.42Z"/><path class="cls-7" d="M945.57,160.5a5.59,5.59,0,0,1,1-2.26,3.43,3.43,0,0,1,1.79,2.07l-1.34.55Z"/><path class="cls-7" d="M221.89,105.82l-.14-.14Z"/><path class="cls-7" d="M916.11,119.4v0Z"/><path class="cls-9" d="M1004,254.32l-3.7-2.37,4.4-1.1-.2.33C1004.3,252.22,1004.14,253.27,1004,254.32Z"/><path class="cls-1" d="M126.72,29.56l1.69-1.38.05,1.19-1.92-.12Z"/><path class="cls-9" d="M111.7,507.35l-2.58,1.51C109.47,507.49,110.15,506.67,111.7,507.35Z"/><path class="cls-7" d="M219.76,161.05l.53,3c-.79-1-1.57-2-2.35-3.08C218.54,161,219.15,161,219.76,161.05Z"/><path class="cls-6" d="M216.82,169.3l3.52-3.26c0,.58-.06,1.16-.1,1.74l-1.7,3.21C217.94,170.45,217.37,169.89,216.82,169.3Z"/><path class="cls-7" d="M187.65,191.63l-1.12.77-1.07-.89A3.5,3.5,0,0,1,187.65,191.63Z"/><path class="cls-10" d="M223.3,222.35c1.43-4.58,8.94-6.68,7.09-11.61-2-5.38-8.52-1.86-12.93-2.87-.1-4.14-.43-8.42,5.45-8.9,12.88,6.53,15.4-.42,14.83-11.39,3.9-.34,6.94-2,8.55-5.72l32.57-14.94C345.39,134,415.63,113.31,489,102.34c30.62-4.58,61.21-8.29,92.23-7.4-.33,6.3-.9,12.6-.95,18.9q-.47,62-.75,124c-4.43-13.64-14.68-18.27-28-18.16-5.82.05-11.67.35-17.47-.07-7.57-.54-10.26,2.55-10.17,10.09.3,25.24.08,50.49.15,75.74,0,3.72-.74,9.5,4.29,9.33,17.35-.57,36.11,7,51.3-7.83l.54,47.17C565.26,352,561,358.51,562,373a464.46,464.46,0,0,1,0,58.28c-.81,14.11,2.07,22.56,18.23,20.4,0,15.56-.57,31.15.08,46.68.4,9.58-2.84,12.43-12.39,12.34-46.68-.44-93.37-.3-140.06-.17-43.26.13-86.52.49-129.78.76-3.53-30.74-5.85-61.67-10.84-92.17-10.77-65.81-28.83-129.61-56.78-190.38C229.05,225.52,227.3,222.67,223.3,222.35ZM493.06,272l2.63.16c0,10.63.18,21.26-.06,31.88-.16,7.38,1.59,11.93,10.4,12.12,9.15.2,11.9-3.76,11.8-12.24-.28-23.36,0-46.73-.14-70.09,0-7.52-.15-15.13-11.35-14.18-9.45.79-21.07-3.79-22.44,12.5-.74,8.74,1.75,18.43-5.59,27.92-1.53-11.79-2.52-21.9-4.21-31.89-2.37-14-13.67-7-21.21-8.33-6.75-1.22-10.93,1.11-10.82,9.33q.49,38.69,0,77.39c-.09,8.24,4.21,9.47,11,9.53s9.61-2.64,9.46-9.49c-.28-12.55-.08-25.1-.08-37.65,4.33,12.12,6.33,24.4,8.37,36.68.88,5.25.9,11,9,10.32,7.36-.59,8.12-5.85,8.87-11.24C490.25,293.79,491.62,282.87,493.06,272ZM468.3,400.05l-2.46.45c-4.3-13.23-8.8-26.4-12.82-39.71-2.63-8.7-9.39-6.77-15.45-6.7-7.49.09-6.45,5.84-6.47,10.54-.07,24.3,0,48.59-.08,72.88,0,7,.63,12.54,9.77,12.63,8.82.09,10.53-4.69,10.31-12.09-.28-9.49-.07-19-.07-28.5,6.31,10.78,10.33,22,13.9,33.29,2.64,8.38,9.18,7.41,15.45,7,7.25-.45,6.26-6.14,6.27-10.87.06-24.78-.09-49.56.1-74.34.06-6.84-1.27-10.86-9.51-10.87-8.69,0-9.08,4.88-9,11.29C468.43,376.73,468.3,388.39,468.3,400.05Zm50-.57c0-7.79-.17-15.58.06-23.36.12-4.09-1.1-9.79,5.47-9.84,5,0,5.57,4.53,5.93,8.5.14,1.45.08,2.92.15,4.38.46,9.56,7.81,6.5,13.06,7,6.56.58,9.92-2.3,9.93-9.26,0-14.24-9.53-24.43-24.53-25.71-19.55-1.67-31.39,5-32.52,20.75a392.46,392.46,0,0,0-.05,55.4c1.12,16.11,12.26,25.23,27,19.76,10.2-3.78,23.44,7.59,28.63-4.35,4-9.08,1.5-21,1.38-31.72,0-4.41,2.48-11-4.22-12.3-7-1.35-15.41-3.15-21.28,1s-1.68,10,1.64,15.17c1.61,2.5,1,6.59.94,10-.05,4.11-1.1,8.22-6.22,8.13-5.56-.1-5.26-4.82-5.34-8.62C518.24,416,518.35,407.76,518.33,399.48ZM402.94,220.75c-13.41-3.46-19,2-20.35,15.87-2.21,22.67-6.39,45.14-9.45,67.74-.67,4.94-2.66,11.58,6.1,11.73,6.49.11,14.39,2.39,16-7.78.73-4.7.16-9.82,7.57-10,6.94-.14,7.75,4,8.46,9.18,1.5,10.73,9.73,9.22,16.82,8.45,8.62-.94,5.72-7.91,5-12.56-3.27-22.07-8.07-44-10.27-66.12C421.48,223.71,417.35,217.1,402.94,220.75Zm-68.89,44.89c0-4.38-.61-8.87.14-13.13,1.22-6.92-4.57-19,5.71-19.37,8.51-.26,5.16,11.71,5.51,18.45.34,6.5,3.35,8.71,9.18,8.2,5.4-.47,12,2.15,14.2-6.33,3.82-14.72-5.86-32.68-19.83-36.07-18.81-4.56-35.89,4.67-37.35,22.21a316.84,316.84,0,0,0,.14,54c1.42,16.09,16.29,24.54,33.94,21.7a27.76,27.76,0,0,0,23.21-31.89c-.57-3.8-1.87-7-5.87-7.12-8.17-.29-18.56-4.09-17.8,11.11.23,4.6.47,12.94-6.36,12.32-6.66-.61-4.49-8.54-4.73-13.58C333.82,279.3,334.06,272.47,334.05,265.64Zm44,136.17v16c0,33.86,0,33.85,33.73,33.12,6.27-.14,12.77,1.23,12.86-8.91.08-9.54-5.38-10.29-12.22-9.54-9.56,1.06-11.51-3.83-11.06-12.11.4-7.41-1.07-15.35,10.72-13.67,6.56.93,9.8-1.7,9.64-8.92-.14-6.41-2.9-8.47-8.89-8.41-5,0-11.07,1.66-11.38-7-.34-9.38,6-8.31,11.7-8.35,8.38-.05,8.68-5.55,8.85-11.9.22-8-4.67-8.28-10.47-8.19-7.77.14-15.56.35-23.3-.05-7.45-.38-10.53,2.4-10.28,10.07C378.39,376.55,378.09,389.18,378.07,401.81Z"/><path class="cls-11" d="M563.71,694.26c.56-7.81-6.64-15.14,2.55-23.87,5.93-5.62-4.11-7.37-7.63-5.93-22.78,9.24-35.26-6.53-49-19.36-2.69-2.52-7.61-6.53-3.83-9.56,13-10.42,8.76-26,13-38.89,5.25-15.85,9.61-18.8,26.75-15.67,3.9.71,6.95-.41,9-3.25,2.22-3.1-.43-5.68-2.6-7.38-8.83-6.89-7.71-12.05,2-16.93,3.33-1.69,6.92-5.06,4.75-9.46a9.21,9.21,0,0,0-11.14-4.84c-5.65,1.83-8.77,2.3-13-3.83-3.37-4.92-7.25,1.56-6.68,4.67,4.67,25.49-15.29,36.7-29,51.63-5.31,5.78-10,6.35-16.13,1-8.72-7.58-18-14.48-27.62-22.11,12.75-4.86,21.18-19.31,19.18-30.85-.64-3.67-2.63-6.71-5.75-8-9.38-3.84-18.74-8.59-28.58-10.31-23.76-4.16-31.5,2.41-35.27,28.71a153.05,153.05,0,0,1-5,21.15c-3.27,11.18,2.3,22.12,4.56,32.6.81,3.8,5.88,9.35,6.4,15.48.22,2.48,1.95,6,3.9,5.43,12.9-3.8,8.39,6.79,6.69,9.75C404,664.67,389.66,697,363.63,721.3c-4.55,4.25-10.6,9.24-16.89,6-7.51-3.93-3.92-12.34-3.45-18.62.88-11.88,6.89-22.27,12.7-32.36,14-24.36,23.3-50,24.93-78.37.85-14.7-1.93-27.48-14-36.31-6.89-5.05-17,1.5-24.86-6.46-2,8.62,4.63,12.92,5,18.93-.7.39-1.55,1.27-2.2,1.14-5.28-1.1-8.76-11.62-14.18-5.69-4.15,4.54,5.44,7.63,7.3,12.25,4.09,10.1,11.64,15.81,21.31,20.53,11.81,5.76,7.68,16.31,4.59,25.51C356.49,650,343.2,669.57,334,691c-3.49,8.12-5.89,16.36-5.73,25.39.39,22.24,17.54,32.18,37.07,21.46,6.16-3.39,10.35-8.8,15.44-13.28,2.41-2.13,4.54-5.82,8.55-3.4,3.34,2,3.58,5.67,3.3,9.13-2,24.91-17.46,43.63-44.7,32.67-9.06-3.65-10.94,1.33-10.26,8,1.45,14-5.25,12.89-14.4,8.75-14.69-6.66-30.35-10.25-45.88-14.2-7.55-1.92-11.55-4.53-8.78-14.11,22-76.09,32.84-153.7,30.39-233,89.41-.06,178.82,0,268.23-.39,10-.05,13.31,2.33,13.17,12.79-.58,43.24-.93,86.51.13,129.73C580.89,675.78,579.12,687.84,563.71,694.26Z"/><path class="cls-11" d="M579.78,982.42c-25-32.31-51.32-63.41-81.12-91.51A562.65,562.65,0,0,0,445.13,846c-3.08-2.26-13.21-4.15-1.67-11.06,5.05-3,3.66-13.08-.35-18.69-3.36-4.71-9.48-7.51-15.55-4.05-11.64,6.65-22.84,2.72-33.65-1.39a20.49,20.49,0,0,1-10.57-30c5.89-10,17-12.32,27.43-3.06,8,7.07,20.07,1,26.84,11.15,1.79,2.68,5.28-2.7,3.88-6.26-7.68-19.52-7.62-41.21-16.79-60.24-4.78-9.91-.59-12,8.44-11.58,12,.5,21.64,5.27,28.36,15.25,8,11.93,5.3,23.34-8.26,28.14-13.82,4.89-8,11.28-1.95,16.45,14.11,12.12,31.74,11.78,48.55,9.52,8.13-1.09,13.27-.32,19.48,4.82,3.73,3.07,12.86,13,12.24-4.8-.22-6.28,11.82-9.81,19.48-8.85,14.09,1.76,5.32-16.9,16.37-17-.26-8.53-6.89-12.89-12.86-16.09-6.52-3.49-13.14-1.07-17.44,5.88-8.8,14.21-22.54,18.69-38.36,19.54-9.07.48-14.69-2.2-16.95-11.73s-1-17.45,7.17-23.24c2.69-1.91,6.8-2,9.24-4,5.46-4.66,13.34-9.83,13-16.43-.32-6-9.92-3.66-15.22-5-15.75-4-26.82-13.61-29.59-28-.71-3.72-1.86-8.14,2.56-10.41s7.74.1,9.43,4.08c3.61,8.55,8.86,6.8,15.17,3.35,7.24-4,15.2-3.1,22.83-1.52,7.81,1.62,14.22,4.45,9.17,14.83-2.38,4.87-3,11.68,2.55,14.3,4.45,2.08,7.42-3.83,9.43-7.33,6.75-11.76,11.52-6.78,16.37,1.36,1.7,2.86,3.62,5.59,5.44,8.39-2.27,13.77.83,25.31,14.54,31.41,5.63,2.51,6.31,6.39,6.3,11.57Q579.9,863.81,579.78,982.42Z"/><path class="cls-12" d="M608.86,702.15c.41-.26,1-.42,1.21-.79,11.28-16.89,11.27-16.88,25.89-3.21a20.32,20.32,0,0,0,3.74,2.23c4.48-4.94,6.62-10.44,2.56-15.88-6.54-8.76,0-11.19,6.06-13.37,7-2.53,15.25-3.22,21.52-.48,10.17,4.42,17.62,6.2,22.66-6.1a4.46,4.46,0,0,1,6.33-1.8c3.5,1.93,4,5.24,3.68,8.82-1.18,13.88-14.6,27.93-28.65,30.79-5.9,1.2-16.54.85-16.19,5.91.44,6.52,7,13.24,14.24,17.11,14.62,7.85,18.24,16.31,13.86,29.16-2,6-5.12,8.82-11.44,9-17.32.38-33.09-2.43-42.71-19.12-3.67-6.36-9.41-8.22-16.2-7.1-7.67,1.28-10.37,8.28-14,13.7-2.07,3.11,11.71,19.39,15.59,20.26,8.39,1.9,19.88-1.66,19.66,14.47-.09,7.49,8.57,3,11.14.34,6.65-6.9,13.72-6.34,22.29-5.41,14.52,1.57,29.39,1,42.6-6.37,12.72-7.13,12.53-13.41.25-20.61-13.13-7.7-13.53-20-1.56-32.81a31.32,31.32,0,0,1,16.27-9c5.65-1.34,12.88-3.4,16.62,1,3.39,4-1.73,9.78-3.08,14.8-4.9,18.23-9.56,36.52-14.15,54.83-.42,1.69-.37,4.37.65,5.37,2.2,2.12,4.37.18,6.22-1.42,10.26-8.91,24.36-7.74,36-13.63,6.21-3.15,11.89,2.41,14.83,8.69,3.69,7.91,4.94,15.73-1.59,23.07-8.23,9.25-26.63,14.11-38.86,8.74-7.34-3.22-14.52-3.46-18.25,2.66-3.83,6.3-9.59,15-1.71,22.25,5.53,5.11.88,6.83-1.76,8.59-32.7,21.73-58.37,51.18-86.46,78C618.47,941.62,606.24,962.9,589,980q-.32-117.88-.67-235.78c0-4.69.84-8.21,5.8-10.45C607.89,727.53,610.53,715.76,608.86,702.15Z"/><path class="cls-12" d="M869.49,520.79a723.67,723.67,0,0,0,29,225.57c3.78,12.87,1.48,18.24-12.23,20.4-14.32,2.26-28.2,7.09-41.56,13.13-6.88,3.12-13.94,5.75-14.55-6.72-.44-8.95-3.29-13.72-14.31-8.4-9.72,4.68-20.4,1.36-28.35-6-9-8.44-12.48-19.72-11.16-31.86.67-6.2,4.09-9,9.41-2.57,6,7.29,14,12,22.47,15.81,15.1,6.81,30.37-2.07,31.86-18.53,1.07-11.9-1.85-23.18-7.06-33.81-8.35-17-17.28-33.82-25.3-51-10-21.4-8-27.42,11.2-39.62,9.37-6,11.13-18,19.64-24.79.45-.36-.21-3.4-.77-3.54a10.6,10.6,0,0,0-5.42.08c-3.93,1.19-5.27,7.27-11.06,5.85-1.41-6.77,7.72-10,5.27-18.15-11.43,6.26-27.52-.16-35.37,15.46-6.58,13.1-4.16,27-2.91,40.16,1.94,20.42,9.76,39.31,20.28,57.17,8.33,14.14,17.52,28.28,17.09,45.82-.32,13.22-4,15.07-16.33,9.68-11.07-4.86-17-14.6-23.09-23.69-12.38-18.58-23.8-37.83-34.84-57.24-3.86-6.8-11.44-14.58,3.59-20.74,6.39-2.62,9.56-16.61,10.3-22.43,1.47-11.77,8.5-23.91,1.61-37.55-6.42-12.7-8-27.83-11.78-41.89a15.56,15.56,0,0,0,.29-2.62H866.61Z"/><path class="cls-13" d="M755.38,518.7a15.56,15.56,0,0,1-.29,2.62c-15.44-.32-30.86-2.68-45.51,5.93-7.59,4.45-17.22,6-15.46,17.74,1.65,11.1,2.66,23.06,21.3,23.34-12.4,10-22.45,18.09-32.51,26.16-5.13,4.12-8.95,1.33-12.64-2.39-7.88-8-15.53-16.19-23.82-23.7-7-6.35-4.68-14.28-5.18-21.83-.74-11-1.41-11.54-10.74-6.55-3.76,2-6.47-.83-9.7-1.09-4.68-.39-9.07.94-10.9,5.43s1.76,7.83,5.07,9.43c11,5.31,8.59,10.76,1.13,17.11-2.11,1.8-4.6,4.38-1.76,7.37a8.64,8.64,0,0,0,7.88,2.84c16.75-2.74,24.29,2.89,28,19.35,2.68,11.87.4,25.67,12.38,34.4,2.09,1.52,1,4.22-.31,6.58-7.57,13.92-33.58,25.77-50.59,23.11-4.15-.64-9.46-2.45-12.17,1.72-2.53,3.87,2.88,5.19,4.73,7.7,4.77,6.45-1.17,12-1.79,17.94-5.74-4.3-14.51-4.56-14.39-15.67.57-49.68.36-99.36.15-149,0-7,2.5-9.16,9.36-9.12C650.2,518.45,702.79,518.53,755.38,518.7Z"/><path class="cls-2" d="M455.87,557.74c-4.42-2-9.56-3.6-9.76-9.4-.15-4.61,3.16-7.17,7.58-6.39,4.1.72,9.21,1.92,8.49,7.65C461.75,553,461,557.45,455.87,557.74Z"/><path class="cls-12" d="M722.16,548.24c-2.41,4-5.15,8.85-10.2,9-4.58.16-5.91-5-5.66-8.62.36-5.24,5.23-6.6,9.59-6.84C719.64,541.59,722.18,543.83,722.16,548.24Z"/><path class="cls-6" d="M209.33,242.58c-5.07,3.78-9.59,9-19.7,6.48,7.9-4.12,11.05-11.32,19.07-12Z"/><path class="cls-13" d="M866.61,518.7l2.89-.58a14,14,0,0,1,0,2.67Z"/><path class="cls-14" d="M159.1,517.88c-2.16,0-2.87-1.37-3.22-3.16C158.22,514.48,159.28,515.55,159.1,517.88Z"/><path class="cls-14" d="M156.16,515c-1.81-.32-3.57-.69-3.09-3.21C155.82,511.19,156.47,512.61,156.16,515Z"/><path class="cls-3" d="M419.2,860l-2.64-3.67C417.43,857.51,418.32,858.74,419.2,860Z"/><path class="cls-3" d="M753,854.29l-3.18,3.16Z"/><path class="cls-15" d="M705,399.12c0-12.64.35-25.29-.12-37.91-.31-8.34,4.06-9.54,10.86-9.46s12.91.19,12.36,9.66c-.31,5.32-.06,10.69,0,16,.06,4.45-.13,8.92,6.37,9.17s6.83-3.89,6.8-8.59c0-3.89.2-7.79,0-11.66-.52-8.5-.19-14.73,11.71-14.89,12.15-.17,11.71,6.27,11.62,14.65-.26,23.32-.45,46.66.09,70,.21,9.09-3,11.64-11.76,11.63s-12.48-2.53-11.75-11.65c.61-7.72.07-15.54,0-23.32,0-4.24-2.15-6-6.36-5.92-4,.05-6.57,1.44-6.62,5.76-.1,8.26-.43,16.54-.09,24.78.37,8.93-4.6,10.12-12,10.26-7.85.15-11.66-2-11.3-10.62C705.34,424.41,705,411.75,705,399.12Z"/><path class="cls-15" d="M687.56,267.8c0-12.63.27-25.27-.1-37.89-.22-7.34,2.23-9.95,9.93-10.38,40.66-2.23,46.75,3.25,46.74,43.94,0,11.66.08,23.33-.15,35-.25,12.3-7,18.27-19,19.53-37.05,3.87-37.4,3.65-37.4-32.69Q687.55,276.54,687.56,267.8ZM711.13,269c0,8.23-.08,16.46,0,24.68,0,2.73-.5,6.51,3.6,6.55a6.28,6.28,0,0,0,6.11-5.39,203.23,203.23,0,0,0,0-52,5.81,5.81,0,0,0-6.13-5.15c-4.1.25-3.53,3.89-3.56,6.61C711.05,252.53,711.12,260.75,711.13,269Z"/><path class="cls-15" d="M590.78,268.12c0-12.66-.12-25.31.06-38,.06-4.05-1.39-10,5.15-10.06,12.57-.19,25.42-2.57,37.63,1.94,13.08,4.84,18.88,25.88,9.57,38.76-4.17,5.76-2.92,7.65.12,12.85,7,12,4,25.73,2.69,38.54-.71,6.95-8.85,3.42-13.72,4-5.37.63-8.09-2-8-7.63.11-8.76,0-17.52-.06-26.28,0-4.2-1.09-8.55-5.83-8.57-6,0-4.16,5.45-4.32,8.9-.31,6.8-.37,13.63,0,20.43.42,8.49-1.2,13.52-11.75,13.59s-11.94-4.92-11.61-13.45C591.11,291.49,590.78,279.8,590.78,268.12ZM624.52,248c-.14-4.78.39-10.58-6.34-10.73-7.74-.17-5.43,6.46-5.49,10.67s-1.89,10.94,5.45,10.88C624.64,258.8,624.42,252.9,624.52,248Z"/><path class="cls-15" d="M778.08,265.59c0,9.23-.11,18.47.07,27.7.06,3,1.5,6.09,5,6.13s5-2.79,5.19-5.93c.3-5.76.42-11.23-2.41-16.94-2.55-5.14-3.24-13,6-12.05,6.64.66,18.2-7,19.07,7.63.67,11.14.1,22.35.13,33.53,0,4.3-1.26,9.12-6.14,7.41-9.37-3.29-17.48.78-26.21,1.85-12.48,1.54-20.64-5.45-23-17.5a160.07,160.07,0,0,1,.06-62.26c2.86-14.26,15.46-20.5,33.34-18.13,13.68,1.82,21.55,10.78,21.92,24.69.15,5.81-.1,11.16-8.08,10.33-6-.64-14.6,3.34-14.94-8.2-.13-4.47,1.67-11.85-5-11.6-7.56.28-4.86,8.09-5.17,12.93-.43,6.78-.11,13.61-.11,20.41Z"/><path class="cls-15" d="M669.49,448.19c-17-.11-25.93-6.83-27.49-21.76-.53-5.05-3.7-12.75,6.16-13.09,7.46-.25,16.6-2.59,15.89,10.41-.21,4-.87,10.47,5.73,9.3,7-1.24,6.53-7.64,4.88-13-3-9.66-11.7-14-19.31-19-11.53-7.58-16.22-17.8-13.71-31.19,2.63-14,12.13-18.89,25.43-18.81,12.85.08,24.84,1.31,27.95,17.08.89,4.53,3.71,11.07-3.53,11.67-6,.5-15.38,5.6-17.64-6.25-.71-3.74-.83-9.13-6.44-7-5.12,1.94-4,7.44-2.46,11.46,2.48,6.35,9.13,8.48,14.16,12.15,10.21,7.44,18.12,15.83,18.23,29.72C697.5,440.38,690.06,448.32,669.49,448.19Z"/><path class="cls-15" d="M817.81,268.18c0-12.19.31-24.38-.11-36.54-.28-8.38,2-12.9,11.44-12a149.74,149.74,0,0,0,21.91,0c7.17-.41,10.77,1.6,10.59,9.65-.17,7-1.51,11.33-9.69,10.59-5.1-.47-9.59-.08-9.78,7.22-.19,7.68,4,8.86,10.13,8.67s8.64,2.49,8.72,8.8c.08,6.79-3.25,8.55-9,8-12.38-1.1-9.15,8-9.81,14.73-.79,8.05,2.13,12.06,10.63,10.93,7.9-1.06,11.39,1.71,11.15,10.39-.24,8.42-4.73,9.11-11.27,9.46-34.89,1.87-34.89,2-34.9-32.4Q817.8,276.95,817.81,268.18Z"/><path class="cls-15" d="M588.38,451.73l-8.09-.07c-16.16,2.16-19-6.29-18.23-20.4A464.46,464.46,0,0,0,562,373c-1-14.47,3.25-21,18.08-18.89l1.18.42,1.24-.16c6.64,19.59,1.22,39.81,3.2,59.62.57,5.75-3.16,12.36,2.9,17.2,4.71,2.91,13.19-2.52,14.83,7.67C605.59,452.25,596.42,451,588.38,451.73Z"/><path class="cls-15" d="M655.59,267.4c0-12.62.51-25.28-.16-37.87-.5-9.32,4.36-10,11.61-9.95,7,.08,12.11.36,11.94,9.8-.47,25.24-.39,50.5,0,75.75.13,9-4.6,10.18-11.91,10.27s-12-1-11.6-10.13C656.06,292.68,655.59,280,655.59,267.4Z"/><path class="cls-15" d="M633.4,401.1c0,12.65-.34,25.3.12,37.93.31,8.48-4.34,9.4-11,9.23-6.14-.15-11.62.26-11.51-8.71q.48-38.66,0-77.32c-.11-9.31,5.87-8.06,11.72-8.36,6.79-.35,11.12.92,10.79,9.31C633,375.8,633.4,388.46,633.4,401.1Z"/><path class="cls-8" d="M588.12,313.07a370.82,370.82,0,0,1,0-90.44Q590,267.86,588.12,313.07Z"/><path class="cls-8" d="M582.51,354.35l5.49-.42q.3,38.63.61,77.24c-6.06-4.84-2.33-11.45-2.9-17.2C583.73,394.16,589.15,373.94,582.51,354.35Z"/><path class="cls-9" d="M1004.34,246.22l-5.21-6.07c-2.49-8-4.73-16.13-9.66-23.13,13.72,1.46,11.64,14.4,16.31,22.43C1007.09,242.09,1007.38,244.51,1004.34,246.22Z"/><path class="cls-4" d="M965.83,213.79l1,.57-.93-.69Z"/><path class="cls-1" d="M647.75,1055.85c9,7.09,19-.68,29.19-.23,9.5.42,12.11,3.42,9.41,12.5-2.91,9.75-4.9,19.78-7.27,29.7-1,4.19-3,7.57-7.91,6.44-4.6-1.06-3.87-5.3-3.28-8.45,1.34-7.14,3.35-14.16,4.92-21.26,1-4.39,2-9.13-4.82-9.59-5.41-.36-6.38,3.25-6.39,7.58,0,5.36.26,10.73-.13,16.06a16.09,16.09,0,0,1-24.54,12.82c-2.63-1.63-4.73-4-3.43-7.2,1.45-3.55,4.57-2.72,7.42-1.61s6.45,7.07,8.61-.12c1.88-6.3-2.74-5.1-6.87-5-12.48.12-9.83-9.47-10-16.84C632.34,1061.17,637,1056,647.75,1055.85Z"/><path class="cls-1" d="M530.23,1102.47c-10.16,3.07-11.89-5-15.81-14-1.12,4.82-1.68,7.52-2.38,10.19s-2.6,3.91-5.31,3.83-5-1.37-5.08-4.07c-.25-12.54-.23-25.08-.16-37.62,0-2.79,2-4.23,4.68-4.52,3.23-.34,5.68.88,6.91,4,2.1,5.26,4.1,10.56,8.27,15.6,0-4.45-.08-8.9,0-13.35.07-3.06.79-5.8,4.56-6.24,4.36-.51,6.27,1.57,6.2,5.78C527.89,1075.34,531.35,1089,530.23,1102.47Z"/><path class="cls-1" d="M716.42,1090c-.48,4.24-1.3,8.92-4.77,11.51s-7.08.83-9.94-2.68c-4-5-16.26.66-15.35-9.37,1.08-11.9,6.61-23,12.66-33.48,1.76-3,5.86-3,9.32-2.16,4.68,1.12,5.48,4.75,5.75,8.86C714.66,1071.76,712.52,1081.06,716.42,1090Z"/><path class="cls-1" d="M483.6,1099.76c-5.55,4.12-11.36,7.49-18.67,5.78-6.39-1.5-12.94-8.89-9.81-11.57,10.82-9.23,1.56-15.55-.54-23.22a10.78,10.78,0,0,1,5.17-12.58c7.82-4.51,14.83-2.48,21,3.51-.39,4.14.69,9.38-6.47,8.34-2.73-.39-4.22-7.7-7.5-2.28-2.46,4.07,2,6.71,5.35,8.75C480.92,1081.82,484.07,1089.9,483.6,1099.76Zm-15.28-11.6c-.93,1.88-2,3-2,4.19-.05,2.07,1.08,3.92,3.45,3,.83-.31,1.45-2.47,1.3-3.68S469.6,1089.72,468.32,1088.16Z"/><path class="cls-1" d="M536.09,1061.88c9.81-9,18.66-8.81,26.33,2.74-1.24,4.7,3.2,12-4.18,13.73-8.74,2-5.33-9.57-11.75-13.19a75.61,75.61,0,0,0-.2,30.8c6.12-2.54,4.73-11.82,12-10.15,6.16,1.41,3.31,7.1,4.23,11-10,11.62-15.55,12.23-26.59,2.92Z"/><path class="cls-1" d="M565.21,1064.61c2.91-7.55,16.22-12.32,21.21-7.33,3.45,3.45,1.5,5.72-2.5,7.25-10.64,4.09-10,8,.21,12,5.11,2,5.56,5.84.42,7.78-9.68,3.66-10.82,6.47-.24,10.17,4.1,1.43,6,5.78,1.84,6.89-7.06,1.89-16.08,6-21-4.57Q565.19,1080.71,565.21,1064.61Z"/><path class="cls-1" d="M626.63,1078.84c0,5.81.08,11.61,0,17.41-.07,3.94-1.83,6.49-6.2,6.18-3.53-.26-4.83-2.57-5.17-5.8-1.06-10.2,1.78-20.6-5.1-30.56-2.38-3.45,6.21-7.91,10.91-9.26,5.61-1.61,5.58,3.64,5.65,7.52.1,4.84,0,9.67,0,14.51Z"/><path class="cls-1" d="M485.73,1061.66c1-4.77,4.07-6.45,8.58-5.1,3.51,1,3.5,4.28,3.52,7.19.06,10.2.25,20.41,0,30.6-.26,9.76-4.91,10.7-12.11,5.4Z"/><path class="cls-2" d="M565.21,1064.61q0,16.1-.05,32.18h-2.63c-.92-3.88,1.93-9.57-4.23-11-7.28-1.67-5.89,7.61-12,10.15a75.61,75.61,0,0,1,.2-30.8c6.42,3.62,3,15.23,11.75,13.19,7.38-1.72,2.94-9,4.18-13.73Z"/><path class="cls-2" d="M485.73,1061.66l0,38.09h-1.06l-1.05,0c.48-9.86-2.67-17.94-11.42-23.27-3.34-2-7.81-4.68-5.35-8.75,3.28-5.42,4.77,1.89,7.5,2.28,7.16,1,6.08-4.2,6.47-8.34Z"/><path class="cls-3" d="M536.09,1061.88l-.15,37.83-5.71,2.76c1.12-13.46-2.34-27.13,1.9-40.44Z"/><path class="cls-14" d="M1000.33,900.9l-.69-.29-.75.07-1-2.79C1000.48,897.43,1000.55,899.05,1000.33,900.9Z"/><path class="cls-2" d="M278.86,166.92,246.3,181.86c-9.89.41-18.91-.57-20.89-12.94,5.94-8.45,18.17-7.88,23.89-16.65,9.5-.44,12.08-9.33,17.68-14.52l20.43-.12c2,7.85-4.73,9.8-9.16,13-5.76,4.18-13.07,6.16-17.87,12.41Z"/><path class="cls-14" d="M1057,576.75l-2.41,1.61c.24-1.1.48-2.2.71-3.31C1055.84,575.6,1056.41,576.17,1057,576.75Z"/><path class="cls-7" d="M1034.71,646.05a12.71,12.71,0,0,0,.85-2.3l1.57,1.67Z"/><path class="cls-7" d="M1035.82,643.94c-4-1.29-2.33-2.74-.12-4.21Z"/><path class="cls-8" d="M857.23,94.32c-.64-.57-1.88-1.59-1.84-1.65,1.15-1.53,2.21-.86,3.2.28C858.15,93.41,857.69,93.87,857.23,94.32Z"/><path class="cls-8" d="M1006.78,634.86a4.79,4.79,0,0,1,1.29.53c.18.14.09.63.12,1l-1.27-1.64Z"/><path class="cls-14" d="M294.44,116.11l-12.75,1.14,5.86-11.69,3.81.44Q292.9,111.06,294.44,116.11Z"/><path class="cls-14" d="M370,24.33c-.66.59-1.76,1.81-1.93,1.69-1.72-1.19-.88-2.29.37-3.26C369,23.27,369.51,23.8,370,24.33Z"/><path class="cls-7" d="M1048.7,354.33q.22-3.1.44-6.21c2.18.5,5.64-2.8,6.26.19C1056.25,352.37,1052.11,353.54,1048.7,354.33Z"/><path class="cls-7" d="M1058.82,322.9c2.11-.94,3.29-1.91,4.37-1.8.72.07,1.56,1.59,1.82,2.6.16.61-.69,1.48-1.09,2.23Z"/><path class="cls-8" d="M1015.75,316.2l-3.18-3.14Z"/><path class="cls-8" d="M114.82,348.26c-3.13.95-2.25-1.71-2.79-3.08Z"/><path class="cls-8" d="M131.75,310.1l-.42,1.3a5.61,5.61,0,0,1-1.11-1.45c-.08-.23.53-.71.83-1.07Z"/><path class="cls-14" d="M144.26,275.31c-2.71-3.91.17-5,3.06-6.13C146.83,271.49,146.75,274,144.26,275.31Z"/><path class="cls-8" d="M112.22,345.41c-2.12,0-2.89-1.26-3.13-3.11C111.34,342.12,111.89,343.65,112.22,345.41Z"/><path class="cls-14" d="M138.51,637.67c-3.54,4.82-5.44-.95-8.19-1.27-4.91-9.9-9-20.08-11.27-30.95l4.9,0C128.44,616.37,136.39,625.7,138.51,637.67Z"/><path class="cls-7" d="M228.92,149.46l-1.4.07-1.39-.22c0-6,5.1-8.88,9.05-12.71C238.32,143.07,238.14,148.12,228.92,149.46Z"/><path class="cls-7" d="M222.11,137c-.34.8-.52,2-1.09,2.25s-1.53-.55-2.33-.89c.35-.8.51-2,1.08-2.26S221.31,136.66,222.11,137Z"/><path class="cls-7" d="M246.63,129c-.71,1.54-1.41,3.09-2.12,4.63l-1.72-1.13,3.79-3.54Z"/><path class="cls-7" d="M220.75,153.08l-1.34-1.61,1.64,1.31Z"/><path class="cls-8" d="M94.66,482.63C89.05,482.21,89,478,88.78,474l-.2.16c3.72,1.71,5.38,4.81,5.88,8.7Z"/><path class="cls-8" d="M85.71,468.24c2.54,1.19,2.76,3.51,2.87,5.88l.2-.16c-2.58-1.17-2.45-3.66-2.9-5.88Z"/><polygon class="cls-8" points="100.39 488.67 101.05 489.31 100.53 488.53 100.39 488.67"/><path class="cls-8" d="M100.53,488.53l-2.93-2.95-.19.2,3,2.89Z"/><path class="cls-8" d="M94.46,482.82l3,3,.19-.2a2.69,2.69,0,0,1-2.94-2.95Z"/><path class="cls-8" d="M85.88,468.08l-1.15-.67,1,.83Z"/><path class="cls-8" d="M167.72,628.86c-.46,3.5-1.23,6.43-5.5,3C163.77,630.38,164.34,627.08,167.72,628.86Z"/><path class="cls-8" d="M123.92,640.69c-2.71.36-5.35.56-6-3.07C120.56,637.31,122.68,638.14,123.92,640.69Z"/><path class="cls-8" d="M129.47,641c-2.12,2.3-4.18,3.81-5.75-.48Z"/><path class="cls-8" d="M118.06,637.78c-2.09,0-3.23-.9-3.1-3.09C116.79,634.92,118,635.8,118.06,637.78Z"/><path class="cls-8" d="M115.14,634.86c-2.08,0-3.11-1-3.11-3.1Z"/><path class="cls-8" d="M112.21,631.94c-2.08,0-3-1.11-3.1-3.11Z"/><path class="cls-8" d="M109.29,629c-2,0-2.86-1.28-3.12-3.1Z"/><path class="cls-8" d="M106.36,626.1a3.11,3.11,0,0,1-3.11-3.1C105.22,623.09,106.06,624.32,106.36,626.1Z"/><path class="cls-8" d="M103.43,623.18l-3.1-3.1C102.73,619.75,103.26,621.28,103.43,623.18Z"/><path class="cls-6" d="M942.52,134.79h5.86c4.21,3.08,2.5,7.65,2.91,11.68l-3,0-5.92,0-5.7-2.88,0,0c.12-1,.23-2.06.35-3.1C940.68,140.43,942.42,138.4,942.52,134.79Z"/><path class="cls-8" d="M937,140.54c-.12,1-.23,2.07-.35,3.1-1.64,2-3.85,1.37-4.19-.42C931.67,139.35,935.2,141.13,937,140.54Z"/><path class="cls-4" d="M225.41,168.92c2,12.37,11,13.35,20.89,12.94-1.62,3.76-4.66,5.38-8.56,5.72-13.28-7.06-14.92,1-14.83,11.39-5.88.48-5.55,4.76-5.45,8.9l-14.8,6c4.81-14.46,15.65-26.69,15.87-42.85.58-1.06,1.14-2.13,1.71-3.2Z"/><path class="cls-6" d="M173.79,252.4c1.68-3.61,5.15-5,8.33-6.77q1.56,4.5,3.14,9l-.1.1C181.3,254.29,177,255.91,173.79,252.4Z"/><path class="cls-6" d="M194,225.36c-.26-6.07.82-11.14,8.44-11.35C201.75,219.35,200.83,224.54,194,225.36Z"/><path class="cls-6" d="M185.26,254.63l1.16.71-1.26-.61Z"/><path class="cls-14" d="M188.26,640.56c.43,2.56-.83,3.4-3.18,3.12C185.46,642,185.92,640.3,188.26,640.56Z"/><path class="cls-8" d="M153.14,354,150,357.13Z"/><path class="cls-8" d="M156.07,351.05l-3.15,3.15Z"/><path class="cls-8" d="M159,348.13l-3.14,3.15Z"/><path class="cls-8" d="M161.9,345.23a3,3,0,0,1-3.12,3.11Z"/><path class="cls-7" d="M173.71,219.43c-1.4-7,3.55-9.32,8.58-11.56C181.22,213.05,180.75,218.68,173.71,219.43Z"/><path class="cls-7" d="M182.34,205.11c-4.07-7.84,2.56-5.19,5.77-5.89C188,203,186,204.83,182.34,205.11Z"/><path class="cls-14" d="M1001,339.32c3.2.92,3.41,3.18,2.64,5.88C1001.77,343.68,998.35,342.86,1001,339.32Z"/><path class="cls-7" d="M885.66,125.83c-.74,3.87-2.91,6.11-6.82,5.78s-5.88-3.15-5.31-6.86a5.57,5.57,0,0,1,6-5C883.44,119.87,885.47,122,885.66,125.83Z"/><path class="cls-7" d="M948.24,146.52l3,0C950.3,148.56,949.29,148.45,948.24,146.52Z"/><path class="cls-15" d="M493.06,272c-1.44,10.91-2.81,21.83-4.35,32.72-.75,5.39-1.51,10.65-8.87,11.24-8.09.65-8.11-5.07-9-10.32-2-12.28-4-24.56-8.37-36.68,0,12.55-.2,25.1.08,37.65.15,6.85-2.55,9.56-9.46,9.49s-11.1-1.29-11-9.53q.42-38.7,0-77.39c-.11-8.22,4.07-10.55,10.82-9.33,7.54,1.37,18.84-5.67,21.21,8.33,1.69,10,2.68,20.1,4.21,31.89,7.34-9.49,4.85-19.18,5.59-27.92,1.37-16.29,13-11.71,22.44-12.5,11.2-1,11.31,6.66,11.35,14.18.11,23.36-.14,46.73.14,70.09.1,8.48-2.65,12.44-11.8,12.24-8.81-.19-10.56-4.74-10.4-12.12.24-10.62.06-21.25.06-31.88Z"/><path class="cls-15" d="M579.48,237.83c-5.25,23,3.64,46.07.07,69.1-15.19,14.79-33.95,7.26-51.3,7.83-5,.17-4.28-5.61-4.29-9.33-.07-25.25.15-50.5-.15-75.74-.09-7.54,2.6-10.63,10.17-10.09,5.8.42,11.65.12,17.47.07C564.8,219.56,575.05,224.19,579.48,237.83ZM547,285.44c1.33,4.2-2.55,11.6,4.15,12,8.11.54,5.65-7.42,5.64-12.09s2.53-12.64-5.66-12.05C544.52,273.82,548.33,281.21,547,285.44Zm.07-37.91c1,3.68-1.72,10.13,5.13,9.59,5.75-.46,4.65-6.29,4.71-10.44.06-3.79.37-8.76-4.77-8.88C545.29,237.65,548.06,243.8,547.11,247.53Z"/><path class="cls-15" d="M468.3,400.05c0-11.66.13-23.32-.05-35-.09-6.41.3-11.29,9-11.29,8.24,0,9.57,4,9.51,10.87-.19,24.78,0,49.56-.1,74.34,0,4.73,1,10.42-6.27,10.87-6.27.38-12.81,1.35-15.45-7-3.57-11.33-7.59-22.51-13.9-33.29,0,9.5-.21,19,.07,28.5.22,7.4-1.49,12.18-10.31,12.09-9.14-.09-9.81-5.65-9.77-12.63.12-24.29,0-48.58.08-72.88,0-4.7-1-10.45,6.47-10.54,6.06-.07,12.82-2,15.45,6.7,4,13.31,8.52,26.48,12.82,39.71Z"/><path class="cls-15" d="M518.34,399.48c0,8.28-.1,16.55.06,24.82.08,3.8-.22,8.52,5.34,8.62,5.12.09,6.17-4,6.22-8.13,0-3.36.67-7.45-.94-10-3.32-5.16-7.44-11.1-1.64-15.17s14.27-2.33,21.28-1c6.7,1.28,4.17,7.89,4.22,12.3.12,10.67,2.57,22.64-1.38,31.72-5.19,11.94-18.43.57-28.63,4.35-14.78,5.47-25.92-3.65-27-19.76a392.46,392.46,0,0,1,.05-55.4c1.13-15.77,13-22.42,32.52-20.75,15,1.28,24.56,11.47,24.53,25.71,0,7-3.37,9.84-9.93,9.26-5.25-.46-12.6,2.6-13.06-7-.07-1.46,0-2.93-.15-4.38-.36-4-.88-8.54-5.93-8.5-6.57.05-5.35,5.75-5.47,9.84C518.16,383.9,518.33,391.69,518.34,399.48Z"/><path class="cls-15" d="M402.94,220.75c14.41-3.65,18.54,3,19.89,16.54,2.2,22.16,7,44,10.27,66.12.68,4.65,3.58,11.62-5,12.56-7.09.77-15.32,2.28-16.82-8.45-.71-5.15-1.52-9.32-8.46-9.18-7.41.15-6.84,5.27-7.57,10-1.58,10.17-9.48,7.89-16,7.78-8.76-.15-6.77-6.79-6.1-11.73,3.06-22.6,7.24-45.07,9.45-67.74C383.94,222.74,389.53,217.29,402.94,220.75Zm-.59,21.73c-1.51,13.1-2.69,22.58-3.65,32.09-.31,3.07.56,6,4.4,6s4.39-2.9,4.44-6C407.71,264.91,406.52,255.48,402.35,242.48Z"/><path class="cls-15" d="M334.06,265.64c0,6.83-.24,13.66.08,20.47.24,5-1.93,13,4.73,13.58,6.83.62,6.59-7.72,6.36-12.32-.76-15.2,9.63-11.4,17.8-11.11,4,.14,5.3,3.32,5.87,7.12a27.76,27.76,0,0,1-23.21,31.89c-17.65,2.84-32.52-5.61-33.94-21.7a316.84,316.84,0,0,1-.14-54c1.46-17.54,18.54-26.77,37.35-22.21,14,3.39,23.65,21.35,19.83,36.07-2.2,8.48-8.8,5.86-14.2,6.33-5.83.51-8.84-1.7-9.18-8.2-.35-6.74,3-18.71-5.51-18.45-10.28.33-4.49,12.45-5.71,19.37C333.44,256.77,334.05,261.26,334.06,265.64Z"/><path class="cls-15" d="M378.08,401.81c0-12.63.31-25.26-.11-37.87-.25-7.67,2.83-10.45,10.28-10.07,7.74.4,15.53.19,23.3.05,5.8-.09,10.69.23,10.47,8.19-.17,6.35-.47,11.85-8.85,11.9-5.74,0-12-1-11.7,8.35.31,8.69,6.39,7.07,11.38,7,6-.06,8.75,2,8.89,8.41.16,7.22-3.08,9.85-9.64,8.92-11.79-1.68-10.32,6.26-10.72,13.67-.45,8.28,1.5,13.17,11.06,12.11,6.84-.75,12.3,0,12.22,9.54-.09,10.14-6.59,8.77-12.86,8.91-33.73.73-33.73.74-33.73-33.12Q378.07,409.82,378.08,401.81Z"/><path class="cls-2" d="M222.91,199c-.09-10.35,1.55-18.45,14.83-11.39C238.31,198.55,235.79,205.5,222.91,199Z"/><path class="cls-2" d="M711.13,269c0-8.23-.08-16.45,0-24.68,0-2.72-.54-6.36,3.56-6.61a5.81,5.81,0,0,1,6.13,5.15,203.23,203.23,0,0,1,0,52,6.28,6.28,0,0,1-6.11,5.39c-4.1,0-3.56-3.82-3.6-6.55C711.05,285.44,711.13,277.21,711.13,269Z"/><path class="cls-5" d="M624.52,248.05c-.1,4.85.12,10.75-6.38,10.81-7.34.06-5.5-6.56-5.45-10.88s-2.25-10.84,5.49-10.67C624.91,237.46,624.38,243.26,624.52,248.05Z"/><path class="cls-7" d="M676,1150.18c0,4.16-.8,8-5.85,8.16-3.78.12-4.45-3-4.36-6,.11-3.52-1.35-8.37,4.4-8.75C674.34,1143.34,675.7,1146.56,676,1150.18Z"/><path class="cls-3" d="M468.32,1088.16c1.28,1.56,2.63,2.47,2.76,3.54s-.47,3.37-1.3,3.68c-2.37.89-3.5-1-3.45-3C466.36,1091.18,467.39,1090,468.32,1088.16Z"/><path class="cls-10" d="M547,285.44c1.29-4.23-2.52-11.62,4.13-12.1,8.19-.59,5.65,7.39,5.66,12.05s2.47,12.63-5.64,12.09C544.49,297,548.37,289.64,547,285.44Z"/><path class="cls-10" d="M547.11,247.53c.95-3.73-1.82-9.88,5.07-9.73,5.14.12,4.83,5.09,4.77,8.88-.06,4.15,1,10-4.71,10.44C545.39,257.66,548.11,251.21,547.11,247.53Z"/><path class="cls-10" d="M402.35,242.48c4.17,13,5.36,22.43,5.19,32.07-.05,3.09-.6,6-4.44,6s-4.71-2.9-4.4-6C399.66,265.06,400.84,255.58,402.35,242.48Z"/></g></g></svg>