<?xml version="1.0" encoding="utf-8"?>
<!-- Generator: Adobe Illustrator 22.1.0, SVG Export Plug-In . SVG Version: 6.00 Build 0)  -->
<svg version="1.1" id="Layer_1" xmlns="http://www.w3.org/2000/svg" xmlns:xlink="http://www.w3.org/1999/xlink" x="0px" y="0px"
	 viewBox="0 0 1500 1500" style="enable-background:new 0 0 1500 1500;" xml:space="preserve">
<style type="text/css">
	.st0{fill:#6E6E22;}
	.st1{fill:#9EC118;}
	.st2{fill:#A2C418;}
	.st3{fill:#706F26;}
	.st4{fill:#7AAB2F;}
	.st5{fill:#A5C620;}
	.st6{fill:#A9C82A;}
	.st7{fill:#DEE8BF;}
	.st8{fill:#F0F4E5;}
	.st9{fill:#76A82D;}
	.st10{fill:#9FC115;}
	.st11{fill:#77A82B;}
	.st12{fill:#79A92C;}
	.st13{fill:#F9FAF8;}
	.st14{fill:#085E6D;}
</style>
<g>
	<path class="st0" d="M292.6,114.2c1.6,11.5-6.4,19.8-10.2,29.4c-7.1,17.9-15.8,35.2-21.2,57.1c28.7-17.2,53-36.8,84.7-44
		c0.3,7.9-4.8,10.7-7.9,14.4c-39.8,47.5-77,96.7-102.7,153.7c-15.2,33.7-21.5,68.4-13.4,105.1c7.2,32.3,25.9,55.9,53.3,73.4
		c0.9,3,2.9,4,5.9,3.1l-0.2-0.2c0.8,5.3,4.3,6.5,9,6c0,0-0.2-0.2-0.2-0.2c8,11.2,20.7,14.9,32.1,20.8c28.9,16.7,59,31.4,86.2,51
		c10.6,7.6,20.3,16.3,32.9,26.5c-4.1-96.4-21.6-187.3-60.2-273.8c3.9-2.5,7.8-4.9,14.2-9.1c-8.4,0-14,0-19.6,0
		c-0.2-1.8-0.4-3.7-0.6-5.5c4.9-4.9,9.7-9.8,14.6-14.7c4,0.3,5.7,3.2,7.2,6.4c27.9,60.8,46,124.6,56.8,190.4
		c5,30.5,7.3,61.4,10.8,92.2c-0.8,2.5-1.3,5,0.8,7.1c2.4,79.3-8.4,156.9-30.4,233c-2.8,9.6,1.2,12.2,8.8,14.1
		c15.5,3.9,31.2,7.5,45.9,14.2c9.1,4.1,15.8,5.3,14.4-8.7c-0.7-6.6,1.2-11.6,10.3-8c27.2,11,42.7-7.8,44.7-32.7
		c0.3-3.5,0-7.1-3.3-9.1c-4-2.4-6.1,1.3-8.6,3.4c-5.1,4.5-9.3,9.9-15.4,13.3c-19.5,10.7-36.7,0.8-37.1-21.5
		c-0.2-9,2.2-17.3,5.7-25.4c9.2-21.4,22.5-41,30-63.2c3.1-9.2,7.2-19.8-4.6-25.5c-9.7-4.7-17.2-10.4-21.3-20.5
		c-1.9-4.6-11.5-7.7-7.3-12.2c5.4-5.9,8.9,4.6,14.2,5.7c0.6,0.1,1.5-0.8,2.2-1.1c-0.4-6-7-10.3-5.1-18.9c7.8,8,18,1.4,24.9,6.5
		c12,8.8,14.8,21.6,14,36.3c-1.6,28.4-10.9,54-24.9,78.4c-5.8,10.1-11.8,20.5-12.7,32.4c-0.5,6.3-4.1,14.7,3.5,18.6
		c6.3,3.3,12.3-1.7,16.9-6c26-24.3,40.4-56.6,57.6-86.8c1.7-3,6.2-13.6-6.7-9.8c-1.9,0.6-3.7-3-3.9-5.4c-0.5-6.1-5.6-11.7-6.4-15.5
		c-2.3-10.5-7.8-21.4-4.6-32.6c2-7,4-13.8,5-21.1c3.8-26.3,11.5-32.9,35.3-28.7c9.8,1.7,19.2,6.5,28.6,10.3c3.1,1.3,5.1,4.3,5.7,8
		c2,11.5-6.4,26-19.2,30.9c9.6,7.6,18.9,14.5,27.6,22.1c6.1,5.3,10.8,4.8,16.1-1c13.7-14.9,33.7-26.1,29-51.6
		c-0.6-3.1,3.3-9.6,6.7-4.7c4.2,6.1,7.3,5.7,13,3.8c4.4-1.4,9.1,0.6,11.1,4.8c2.2,4.4-1.4,7.8-4.8,9.5c-9.7,4.9-10.8,10-2,16.9
		c2.2,1.7,4.8,4.3,2.6,7.4c-2,2.8-5.1,4-9,3.3c-17.1-3.1-21.5-0.2-26.7,15.7c-4.3,12.9,0,28.5-13,38.9c-3.8,3,1.1,7,3.8,9.6
		c13.7,12.8,26.2,28.6,49,19.4c3.5-1.4,13.6,0.3,7.6,5.9c-9.2,8.7-2,16.1-2.6,23.9c-1.5,2.6-2.9,5.3-4.4,7.9
		c-1.8-2.8-3.7-5.5-5.4-8.4c-4.8-8.1-9.6-13.1-16.4-1.4c-2,3.5-5,9.4-9.4,7.3c-5.6-2.6-4.9-9.4-2.6-14.3c5.1-10.4-1.4-13.2-9.2-14.8
		c-7.6-1.6-15.6-2.4-22.8,1.5c-6.3,3.5-11.6,5.2-15.2-3.3c-1.7-4-5.1-6.3-9.4-4.1c-4.4,2.3-3.3,6.7-2.6,10.4
		c2.8,14.4,13.8,24,29.6,28c5.3,1.4,14.9-0.9,15.2,5c0.4,6.6-7.5,11.8-13,16.4c-2.4,2.1-6.6,2.1-9.2,4c-8.2,5.8-9.4,13.7-7.2,23.2
		c2.3,9.5,7.9,12.2,17,11.7c15.8-0.8,29.6-5.3,38.4-19.5c4.3-7,10.9-9.4,17.4-5.9c6,3.2,12.6,7.6,12.9,16.1
		c-11.1,0.1-2.3,18.7-16.4,17c-7.7-1-19.7,2.6-19.5,8.9c0.6,17.8-8.5,7.9-12.2,4.8c-6.2-5.1-11.3-5.9-19.5-4.8
		c-16.8,2.3-34.4,2.6-48.5-9.5c-6-5.2-11.9-11.6,1.9-16.5c13.6-4.8,16.3-16.2,8.3-28.1c-6.7-10-16.3-14.7-28.4-15.2
		c-9-0.4-13.2,1.7-8.4,11.6c9.2,19,9.1,40.7,16.8,60.2c1.4,3.6-2.1,8.9-3.9,6.3c-6.8-10.1-18.8-4.1-26.8-11.1
		c-10.5-9.3-21.5-7-27.4,3.1c-6.6,11.2-2.1,25.2,10.6,30c10.8,4.1,22,8,33.7,1.4c6.1-3.5,12.2-0.7,15.6,4c4,5.6,5.4,15.7,0.4,18.7
		c-11.5,6.9-1.4,8.8,1.7,11.1c18.9,13.8,36.5,28.9,53.5,45c29.8,28.1,56.1,59.2,81.1,91.5c6.1,10.5,7.1,1.9,9.2-2.4
		c17.2-17.1,29.5-38.4,47.1-55.2c28.1-26.8,53.8-56.3,86.5-78c2.6-1.8,7.3-3.5,1.8-8.6c-7.9-7.3-2.1-16,1.7-22.3
		c3.7-6.1,10.9-5.9,18.3-2.7c12.2,5.4,30.6,0.5,38.9-8.7c6.5-7.3,5.3-15.2,1.6-23.1c-2.9-6.3-8.6-11.8-14.8-8.7
		c-11.6,5.9-25.7,4.7-36,13.6c-1.8,1.6-4,3.5-6.2,1.4c-1-1-1.1-3.7-0.7-5.4c4.6-18.3,9.3-36.6,14.1-54.8c1.3-5,6.5-10.8,3.1-14.8
		c-3.7-4.4-11-2.3-16.6-1c-6.2,1.5-11.7,4.1-16.3,9c-12,12.8-11.6,25.1,1.6,32.8c12.3,7.2,12.5,13.5-0.2,20.6
		c-13.2,7.4-28.1,7.9-42.6,6.4c-8.6-0.9-15.6-1.5-22.3,5.4c-2.6,2.7-11.2,7.1-11.1-0.3c0.2-16.1-11.3-12.6-19.7-14.5
		c-3.9-0.9-17.7-17.2-15.6-20.3c3.6-5.4,6.3-12.4,14-13.7c6.8-1.1,12.5,0.7,16.2,7.1c9.6,16.7,25.4,19.5,42.7,19.1
		c6.3-0.1,9.4-3,11.4-9c4.4-12.8,0.8-21.3-13.9-29.2c-7.2-3.9-13.8-10.6-14.2-17.1c-0.3-5.1,10.3-4.7,16.2-5.9
		c14.1-2.9,27.5-16.9,28.7-30.8c0.3-3.6-0.2-6.9-3.7-8.8c-2.6-1.4-5.5-0.2-6.3,1.8c-5,12.3-12.5,10.5-22.7,6.1
		c-6.3-2.7-14.5-2-21.5,0.5c-6,2.2-12.6,4.6-6.1,13.4c4.1,5.4,1.9,10.9-2.6,15.9c-1.3-0.8-2.7-1.3-3.7-2.2
		c-14.6-13.7-14.6-13.7-25.9,3.2c-0.2,0.4-0.8,0.5-1.2,0.8c-2.1-3.4-4.2-6.8-6.4-10.2c0.6-6,6.6-11.5,1.8-17.9
		c-1.9-2.5-7.3-3.8-4.7-7.7c2.7-4.2,8-2.4,12.2-1.7c17,2.7,43-9.2,50.6-23.1c1.3-2.4,2.4-5.1,0.3-6.6c-12-8.7-9.7-22.5-12.4-34.4
		c-3.7-16.5-11.2-22.1-28-19.3c-3.2,0.5-5.9-0.7-7.9-2.8c-2.8-3-0.4-5.6,1.8-7.4c7.5-6.3,9.8-11.8-1.1-17.1c-3.3-1.6-6.9-5-5.1-9.4
		c1.8-4.5,6.2-5.8,10.9-5.4c3.2,0.3,5.9,3.1,9.7,1.1c9.3-5,10-4.5,10.7,6.5c0.5,7.5-1.8,15.5,5.2,21.8c8.3,7.5,15.9,15.7,23.8,23.7
		c3.7,3.7,7.5,6.5,12.6,2.4c10.1-8.1,20.1-16.2,32.5-26.2c-18.6-0.3-19.6-12.2-21.3-23.3c-1.8-11.8,7.9-13.3,15.5-17.7
		c14.7-8.6,30.1-6.2,45.5-5.9c3.7,14.1,5.4,29.2,11.8,41.9c6.9,13.6-0.1,25.8-1.6,37.5c-0.7,5.8-3.9,19.8-10.3,22.4
		c-15,6.2-7.4,13.9-3.6,20.7c11,19.4,22.5,38.7,34.8,57.2c6.1,9.1,12,18.8,23.1,23.7c12.3,5.4,16,3.5,16.3-9.7
		c0.4-17.5-8.8-31.7-17.1-45.8c-10.5-17.9-18.3-36.7-20.3-57.2c-1.3-13.2-3.7-27.1,2.9-40.2c7.9-15.6,23.9-9.2,35.4-15.5
		c2.4,8.1-6.7,11.4-5.3,18.2c5.8,1.4,7.1-4.7,11.1-5.9c1.7-0.5,3.7-0.5,5.4-0.1c0.6,0.1,1.2,3.2,0.8,3.5
		c-8.5,6.7-10.3,18.8-19.6,24.8c-19.2,12.2-21.2,18.2-11.2,39.6c8,17.2,16.9,34,25.3,51c5.2,10.6,8.1,21.9,7.1,33.8
		c-1.5,16.5-16.8,25.3-31.9,18.5c-8.4-3.8-16.5-8.5-22.5-15.8c-5.3-6.5-8.7-3.6-9.4,2.6c-1.3,12.1,2.1,23.4,11.2,31.9
		c7.9,7.4,18.6,10.7,28.3,6c11-5.3,13.9-0.5,14.3,8.4c0.6,12.5,7.7,9.8,14.5,6.7c13.4-6,27.2-10.9,41.6-13.1
		c13.7-2.2,16-7.5,12.2-20.4c-21.6-73.6-31.1-148.9-29-225.6c0.1-0.9,0.1-1.8,0-2.7c-0.2-2.8-0.4-5.5-0.6-8.3c2.5-2,3.1-4.8,3.1-7.8
		c0.4-28.2,4.5-55.9,9.1-83.6c10.2-60.9,25.9-120.2,51.7-176.6c9.2-20.1,9.4-20,27-4.9c-2.2,11-12.4,2.6-17.5,7.4
		c2.2,4.1,9,3.8,9.4,9.6c-36.6,86.3-54.8,176.5-58.7,273.5c29.2-30.3,63.6-47.4,96.3-67.1c6.8-4.1,16-4.7,20.6-12.4
		c13.4-4.1,25.8-9.7,35.1-20.8l-0.2,0.2c2.9,0.7,5-0.2,6.1-3.1l-0.2,0.2c1.9-0.2,3.3-0.8,3.1-3.1l-0.2,0.2c4.6,0.6,7-2.4,9.3-5.6
		c45.9-32.1,64.1-86.4,47.7-143.3c-11.3-39.3-31.4-74.2-54.2-107.8c-21.3-31.3-44.5-61.2-72.1-92.4c35.8,4.7,59.5,26.5,88.8,43.4
		c-7.6-29.6-20.5-53.9-31.2-79c5.1-3.9,8.5-0.7,11.6,2.3c50.9,48.9,93.8,103,109.1,174.1c14.2,65.8,0,125.5-40.6,178.9
		c-11.5,15.1-24.2,29.2-36.3,43.8c-3.6,1.8-6.4,4.2-5.9,8.8l0.2-0.1c-2.4-0.3-3.4,0.7-3.1,3.1l0.2-0.2c-2.5-0.4-3.3,0.9-3.1,3.1
		l0.2-0.2c-2.3-0.2-3.1,1-3.1,3.1l0.2-0.2c-2.1-0.1-3.2,1-3.1,3.1l0.2-0.2c-2.2-0.1-3.2,0.9-3.1,3.1l0.2-0.2c-2.1,0-3.1,1-3.2,3.1
		c0,0,0-0.1,0.1-0.1c-2.1-0.2-2.7,1.2-3.2,2.8c-5.4,3.4-8,8.5-8.8,14.7c-5-0.6-9.3,0.3-11.5,5.5c-3.8,2.3-6.7,5.2-8.6,9.3l0.2-0.2
		c-6.7,6.2-16,10-17.8,20.5l0.1-0.1c-3.7-2.3-4.5,0.8-5.9,3c-18.8,17.7-36.9,36-52.5,56.6c-12.1,16-21.7,33.2-7.5,53.2
		c2.9,4,0.2,6.1-1.9,8.7c-10.4,12.5-13.8,30.3-24.5,41c-19,19.1-4.9,36.7-3.6,55c4.1,12.3,8.2,24.7,12.3,37.1
		c-1,4.8,4.6,10.2-1.5,14.4c-10.1,0.1-20.5-1.5-29.3,5.6c-5.9-1.1-11.3-0.5-16,3.6c-10.1,1.3-20.6,1.6-28.4,9.7
		c-7.9-0.9-14.2,2.8-20.2,7.1c-25.4,8.7-48.7,21.3-69.6,38.2c-5.3-0.8-7.7,3.5-11,6.3c-1.1,1.1-2.1,2.1-3.2,3.2l0.4,0.3
		c-15,4.8-25.6,15.7-36.5,26.2c-3.6,2.7-7.1,5.4-10.7,8.1c-3.7,3.1-7.5,6.1-11,9.4c-38.5,35.8-72.8,75.4-101.4,119.6
		c-5,7.7-6.9,8.4-12.5,0.2c-16.7-24.4-33.7-48.6-53.7-70.5c-18.9-20.8-37.5-41.9-60.1-58.8c-2.4-3.5-5.3-6.4-9.8-7
		c-9.6-11.4-19.9-21.8-35.3-25.2l0.1,0.1c-0.9-1.2-1.8-2.4-2.6-3.7c-3.9-4.5-7.5-9.7-14.8-8.1c-18.9-18.8-42.3-29.6-67-38.2
		c-6-4.6-12.5-7.8-20.4-6.9c-7.9-7.6-17.9-9.3-28.3-9.9c-4.5-4.3-9.9-4.8-15.7-3.8c-9.2-5.6-19.3-6-29.6-5.4
		c-0.7-0.3-1.3-0.4-2.1-0.3c0.2-4.6,0.3-9.2,0.5-13.9c5.5-11.1,8.6-23,10.2-35.2c0.6-1.3,1.5-2.6,1.6-4c1.1-16.7,16.4-32.3-2-50.6
		c-11.6-11.7-14.6-31.4-26.8-44.5c-2.9-3.1-2.6-5.6-0.1-8.9c9-12,7.9-25.1,1-37c-16.4-28.3-38.7-51.6-64.2-71.8l0.2,0.2
		c0.2-2.3-0.9-3.4-3.2-3.2l0.3,0.3c0.3-2.4-0.3-3.8-3.1-3.2l0.2,0.1c0.7-5.4-3.4-6.5-7.1-8.1c-0.2-5.2-4.3-7-7.9-9.4l0.2,0.2
		c-2.2-3.6-4.4-7.2-9-8.1c-12.6-6-15.6-20.8-26.3-28.6c-4.4-7.4-10-13.8-17.2-18.8c-22.5-24.3-45.2-48.6-60.6-78.2
		c-33.5-64.3-33.1-130-4.4-195.6c23.6-54,60.6-98,105.6-135.6L292.6,114.2z M621.9,642.7c5.1-0.3,5.9-4.8,6.3-8.1
		c0.7-5.7-4.4-6.9-8.5-7.7c-4.4-0.8-7.7,1.8-7.6,6.4C612.3,639.1,617.5,640.7,621.9,642.7z M888.2,633.2c0-4.4-2.5-6.6-6.3-6.4
		c-4.4,0.2-9.2,1.6-9.6,6.8c-0.2,3.6,1.1,8.8,5.7,8.6C883,642,885.8,637.2,888.2,633.2z"/>
	<path class="st1" d="M1125.9,321.9c-17.7-15.2-17.8-15.2-27,4.9c-25.7,56.4-41.4,115.7-51.7,176.6c-4.7,27.7-8.7,55.4-9.1,83.6
		c0,3-0.6,5.8-3.1,7.8c-89.9,0.2-179.7,0.2-269.6,0.7c-9.6,0.1-11.3-3.9-11.1-12.1c0.5-15.5,0.1-31.1,0.1-46.6
		c8-0.7,17.2,0.5,15.1-12.9c-1.6-10.2-10.1-4.8-14.8-7.7c-0.2-25.7-0.4-51.5-0.6-77.2c0-13.6,0.1-27.2,0.1-40.9
		c1.3-30.1,1.3-60.3,0-90.4c-0.1-42.5-0.3-84.9-0.4-127.4c24.3-2,48.2,1.6,72.2,4.3c74.7,8.5,146.1,29,214.5,59.9
		c11.3,5.1,21.5,8.7,34.3,2.6c-5.6-3.5-10.7-6.1-15.3-9.6c-5-3.8-13.5-4.8-12.3-14.1c7.9-0.2,15.7-0.3,23.6-0.5l0.1,0.2
		c-0.3,4,2,5.4,5.5,5.5l0,0c0.3,5.4,2.9,8.5,8.6,8.6c0,0,0.1,0.1,0.1,0.1c6.1,7.5,14.1,11.2,23.6,11.7c0.3,1.6,0.5,3.2,0.8,4.9
		c-1.5,10.7-10.4,12.8-23.2,14.8c6.2,2.2,8.3,3.8,9.5,3.2c10.3-4.4,14.6-0.7,17.2,9.8c2.2,9.1,7.8,16.7,19,17
		c0.3,0.2,0.6,0.5,0.9,0.7c-0.4-0.2-0.7-0.4-1.1-0.6c-6.8-14.3-15.4-27.8-17.9-43.9c10-2.2,13.1,7.3,19.2,11.6
		c4.7,3.3,8.8,7.5,13.2,11.2c-0.4,9.4,4.7,16.8,9.2,24.3c4.9,7,7.2,15.1,9.7,23.1c-6.8,5.2-8.6-2.7-12.5-5c-4.6-2.7-6.6-9.5-13.8-9
		c2.1,8.9,9.8,12.8,13.6,19.5c-5.7,6.4-10.3,0.8-14.7-1.8C1133.8,326.5,1131.2,322,1125.9,321.9z M871,484.1
		c0,12.6,0.4,25.3-0.1,37.9c-0.4,8.6,3.4,10.8,11.3,10.6c7.4-0.1,12.3-1.3,12-10.3c-0.3-8.2,0-16.5,0.1-24.8
		c0.1-4.3,2.6-5.7,6.6-5.8c4.2,0,6.3,1.7,6.4,5.9c0,7.8,0.6,15.6,0,23.3c-0.7,9.1,3,11.6,11.8,11.6c8.8,0,12-2.5,11.8-11.6
		c-0.5-23.3-0.3-46.7-0.1-70c0.1-8.4,0.5-14.8-11.6-14.6c-11.9,0.2-12.2,6.4-11.7,14.9c0.2,3.9,0,7.8,0,11.7c0,4.7-0.3,8.8-6.8,8.6
		c-6.5-0.2-6.3-4.7-6.4-9.2c-0.1-5.3-0.3-10.7,0-16c0.6-9.5-5.5-9.6-12.4-9.7c-6.8-0.1-11.2,1.1-10.9,9.5
		C871.3,458.8,871,471.4,871,484.1z M853.6,352.8c0,5.8,0,11.7,0,17.5c0,36.3,0.4,36.6,37.4,32.7c12-1.3,18.8-7.2,19-19.5
		c0.2-11.7,0.1-23.3,0.1-35c0-40.7-6.1-46.2-46.7-43.9c-7.7,0.4-10.1,3-9.9,10.4C853.9,327.5,853.6,340.1,853.6,352.8z M756.8,353.1
		c0,11.7,0.3,23.4-0.1,35c-0.3,8.5,1,13.5,11.6,13.5c10.5-0.1,12.2-5.1,11.7-13.6c-0.3-6.8-0.3-13.6,0-20.4c0.2-3.4-1.7-8.9,4.3-8.9
		c4.7,0,5.8,4.4,5.8,8.6c0,8.8,0.2,17.5,0.1,26.3c-0.1,5.6,2.6,8.3,8,7.6c4.9-0.6,13,3,13.7-4c1.3-12.8,4.3-26.6-2.7-38.5
		c-3-5.2-4.3-7.1-0.1-12.9c9.3-12.9,3.5-33.9-9.6-38.8c-12.2-4.5-25.1-2.1-37.6-1.9c-6.5,0.1-5.1,6-5.1,10.1
		C756.7,327.8,756.8,340.4,756.8,353.1z M944.1,350.5c-0.1,0-0.2,0-0.3,0c0-6.8-0.3-13.6,0.1-20.4c0.3-4.8-2.4-12.7,5.2-12.9
		c6.7-0.2,4.9,7.1,5,11.6c0.3,11.5,8.9,7.6,14.9,8.2c8,0.8,8.2-4.5,8.1-10.3c-0.4-13.9-8.2-22.9-21.9-24.7
		c-17.9-2.4-30.5,3.9-33.3,18.1c-4.1,20.6-4.1,41.6-0.1,62.3c2.3,12,10.5,19,23,17.5c8.7-1.1,16.8-5.1,26.2-1.9
		c4.9,1.7,6.1-3.1,6.1-7.4c0-11.2,0.5-22.4-0.1-33.5c-0.9-14.6-12.4-7-19.1-7.6c-9.3-0.9-8.6,6.9-6,12.1c2.8,5.7,2.7,11.2,2.4,16.9
		c-0.2,3.1-1.8,6-5.2,5.9c-3.5,0-4.9-3.1-5-6.1C944,369,944.1,359.8,944.1,350.5z M835.5,533.1c20.6,0.1,28-7.8,27.8-28.3
		c-0.1-13.9-8-22.3-18.2-29.7c-5-3.7-11.7-5.8-14.2-12.1c-1.6-4-2.7-9.5,2.5-11.5c5.6-2.1,5.7,3.3,6.4,7c2.3,11.9,11.6,6.7,17.6,6.3
		c7.2-0.6,4.4-7.1,3.5-11.7c-3.1-15.8-15.1-17-27.9-17.1c-13.3-0.1-22.8,4.8-25.4,18.8c-2.5,13.4,2.2,23.6,13.7,31.2
		c7.6,5,16.3,9.4,19.3,19c1.6,5.3,2.1,11.7-4.9,13c-6.6,1.2-5.9-5.3-5.7-9.3c0.7-13-8.4-10.7-15.9-10.4c-9.9,0.3-6.7,8-6.2,13.1
		C809.6,526.3,818.5,533,835.5,533.1z M983.8,353.1c0,5.8,0,11.7,0,17.5c0,34.4,0,34.3,34.9,32.4c6.5-0.4,11-1,11.3-9.5
		c0.2-8.7-3.3-11.4-11.1-10.4c-8.5,1.1-11.4-2.9-10.6-10.9c0.7-6.8-2.6-15.8,9.8-14.7c5.8,0.5,9.1-1.3,9-8c-0.1-6.3-2.8-9-8.7-8.8
		c-6.1,0.2-10.3-1-10.1-8.7c0.2-7.3,4.7-7.7,9.8-7.2c8.2,0.7,9.5-3.6,9.7-10.6c0.2-8.1-3.4-10.1-10.6-9.7c-7.3,0.4-14.7,0.6-21.9,0
		c-9.5-0.9-11.7,3.7-11.4,12C984.2,328.8,983.8,340.9,983.8,353.1z M821.6,352.4c0,12.6,0.5,25.3-0.2,37.9
		c-0.5,9.2,4.2,10.2,11.6,10.1c7.3-0.1,12-1.3,11.9-10.3c-0.4-25.2-0.4-50.5,0-75.7c0.2-9.4-4.9-9.7-11.9-9.8
		c-7.2-0.1-12.1,0.6-11.6,10C822.1,327.1,821.6,339.7,821.6,352.4z M799.4,486.1c0-12.6-0.4-25.3,0.1-37.9c0.3-8.4-4-9.7-10.8-9.3
		c-5.8,0.3-11.8-0.9-11.7,8.4c0.3,25.8,0.3,51.5,0,77.3c-0.1,9,5.4,8.6,11.5,8.7c6.6,0.2,11.3-0.8,11-9.2
		C799.1,511.4,799.4,498.7,799.4,486.1z"/>
	<path class="st2" d="M806.5,1120.5c5.1,3.6,10.3,1,15.2-0.3c31.8-7.9,62.3-19.1,90.3-36.6c31.4-19.6,65.8-31.3,102.5-36.3
		c16.9-2.3,17.3-1.5,11.4,13.8c-11.8,30.6-20.7,61.8-20.4,95c0.2,18.4,3.4,35.9,12.9,51.7c3.2,5.3,5.1,9-2.1,12.6
		c-67.1,33.2-130.2,74.2-201.2,99.8c-45.9,16.5-90.1,15.6-135.1-1.9c-38.7-15-75.8-33-112.1-53c-26.8-14.8-54-29-81.1-43.4
		c-5.2-2.8-10.8-4.7-5.9-12.9c18.5-30.5,15.9-63.3,9.3-96.3c-3.5-17.2-8.8-33.9-15.3-50.2c-6.7-16.8-6-17.8,12.5-15.1
		c35.6,5.2,69.2,16.3,99.7,35.5c28.4,17.8,59.1,29.4,91.5,37.1c22.8,8.4,46.7,12.7,70.5,13.1c15.3,0.3,32.6,1.5,46.2-9.9
		C798.5,1119.8,802.1,1118.5,806.5,1120.5z M651.7,1184.7c7.2,5.3,11.9,4.4,12.1-5.4c0.3-10.2,0.1-20.4,0-30.6c0-2.9,0-6.1-3.5-7.2
		c-4.5-1.4-7.5,0.3-8.6,5.1c-1.6,0-3.3,0-4.9,0c-6.2-6-13.2-8-21-3.5c-4.7,2.7-6.5,7.7-5.2,12.6c2.1,7.7,11.4,14,0.5,23.2
		c-3.1,2.7,3.4,10.1,9.8,11.6c7.3,1.7,13.1-1.7,18.7-5.8l1.1,0L651.7,1184.7z M731.2,1149.6c-0.9,0-1.9,0-2.8,0
		c-7.7-11.5-16.5-11.8-26.3-2.7c-1.3,0.1-2.6,0.1-4,0.2c0.1-4.2-1.8-6.3-6.2-5.8c-3.8,0.4-4.5,3.2-4.6,6.2c-0.1,4.5,0,8.9,0,13.4
		c-4.2-5-6.2-10.3-8.3-15.6c-1.2-3.1-3.7-4.3-6.9-4c-2.7,0.3-4.7,1.7-4.7,4.5c-0.1,12.5-0.1,25.1,0.2,37.6c0.1,2.7,2.4,4,5.1,4.1
		c2.7,0.1,4.6-1.1,5.3-3.8c0.7-2.7,1.3-5.4,2.4-10.2c3.9,9,5.6,17.1,15.8,14c1.9-0.9,3.8-1.8,5.7-2.8c11,9.3,16.6,8.7,26.6-2.9
		c0.9,0,1.8,0,2.6,0c4.9,10.6,13.9,6.5,21,4.6c4.2-1.1,2.3-5.5-1.8-6.9c-10.6-3.7-9.4-6.5,0.2-10.2c5.1-1.9,4.7-5.8-0.4-7.8
		c-10.2-4-10.8-7.9-0.2-12c4-1.5,5.9-3.8,2.5-7.3C747.5,1137.2,734.2,1142,731.2,1149.6z M811,1252.7c0,9.2,0.2,18.5-0.1,27.7
		c-0.2,7.2,0.8,12,10,12c9,0.1,12.4-3.1,11.7-11.9c-0.5-5.8-0.2-11.7,0.1-17.5c0.1-2.2-0.1-5.2,3.2-5.6c3.8-0.5,5.3,2.5,5.5,5.3
		c0.5,6.8,0.8,13.6,0.5,20.4c-0.3,7.1,3,9.2,9.6,9.2c6.4,0,10.4-1.5,10-8.8c-0.4-6.8,0.8-13.9-0.9-20.3c-2.2-8.2-3.4-15-0.3-23.9
		c3.4-9.6,1.3-21.3-11.7-24.3c-11.4-2.7-24.6-4.6-34.3,0.3c-8.1,4-2,16.9-3.2,25.8C810.6,1244.9,811,1248.8,811,1252.7z M632,1253.5
		c0.1,0,0.1,0,0.2,0c0,6.8-0.5,13.7,0.1,20.4c1.5,16.6,9.2,23.7,25.3,23.9c14.9,0.2,22.5-6.7,25.1-22.6c0.7-4.2,2.8-9.1-1.6-12.1
		c-4.2-2.8-9.6-1.9-14.2-0.9c-6.7,1.5-4,7.7-4.8,12.2c-0.5,2.7,0,6.5-3.8,6.9c-4.6,0.4-5.2-3.6-5.2-6.9c-0.2-13.6-0.2-27.2-0.1-40.8
		c0-3.4,0.4-7.5,5.1-7.2c4.8,0.3,3.8,4.8,4.1,8c0.2,1.9,0.2,3.9,0.1,5.8c-0.8,8.8,4.9,8.7,11.2,8.9c7.4,0.2,10.5-2.5,10.4-10.1
		c-0.2-17.6-8.6-27.6-24.6-28c-17.7-0.5-26.2,7.7-27.1,26.6C631.8,1242.8,632,1248.2,632,1253.5z M702.2,1254.6c0,3.9,0,7.8,0,11.7
		c0,29.8,0,29.8,29.4,28.7c5.2-0.2,10.9,1.1,11.3-7.4c0.4-7.9-2.8-10.6-10.2-9.8c-6.6,0.8-9.8-1.7-9.8-8.9c0.1-6.7,1-11.7,9.4-10.8
		c5.4,0.6,8.1-1.6,7.9-7.4c-0.2-5-2.4-6.9-7.2-6.9c-4.9,0-10.3,0.5-9.8-7.1c0.4-6.7,5.5-5.8,9.7-5.7c6.7,0.2,7.9-3.4,8.1-9.1
		c0.2-6.5-2.7-7.9-8.6-8.3c-30-2.1-30-2.3-30,28C702.2,1245.9,702.2,1250.3,702.2,1254.6z M755.4,1252.4c0,10.7,0.1,21.4,0,32.1
		c-0.1,5.9,2,8.4,8.3,9.1c11.9,1.4,13.4-4.5,13.5-14.5c0.1-8.5-6.5-22.2,11.9-21.3c3.9,0.2,3.7-3.7,3.9-6.6c0.1-3.8-0.9-6.6-5.3-7.2
		c-4.4-0.6-10.5,1.4-10.5-6.4c0-9,7-6.1,11.7-6.6c5.2-0.5,6.5-3.5,6.3-7.9c-0.2-3.7,1-8.8-4.6-9c-10.6-0.3-22.4-2.6-31.6,1.1
		c-7.9,3.1-2.3,14.8-3.3,22.7C754.8,1242.6,755.4,1247.5,755.4,1252.4z M813.8,1140.8c-10.8,0.2-15.4,5.3-15.1,14.7
		c0.2,7.4-2.4,17,10,16.8c4.1,0,8.8-1.2,6.9,5c-2.2,7.2-5.7,1.3-8.6,0.1c-2.8-1.1-6-1.9-7.4,1.6c-1.3,3.2,0.8,5.6,3.4,7.2
		c10.3,6.4,23.6-0.4,24.5-12.8c0.4-5.3,0.1-10.7,0.1-16.1c0-4.3,1-7.9,6.4-7.6c6.9,0.5,5.8,5.2,4.8,9.6c-1.6,7.1-3.6,14.1-4.9,21.3
		c-0.6,3.1-1.3,7.4,3.3,8.5c4.9,1.1,6.9-2.2,7.9-6.4c2.4-9.9,4.4-19.9,7.3-29.7c2.7-9.1,0.1-12.1-9.4-12.5
		C832.8,1140.1,822.8,1147.9,813.8,1140.8z M882.5,1175c-3.9-9-1.8-18.3-2.3-27.3c-0.3-4.1-1.1-7.7-5.7-8.9
		c-3.5-0.8-7.6-0.9-9.3,2.2c-6,10.4-11.6,21.6-12.7,33.5c-0.9,10,11.3,4.4,15.4,9.4c2.9,3.5,6.4,5.3,9.9,2.7
		C881.2,1183.9,882,1179.2,882.5,1175z M792.7,1163.8C792.7,1163.8,792.7,1163.8,792.7,1163.8c0.1-4.8,0.2-9.7,0.1-14.5
		c-0.1-3.9,0-9.1-5.7-7.5c-4.7,1.4-13.3,5.8-10.9,9.3c6.9,10,4,20.4,5.1,30.6c0.3,3.2,1.6,5.5,5.2,5.8c4.4,0.3,6.1-2.2,6.2-6.2
		C792.7,1175.4,792.7,1169.6,792.7,1163.8z"/>
	<path class="st3" d="M1243.3,1036.8c0-2.4-0.2-4.9,0.1-7.3c0.3-3.2-1.6-7.5,2.3-9.2c3.8-1.6,5.8,2.6,8.2,4.6
		c20.6,17.9,36,39.7,45.3,65.3c21.3,58.8,20,117.4-3.9,175.4c-4.7,11.3-11.2,21.6-18.8,31.2c-23.2,29-52.4,37.1-87.1,24
		c-13.8-5.2-26.9-12.2-37.4-22.4c-38.5-37.2-97.6-40.1-146.5-13c-41.7,23.2-83.1,47-126.3,67.3c-13.9,6.6-28,12.8-44.1,20.2
		c7.3,1.9,12.5,2.5,16.9,4.7c6.9,3.5,8.3,10.1,8.2,17.4c-0.2,8-4.8,12.5-11.4,15.3c-12.1,5.2-25,5.7-37.4,2.9
		c-40.9-9.2-81.5-9.6-122.4,0.1c-8.9,2.1-18.4,1.9-27.6,0c-11.1-2.3-21.3-5.9-21.4-19.7c0-13.2,8-19.1,20.3-19.1
		c0.5-3.1-0.7-4.4-2.6-5.2c-57.1-24-110.6-55.2-165-84.7c-26.3-14.3-54.3-20.8-84.5-15.8c-20.2,3.4-38.3,11-53.8,24.4
		c-13.4,11.6-27.7,21.6-44.4,27.7c-35.2,12.8-63.5,4.8-86.9-24.6c-19.3-24.3-29.5-52.7-33.7-83c-8.4-61.4-2-119.7,38.9-169.9
		c7-8.6,15.6-16,23.4-24c7.5,8.4,1.7,19,4.7,28.1c-30.4,39.4-32.5,84.2-24.4,130.7c3,16.9,8.2,33.1,17.1,47.9
		c16.1,26.7,44.4,34.5,71.7,19.4c8.5-4.7,16.6-10.2,24.9-15.3c36.1-21.8,73.1-24.4,111.1-4.7c55.4,28.8,107.1,63.8,161.7,93.9
		c38.8,21.4,77.9,42.2,119,59.1c8.8,3.6,16,3.6,24.7,0c74.3-30.3,142.2-72.4,211-113c22.6-13.4,45.3-26.8,68.4-39.3
		c39.2-21.2,77.6-17.9,114.9,5.4c7.8,4.9,15.5,10.2,23.6,14.6c25.9,14,55.8,7.3,69.4-18.9c29.9-57.7,32.6-116.3-1.3-174
		c-3-5.1-7-9.5-5.1-16C1243.3,1037.5,1243.3,1036.8,1243.3,1036.8z M668.4,1378.2c9.1,4,4.1,19.6,17.6,19.9c8.2,0.1,16-0.6,30.1-5.7
		C699.8,1386.4,685.3,1379,668.4,1378.2z M781.7,1393.3c39,9,40.9,8.3,45.3-17.1C811.9,1381.8,797.9,1387.1,781.7,1393.3z"/>
	<path class="st4" d="M1243.3,1036.8c0,0,0,0.7,0,0.7c-5.6,11-5,23.5-8,35.2c-16.3,63.1-61.8,98.5-132.2,102.2
		c-26.5,1.4-52.4-2.6-78.1-8.5c-5.5-1.3-10.6-2.8-9.9-10.1c3.3-34.5,7.3-68.7,24.5-99.8c5.9-10.6,11.2-14.1,23.6-6.5
		c28.7,17.5,58.9,32.3,92.1,39.5c5.6,1.2,11.6,1.8,17.3,1.6c16.6-0.5,24.2-8.5,22.8-25.1c-1.6-19.1-7.4-37.1-16.3-54.1
		c-0.5-5.5-2.1-10.6-6.6-14.3l0.2,0.3c0.1-2.6-0.2-5-3.1-6.1l0.2,0.3c0.2-2.8-0.4-5.2-3.6-6c0.2-1.8,0.2-3.5-2.5-3l0.3,0.1
		c-4.2-19.4-16.5-34.8-25.9-51.6c-5.2-9.4-6.1-14.1,6.3-16.7c9.2-1.9,16.4-8.2,21.2-16.7c3.7-6.6,9.1-11.2,16.4-13.8
		c16.1-5.7,21.3-3.5,28.5,12c18.9,40.6,30.7,82.9,30.2,128.1C1240.9,1028.6,1240,1033.2,1243.3,1036.8z"/>
	<path class="st4" d="M257.3,1018c4.7-30.7,7.6-61.7,19.4-90.8c3.8-9.4,7.6-18.9,11.7-28.3c8.8-19.7,27.5-23.2,41.4-6.5
		c9.2,11.1,17.7,21.4,32.7,24.8c8.5,2,2.5,7.7,0.6,11.2c-9.2,17.1-19.7,33.5-27.2,51.5c-2.3,1.4-2.8,3.5-2.2,6.1l0.1-0.2
		c-7.4,6.1-9.9,14.7-11.7,23.5c-9.7,17.1-15.5,35.6-17.5,55.1c-1.9,18.2,5.9,26.3,24.1,26.6c20.5,0.3,39.1-7.2,57.3-15.3
		c17.8-7.8,35.4-16.4,51.9-26.5c10.9-6.7,16.1-3.7,21.8,5.8c13.7,23.2,18.8,48.9,22.4,75c4.9,34.6,4.7,34.9-29.6,40.9
		c-48.3,8.5-95,5.8-137.7-21.7c-34-21.8-46.9-55.6-53.5-93.1c-0.5-2.9-0.9-5.8-1.4-8.6C259.9,1037.5,261.7,1027.5,257.3,1018z"/>
	<path class="st4" d="M806.5,1120.5c-4.4-2-8-0.7-11,2.8c-38.3,2.1-76.6,2.4-113.9-8.7c-33.6-11.5-65.4-26.8-95.6-45.5
		c-10.1-6.2-13-9.7-3.2-19.7c20.6-20.8,36.3-45.4,47.5-72.5c22.6,17,41.2,38.1,60.1,58.8c20,21.9,36.9,46.1,53.7,70.5
		c5.6,8.1,7.5,7.5,12.5-0.2c28.7-44.2,62.9-83.7,101.4-119.6c3.5-3.3,7.4-6.3,11-9.4c13.5,27.6,28.7,54,51.2,75.4
		c6.8,6.5,4.7,9.9-2,14.1c-30.9,19.4-63.1,36-97.9,47.3C815.5,1115.4,809.5,1114.9,806.5,1120.5z"/>
	<path class="st3" d="M1047.1,223.3c-1.2,9.3,7.3,10.3,12.3,14.1c4.5,3.4,9.7,6.1,15.3,9.6c-12.8,6.1-23,2.6-34.3-2.6
		C972,213.5,900.6,193,825.9,184.5c-24-2.7-47.9-6.2-72.2-4.3c-2.2-0.1-4.3-0.2-6.5-0.3c-31-0.9-61.6,2.8-92.2,7.4
		c-73.3,11-143.6,31.7-210.1,64.6c-6-1.3-12.1-2.5-18.5-3.9c4.8-6.3,12.1-8.2,17.9-12.4c4.4-3.2,11.1-5.2,9.2-13c2-2,4-4.1,6-6.1
		c15.5-3.6,31-7.3,44-17.1l-0.1,0.2c21.8-2.4,41.4-12.2,62.3-17.8c141.3-37.5,280.8-31.9,418.8,15.6c3.2,1.1,6.5,1.9,9.7,2.9
		C1011.9,207.9,1029.5,215.6,1047.1,223.3z"/>
	<path class="st5" d="M450.9,991.4c-9.5-4.5-18.9-9-30.2-14.3c22.1-12.9,43.2-16.7,66.8-12.2c-26.9-20.8-54.7-40.1-72.1-72.9
		c36.2,4.4,65,20.9,93.3,38.7c7.2,5,11.3,16.1,23.2,11.3c5.5,0.7,11,1.5,12.4,8.3c-2.4,0.2-4.7,0.3-9.4,0.6
		c15,15.8,30.2,29.4,43.2,48.5c-28.6-4.7-51.3-18.4-76.2-24.9c19.4,13.5,37,30.2,62,32.5c1.4,6.9-3.8,7.5-8.3,9
		c-14.6,4.9-29.1,2.2-43.6-0.6c-14.6-2.5-26.5-12.1-40.8-15.5C465.1,995.2,458.1,993,450.9,991.4z"/>
	<path class="st5" d="M1223,661.7c10.3-9.9,20.3-20.2,37.5-21.1c-6.9,21.4-17.6,39.5-26,58.6c-5.6,2.7-7.6,7.4-8.1,14.7
		c7.8-3.2,12.4-7.1,13.7-14.2c2.2-1.9,4.3-4,6.6-5.6c3-2.1,6.5-5.9,10.1-2.2c2.9,3-0.7,6.1-2.3,8.9c-6,10.4-11.2,21.5-18.3,31.1
		c-13.2,17.8-26.6,19-44.2,5.3c0-6.2,4-6.7,8.7-6.1c0.8-0.2,1.6-0.4,2.4-0.6c-0.5-0.6-1.1-1.1-1.6-1.7l0.3,0.2
		c0-1.4-0.1-2.8-0.1-4.2c9.2-15.6,14.8-32.4,15.5-50.7c-7.4,17.2-15.1,34.1-27,51.7c-4.4-20.2,1-38-0.5-55.7
		c4.8-4.1,3.1-9.6,3.4-14.7c6.3-23.2,15.1-45.3,30.2-64.4c0,0-0.2,0-0.2,0c6.9,23.2,2.1,46.2-1.8,69.1c-0.2,1.1-0.5,2.2-0.7,3.3
		C1221.4,662.8,1222.2,662.2,1223,661.7z"/>
	<path class="st5" d="M1095.1,854.3c-4.1-12.4-8.2-24.7-12.3-37.1c6.9-0.4,6.3-6.5,7.9-10.6c6.6-17.1,12.9-34.3,20.1-53.5
		c12.9,14.5,15.9,29.4,14.9,45.6c-3.9,7.1-9.1,13.7-11.2,25.7c9-9,11.9-17.3,15-25.4c14-22,29.2-42.8,54.1-58.5
		c-1.9,28.6-13.5,50.6-25.6,72.5c-3.3,2.2-5.4,5.1-5.7,9.2c0,0,0.2-0.2,0.2-0.2c-5.8,3.4-8.8,9-11.7,14.8
		c-11.8,12.4-23.6,24.8-35.3,37.3c-6-3.8-2.1-8.6-1-12.7c3.1-11.8,6.7-23.4,8.9-35.7C1103.6,833,1100.9,844.6,1095.1,854.3z"/>
	<path class="st5" d="M415.4,819.3c-1.6,12.3-4.7,24.1-10.2,35.2c-7-13.5-11.6-28.8-25.3-37.9c6.5,12.9,10,26.7,14.7,40
		c1.3,3.6,2.4,8.7-0.7,11c-4.1,3.1-6.8-2-9.3-4.5c-8.5-8.6-16.6-17.5-24.9-26.3c-3-5.6-6.2-11-11.4-15l0.2,0.2
		c-1.2-5.1-4.4-9-8.1-12.5c-10.9-21-21.9-41.9-23.8-69.2c26.1,16.3,42,38.4,58,65.3c-0.9-20.5,1-36.9,13.7-52.2
		C400.2,775.2,404.8,798.6,415.4,819.3z"/>
	<path class="st6" d="M997.4,196.7c4.2-4.4,9.9-5.6,17.8-7.2c-11.1-5-20.2-9-29.3-13.1c3-7.7,11.4-4.8,16.1-13
		c-3.6-2.7-8.2-5.6-12.1-9.1c-5-4.5-7.3-12.3-15.5-1.1c-6.6,9-19.3,0.2-29.2,1.4c7.8-16.1-14.7-9.4-14.8-19.6
		c5.7-1.5,11.4-3,17.1-4.4c-5.5-4.5-11.1-8.8-16.4-13.4c-3.2-2.8-1.8-4.7,1.9-5.5c1,0.1,2,0.2,2.9,0.3c2.8,4.4,6.8,7.1,11.7,4.7
		c5.3-2.6,0-6.4,0.1-9.7c0.1-2.6,1.3-4.3,3.2-5.8c5.2-1.8,9.4,16.8,15.5,0.8c0.1-0.2,2.1-0.3,2.4,0.1c5.7,8.2,16.4,12.7,18,23.8
		c1,6.5-3.3,10.3-8.4,13.9c5.1-1.1,14.3,9.8,13.6-6.2c-0.3-6.6,7.4-7.2,13.4-4c2.6,9.7-5.2,10.9-14.2,12.7c8.3,4.8,13.9,8.1,20.6,12
		c0-8.2,0-15.3,0-22.4c3.3,2.7,7,5.1,9.8,8.3c6.6,7.6,11.4,9.2,14.1-4.9c1.9,17.1,34.8,24.2,11.2,46.5c-6.2-8.7-15.4-0.6-22.6-3.9
		c-1-1.1-2.1-1.8-3.2-0.3c0,0.1,1.2,1.1,1.8,1.6c4.6,7.8,14.1,3.7,20,8.4c-1.5,15.2-11.5,16.7-23.2,13.5
		C1012.6,199.1,1005.4,195.9,997.4,196.7z"/>
	<path class="st5" d="M988.1,976.5c-20.1,8.2-39.8,17.7-65.2,22.7c12.9-20.3,28.7-33.4,42.6-48.1c9.5-5.7,18.2-12.5,26-20.4
		c24.9-16,50.6-30.4,80-36.9c3.5-0.8,7.9-3.7,10.4,0.6c2,3.3-1.7,6.2-3.6,8.9c-16.8,24.4-39.8,42.1-64,58.4
		C1005,965.5,996.3,970.6,988.1,976.5z"/>
	<path class="st3" d="M1172.6,1011.9c-32.7-2.6-62.4,6.5-89.8,23.5c-7.8,4.9-12.8,5.6-20.1-0.7c-10.5-9.1-22.1-16.9-35-26.5
		c44.3-21.6,89.5-28.2,136.5-25.2c0,0-0.3-0.1-0.3-0.1c0.3,0.9,0.7,1.9,1,2.8c1.2,2.5,0.6,6.4,5.1,6.2c0,0-0.2-0.3-0.2-0.3
		c-0.8,3-0.7,5.5,3.1,6.1c0,0-0.2-0.3-0.2-0.3C1170.9,1002.2,1176,1007.1,1172.6,1011.9z"/>
	<path class="st3" d="M342.4,982.7c14.7,0.1,29.3,0.1,44,0.2c1.9,1.6,3.9,2,6.1,0.8c18.4,4.5,36.9,8.9,55.3,13.4
		c7.1,4.6,15,7.3,23,9.6c-10.6,14.7-27.7,21.3-40.7,33.1c-3.8,3.4-7-1.2-10.1-3.1c-21.2-13.1-43.9-22-68.9-24
		c-1.8-1.7-3.9-1.7-6.1-0.7c-6.6-3.3-14.1,1.3-20.6-2.5c2.7-8,9.4-14.5,9.3-23.6c0,0-0.1,0.2-0.1,0.2
		C336.6,984.9,339.5,983.8,342.4,982.7z"/>
	<path class="st5" d="M393,882.9c6.4,2.7,5.5,6.7,2.4,11.5c-6.5,10.4-19.8,14.1-33.7,8.8c-10.6-4.1-19.5-11-26.9-19.5
		c-10.1-11.7-22.1-20.4-37.6-24.4c10.5-5,15.2-4.8,29.7,0.4c2.8,1,5.8,5.7,8.8,1.9c3.1-3.9-0.5-7.1-3.1-10
		c-13.2-14.7-26.5-29.4-41.6-46.2c18.1-3.1,31.8,1.6,45.2,8.2c3.6,3.5,5.8,9,12.2,8.5c0,0-0.2-0.2-0.2-0.2c-1.3,8,3.8,13,8.3,18.3
		c7.6,14.4,15.5,28.5,30.1,37.2c-4.1,6.4-9.5,2.7-14.1,1.2c-8.4-2.8-16.5-6.4-24.7-9.7C360.8,881,374.5,890.4,393,882.9z"/>
	<path class="st5" d="M1161,862.9c8.9-2.3,17.7-4.8,26.6-6.8c5.2-1.2,10.6-1.4,17.2,3c-17.8,3.9-29.8,14.3-41,26.5
		c-9.3,10.1-20.5,18.2-34.8,19.8c-16.1,1.8-27.2-8.8-24-22.5c17.2,5.8,32.2,2.6,44.5-11.2c2,0,3.9-0.2,4.3-2.6
		c0.1-0.4-1.2-1.6-1.6-1.5c-2.2,0.5-3,2.1-2.5,4.3c-11.3,0.1-20.6,11.8-32.9,5.8c10.9-12.6,22.1-25,28.9-40.6
		c4.2-4.2,8-8.6,6.9-15.1c0,0-0.2,0.2-0.2,0.2c4.8,0.8,6.7-2.7,8.6-6.1c13.7-9.2,28.6-12.9,46.9-11.5
		c-14.7,22.3-34.7,37.9-48.9,58.2c0.1,0.8,0.2,1.7,0.3,2.5C1159.9,864.5,1160.5,863.7,1161,862.9z"/>
	<path class="st5" d="M1184.3,734.3c-16,5.6-19,5.4-33.9-2.6c-0.5,12-3,23.1-18.3,20.9c-7.9-1.1-11.8-7.3-9.9-15.1
		c3.2-13.4,13.2-13.3,27.8-9.1c-12-20-0.2-41.1-11.3-59.2c-1.2-1.9-0.9-3.9,1.2-4.7c2.3-0.9,4.8-0.5,6.7,1.5
		c5.9,6.1,8.7,13.9,11.8,21.5c1.1,5.4,2.2,10.8,4,19.7c2.5-9.3,1.4-14.7,0-20c2.5-21.1-0.3-42.6,4.9-64.5
		c13.8,7.6,19.4,19.5,23.2,32.8c-3.2,4.6-2.6,9.7-2.2,14.9C1180.3,691.2,1176.6,712.4,1184.3,734.3z M1170.5,716.3
		c-0.8-1.2-1.5-2.4-2.3-3.6c-1-1.5-2-2.9-3-4.4c-1.9,2.5-0.6,4.4,1.3,6.1c0.9,1,1.8,2.1,2.7,3.1c1.3,0.7,2.5,1.4,3.8,2.1
		c0.4,0.5,0.8,1.1,1.3,1.6c0-0.3,0.1-0.8-0.1-1c-0.3-0.3-0.9-0.4-1.3-0.5C1172,718.6,1171.3,717.5,1170.5,716.3z"/>
	<path class="st6" d="M536.1,109.3c5.7-3.2,11.4-6.5,17-9.7c-5.1,16.7-5.1,16.7,13,15.3c1-0.1,3.2-0.3,2.5,2.5
		c-5.3,3.9-10.9,8-19.3,14.2c9.3-0.7,14.9,1.7,20.6,3.5c-5.1,6-5.1,6-21.4,10.6c-1,5,7.5,2.7,6,8.7c-11.3-1.1-24.2,8.8-33.8-6
		c-2.2-3.4-4.8,0.2-6.9,2.1c-4.9,4.6-10.1,9-14.7,13.1c3.4,8,11.6,5.4,15,11.4c-8.3,7.2-19.4,9.3-29.7,14.1
		c7.1,2.9,16.2,1.1,19,10.5c0,0,0.1-0.2,0.1-0.2c-5.4-2.8-10.9-2.9-16.4-0.3c-8.5,4.1-17.4,4-26.4,2l-0.3,0c-1-3.4-2.1-6.7-3.1-10.1
		c1.9-8.3,12.5-3.5,16.2-11.8c-9,1.1-10.6-2-4.8-8.3c2.6-2.8,5-5.7,7.5-8.6c0.6-4.6,2.5-8.3,7.2-10.1c9.2,1.5,15.5-4.7,22.7-8.5
		c4.2-0.9,8.4-1.9,12.8-2.8c-8.4-11.7,0.6-37.4,14-39.4c2.3-0.3,0.7,4.1,1.5,6.3c-1.2,1-2.1,2.1-0.4,3.3
		C534.3,111.1,535.4,109.9,536.1,109.3z"/>
	<path class="st5" d="M931.5,1007.4c24-0.4,41.8-14.5,60.3-27.1c7.7-4.7,15.5-9.5,23.2-14.2c22.4-6.4,42.8-0.4,65.3,10.5
		c-31.3,15.7-61.7,26.8-91.6,38.7c-12.4,2.6-24.9,5-37.4,2.3C944.2,1016.1,934.4,1017.8,931.5,1007.4z"/>
	<path class="st5" d="M1187.5,357c0.9,10.7,12,17,11.4,28.8c5.2-11.4,7.8-23.2,19.4-32.5c2.6,15.1,4.9,28.2,7,41.3
		c0.7,4.5,1.1,8.5,6.6,3.5c4.5-0.4,5.2,4.8,8.7,5.8c3.7,11.6,3.5,23.1-2.5,33.8c-3.8,6.9-10.4,10.1-18.4,9.5c-4.6-0.3-9.2-1.1-7-7.7
		c0.6,0.1,1.2,0,1.8-0.3c3.4-0.8,7.5-2,6.7-6c-0.6-3-4.1,0.3-6.3-0.2c-0.6-13.8-4-26.7-12.6-40.4c-0.7,17.3,6.3,31.3,5.1,46.2
		l-1.3,0.2c0,0-1.3-0.3-1.3-0.3c-7.8-12.6-15.7-25.3-23.5-37.9l0.2,0.3c-1.1-1-2.1-2.1-3.2-3.1l0.2,0.2c-0.3-2.1-0.7-4.2-1-6.3
		c-5.1-16-8.9-32.3-8.1-49.3c1.1,0,2.1-0.1,3.2-0.1c8.4,1.4,6.6,13.2,14.8,14.7L1187.5,357z M1224.9,407.8c3,1.8,4.1,2.4,5.1,3
		c0.4-0.8,1.3-1.6,1.1-2.2c-0.3-1-1.1-2.5-1.8-2.6C1228.1,405.9,1227,406.9,1224.9,407.8z"/>
	<path class="st5" d="M274.7,398c2.3-14.2,4.5-28.4,7.1-44.5c11.4,8.8,14.3,19.8,18,33.6c4.1-10.5,7.3-18.7,10.5-26.9l-0.1,0.1
		c2.5-1.3,2.6-3.8,3.1-6.1l-0.2,0.1c7.1-2.5,9.2-10.3,14.9-14.2c0.9,0.8,1.8,1.7,2.7,2.5c0.7,18.8-3.8,36.6-11,53.8
		c-4.8,5.5-7.7,11.9-9.5,18.8c-4.9,7.4-9.8,14.8-15.8,23.8c-4.1-13.9,3.3-25-0.1-38.3c-7.5,10.8-8.5,21.6-8.9,32.5c-1.5,0-3,0-4.6,0
		c-0.9-1-1.9-2.1-2.8-3.1c0,0,0.2,0.2,0.2,0.2c-0.3-1.8-0.9-3.3-3.1-3.1l0.1,0.2C275.1,417.7,274.9,407.8,274.7,398z M297.8,395
		c-0.2-0.4-0.5-0.8-0.7-1.2c-0.3,0.4-0.9,0.8-0.8,1.1c0.2,0.5,0.7,1,1.1,1.5C297.5,395.9,297.7,395.5,297.8,395z"/>
	<path class="st2" d="M930,932.9c20.9-16.9,44.2-29.5,69.6-38.2c0.6,10.7-4.1,19.9-8.5,29.2c-9.9,7.7-19.8,15.4-29.7,23.1
		c-18.5,11.6-37.5,22.7-46,44.6c-3.3-2.4-2.4-6-2.8-9.3C910.5,963,920.9,948.2,930,932.9z"/>
	<path class="st5" d="M988.4,1020.2c20.3-1,40.7-2.1,57.5,14.2c-23.3-6.5-43.4,3.2-63.9,10.9c-12,4.5-24.6,5.7-37.3,4.3
		c-18.7-2.1-31.1-17.6-28.9-35.4c0.4-3.6,1.5-5.4,5.3-4.7C941.3,1027.2,964.4,1026.3,988.4,1020.2z"/>
	<path class="st2" d="M544.2,950.3c-1.5-6.8-6.9-7.6-12.4-8.3c-5.9-4-11.9-8.1-17.9-12.1c-7.9-10.3-13.8-21.4-13.2-35
		c24.7,8.6,48.1,19.5,67,38.2c11.4,12,19.6,25.5,19.7,42.7c0,4.1,2.7,10.3-5.4,10.4C574.1,969.3,558.8,960.1,544.2,950.3z"/>
	<path class="st5" d="M576.6,1011.2c7-3.5,8.1,0.3,8.3,6.3c0.4,16.8-12.7,30.8-30.9,32.4c-15.3,1.3-29.8-1.8-44-7.2
		c-27.8-10.7-27.8-10.7-57-7.7c17.7-18.3,38.9-14.1,58.9-14.6C534.7,1026,556.9,1027.3,576.6,1011.2z"/>
	<path class="st5" d="M277.7,592.3c15.9,20.6,25.5,43.9,29.4,69.6c0.3,2.3,0.6,4.5,0.9,6.8c3.7,15.1,4.3,30.4,3.3,45.9
		c-0.3,4.4-0.2,9.1-6.9,7.9c0,0,0.1,0.1,0.1,0.1c-2.1-12-10.1-21.3-14.6-32.2c-1.9-8.2-4.3-16.3-9-23.4l0.1,0.2
		c-0.1-3.3,0.5-6.8-2.9-9c-3.4-21.4-6.6-42.7-3.1-64.4C276,593.3,276.9,592.8,277.7,592.3z"/>
	<path class="st5" d="M421.4,205.2c5.9-4.9,11.7-9.8,17.6-14.8l-0.1,0.1c4.5,0.8,7.7-2.7,11.6-3.6c1,1.2,2,2.4,3,3.5
		c-2,3.9-3.9,7.8-5.9,11.7c-4.9,6.9-13.4,11.1-14.7,20.5c-5.6,5.2-8.2,14.1-17.7,14.5c-7.4-8.3-10.5,4.7-16.5,3.4
		c-1.2-0.1-2.4-0.3-3.6-0.4c-0.1-1.9-0.2-3.9-0.3-5.8c9.2-1.3,9.4-6.4,6.3-12.9c-3.9,3.8-9,6.7-9,12.7c-1.7,1.2-3.4,2.3-5.1,3.5
		c-0.5-0.4-1.1-0.9-1.6-1.3c0.4,0.5,0.9,1.1,1.3,1.6c1.2,2.8,1,5.5-1,8c-0.6,0-1.2-0.1-1.8-0.1c-13.6-9-15.7-16.9-6.9-31.6
		c4.5-7.6,9.4-14.7,10.7-23.7c0,0,0.1,0.1,0.1,0.1c7.4,4.3,1.7,11.2,3.5,17.7c12-5.4,13.8-19.6,24.2-26.3c7.6,7.4-1,15.2,0.5,22.6
		c-3.7,2-3.4,5.6-3.5,9c-1.3,1.2-2.5,2.4-3.8,3.5c0.6,0.4,1.1,0.8,1.7,1.1c0.7-1.5,1.4-3.1,2.1-4.6
		C418.1,213.6,421.1,210.8,421.4,205.2z M388.1,221.9c-0.8-0.3-1.8-1.1-2.3-0.9c-0.6,0.2-0.7,1.5-1.1,2.3c0.8,0.3,1.8,1.1,2.3,0.9
		C387.6,224,387.8,222.7,388.1,221.9z"/>
	<path class="st6" d="M1223.1,590.9c0,0,0.2,0,0.2,0c2.4-4.1-6.1-7.1-1.2-11.5c2.7-4.6,6.2-8.9,6.1-14.7c1.5-4.9,2.6-9.8,1.4-15
		c-0.5-0.9-0.9-1.8-1.4-2.6c0,0,0,0.1,0,0.1c2.6,0.5,2.9-1.3,3.2-3.1c0,0-0.2,0.2-0.2,0.2c2-0.1,3-1.1,3.1-3.1c0,0-0.2,0.2-0.2,0.2
		c1.9-0.1,3-1.2,3.1-3.1c0,0-0.2,0.2-0.2,0.2c1.9-0.2,3-1.2,3.1-3.1c0,0-0.2,0.2-0.2,0.2c1-1,2.1-2.1,3.1-3.1c0,0-0.2,0.2-0.2,0.2
		c1-1,2.1-2.1,3.1-3.1c0,0-0.2,0.1-0.2,0.1c1.9,0.2,3.8,0.3,5.7,0.5c-0.5,3.6-1.1,7.3-1.6,10.9c-0.9,2.4-2.8,5.7,0.3,6.7
		c2.2,0.7,2.3-3.1,3-5.1c6.4-8.1,11.2-18.1,26-21.4c-11.7,12.9-13.3,26.8-16.5,40.3C1257.4,583.6,1251.2,587.8,1223.1,590.9z"/>
	<path class="st6" d="M252.2,523.9c7.1,5,12.7,11.4,17.2,18.8c0.4,12.9-0.3,26,9.1,36.7c-4.2,11.1-17.2,14-27.5,6
		c-7.2-5.6-11-13.6-13-22.2c-3.2-13.9-4.5-28.3-16.6-41.4c14.4,1.9,18.3,12.6,25.7,19.3C250.5,535,247.6,528.3,252.2,523.9z
		 M263.4,570.7c-1-1-2-2-2.9-3c-0.5-3.9-2.2-7-5.9-8.7c-0.1-2.4-0.3-4.7-2.9-5.9c-0.3-0.3-0.7-0.5-1-0.8c0.4,0.2,0.8,0.4,1.2,0.7
		c0.4,2.2,0.3,4.7,2.9,5.9c0.2,4.1,0.3,8.3,5.9,8.7c0,1.9,1,2.9,2.9,3c1,1,1.9,2,2.9,2.9l0.5,0.8c0,0-0.7-0.6-0.7-0.6
		C265.4,572.7,264.4,571.7,263.4,570.7z"/>
	<path class="st5" d="M320.3,716.8c1.1-16.1-5-31-7.1-46.6c0-3,0.7-6.2-2.1-8.6c-1.9-17.5,7.5-28.9,21.6-39.9
		c4.7,22,4.1,42.7,4.6,63.2c-1.2,9.7-2.4,19.4-3.7,29.1l0.1-0.2c-3.4-1.8-3.9,1.5-5.5,3C325.6,716.8,322.9,716.8,320.3,716.8z"/>
	<path class="st5" d="M263.9,696c-8.1-17.8-16.2-35.7-25.2-55.4c17.5,1.2,27.9,9.6,37.1,20.4c1.2,2.6,1.3,6.2,5.4,6.3
		c0,0-0.1-0.2-0.1-0.2c-1.3,8.3,0.8,15.9,4.1,23.4c2.2,10.9,6.4,21.1,11.3,30.9c-0.3,1.5-0.6,3.1-0.9,4.6c-1.9-0.2-3.8-0.3-5.8-0.5
		l0.2,0.1c-1.2-2.5-3.4-3.4-6.1-3.1l0.2,0.2c-0.1-2-1.3-2.9-3.1-3.1l0.2,0.2c-1-1-2.1-2.1-3.1-3.1c0,0,0.2,0.2,0.2,0.2
		c-1-1-2.1-2.1-3.1-3.1c0,0,0.2,0.2,0.2,0.2c-1-1-2.1-2.1-3.1-3.1c0,0,0.2,0.2,0.2,0.2c-0.3-1.8-1.1-3-3.1-3.1l0.2,0.2
		c-0.2-1.9-0.7-3.4-3.1-3.1l0.2,0.2C268.2,701.4,266.7,698.5,263.9,696z"/>
	<path class="st6" d="M295.5,726c0.3-1.5,0.6-3.1,0.9-4.6c2.7,0.3,4.6,6.1,8.2,1.3c0,0-0.1-0.1-0.1-0.1c0.9,8.7,5.8,18.7-7.6,22.7
		c-13.6,4.1-23.2-2.1-31.9-11.6c-12.1-13.2-14.6-32.8-30.7-43.8c10.6-2.6,10.6-2.6,26.3,9.5c1.2,2.8,2.7,5.2,5.9,5.9
		c0,0-0.2-0.2-0.2-0.2c1,1,2.1,2.1,3.1,3.1c0,0-0.2-0.2-0.2-0.2c0.2,1.8,1.2,3,3.1,3.1c0,0-0.2-0.2-0.2-0.2c0.3,1.8,1.1,3.1,3.1,3.1
		c0,0-0.2-0.2-0.2-0.2c0.1,2,1,3.1,3.1,3.1c0,0-0.2-0.2-0.2-0.2c0,2.1,1,3.1,3.1,3.1c0,0-0.2-0.2-0.2-0.2c-0.1,2.2,1,3.1,3.1,3.1
		c0,0-0.2-0.2-0.2-0.2c0.7,3.6,3.3,3.4,6.1,3.1c0,0-0.2-0.1-0.2-0.1C291.3,729.8,293.4,728.3,295.5,726z"/>
	<path class="st1" d="M1061.7,190.6c5.8,6,11.1,12.9,20.5,13.3c0,0,0,0.5,0,0.5c0.1-6-2.1-12.1,1-17.9c2,0.3,3.9,0.6,5.9,0.9
		c6.4,8.7,12.8,17.5,19.3,26.2c0.1,2.1,0.2,4.1,0.2,6.2c-0.1,3.6-1.8,5.6-5.6,5.8c-1.8,0.6-5.3-1.2-4.5,2.7c0.3,1.8,2.6,2.4,4.2,0.4
		l0,0c-3.5,3,0.4,5.8,0.2,8.7c-2.3,0.1-4.6,0.2-6.9,0.4c-3.7-0.1-7.3-0.3-11-0.4c0,0-0.1-0.1-0.1-0.1c0.9-6.6-2.3-9.1-8.6-8.6
		c0,0,0,0,0,0c-0.1-3.6-1.6-5.8-5.5-5.5c0,0-0.1-0.2-0.1-0.2c-7.1-9.6-17.4-16.8-20.8-29c1.4-1.3,2.8-2.5,4.2-3.8
		C1056.7,190.2,1059.2,190.4,1061.7,190.6L1061.7,190.6z M1086.6,212c-0.8,4,0.8,5.8,2.6,7.3c2,1.7,4.1,4.7,6.8,0.4
		C1094.8,215.3,1092.3,212.3,1086.6,212z"/>
	<path class="st2" d="M375.4,327.5c5.6,0,11.2,0,19.6,0c-6.5,4.1-10.3,6.6-14.2,9.1c-10,5.5-16.9,16.6-29.9,16.9
		c-2.3-2.9-5.5-2.2-8.6-2.1c-4.6-1.3-6.7-5.1-8.9-8.7c0.4-3.9,2.3-5.8,6.4-5.3c3.2,3.5,7.5,1.9,11.4,2.3c0.4,0.2,0.8,0.4,1.3,0.6
		c-0.4-0.2-0.8-0.5-1.2-0.7c-1-3-2.1-6-3.1-9c1.3-2.7,4-5,3.1-8.5l-0.1,0.1c4,0.2,4.7-2.7,5.4-5.7c2.6-1.2,3.3-3.4,3.3-6l0.1-0.2
		c6.8-0.8,7.7-6,8.4-11.3c0,0,0.2-0.2,0.2-0.2c4.9-2,9.9-4,14.8-6c4.4,1,10.9-2.5,12.9,2.9c1.9,4.9-5.7,7-7.1,11.6
		c-4.9,4.9-9.7,9.8-14.6,14.7c-8,0.7-11.2,7.9-19.1,12C365.8,336.5,370.3,331.3,375.4,327.5z"/>
	<path class="st6" d="M320.3,716.8c2.7,0,5.3,0.1,8,0.1c4.3,3.4,5,0.5,5.5-3c0,0-0.1,0.2-0.1,0.2c7.6-8.4,6.2-19.5,8.9-29.3
		c3.8-5.8,5.2-17.8,11.6-16.4c8.2,1.9,1.5,12.2,2.4,18.8c1.9,13-1.1,25.7-2.4,38.5l0.2-0.1c-2.3-0.3-2.8,1.4-3.2,3.1l0.1-0.3
		c-2.1,1.9-4.1,4.1-6.4,5.8c-8.4,6-17.7,6.5-25.7,0.6C311.6,729.3,319.9,722.8,320.3,716.8z"/>
	<path class="st5" d="M1090.6,956.4c-11.2,0.2-20.3-8.5-20.8-19.9c-0.5-12.1,8.3-21.2,20.6-21.3c11.7,0,20.5,8.2,20.9,19.6
		C1111.8,946.1,1102.2,956.2,1090.6,956.4z"/>
	<path class="st5" d="M430.3,935.1c0.3,11.1-8.5,20.7-19.3,21.3c-11.6,0.6-21.7-8.7-22-20.2c-0.3-11.8,8.8-21,20.9-20.9
		C421.6,915.2,430,923.4,430.3,935.1z"/>
	<path class="st6" d="M310.2,415.1c1.8-6.9,4.7-13.4,9.5-18.8c10.5-5.5,19.9-13.8,34.7-12.5c-5.9,16.7-17,29.3-25.2,43.5
		c-0.5,1-1,2-1.5,3l0.2-0.2c-1,1-2.1,2.1-3.1,3.1l0.2-0.2c-1,1-2.1,2.1-3.1,3.1l0.2-0.2c-1,1.1-2.1,2.1-3.1,3.2c0,0,0.2-0.2,0.2-0.2
		c-1,1-2.1,2.1-3.1,3.1l0.2-0.2c-10.1,1.5-14.6,0-7.6-11C311.4,426.7,318.1,421.1,310.2,415.1z"/>
	<path class="st6" d="M878.7,101.7c-6.2-6.4-1-6.4,3.8-6.9c4.4-0.4,14,3.5,6.9-7.6c1.9-0.7,4.9-2.6,5.6-1.9c6.7,6.2,15.4,4,22.9,6.2
		c7.9,2.3,11.4,8.5,8.1,17c-4,0.6-8.8-1.4-12.5,4.5c7.9,1.9,11,6.2,5.1,13.2c-6.9,2.2-13.9,1.7-20.9,1.3c-0.9-5.1,9.8-11.9-2.4-15.1
		C891.4,106.1,885.2,103.6,878.7,101.7z"/>
	<path class="st6" d="M603,128.3c-7.5-3-16.1,1-23.4-3.5c-2.1-8.3-4.2-16.7-6.3-25c6.5-15.6,21.8-10.3,34.6-14.8
		c-1,4-1.8,6.9-2.7,10.3c1.5,2.1,4.3,1.6,6,0.7c4.1-2,8.6-1.1,10,2c1.8,4-3.2,7.8-6,7.4c-8-1-4.9,10.9-12.3,9.5
		c-3.2,0.3-5.3,2.1-5.5,5.3c-0.2,3.3,2.7,3.2,5,3.6c0.3,0.9,0.8,1.7,1.4,2.5l-1,0.8L603,128.3z"/>
	<path class="st2" d="M356.6,275.1c9.3-6.2,15.7-16.1,26.2-20.8c0.5,0.6,1.1,1.2,1.7,1.7c-0.2,16.2-11.1,28.4-15.9,42.8
		c0,0-0.2,0.2-0.2,0.2c-7.6,0.2-8.7,5.3-8.4,11.4c0,0-0.1,0.2-0.1,0.2c-3.2,0-5.3,1.2-5.8,4.7c-2.2,1.9-5.8,3.1-3,7
		c0,0,0.1-0.1,0.1-0.1c-5-3.4-6.8,3.2-10.6,3.4c-1.6-0.2-3.2-0.4-4.7-0.6c0-7,6-13,3.7-20.5l0.1,0c7-0.7,7.5-6.4,8.6-11.6
		c0-0.9,0-1.8,0-2.8c3.6-0.3,5.7-2.1,5.8-5.9C357.5,281.8,357.1,278.4,356.6,275.1z"/>
	<path class="st6" d="M1203.3,443.6c5.6,4.8,2,8.6-1.6,11.9c-5.2,4.9-11.3,7.3-18.6,4.8c-8.7-2.9-14.9-9.1-19.5-16.6
		c-5.5-8.8-11.6-16.6-23-21.3c10.7-6.7,17.9,4.9,26.4,2c0,0-0.1-0.3-0.1-0.3c-2.6,3.5,0.8,4.4,2.6,5.9c9.8,0.3,15.1,13.6,26.5,9.4
		C1198.5,440.9,1200.9,442.2,1203.3,443.6z"/>
	<path class="st2" d="M879.8,968.9c10.9-10.4,21.5-21.4,36.5-26.2c-9.1,17.8-13.9,35.9-4.7,55.3
		C893.9,1001.9,881.1,990.2,879.8,968.9z"/>
	<path class="st5" d="M1196.2,439.5c-11.4,4.2-16.6-9.1-26.5-9.4c0.8-2.7,0.6-5-2.6-5.9c0,0,0.1,0.3,0.1,0.3
		c-3.6-14.8-16.7-24.7-20.9-40.1c10.7-2.3,18.8,3,27,7.6c1.9,2.1,3.7,4.1,5.6,6.2c0,0-0.2-0.2-0.2-0.2c1.1,1,2.1,2.1,3.2,3.1
		c0,0-0.2-0.3-0.2-0.3C1181.5,415.6,1188.8,427.6,1196.2,439.5z"/>
	<path class="st2" d="M585.2,944.8c15.4,3.3,25.7,13.8,35.3,25.2c-1.6,18.6-9.1,26.4-29.3,30.3C593.8,981.3,596.1,962.3,585.2,944.8
		z"/>
	<path class="st5" d="M1155.5,302c-4.5-7.6-9.5-14.9-9.2-24.3c3.3-7.3,6.7-14.7,11-24.1c7.8,15,13.4,29.1,18.2,43.5
		c0.4,9.3,1.6,18.8-3.7,27.3C1167.1,316.4,1169.2,303.4,1155.5,302z"/>
	<path class="st6" d="M280.9,433.2c1.5,0,3,0,4.6,0c0.7,4.4,1.9,8.9,0.3,13.4c-18.6,1.8-27-5.5-28-24.1c-0.8-13.5,3.6-27.1-3.7-43.8
		c11.6,6.2,12.9,14.8,15.9,22.2c1.6,8.9,0.8,18.4,5.5,26.7c0,0-0.1-0.2-0.1-0.2c0.2,1.8,1,3.2,3.1,3.1c0,0-0.2-0.2-0.2-0.2
		C278.6,431.5,277.7,434.2,280.9,433.2z"/>
	<path class="st6" d="M1171.8,324.4c5.2-8.6,4.1-18,3.7-27.4c6.6-6.3,0.8-17.3,10.6-24.7c-0.3,14.9,6.5,27,8.1,40.3
		c1.7,15.1-5.9,22.2-23.6,23.5c0,0,0.2-0.3,0.2-0.3c-0.1-1.5-0.2-3.1-0.3-4.6C1173.4,329.5,1173.1,327,1171.8,324.4z"/>
	<path class="st5" d="M1200.8,512.2c1.2-18.5-0.1-37.5,9.9-56.4c10.3,14.4,12.6,29.5,14.9,44.6c-2.5,1.5-5.4,2.5-5.9,6
		c0,0,0.2-0.2,0.2-0.2c-2,0.1-3.3,0.8-3.1,3.1c0,0,0.2-0.2,0.2-0.2c-2.9-0.6-5.1-0.1-6.1,3.1c0,0,0.2-0.2,0.2-0.2
		C1207.6,512.2,1204.2,512.2,1200.8,512.2z"/>
	<path class="st6" d="M275.2,500.5c0.9-15.6,5.1-30.1,13.7-45.2c11.1,18.8,9.6,38,10.1,56.9c-3.1,0-6.2,0-9.4,0c0,0,0.2,0.2,0.2,0.2
		c-1.8-3.8-4.9-5.7-9-6c0,0,0.2,0.2,0.2,0.2C279.1,504.5,277.2,502.5,275.2,500.5z"/>
	<path class="st6" d="M333.7,427.4c7.6-3.7,14.8-8.9,27.6-6c-14.8,6.2-20.5,17.4-28.2,27.1c-11.7,14.8-22.7,16-37.1,5.1
		c-0.8-4.9,1.5-6.7,6.2-6.6c5.2,0,10.2-0.9,14-5c0,0-0.2,0.2-0.2,0.2c1-1,2.1-2.1,3.1-3.1c0,0-0.2,0.2-0.2,0.2
		c1-1.1,2.1-2.1,3.1-3.2c0,0-0.2,0.2-0.2,0.2c1-1,2.1-2.1,3.1-3.1c0,0-0.2,0.2-0.2,0.2c1.9-0.2,3-1.1,3.1-3.1c0,0-0.2,0.2-0.2,0.2
		C330.5,430.9,332.4,429.7,333.7,427.4z"/>
	<path class="st5" d="M356.6,275.1c0.5,3.4,0.8,6.8-2.5,9.1c-3.2,0.7-9.8-1.9-5.8,5.9c0,0.9,0,1.8,0,2.8c-5,2.2-10,4.5-8.6,11.6
		c0,0-0.1,0-0.1,0c-7.5,3.5-8.1,11.6-11.8,17.7c-1.1,0-2.3,0-3.4,0c-2.8-6.7-3.2-13.6-2.3-20.7l-0.2,0.4c2.1-1.6,3-3.6,2.5-6.2
		c5.1-11.6,10.2-23.3,15.3-34.9c2,0,4-0.1,6-0.1c1.9,5.3,3.8,10.6,5.8,15.9c0,0,1.1,0.9,1.1,0.9s1.1-0.8,1.1-0.8
		C354.7,276.1,355.7,275.6,356.6,275.1z"/>
	<path class="st5" d="M483.5,152.3c-4.7,1.7-6.5,5.4-7.2,10c-15.1-2.2-14.6,13.7-22.8,19.5c-10.7-9.7-6.4-35.9,4.4-33.2
		c17,4.3,17.7-11.8,27.6-14.6C492,140.9,483.6,146.1,483.5,152.3z"/>
	<path class="st6" d="M324.4,322.1c1.1,0,2.3,0,3.4,0c-0.1,4.6-0.1,9.2-0.2,13.8c-17.2-2.1-21.8-7.6-21-24.3
		c0.6-13.1,9.3-24.4,6.7-40.1c8.6,7.8,7.2,16.6,9.1,24.1c-0.2,2.1-0.4,4.1-0.5,6.2c0,0,0.2-0.4,0.2-0.4
		C319.5,308.7,315.4,316.1,324.4,322.1z"/>
	<path class="st6" d="M1223.1,777.9c-1,9.1-6.8,14-15.5,13.7c-7.4-0.2-13.2-4.8-13-12.9c0.2-9.1,5.7-14.4,14.9-14.5
		C1218.1,764,1222.7,768.8,1223.1,777.9z"/>
	<path class="st5" d="M291.6,791.7c-8.5-1.4-14.4-5.7-14.1-15.1c0.2-8,4.9-12.4,12.9-12.5c9.2-0.1,14.7,5.3,15.2,14
		C306,786.9,299.8,790.7,291.6,791.7z"/>
	<path class="st5" d="M354,725.6c3.3,0,6.6-0.3,9.9,0c9,0.9,14.3,5.7,14.1,15c-0.1,8.2-5.1,12.6-13,12.4
		c-8.8-0.3-14.4-5.2-14.6-14.6c-0.1-3.3,0.5-6.7,0.7-10c0,0-0.1,0.3-0.1,0.3c2.4,0.3,3.6-0.6,3.2-3.1L354,725.6z"/>
	<path class="st5" d="M304.7,512.3c6.6-7.8,14.3-14,25.2-17.3c2.3,11.6-4.4,21.4-5,31.9C314.9,526.5,305.6,525.3,304.7,512.3z"/>
	<path class="st3" d="M1132,298.6c-11.1-0.3-16.8-7.8-19-17c-2.5-10.5-6.9-14.2-17.2-9.8c-1.2,0.5-3.4-1.1-9.5-3.2
		c12.8-1.9,21.7-4,23.2-14.8c1.5,0.4,3,0.7,4.5,1c2.5,16.1,11.1,29.6,17.9,43.9L1132,298.6z"/>
	<path class="st5" d="M1175.5,527.4c-1.2-10.4-6.4-20.1-5.7-31.8c11.5,2,18.8,9.3,25.9,16.9C1194.8,525.4,1185,526.2,1175.5,527.4z"
		/>
	<path class="st6" d="M1253.8,629c-7.8-0.6-11.5-5.2-11.1-12.4c0.4-8,5.6-12.5,13.2-12.3c7.2,0.1,11.5,4.7,10.9,12.3
		C1266.2,624.6,1261.5,628.6,1253.8,629z"/>
	<path class="st6" d="M246.3,629.1c-8-0.5-12.5-5-12.8-12.9c-0.3-7.6,4.4-12,11.8-11.8c7.2,0.2,11.8,4.8,12.2,12.1
		C257.9,623.8,254.2,628.4,246.3,629.1z"/>
	<path class="st6" d="M259.4,479c-7.3-1.5-12-5.3-11.5-12.7c0.4-6.9,5.2-10.2,11.8-9.7c6.7,0.6,10.1,4.7,10.1,11.6
		C269.9,475.6,265.4,478.2,259.4,479z"/>
	<path class="st6" d="M1242.2,456.4c6.7,1.1,10.5,5,9.8,12c-0.7,6.8-5.2,10.6-11.9,10.3c-6.8-0.3-10.7-4.8-9.9-11.7
		C1230.9,460.3,1235.4,456.8,1242.2,456.4z"/>
	<path class="st6" d="M324.9,602.6c0.1,2.4,0.2,4.8,0.2,7.2c-0.1,6.1-2.7,10.3-9.2,10.8c-5.5,0.4-9.5-2.2-11-7.5
		c-1.7-6.2-0.7-11.7,6.1-14.3c2.6-1,5.5-1.3,8.3-2c0,0-0.2-0.1-0.2-0.1c-0.5,2.5,1.3,2.9,3.1,3.2c0,0-0.3-0.3-0.3-0.3
		c0.3,1.8,1.1,3.2,3.2,3.2L324.9,602.6z"/>
	<path class="st1" d="M1111.1,210.4c-0.2-3.4,1.5-6.8,4.6-4.6c7.9,5.6,11.5,14.2,11.8,23.7c0.3,8.8-3.6,14.8-13.2,15.8
		c-0.3-0.9-0.9-1.6-1.8-2.1c-1.4-3.9-2.8-7.8-4.2-11.7c2,0,3.9,0,5.9,0c1,1.9,2.1,2,3.1,0c-0.4-4,1.3-8.6-2.9-11.7
		C1113.3,216.6,1112.2,213.5,1111.1,210.4z"/>
	<path class="st6" d="M1187.7,357.2c0.1-2.8-0.1-5.7,0.3-8.5c0.9-6.6,4.6-10.8,11.5-10.1c5.5,0.6,8.5,4.7,8.1,10.2
		c-0.6,6.9-4.9,10.1-11.9,9.5c-2.8-0.3-5.5-0.8-8.2-1.2C1187.5,357,1187.7,357.2,1187.7,357.2z"/>
	<path class="st6" d="M1192.9,600.5c2.3,3.3,3.8,6.8,3,10.9c-1.3,6.9-6,10.6-12.5,9.1c-9.9-2.4-8.6-10.1-6.6-17.6
		c1.6-0.5,2.3-1.5,1.9-3.2c0,0-0.1,0.1-0.1,0.1C1183.3,600,1188.1,600.2,1192.9,600.5z"/>
	<path class="st6" d="M1064.3,874.3c8.8-7.1,19.2-5.5,29.3-5.6c-1.7,4.5,2.6,11.9-4.7,13.4C1079.6,884,1070.4,883.4,1064.3,874.3z"
		/>
	<path class="st6" d="M310.4,360.1c-2-3.3-5.2-1.4-7.8-1.7c-6.2-0.8-9.7-4.2-9.7-10.5c0-4.9,2.8-8.6,7.6-9.2
		c6-0.8,10.2,2.3,11.5,8.5c0.5,2.3,0.8,4.7,1.2,7.1c0,0,0.2-0.1,0.2-0.1c-2.9,1.1-5.8,2.2-3.1,6.1L310.4,360.1z"/>
	<path class="st6" d="M406.7,868.8c10.3-0.6,20.4-0.2,29.6,5.4c-1.9,4.3-5.9,5.9-9.9,7.3C412.7,886.2,408.2,883.3,406.7,868.8z"/>
	<path class="st6" d="M326.3,477.1c-0.3,5.7-3.1,9.5-8.7,9.9c-6.2,0.4-10.5-3.1-11.2-9.1c-0.7-6.3,3.1-10.4,9.3-10.6
		C321.9,467.1,325.3,471.1,326.3,477.1z"/>
	<path class="st6" d="M1193.7,476.6c-0.3,6.3-3.6,10.1-9.8,10.5c-5.5,0.3-9.7-2.6-9.9-8.4c-0.2-6.7,3.3-11.3,10.4-11.4
		C1190.1,467.3,1193.1,471,1193.7,476.6z"/>
	<path class="st6" d="M342.3,351.4c3-0.1,6.2-0.8,8.6,2.1c0.7,1.7,1.2,3.6,2.2,5.1c3.6,5.1,4,9.7-1.4,13.7
		c-3.6,2.7-7.3,2.3-10.5-0.6c-4.3-3.8-4.5-8.4-1.1-12.8C342,356.5,343.9,354.6,342.3,351.4z"/>
	<path class="st6" d="M1148,249.6c-0.3,6.1-3.4,9.3-9.1,9.3c-4.9,0-8.3-2.8-8.4-8c-0.1-5.5,3-9.5,8.4-9.9
		C1144.6,240.5,1147.5,244.3,1148,249.6z"/>
	<path class="st6" d="M286.1,584.7c3.2-3.7,6.4-7.4,9.5-11.2c0.2,6.2,4.2,6.6,8.9,5.9c0,0-0.2-0.2-0.2-0.2c-0.1,5.4,3.4,7.8,7.9,9.4
		C301.5,601.4,294,591.8,286.1,584.7z"/>
	<path class="st6" d="M369.8,249.2c-0.2,6.2-3.2,9.4-8.9,9.6c-5.1,0.1-8.2-3.1-8.7-7.9c-0.5-5.5,2.4-9.6,8-10
		C365.9,240.5,368.9,244.3,369.8,249.2z"/>
	<path class="st6" d="M1019.9,887.6c7.8-8.2,18.2-8.4,28.4-9.7C1042.2,893.3,1034.1,896.1,1019.9,887.6z"/>
	<path class="st6" d="M452.1,878c10.4,0.6,20.4,2.3,28.3,9.9C465.7,895.9,458.2,893.3,452.1,878z"/>
	<path class="st6" d="M1205.1,573.8c2.8,3,5.6,6,8.4,9c-2.9,10.3-11.6,10.8-20,11.7c-8.1-6.8,5.2-9.6,2.8-15.3c0,0-0.2,0.2-0.2,0.2
		C1200.8,580.3,1204.5,579.5,1205.1,573.8z"/>
	<path class="st6" d="M1061.7,190.6c3.4-2.9-0.2-6.2,0.5-9.3c1-4.8,3.4-8,8.6-7.6c3.8,0.3,5.9,3,6.6,6.5c1.1,5.4-2.2,7.7-6.6,9.3
		C1067.8,190.7,1064.3,186.7,1061.7,190.6C1061.7,190.6,1061.7,190.6,1061.7,190.6z"/>
	<path class="st6" d="M439,190.5c-2.7-4.2-6.1,0.1-9.1-0.8c-4.7-1.4-7.6-4.3-7.2-9.3c0.3-3.8,2.9-6.3,6.6-6.5
		c5.1-0.3,7.8,2.7,8.8,7.6c0.6,3-3.2,6.5,0.8,9.2C438.9,190.6,439,190.5,439,190.5z"/>
	<path class="st6" d="M1240.7,404c-3.5-1-4.3-6.3-8.7-5.8c0.7-4.3,2.1-8.3,6.5-12.8C1241.1,392.3,1242.1,397.9,1240.7,404z"/>
	<path class="st6" d="M1111.8,190.2c1.7,4.6,4.1,9.4,0.6,15C1106.4,199.7,1108.8,195.1,1111.8,190.2z"/>
	<path class="st6" d="M412.6,213.9c0.1-3.4-0.3-7,3.5-9c1.8,0.1,3.6,0.2,5.3,0.4C421.1,210.8,418.1,213.6,412.6,213.9L412.6,213.9z"
		/>
	<path class="st6" d="M311,661.6c2.8,2.3,2.2,5.5,2.1,8.6c-1.7-0.5-3.4-0.9-5.1-1.4c-0.3-2.3-0.6-4.6-0.9-6.8
		C308.5,661.8,309.7,661.7,311,661.6z"/>
	<path class="st6" d="M1111.1,210.4c1.1,3.1,2.2,6.3,3.3,9.4c-2,0-3.9,0-5.9,0c-0.1-2.1-0.2-4.1-0.2-6.2
		C1109.2,212.5,1110.2,211.4,1111.1,210.4z"/>
	<path class="st7" d="M392.5,983.7c-2.2,1.2-4.3,0.7-6.1-0.8C388.9,979.3,390.8,980.5,392.5,983.7z"/>
	<path class="st6" d="M345.7,260.5c-2,0-4,0.1-6,0.1c0-2.6,1.1-4.8,3.8-4.6C344.3,256.2,345,259,345.7,260.5z"/>
	<path class="st7" d="M345.1,1011.8c2.2-1,4.2-0.9,6.1,0.7C348.7,1015.7,346.8,1014.8,345.1,1011.8z"/>
	<path class="st7" d="M266.5,705.2c-3.2-0.8-4.7-3.2-5.9-5.9c1.1-1.1,2.2-2.2,3.3-3.3C266.7,698.5,268.2,701.4,266.5,705.2z"/>
	<path class="st5" d="M1047.2,187.6c1-0.1,2-0.3,3-0.4c1.3,0.9,2.6,1.9,3.9,2.8c-1.4,1.3-2.8,2.5-4.2,3.8
		C1047.7,192.3,1047.1,190.1,1047.2,187.6z"/>
	<path class="st7" d="M275.2,500.5c2,2,3.9,4,5.9,6c-3,0.9-5-0.1-5.9-3.1C274.9,502.4,274.9,501.4,275.2,500.5z"/>
	<path class="st7" d="M321.9,301.8c0.2-2.1,0.4-4.1,0.5-6.2c0.6-0.1,1.3-0.1,1.9,0C324.9,298.2,324,300.2,321.9,301.8z"/>
	<path class="st7" d="M333.7,427.4c-1.3,2.3-3.2,3.5-5.9,3c0.5-1,1-2,1.5-3C330.7,427.3,332.2,427.3,333.7,427.4z"/>
	<path class="st7" d="M1161,862.9c-0.6,0.8-1.1,1.6-1.7,2.3c-0.1-0.8-0.2-1.7-0.3-2.5C1159.7,862.6,1160.4,862.6,1161,862.9z"/>
	<path class="st6" d="M1089.1,187.4c-2-0.3-3.9-0.6-5.9-0.9C1085.9,181.7,1087.5,184.5,1089.1,187.4z"/>
	<path class="st6" d="M1111.6,245.5c0.2-0.8,0.5-1.6,1-2.3c0.9,0.4,1.5,1.1,1.8,2.1c0,0-1.3,0.5-1.3,0.5L1111.6,245.5z"/>
	<path class="st6" d="M387.9,190.8c0,0-0.1-0.1-0.1-0.1C387.8,190.7,387.9,190.7,387.9,190.8z"/>
	<path class="st6" d="M1082.1,204.4c0,0,0-0.5,0-0.5C1082.2,203.9,1082.1,204.4,1082.1,204.4z"/>
	<path class="st8" d="M1170,339.3c-1.2-0.8-2.5-1.6-3.7-2.4c1.5-0.4,2.9-0.7,4.4-1.1c0,0-0.2,0.3-0.2,0.3
		C1170.3,337.2,1170.2,338.2,1170,339.3z"/>
	<path class="st0" d="M292.8,114.5c0.6-0.5,1.1-0.9,1.7-1.4c0,0.4,0,0.8,0.1,1.2c-0.6,0-1.3-0.1-1.9-0.1
		C292.6,114.2,292.8,114.5,292.8,114.5z"/>
	<path class="st8" d="M277.7,592.3c-0.9,0.5-1.7,1-2.6,1.5C275.5,592.4,276.2,591.6,277.7,592.3z"/>
	<path class="st6" d="M385.8,246c0.2,1,0.4,2,0.5,3c-0.8-1-1.6-2.1-2.3-3.1C384.6,245.9,385.2,246,385.8,246z"/>
	<path class="st5" d="M382.9,254.3c1.2-1.1,2.3-2.2,3.5-3.3c0,0.6-0.1,1.2-0.1,1.7c-0.6,1.1-1.1,2.1-1.7,3.2
		C384,255.4,383.4,254.8,382.9,254.3z"/>
	<path class="st6" d="M353.7,276.6l-1.1,0.8c0,0-1.1-0.9-1.1-0.9C352.2,276.3,353,276.3,353.7,276.6z"/>
	<path class="st9" d="M389.3,307.3c1.4-4.6,8.9-6.7,7.1-11.6c-2-5.4-8.5-1.9-12.9-2.9c-0.1-4.1-0.4-8.4,5.5-8.9
		c12.9,6.5,15.4-0.4,14.8-11.4c3.9-0.3,6.9-2,8.6-5.7c10.9-5,21.7-10,32.6-14.9c66.5-32.9,136.8-53.6,210.1-64.6
		c30.6-4.6,61.2-8.3,92.2-7.4c-0.3,6.3-0.9,12.6-1,18.9c-0.3,41.3-0.5,82.7-0.8,124c-4.4-13.6-14.7-18.3-28-18.2
		c-5.8,0-11.7,0.3-17.5-0.1c-7.6-0.5-10.3,2.5-10.2,10.1c0.3,25.2,0.1,50.5,0.2,75.7c0,3.7-0.7,9.5,4.3,9.3
		c17.3-0.6,36.1,7,51.3-7.8c0.2,15.7,0.4,31.4,0.5,47.2c-14.8-2.1-19.1,4.4-18.1,18.9c1.3,19.3,1.2,38.9,0,58.3
		c-0.8,14.1,2.1,22.6,18.2,20.4c0,15.6-0.6,31.1,0.1,46.7c0.4,9.6-2.8,12.4-12.4,12.3c-46.7-0.4-93.4-0.3-140.1-0.2
		c-43.3,0.1-86.5,0.5-129.8,0.8c-3.5-30.7-5.9-61.7-10.8-92.2c-10.8-65.8-28.8-129.6-56.8-190.4
		C395.1,310.5,393.3,307.6,389.3,307.3z M659.1,356.9c0.9,0.1,1.8,0.1,2.6,0.2c0,10.6,0.2,21.3-0.1,31.9
		c-0.2,7.4,1.6,11.9,10.4,12.1c9.1,0.2,11.9-3.8,11.8-12.2c-0.3-23.4,0-46.7-0.1-70.1c0-7.5-0.1-15.1-11.3-14.2
		c-9.5,0.8-21.1-3.8-22.4,12.5c-0.7,8.7,1.8,18.4-5.6,27.9c-1.5-11.8-2.5-21.9-4.2-31.9c-2.4-14-13.7-7-21.2-8.3
		c-6.8-1.2-10.9,1.1-10.8,9.3c0.3,25.8,0.3,51.6,0,77.4c-0.1,8.2,4.2,9.5,11,9.5c6.9,0.1,9.6-2.6,9.5-9.5
		c-0.3-12.5-0.1-25.1-0.1-37.6c4.3,12.1,6.3,24.4,8.4,36.7c0.9,5.2,0.9,11,9,10.3c7.4-0.6,8.1-5.9,8.9-11.2
		C656.3,378.7,657.7,367.8,659.1,356.9z M634.3,485c-0.8,0.2-1.6,0.3-2.5,0.5c-4.3-13.2-8.8-26.4-12.8-39.7
		c-2.6-8.7-9.4-6.8-15.4-6.7c-7.5,0.1-6.5,5.8-6.5,10.5c-0.1,24.3,0,48.6-0.1,72.9c0,7,0.6,12.5,9.8,12.6
		c8.8,0.1,10.5-4.7,10.3-12.1c-0.3-9.5-0.1-19-0.1-28.5c6.3,10.8,10.3,22,13.9,33.3c2.6,8.4,9.2,7.4,15.4,7
		c7.3-0.4,6.3-6.1,6.3-10.9c0.1-24.8-0.1-49.6,0.1-74.3c0.1-6.8-1.3-10.9-9.5-10.9c-8.7,0-9.1,4.9-9,11.3
		C634.5,461.7,634.3,473.3,634.3,485z M684.4,484.4c0-7.8-0.2-15.6,0.1-23.4c0.1-4.1-1.1-9.8,5.5-9.8c5,0,5.6,4.5,5.9,8.5
		c0.1,1.5,0.1,2.9,0.1,4.4c0.5,9.6,7.8,6.5,13.1,7c6.6,0.6,9.9-2.3,9.9-9.3c0-14.2-9.5-24.4-24.5-25.7c-19.5-1.7-31.4,5-32.5,20.7
		c-1.3,18.4-1.3,37,0,55.4c1.1,16.1,12.3,25.2,27,19.8c10.2-3.8,23.4,7.6,28.6-4.3c3.9-9.1,1.5-21,1.4-31.7
		c-0.1-4.4,2.5-11-4.2-12.3c-7-1.3-15.4-3.2-21.3,1c-5.8,4.1-1.7,10,1.6,15.2c1.6,2.5,1,6.6,0.9,9.9c-0.1,4.1-1.1,8.2-6.2,8.1
		c-5.6-0.1-5.3-4.8-5.3-8.6C684.3,501,684.4,492.7,684.4,484.4z M569,305.7c-13.4-3.5-19,2-20.4,15.9c-2.2,22.7-6.4,45.1-9.5,67.7
		c-0.7,4.9-2.7,11.6,6.1,11.7c6.5,0.1,14.4,2.4,16-7.8c0.7-4.7,0.2-9.8,7.6-10c6.9-0.1,7.7,4,8.5,9.2c1.5,10.7,9.7,9.2,16.8,8.4
		c8.6-0.9,5.7-7.9,5-12.6c-3.3-22.1-8.1-44-10.3-66.1C587.5,308.7,583.4,302.1,569,305.7z M500.1,350.6c0-4.4-0.6-8.9,0.1-13.1
		c1.2-6.9-4.6-19,5.7-19.4c8.5-0.3,5.2,11.7,5.5,18.4c0.3,6.5,3.3,8.7,9.2,8.2c5.4-0.5,12,2.1,14.2-6.3c3.8-14.7-5.9-32.7-19.8-36.1
		c-18.8-4.6-35.9,4.7-37.3,22.2c-1.5,17.9-1.4,36.1,0.1,54c1.4,16.1,16.3,24.5,33.9,21.7c15.4-2.5,25.5-16.5,23.2-31.9
		c-0.6-3.8-1.9-7-5.9-7.1c-8.2-0.3-18.6-4.1-17.8,11.1c0.2,4.6,0.5,12.9-6.4,12.3c-6.7-0.6-4.5-8.5-4.7-13.6
		C499.9,364.3,500.1,357.4,500.1,350.6z M544.1,486.8c0,5.3,0,10.7,0,16c0,33.9,0,33.9,33.7,33.1c6.3-0.1,12.8,1.2,12.9-8.9
		c0.1-9.5-5.4-10.3-12.2-9.5c-9.6,1.1-11.5-3.8-11.1-12.1c0.4-7.4-1.1-15.4,10.7-13.7c6.6,0.9,9.8-1.7,9.6-8.9
		c-0.1-6.4-2.9-8.5-8.9-8.4c-5,0-11.1,1.7-11.4-7c-0.3-9.4,6-8.3,11.7-8.3c8.4-0.1,8.7-5.6,8.9-11.9c0.2-8-4.7-8.3-10.5-8.2
		c-7.8,0.1-15.6,0.3-23.3-0.1c-7.5-0.4-10.5,2.4-10.3,10.1C544.4,461.5,544.1,474.1,544.1,486.8z"/>
	<path class="st10" d="M729.7,779.2c0.6-7.8-6.6-15.1,2.6-23.9c5.9-5.6-4.1-7.4-7.6-5.9c-22.8,9.2-35.3-6.5-49-19.4
		c-2.7-2.5-7.6-6.5-3.8-9.6c13-10.4,8.8-26,13-38.9c5.2-15.9,9.6-18.8,26.7-15.7c3.9,0.7,7-0.4,9-3.3c2.2-3.1-0.4-5.7-2.6-7.4
		c-8.8-6.9-7.7-12,2-16.9c3.3-1.7,6.9-5.1,4.8-9.5c-2.1-4.2-6.7-6.3-11.1-4.8c-5.6,1.8-8.8,2.3-13-3.8c-3.4-4.9-7.3,1.6-6.7,4.7
		c4.7,25.5-15.3,36.7-29,51.6c-5.3,5.8-10,6.4-16.1,1c-8.7-7.6-18-14.5-27.6-22.1c12.7-4.9,21.2-19.3,19.2-30.9
		c-0.6-3.7-2.6-6.7-5.7-8c-9.4-3.8-18.7-8.6-28.6-10.3c-23.8-4.2-31.5,2.4-35.3,28.7c-1,7.3-3,14.1-5,21.1
		c-3.3,11.2,2.3,22.1,4.6,32.6c0.8,3.8,5.9,9.3,6.4,15.5c0.2,2.5,1.9,6,3.9,5.4c12.9-3.8,8.4,6.8,6.7,9.8
		c-17.3,30.2-31.6,62.5-57.6,86.8c-4.5,4.3-10.6,9.2-16.9,6c-7.5-3.9-3.9-12.3-3.5-18.6c0.9-11.9,6.9-22.3,12.7-32.4
		c14-24.4,23.3-50,24.9-78.4c0.8-14.7-1.9-27.5-14-36.3c-6.9-5.1-17,1.5-24.9-6.5c-2,8.6,4.6,12.9,5.1,18.9
		c-0.7,0.4-1.6,1.3-2.2,1.1c-5.3-1.1-8.8-11.6-14.2-5.7c-4.2,4.5,5.4,7.6,7.3,12.2c4.1,10.1,11.6,15.8,21.3,20.5
		c11.8,5.8,7.7,16.3,4.6,25.5c-7.5,22.2-20.8,41.8-30,63.2c-3.5,8.1-5.9,16.4-5.7,25.4c0.4,22.2,17.5,32.2,37.1,21.5
		c6.2-3.4,10.3-8.8,15.4-13.3c2.4-2.1,4.5-5.8,8.6-3.4c3.3,2,3.6,5.7,3.3,9.1c-2,24.9-17.5,43.6-44.7,32.7c-9.1-3.6-10.9,1.3-10.3,8
		c1.4,14-5.3,12.9-14.4,8.7c-14.7-6.7-30.3-10.3-45.9-14.2c-7.6-1.9-11.5-4.5-8.8-14.1c22-76.1,32.8-153.7,30.4-233
		c89.4-0.1,178.8,0,268.2-0.4c10,0,13.3,2.3,13.2,12.8c-0.6,43.2-0.9,86.5,0.1,129.7C746.9,760.7,745.2,772.8,729.7,779.2z"/>
	<path class="st10" d="M745.8,1067.4c-25-32.3-51.3-63.4-81.1-91.5c-17-16-34.7-31.2-53.5-45c-3.1-2.3-13.2-4.2-1.7-11.1
		c5-3,3.7-13.1-0.4-18.7c-3.4-4.7-9.5-7.5-15.6-4c-11.6,6.7-22.8,2.7-33.7-1.4c-12.6-4.8-17.1-18.8-10.6-30c5.9-10,17-12.3,27.4-3.1
		c8,7.1,20.1,1,26.8,11.1c1.8,2.7,5.3-2.7,3.9-6.3c-7.7-19.5-7.6-41.2-16.8-60.2c-4.8-9.9-0.6-12,8.4-11.6
		c12,0.5,21.6,5.3,28.4,15.2c8,11.9,5.3,23.3-8.3,28.1c-13.8,4.9-8,11.3-1.9,16.5c14.1,12.1,31.7,11.8,48.5,9.5
		c8.1-1.1,13.3-0.3,19.5,4.8c3.7,3.1,12.9,13,12.2-4.8c-0.2-6.3,11.8-9.8,19.5-8.9c14.1,1.8,5.3-16.9,16.4-17
		c-0.3-8.5-6.9-12.9-12.9-16.1c-6.5-3.5-13.1-1.1-17.4,5.9c-8.8,14.2-22.5,18.7-38.4,19.5c-9.1,0.5-14.7-2.2-17-11.7
		c-2.3-9.5-1-17.5,7.2-23.2c2.7-1.9,6.8-1.9,9.2-4c5.5-4.7,13.3-9.8,13-16.4c-0.3-6-9.9-3.7-15.2-5c-15.8-4-26.8-13.6-29.6-28
		c-0.7-3.7-1.9-8.1,2.6-10.4c4.4-2.2,7.7,0.1,9.4,4.1c3.6,8.5,8.9,6.8,15.2,3.3c7.2-4,15.2-3.1,22.8-1.5c7.8,1.6,14.2,4.4,9.2,14.8
		c-2.4,4.9-3,11.7,2.6,14.3c4.4,2.1,7.4-3.8,9.4-7.3c6.7-11.8,11.5-6.8,16.4,1.4c1.7,2.9,3.6,5.6,5.4,8.4
		c-2.3,13.8,0.8,25.3,14.5,31.4c5.6,2.5,6.3,6.4,6.3,11.6C746,909.2,745.9,988.3,745.8,1067.4z"/>
	<path class="st11" d="M774.9,787.1c0.4-0.3,1-0.4,1.2-0.8c11.3-16.9,11.3-16.9,25.9-3.2c1,0.9,2.4,1.4,3.7,2.2
		c4.5-4.9,6.6-10.4,2.6-15.9c-6.5-8.8,0.1-11.2,6.1-13.4c7-2.5,15.2-3.2,21.5-0.5c10.2,4.4,17.6,6.2,22.7-6.1c0.8-2,3.7-3.3,6.3-1.8
		c3.5,1.9,4,5.2,3.7,8.8c-1.2,13.9-14.6,27.9-28.7,30.8c-5.9,1.2-16.5,0.9-16.2,5.9c0.4,6.5,7,13.2,14.2,17.1
		c14.6,7.8,18.2,16.3,13.9,29.2c-2,6-5.1,8.8-11.4,9c-17.3,0.4-33.1-2.4-42.7-19.1c-3.7-6.4-9.4-8.2-16.2-7.1
		c-7.7,1.3-10.4,8.3-14,13.7c-2.1,3.1,11.7,19.4,15.6,20.3c8.4,1.9,19.9-1.7,19.7,14.5c-0.1,7.5,8.6,3,11.1,0.3
		c6.7-6.9,13.7-6.3,22.3-5.4c14.5,1.6,29.4,1,42.6-6.4c12.7-7.1,12.5-13.4,0.2-20.6c-13.1-7.7-13.5-20-1.6-32.8
		c4.6-4.9,10.1-7.6,16.3-9c5.7-1.3,12.9-3.4,16.6,1c3.4,4-1.7,9.8-3.1,14.8c-4.9,18.2-9.6,36.5-14.1,54.8c-0.4,1.7-0.4,4.4,0.7,5.4
		c2.2,2.1,4.4,0.2,6.2-1.4c10.3-8.9,24.4-7.7,36-13.6c6.2-3.2,11.9,2.4,14.8,8.7c3.7,7.9,4.9,15.7-1.6,23.1
		c-8.2,9.2-26.6,14.1-38.9,8.7c-7.3-3.2-14.5-3.5-18.3,2.7c-3.8,6.3-9.6,15-1.7,22.3c5.5,5.1,0.9,6.8-1.8,8.6
		c-32.7,21.7-58.4,51.2-86.5,78c-17.7,16.9-29.9,38.1-47.1,55.2c-0.2-78.6-0.4-157.2-0.7-235.8c0-4.7,0.8-8.2,5.8-10.5
		C773.9,812.5,776.6,800.7,774.9,787.1z"/>
	<path class="st11" d="M1035.5,605.7c-2.2,76.7,7.3,152,29,225.6c3.8,12.9,1.5,18.2-12.2,20.4c-14.3,2.3-28.2,7.1-41.6,13.1
		c-6.9,3.1-13.9,5.7-14.5-6.7c-0.4-8.9-3.3-13.7-14.3-8.4c-9.7,4.7-20.4,1.4-28.3-6c-9-8.4-12.5-19.7-11.2-31.9
		c0.7-6.2,4.1-9,9.4-2.6c6,7.3,14,12,22.5,15.8c15.1,6.8,30.4-2.1,31.9-18.5c1.1-11.9-1.8-23.2-7.1-33.8c-8.4-17-17.3-33.8-25.3-51
		c-10-21.4-8-27.4,11.2-39.6c9.4-6,11.1-18,19.6-24.8c0.5-0.4-0.2-3.4-0.8-3.5c-1.7-0.4-3.7-0.4-5.4,0.1c-3.9,1.2-5.3,7.3-11.1,5.9
		c-1.4-6.8,7.7-10,5.3-18.2c-11.4,6.3-27.5-0.2-35.4,15.5c-6.6,13.1-4.2,27-2.9,40.2c1.9,20.4,9.8,39.3,20.3,57.2
		c8.3,14.1,17.5,28.3,17.1,45.8c-0.3,13.2-4,15.1-16.3,9.7c-11.1-4.9-17-14.6-23.1-23.7c-12.4-18.6-23.8-37.8-34.8-57.2
		c-3.9-6.8-11.4-14.6,3.6-20.7c6.4-2.6,9.6-16.6,10.3-22.4c1.5-11.8,8.5-23.9,1.6-37.5c-6.4-12.7-8-27.8-11.8-41.9
		c0.2-0.9,0.3-1.7,0.3-2.6c37.1,0,74.1,0,111.2,0C1033.6,604.3,1034.6,605,1035.5,605.7z"/>
	<path class="st12" d="M921.4,603.6c0,0.9-0.1,1.8-0.3,2.6c-15.4-0.3-30.9-2.7-45.5,5.9c-7.6,4.5-17.2,6-15.5,17.7
		c1.7,11.1,2.7,23.1,21.3,23.3c-12.4,10-22.4,18.1-32.5,26.2c-5.1,4.1-8.9,1.3-12.6-2.4c-7.9-8-15.5-16.2-23.8-23.7
		c-7-6.3-4.7-14.3-5.2-21.8c-0.7-11-1.4-11.5-10.7-6.5c-3.8,2-6.5-0.8-9.7-1.1c-4.7-0.4-9.1,0.9-10.9,5.4c-1.8,4.4,1.8,7.8,5.1,9.4
		c11,5.3,8.6,10.8,1.1,17.1c-2.1,1.8-4.6,4.4-1.8,7.4c2,2.1,4.7,3.4,7.9,2.8c16.8-2.7,24.3,2.9,28,19.3c2.7,11.9,0.4,25.7,12.4,34.4
		c2.1,1.5,1,4.2-0.3,6.6c-7.6,13.9-33.6,25.8-50.6,23.1c-4.1-0.6-9.5-2.4-12.2,1.7c-2.5,3.9,2.9,5.2,4.7,7.7
		c4.8,6.4-1.2,12-1.8,17.9c-5.7-4.3-14.5-4.6-14.4-15.7c0.6-49.7,0.4-99.4,0.1-149c0-7,2.5-9.2,9.4-9.1
		C816.2,603.4,868.8,603.5,921.4,603.6z"/>
	<path class="st1" d="M621.9,642.7c-4.4-2-9.6-3.6-9.8-9.4c-0.2-4.6,3.2-7.2,7.6-6.4c4.1,0.7,9.2,1.9,8.5,7.7
		C627.8,637.9,627.1,642.4,621.9,642.7z"/>
	<path class="st11" d="M888.2,633.2c-2.4,4-5.2,8.9-10.2,9c-4.6,0.2-5.9-5-5.7-8.6c0.4-5.2,5.2-6.6,9.6-6.8
		C885.7,626.5,888.2,628.8,888.2,633.2z"/>
	<path class="st5" d="M375.4,327.5c-5.1,3.8-9.6,9-19.7,6.5c7.9-4.1,11-11.3,19.1-12C374.9,323.8,375.2,325.7,375.4,327.5z"/>
	<path class="st12" d="M1032.6,603.7c1-0.2,1.9-0.4,2.9-0.6c0.1,0.9,0.1,1.8,0,2.7C1034.6,605,1033.6,604.3,1032.6,603.7z"/>
	<path class="st13" d="M325.1,602.8c-2.2,0-2.9-1.4-3.2-3.2C324.3,599.4,325.3,600.5,325.1,602.8z"/>
	<path class="st13" d="M322.2,599.9c-1.8-0.3-3.6-0.7-3.1-3.2C321.9,596.1,322.5,597.6,322.2,599.9z"/>
	<path class="st2" d="M585.2,944.9c-0.9-1.2-1.8-2.4-2.6-3.7C583.5,942.5,584.4,943.7,585.2,944.9z"/>
	<path class="st2" d="M919,939.2c-1.1,1.1-2.1,2.1-3.2,3.2C916.9,941.4,918,940.3,919,939.2z"/>
	<path class="st14" d="M871,484.1c0-12.6,0.3-25.3-0.1-37.9c-0.3-8.3,4.1-9.5,10.9-9.5c6.9,0.1,12.9,0.2,12.4,9.7
		c-0.3,5.3-0.1,10.7,0,16c0.1,4.4-0.1,8.9,6.4,9.2c6.5,0.2,6.8-3.9,6.8-8.6c0-3.9,0.2-7.8,0-11.7c-0.5-8.5-0.2-14.7,11.7-14.9
		c12.2-0.2,11.7,6.3,11.6,14.6c-0.3,23.3-0.5,46.7,0.1,70c0.2,9.1-3,11.6-11.8,11.6c-8.7,0-12.5-2.5-11.8-11.6
		c0.6-7.7,0.1-15.5,0-23.3c0-4.2-2.1-6-6.4-5.9c-4,0-6.6,1.4-6.6,5.8c-0.1,8.3-0.4,16.5-0.1,24.8c0.4,8.9-4.6,10.1-12,10.3
		c-7.8,0.1-11.7-2-11.3-10.6C871.4,509.4,871,496.7,871,484.1z"/>
	<path class="st14" d="M853.6,352.8c0-12.6,0.3-25.3-0.1-37.9c-0.2-7.3,2.2-9.9,9.9-10.4c40.7-2.2,46.8,3.2,46.7,43.9
		c0,11.7,0.1,23.3-0.1,35c-0.2,12.3-7,18.3-19,19.5c-37,3.9-37.4,3.7-37.4-32.7C853.6,364.4,853.6,358.6,853.6,352.8z M877.2,353.9
		c0,8.2-0.1,16.5,0,24.7c0,2.7-0.5,6.5,3.6,6.5c3,0,5.7-2.4,6.1-5.4c2.1-17.3,2.3-34.7,0-52c-0.4-3-2.9-5.4-6.1-5.2
		c-4.1,0.3-3.5,3.9-3.6,6.6C877.1,337.5,877.2,345.7,877.2,353.9z"/>
	<path class="st14" d="M756.8,353.1c0-12.7-0.1-25.3,0.1-38c0.1-4.1-1.4-10,5.1-10.1c12.6-0.2,25.4-2.6,37.6,1.9
		c13.1,4.8,18.9,25.9,9.6,38.8c-4.2,5.8-2.9,7.7,0.1,12.9c7,12,4,25.7,2.7,38.5c-0.7,7-8.9,3.4-13.7,4c-5.4,0.6-8.1-2-8-7.6
		c0.1-8.8,0-17.5-0.1-26.3c0-4.2-1.1-8.5-5.8-8.6c-6,0-4.2,5.5-4.3,8.9c-0.3,6.8-0.4,13.6,0,20.4c0.4,8.5-1.2,13.5-11.7,13.6
		c-10.6,0.1-11.9-4.9-11.6-13.5C757.2,376.4,756.8,364.8,756.8,353.1z M790.6,333c-0.1-4.8,0.4-10.6-6.3-10.7
		c-7.7-0.2-5.4,6.5-5.5,10.7c-0.1,4.3-1.9,10.9,5.4,10.9C790.7,343.8,790.5,337.9,790.6,333z"/>
	<path class="st14" d="M944.1,350.5c0,9.2-0.1,18.5,0.1,27.7c0.1,3.1,1.5,6.1,5,6.1c3.4,0,5-2.8,5.2-5.9c0.3-5.8,0.4-11.2-2.4-16.9
		c-2.5-5.1-3.2-13,6-12.1c6.6,0.7,18.2-7,19.1,7.6c0.7,11.1,0.1,22.4,0.1,33.5c0,4.3-1.3,9.1-6.1,7.4c-9.4-3.3-17.5,0.8-26.2,1.9
		c-12.5,1.5-20.6-5.5-23-17.5c-4-20.7-4.1-41.6,0.1-62.3c2.9-14.3,15.5-20.5,33.3-18.1c13.7,1.8,21.6,10.8,21.9,24.7
		c0.2,5.8-0.1,11.2-8.1,10.3c-6-0.6-14.6,3.3-14.9-8.2c-0.1-4.5,1.7-11.9-5-11.6c-7.6,0.3-4.9,8.1-5.2,12.9
		c-0.4,6.8-0.1,13.6-0.1,20.4C943.9,350.5,944,350.5,944.1,350.5z"/>
	<path class="st14" d="M835.5,533.1c-17-0.1-25.9-6.8-27.5-21.8c-0.5-5.1-3.7-12.7,6.2-13.1c7.5-0.3,16.6-2.6,15.9,10.4
		c-0.2,4-0.9,10.5,5.7,9.3c6.9-1.2,6.5-7.6,4.9-13c-3-9.7-11.7-14-19.3-19c-11.5-7.6-16.2-17.8-13.7-31.2
		c2.6-14,12.1-18.9,25.4-18.8c12.9,0.1,24.8,1.3,27.9,17.1c0.9,4.5,3.7,11.1-3.5,11.7c-6,0.5-15.4,5.6-17.6-6.3
		c-0.7-3.7-0.8-9.1-6.4-7c-5.1,1.9-4,7.4-2.5,11.5c2.5,6.3,9.1,8.5,14.2,12.1c10.2,7.4,18.1,15.8,18.2,29.7
		C863.5,525.3,856.1,533.3,835.5,533.1z"/>
	<path class="st14" d="M983.8,353.1c0-12.2,0.3-24.4-0.1-36.5c-0.3-8.4,2-12.9,11.4-12c7.2,0.7,14.6,0.5,21.9,0
		c7.2-0.4,10.8,1.6,10.6,9.7c-0.2,7-1.5,11.3-9.7,10.6c-5.1-0.5-9.6-0.1-9.8,7.2c-0.2,7.7,4,8.9,10.1,8.7c6-0.2,8.6,2.5,8.7,8.8
		c0.1,6.8-3.3,8.5-9,8c-12.4-1.1-9.1,8-9.8,14.7c-0.8,8.1,2.1,12.1,10.6,10.9c7.9-1.1,11.4,1.7,11.1,10.4c-0.2,8.4-4.7,9.1-11.3,9.5
		c-34.9,1.9-34.9,2-34.9-32.4C983.8,364.8,983.8,359,983.8,353.1z"/>
	<path class="st14" d="M754.4,536.7c-2.7,0-5.4,0-8.1-0.1c-16.2,2.2-19-6.3-18.2-20.4c1.1-19.4,1.3-38.9,0-58.3
		c-1-14.5,3.3-21,18.1-18.9c0,0,1.2,0.4,1.2,0.4l1.2-0.2c6.6,19.6,1.2,39.8,3.2,59.6c0.6,5.8-3.2,12.4,2.9,17.2
		c4.7,2.9,13.2-2.5,14.8,7.7C771.6,537.2,762.5,536,754.4,536.7z"/>
	<path class="st14" d="M821.6,352.4c0-12.6,0.5-25.3-0.2-37.9c-0.5-9.3,4.4-10,11.6-10c7,0.1,12.1,0.4,11.9,9.8
		c-0.5,25.2-0.4,50.5,0,75.7c0.1,9-4.6,10.2-11.9,10.3c-7.4,0.1-12-1-11.6-10.1C822.1,377.6,821.6,365,821.6,352.4z"/>
	<path class="st14" d="M799.4,486.1c0,12.6-0.3,25.3,0.1,37.9c0.3,8.5-4.3,9.4-11,9.2c-6.1-0.2-11.6,0.3-11.5-8.7
		c0.3-25.8,0.3-51.5,0-77.3c-0.1-9.3,5.9-8.1,11.7-8.4c6.8-0.3,11.1,0.9,10.8,9.3C799.1,460.8,799.4,473.4,799.4,486.1z"/>
	<path class="st7" d="M754.2,398c-3.7-30.1-3.7-60.3,0-90.4C755.4,337.7,755.4,367.9,754.2,398z"/>
	<path class="st7" d="M748.6,439.3c1.8-0.1,3.7-0.3,5.5-0.4c0.2,25.7,0.4,51.5,0.6,77.2c-6.1-4.8-2.3-11.5-2.9-17.2
		C749.8,479.1,755.2,458.9,748.6,439.3z"/>
	<path class="st8" d="M1170.4,331.2c-1.7-2-3.5-4-5.2-6.1c-2.5-8-4.7-16.1-9.7-23.1c13.7,1.5,11.6,14.4,16.3,22.4
		C1173.1,327,1173.4,329.5,1170.4,331.2z"/>
	<path class="st3" d="M1131.9,298.7c0.4,0.2,0.7,0.4,1.1,0.6c-0.3-0.2-0.6-0.5-0.9-0.7C1132,298.6,1131.9,298.7,1131.9,298.7z"/>
	<path class="st0" d="M813.8,1140.8c9,7.1,19-0.7,29.2-0.2c9.5,0.4,12.1,3.4,9.4,12.5c-2.9,9.8-4.9,19.8-7.3,29.7
		c-1,4.2-3,7.6-7.9,6.4c-4.6-1.1-3.9-5.3-3.3-8.5c1.3-7.1,3.3-14.2,4.9-21.3c1-4.4,2-9.1-4.8-9.6c-5.4-0.4-6.4,3.3-6.4,7.6
		c0,5.4,0.3,10.7-0.1,16.1c-0.9,12.4-14.2,19.3-24.5,12.8c-2.6-1.6-4.7-4-3.4-7.2c1.5-3.6,4.6-2.7,7.4-1.6c2.9,1.1,6.5,7.1,8.6-0.1
		c1.9-6.3-2.7-5.1-6.9-5c-12.5,0.1-9.8-9.5-10-16.8C798.4,1146.1,803,1141,813.8,1140.8z"/>
	<path class="st0" d="M696.3,1187.4c-10.2,3.1-11.9-5-15.8-14c-1.1,4.8-1.7,7.5-2.4,10.2c-0.7,2.7-2.6,3.9-5.3,3.8
		c-2.7-0.1-5-1.4-5.1-4.1c-0.2-12.5-0.2-25.1-0.2-37.6c0-2.8,2-4.2,4.7-4.5c3.2-0.3,5.7,0.9,6.9,4c2.1,5.3,4.1,10.6,8.3,15.6
		c0-4.5-0.1-8.9,0-13.4c0.1-3.1,0.8-5.8,4.6-6.2c4.4-0.5,6.3,1.6,6.2,5.8C693.9,1160.3,697.4,1174,696.3,1187.4z"/>
	<path class="st0" d="M882.5,1175c-0.5,4.2-1.3,8.9-4.8,11.5c-3.5,2.6-7.1,0.8-9.9-2.7c-4-5-16.3,0.7-15.4-9.4
		c1.1-11.9,6.6-23.1,12.7-33.5c1.8-3,5.9-3,9.3-2.2c4.7,1.1,5.5,4.7,5.7,8.9C880.7,1156.7,878.6,1166,882.5,1175z"/>
	<path class="st0" d="M649.6,1184.7c-5.5,4.1-11.4,7.5-18.7,5.8c-6.4-1.5-12.9-8.9-9.8-11.6c10.8-9.2,1.6-15.5-0.5-23.2
		c-1.3-4.9,0.4-9.9,5.2-12.6c7.8-4.5,14.8-2.5,21,3.5c-0.4,4.1,0.7,9.4-6.5,8.3c-2.7-0.4-4.2-7.7-7.5-2.3c-2.5,4.1,2,6.7,5.3,8.8
		C647,1166.8,650.1,1174.8,649.6,1184.7z M634.4,1173.1c-0.9,1.9-2,3-2,4.2c0,2.1,1.1,3.9,3.5,3c0.8-0.3,1.5-2.5,1.3-3.7
		C637,1175.6,635.6,1174.7,634.4,1173.1z"/>
	<path class="st0" d="M702.1,1146.8c9.8-9,18.7-8.8,26.3,2.7c-1.2,4.7,3.2,12-4.2,13.7c-8.7,2-5.3-9.6-11.7-13.2
		c-2.2,11-2.2,20.5-0.2,30.8c6.1-2.5,4.7-11.8,12-10.1c6.2,1.4,3.3,7.1,4.2,11c-10,11.6-15.5,12.2-26.6,2.9
		C702,1172.1,702.1,1159.4,702.1,1146.8z"/>
	<path class="st0" d="M731.2,1149.6c2.9-7.5,16.2-12.3,21.2-7.3c3.4,3.4,1.5,5.7-2.5,7.3c-10.6,4.1-10,8,0.2,12
		c5.1,2,5.6,5.8,0.4,7.8c-9.7,3.7-10.8,6.5-0.2,10.2c4.1,1.4,6,5.8,1.8,6.9c-7.1,1.9-16.1,6-21-4.6
		C731.2,1171,731.2,1160.3,731.2,1149.6z"/>
	<path class="st0" d="M792.7,1163.8c0,5.8,0.1,11.6,0,17.4c-0.1,3.9-1.8,6.5-6.2,6.2c-3.5-0.3-4.8-2.6-5.2-5.8
		c-1.1-10.2,1.8-20.6-5.1-30.6c-2.4-3.5,6.2-7.9,10.9-9.3c5.6-1.6,5.6,3.6,5.7,7.5C792.8,1154.1,792.8,1159,792.7,1163.8
		C792.7,1163.8,792.7,1163.8,792.7,1163.8z"/>
	<path class="st0" d="M651.8,1146.6c1-4.8,4.1-6.4,8.6-5.1c3.5,1.1,3.5,4.3,3.5,7.2c0.1,10.2,0.2,20.4,0,30.6
		c-0.3,9.8-4.9,10.7-12.1,5.4C651.8,1172,651.8,1159.3,651.8,1146.6z"/>
	<path class="st1" d="M731.2,1149.6c0,10.7,0,21.5,0,32.2c-0.9,0-1.8,0-2.6,0c-0.9-3.9,1.9-9.6-4.2-11c-7.3-1.7-5.9,7.6-12,10.1
		c-2-10.3-2-19.8,0.2-30.8c6.4,3.6,3,15.2,11.7,13.2c7.4-1.7,2.9-9,4.2-13.7C729.4,1149.6,730.3,1149.6,731.2,1149.6z"/>
	<path class="st1" d="M651.8,1146.6c0,12.7,0,25.4,0,38.1c0,0-1.1,0-1.1,0s-1.1,0-1,0c0.5-9.9-2.7-17.9-11.4-23.3
		c-3.3-2-7.8-4.7-5.3-8.8c3.3-5.4,4.8,1.9,7.5,2.3c7.2,1,6.1-4.2,6.5-8.3C648.5,1146.6,650.1,1146.6,651.8,1146.6z"/>
	<path class="st2" d="M702.1,1146.8c0,12.6-0.1,25.2-0.1,37.8c-1.9,0.9-3.8,1.8-5.7,2.8c1.1-13.5-2.3-27.1,1.9-40.4
		C699.5,1146.9,700.8,1146.9,702.1,1146.8z"/>
	<path class="st13" d="M1166.4,985.8l-0.7-0.3c0,0-0.7,0.1-0.7,0.1c-0.3-0.9-0.7-1.9-1-2.8C1166.5,982.4,1166.6,984,1166.4,985.8z"
		/>
	<path class="st1" d="M444.9,251.9c-10.9,5-21.7,10-32.6,14.9c-9.9,0.4-18.9-0.6-20.9-12.9c5.9-8.5,18.2-7.9,23.9-16.6
		c9.5-0.4,12.1-9.3,17.7-14.5c6.8,0,13.6-0.1,20.4-0.1c2,7.9-4.7,9.8-9.2,13c-5.8,4.2-13.1,6.2-17.9,12.4
		C432.8,249.3,438.9,250.6,444.9,251.9z"/>
	<path class="st13" d="M1223,661.7c-0.8,0.5-1.6,1.1-2.4,1.6c0.2-1.1,0.5-2.2,0.7-3.3C1221.9,660.6,1222.4,661.1,1223,661.7z"/>
	<path class="st6" d="M1200.8,731c0.4-0.7,0.6-1.5,0.8-2.3c0.5,0.6,1,1.1,1.6,1.7C1202.4,730.6,1201.6,730.8,1200.8,731z"/>
	<path class="st6" d="M1201.9,728.9c-4-1.3-2.3-2.7-0.1-4.2C1201.8,726.1,1201.8,727.5,1201.9,728.9z"/>
	<path class="st7" d="M1023.3,179.3c-0.6-0.6-1.9-1.6-1.8-1.6c1.2-1.5,2.2-0.9,3.2,0.3C1024.2,178.4,1023.7,178.8,1023.3,179.3z"/>
	<path class="st7" d="M1172.8,719.8c0.4,0.2,0.9,0.3,1.3,0.5c0.2,0.1,0.1,0.6,0.1,1c-0.4-0.5-0.8-1.1-1.3-1.6L1172.8,719.8z"/>
	<path class="st13" d="M460.5,201.1c-4.3,0.4-8.5,0.8-12.8,1.1c2-3.9,3.9-7.8,5.9-11.7c1.3,0.1,2.5,0.3,3.8,0.4
		C458.4,194.3,459.5,197.7,460.5,201.1z"/>
	<path class="st13" d="M536.1,109.3c-0.7,0.6-1.8,1.8-1.9,1.7c-1.7-1.2-0.9-2.3,0.4-3.3C535,108.2,535.5,108.7,536.1,109.3z"/>
	<path class="st6" d="M1214.7,439.3c0.1-2.1,0.3-4.1,0.4-6.2c2.2,0.5,5.6-2.8,6.3,0.2C1222.3,437.3,1218.1,438.5,1214.7,439.3z"/>
	<path class="st6" d="M1224.9,407.8c2.1-0.9,3.3-1.9,4.4-1.8c0.7,0.1,1.6,1.6,1.8,2.6c0.2,0.6-0.7,1.5-1.1,2.2
		C1228.9,410.3,1227.9,409.7,1224.9,407.8z"/>
	<path class="st7" d="M1181.8,401.2c-1.1-1-2.1-2.1-3.2-3.1C1179.7,399.1,1180.7,400.1,1181.8,401.2z"/>
	<path class="st7" d="M280.9,433.2c-3.1,1-2.2-1.7-2.8-3.1C279,431.2,279.9,432.2,280.9,433.2z"/>
	<path class="st7" d="M297.8,395c-0.1,0.4-0.3,0.9-0.4,1.3c-0.4-0.5-0.9-0.9-1.1-1.5c-0.1-0.2,0.5-0.7,0.8-1.1
		C297.3,394.2,297.6,394.6,297.8,395z"/>
	<path class="st13" d="M310.3,360.3c-2.7-3.9,0.2-5,3.1-6.1C312.9,356.4,312.8,359,310.3,360.3z"/>
	<path class="st7" d="M278.3,430.4c-2.1,0-2.9-1.3-3.1-3.1C277.4,427.1,277.9,428.6,278.3,430.4z"/>
	<path class="st13" d="M304.5,722.6c-3.5,4.8-5.4-0.9-8.2-1.3c-4.9-9.9-9-20.1-11.3-30.9c1.6,0,3.3,0,4.9,0
		C294.5,701.3,302.4,710.7,304.5,722.6z"/>
	<path class="st6" d="M395,234.4l-1.4,0.1c0,0-1.4-0.2-1.4-0.2c0-6,5.1-8.9,9-12.7C404.4,228,404.2,233.1,395,234.4z"/>
	<path class="st6" d="M388.1,222c-0.3,0.8-0.5,2-1.1,2.3c-0.6,0.2-1.5-0.6-2.3-0.9c0.3-0.8,0.5-2,1.1-2.3
		C386.4,220.8,387.4,221.6,388.1,222z"/>
	<path class="st6" d="M412.7,213.9c-0.7,1.5-1.4,3.1-2.1,4.6c-0.6-0.4-1.1-0.8-1.7-1.1C410.1,216.2,411.4,215.1,412.7,213.9
		C412.6,213.9,412.7,213.9,412.7,213.9z"/>
	<path class="st6" d="M386.8,238c-0.4-0.5-0.9-1.1-1.3-1.6c0.5,0.4,1.1,0.9,1.6,1.3C387.1,237.7,386.8,238,386.8,238z"/>
	<path class="st7" d="M260.7,567.6c-5.6-0.4-5.7-4.6-5.9-8.7c0,0-0.2,0.2-0.2,0.2c3.7,1.7,5.4,4.8,5.9,8.7L260.7,567.6z"/>
	<path class="st7" d="M251.8,553.2c2.5,1.2,2.8,3.5,2.9,5.9c0,0,0.2-0.2,0.2-0.2c-2.6-1.2-2.5-3.7-2.9-5.9L251.8,553.2z"/>
	<polygon class="st7" points="266.4,573.6 267.1,574.3 266.6,573.5 	"/>
	<path class="st7" d="M266.6,573.5c-1-1-1.9-2-2.9-2.9c0,0-0.2,0.2-0.2,0.2c1,1,2,1.9,3,2.9C266.4,573.6,266.6,573.5,266.6,573.5z"
		/>
	<path class="st7" d="M260.5,567.8c1,1,2,2,2.9,3c0,0,0.2-0.2,0.2-0.2c-1.9-0.1-2.9-1-2.9-3C260.7,567.6,260.5,567.8,260.5,567.8z"
		/>
	<path class="st7" d="M251.9,553c-0.4-0.2-0.8-0.4-1.2-0.7c0.3,0.3,0.7,0.5,1,0.8C251.8,553.2,251.9,553,251.9,553z"/>
	<path class="st7" d="M333.8,713.8c-0.5,3.5-1.2,6.4-5.5,3C329.8,715.3,330.4,712,333.8,713.8z"/>
	<path class="st7" d="M290,725.6c-2.7,0.4-5.4,0.6-6.1-3.1C286.6,722.3,288.7,723.1,290,725.6z"/>
	<path class="st7" d="M295.5,726c-2.1,2.3-4.2,3.8-5.8-0.5C291.7,725.7,293.6,725.8,295.5,726z"/>
	<path class="st7" d="M284.1,722.7c-2.1,0-3.2-0.9-3.1-3.1C282.8,719.9,284,720.8,284.1,722.7z"/>
	<path class="st7" d="M281.2,719.8c-2.1,0-3.1-1-3.1-3.1C279.1,717.7,280.1,718.8,281.2,719.8z"/>
	<path class="st7" d="M278.3,716.9c-2.1,0-3-1.1-3.1-3.1C276.2,714.8,277.2,715.9,278.3,716.9z"/>
	<path class="st7" d="M275.3,714c-2,0-2.9-1.3-3.1-3.1C273.3,711.9,274.3,712.9,275.3,714z"/>
	<path class="st7" d="M272.4,711.1c-1.9-0.1-2.9-1.3-3.1-3.1C271.3,708,272.1,709.3,272.4,711.1z"/>
	<path class="st7" d="M269.5,708.1c-1-1-2.1-2.1-3.1-3.1C268.8,704.7,269.3,706.2,269.5,708.1z"/>
	<path class="st5" d="M1108.6,219.7c2,0,3.9,0,5.9,0c4.2,3.1,2.5,7.6,2.9,11.7c-1,0-2,0-3.1,0c-2,0-3.9,0-5.9,0
		c-1.9-1-3.8-1.9-5.7-2.9c0,0,0,0,0,0c0.1-1,0.2-2.1,0.4-3.1C1106.7,225.4,1108.5,223.4,1108.6,219.7z"/>
	<path class="st7" d="M1103,225.5c-0.1,1-0.2,2.1-0.4,3.1c-1.6,2-3.9,1.4-4.2-0.4C1097.7,224.3,1101.2,226.1,1103,225.5z"/>
	<path class="st3" d="M391.5,253.9c2,12.4,11,13.4,20.9,12.9c-1.6,3.8-4.7,5.4-8.6,5.7c-13.3-7.1-14.9,1-14.8,11.4
		c-5.9,0.5-5.5,4.8-5.5,8.9c-4.9,2-9.9,4-14.8,6c4.8-14.5,15.7-26.7,15.9-42.8c0.6-1.1,1.1-2.1,1.7-3.2
		C388,253.1,389.7,253.5,391.5,253.9z"/>
	<path class="st5" d="M339.8,337.3c1.7-3.6,5.2-5,8.3-6.8c1,3,2.1,6,3.1,9l-0.1,0.1C347.3,339.2,343.1,340.9,339.8,337.3z"/>
	<path class="st5" d="M360.1,310.3c-0.3-6.1,0.8-11.1,8.4-11.4C367.8,304.3,366.9,309.5,360.1,310.3z"/>
	<path class="st5" d="M351.3,339.6c0.4,0.2,0.8,0.5,1.2,0.7c-0.4-0.2-0.8-0.4-1.3-0.6C351.2,339.7,351.3,339.6,351.3,339.6z"/>
	<path class="st13" d="M354.3,725.5c0.4,2.6-0.8,3.4-3.2,3.1C351.5,726.9,352,725.3,354.3,725.5z"/>
	<path class="st7" d="M319.2,438.9c-1,1-2.1,2.1-3.1,3.1C317.1,441,318.1,440,319.2,438.9z"/>
	<path class="st7" d="M322.1,436c-1,1.1-2.1,2.1-3.1,3.2C320,438.1,321.1,437.1,322.1,436z"/>
	<path class="st7" d="M325,433.1c-1,1-2.1,2.1-3.1,3.1C322.9,435.2,324,434.1,325,433.1z"/>
	<path class="st7" d="M327.9,430.2c-0.1,2-1.2,2.9-3.1,3.1C325.9,432.3,326.9,431.2,327.9,430.2z"/>
	<path class="st6" d="M339.7,304.4c-1.4-7,3.6-9.3,8.6-11.6C347.3,298,346.8,303.6,339.7,304.4z"/>
	<path class="st6" d="M348.4,290.1c-4.1-7.8,2.6-5.2,5.8-5.9C354,287.9,352,289.8,348.4,290.1z"/>
	<path class="st13" d="M1167,424.3c3.2,0.9,3.4,3.2,2.6,5.9C1167.8,428.6,1164.4,427.8,1167,424.3z"/>
	<path class="st6" d="M1051.7,210.8c-0.7,3.9-2.9,6.1-6.8,5.8c-4-0.3-5.9-3.1-5.3-6.9c0.5-2.9,2.6-5,6-5
		C1049.5,204.8,1051.5,206.9,1051.7,210.8z"/>
	<path class="st6" d="M1114.3,231.5c1,0,2,0,3.1,0C1116.3,233.5,1115.3,233.4,1114.3,231.5z"/>
	<path class="st14" d="M659.1,356.9c-1.4,10.9-2.8,21.8-4.3,32.7c-0.8,5.4-1.5,10.6-8.9,11.2c-8.1,0.6-8.1-5.1-9-10.3
		c-2-12.3-4-24.6-8.4-36.7c0,12.5-0.2,25.1,0.1,37.6c0.2,6.9-2.5,9.6-9.5,9.5c-6.8-0.1-11.1-1.3-11-9.5c0.3-25.8,0.3-51.6,0-77.4
		c-0.1-8.2,4.1-10.5,10.8-9.3c7.5,1.4,18.8-5.7,21.2,8.3c1.7,10,2.7,20.1,4.2,31.9c7.3-9.5,4.8-19.2,5.6-27.9
		c1.4-16.3,13-11.7,22.4-12.5c11.2-0.9,11.3,6.7,11.3,14.2c0.1,23.4-0.1,46.7,0.1,70.1c0.1,8.5-2.7,12.4-11.8,12.2
		c-8.8-0.2-10.6-4.7-10.4-12.1c0.2-10.6,0.1-21.2,0.1-31.9C660.9,357,660,357,659.1,356.9z"/>
	<path class="st14" d="M745.5,322.8c-5.3,23,3.6,46.1,0.1,69.1c-15.2,14.8-33.9,7.3-51.3,7.8c-5,0.2-4.3-5.6-4.3-9.3
		c-0.1-25.2,0.1-50.5-0.2-75.7c-0.1-7.5,2.6-10.6,10.2-10.1c5.8,0.4,11.6,0.1,17.5,0.1C730.8,304.5,741.1,309.1,745.5,322.8z
		 M713.1,370.4c1.3,4.2-2.5,11.6,4.2,12c8.1,0.5,5.7-7.4,5.6-12.1c0-4.7,2.5-12.6-5.7-12C710.6,358.8,714.4,366.2,713.1,370.4z
		 M713.2,332.5c1,3.7-1.7,10.1,5.1,9.6c5.7-0.5,4.6-6.3,4.7-10.4c0.1-3.8,0.4-8.8-4.8-8.9C711.3,322.6,714.1,328.8,713.2,332.5z"/>
	<path class="st14" d="M634.3,485c0-11.7,0.1-23.3,0-35c-0.1-6.4,0.3-11.3,9-11.3c8.2,0,9.6,4,9.5,10.9c-0.2,24.8,0,49.6-0.1,74.3
		c0,4.7,1,10.4-6.3,10.9c-6.3,0.4-12.8,1.4-15.4-7c-3.6-11.3-7.6-22.5-13.9-33.3c0,9.5-0.2,19,0.1,28.5c0.2,7.4-1.5,12.2-10.3,12.1
		c-9.1-0.1-9.8-5.7-9.8-12.6c0.1-24.3,0-48.6,0.1-72.9c0-4.7-1-10.4,6.5-10.5c6.1-0.1,12.8-2,15.4,6.7c4,13.3,8.5,26.5,12.8,39.7
		C632.7,485.3,633.5,485.2,634.3,485z"/>
	<path class="st14" d="M684.4,484.4c0,8.3-0.1,16.6,0.1,24.8c0.1,3.8-0.2,8.5,5.3,8.6c5.1,0.1,6.2-4,6.2-8.1c0-3.4,0.7-7.5-0.9-9.9
		c-3.3-5.2-7.4-11.1-1.6-15.2c5.9-4.1,14.3-2.3,21.3-1c6.7,1.3,4.2,7.9,4.2,12.3c0.1,10.7,2.6,22.6-1.4,31.7
		c-5.2,11.9-18.4,0.6-28.6,4.3c-14.8,5.5-25.9-3.7-27-19.8c-1.3-18.4-1.3-37,0-55.4c1.1-15.8,13-22.4,32.5-20.7
		c15,1.3,24.6,11.5,24.5,25.7c0,7-3.4,9.8-9.9,9.3c-5.3-0.5-12.6,2.6-13.1-7c-0.1-1.5,0-2.9-0.1-4.4c-0.4-4-0.9-8.5-5.9-8.5
		c-6.6,0.1-5.4,5.7-5.5,9.8C684.2,468.9,684.4,476.6,684.4,484.4z"/>
	<path class="st14" d="M569,305.7c14.4-3.6,18.5,3,19.9,16.5c2.2,22.2,7,44,10.3,66.1c0.7,4.7,3.6,11.6-5,12.6
		c-7.1,0.8-15.3,2.3-16.8-8.4c-0.7-5.1-1.5-9.3-8.5-9.2c-7.4,0.2-6.8,5.3-7.6,10c-1.6,10.2-9.5,7.9-16,7.8
		c-8.8-0.1-6.8-6.8-6.1-11.7c3.1-22.6,7.2-45.1,9.5-67.7C550,307.7,555.6,302.2,569,305.7z M568.4,327.4
		c-1.5,13.1-2.7,22.6-3.6,32.1c-0.3,3.1,0.6,6,4.4,6c3.8,0,4.4-2.9,4.4-6C573.7,349.9,572.6,340.4,568.4,327.4z"/>
	<path class="st14" d="M500.1,350.6c0,6.8-0.2,13.7,0.1,20.5c0.2,5-1.9,13,4.7,13.6c6.8,0.6,6.6-7.7,6.4-12.3
		c-0.8-15.2,9.6-11.4,17.8-11.1c4,0.1,5.3,3.3,5.9,7.1c2.3,15.4-7.8,29.4-23.2,31.9c-17.7,2.8-32.5-5.6-33.9-21.7
		c-1.6-17.9-1.6-36.1-0.1-54c1.5-17.5,18.5-26.8,37.3-22.2c14,3.4,23.7,21.4,19.8,36.1c-2.2,8.5-8.8,5.9-14.2,6.3
		c-5.8,0.5-8.8-1.7-9.2-8.2c-0.3-6.7,3-18.7-5.5-18.4c-10.3,0.3-4.5,12.4-5.7,19.4C499.5,341.7,500.1,346.2,500.1,350.6z"/>
	<path class="st14" d="M544.1,486.8c0-12.6,0.3-25.3-0.1-37.9c-0.3-7.7,2.8-10.4,10.3-10.1c7.7,0.4,15.5,0.2,23.3,0.1
		c5.8-0.1,10.7,0.2,10.5,8.2c-0.2,6.3-0.5,11.8-8.9,11.9c-5.7,0-12-1-11.7,8.3c0.3,8.7,6.4,7.1,11.4,7c6-0.1,8.7,2,8.9,8.4
		c0.2,7.2-3.1,9.8-9.6,8.9c-11.8-1.7-10.3,6.3-10.7,13.7c-0.4,8.3,1.5,13.2,11.1,12.1c6.8-0.8,12.3,0,12.2,9.5
		c-0.1,10.1-6.6,8.8-12.9,8.9c-33.7,0.7-33.7,0.7-33.7-33.1C544.1,497.4,544.1,492.1,544.1,486.8z"/>
	<path class="st1" d="M388.9,283.9c-0.1-10.4,1.5-18.4,14.8-11.4C404.3,283.5,401.8,290.5,388.9,283.9z"/>
	<path class="st1" d="M877.2,353.9c0-8.2-0.1-16.5,0-24.7c0-2.7-0.5-6.4,3.6-6.6c3.2-0.2,5.7,2.2,6.1,5.2c2.3,17.3,2.2,34.7,0,52
		c-0.4,2.9-3.1,5.4-6.1,5.4c-4.1,0-3.6-3.8-3.6-6.5C877.1,370.4,877.2,362.2,877.2,353.9z"/>
	<path class="st4" d="M790.6,333c-0.1,4.9,0.1,10.7-6.4,10.8c-7.3,0.1-5.5-6.6-5.4-10.9c0.1-4.2-2.3-10.8,5.5-10.7
		C791,322.4,790.4,328.2,790.6,333z"/>
	<path class="st6" d="M842,1235.1c0,4.2-0.8,8-5.9,8.2c-3.8,0.1-4.5-3-4.4-6c0.1-3.5-1.3-8.4,4.4-8.7
		C840.4,1228.3,841.7,1231.5,842,1235.1z"/>
	<path class="st2" d="M634.4,1173.1c1.3,1.6,2.6,2.5,2.8,3.5c0.2,1.2-0.5,3.4-1.3,3.7c-2.4,0.9-3.5-1-3.5-3
		C632.4,1176.1,633.4,1175,634.4,1173.1z"/>
	<path class="st9" d="M713.1,370.4c1.3-4.2-2.5-11.6,4.1-12.1c8.2-0.6,5.6,7.4,5.7,12c0,4.7,2.5,12.6-5.6,12.1
		C710.5,382,714.4,374.6,713.1,370.4z"/>
	<path class="st9" d="M713.2,332.5c0.9-3.7-1.8-9.9,5.1-9.7c5.1,0.1,4.8,5.1,4.8,8.9c-0.1,4.2,1,10-4.7,10.4
		C711.4,342.6,714.1,336.2,713.2,332.5z"/>
	<path class="st9" d="M568.4,327.4c4.2,13,5.4,22.4,5.2,32.1c-0.1,3.1-0.6,6-4.4,6c-3.8,0-4.7-2.9-4.4-6
		C565.7,350,566.9,340.5,568.4,327.4z"/>
</g>
</svg>
