<?xml version="1.0" encoding="utf-8"?>
<!-- Generator: Adobe Illustrator 22.1.0, SVG Export Plug-In . SVG Version: 6.00 Build 0)  -->
<svg version="1.1" id="Layer_1" xmlns="http://www.w3.org/2000/svg" xmlns:xlink="http://www.w3.org/1999/xlink" x="0px" y="0px"
	 viewBox="0 0 582.3 107.7" style="enable-background:new 0 0 582.3 107.7;" xml:space="preserve">
<style type="text/css">
	.st0{fill:#FFFFFF;}
	.st1{fill:#B92C2E;}
	.st2{fill:#42A5F4;}
	.st3{fill:#D4A635;}
	.st4{fill:#07A99D;}
	.st5{fill:#2C292A;}
	.st6{fill:#FDFDFD;}
	.st7{fill:#ED353A;}
	.st8{fill:#2C2829;}
	.st9{fill:#292526;}
	.st10{font-family:'ArialRoundedMTBold';}
	.st11{font-size:22.39px;}
	.st12{font-size:17.46px;}
	.st13{letter-spacing:-2;}
</style>
<title>LogoAsset 2</title>
<g id="Layer_2_1_">
	<g id="图层_1">
		<g id="_Group_">
			<path id="_Path_" class="st0" d="M22.1,1.1h-7.3C12.4,1.1,8.2,1,2.7,0.8c-0.7,0-1.3,0-2-0.1c0.3,2.5,0.4,5,0.3,7.5v6.7l0.1,6.8
				v36.1c0,22.6,5.3,29.6,29.2,41.3l4.4,2.1c3.1,1.5,6.6,3.1,10,4.9c0,0,1.7,1,2,1.1c0.3-0.1,2-1.1,2-1.1c3.3-1.7,6.9-3.4,10-4.9
				l4.4-2.1c24.1-11.7,29.5-18.7,29.5-41.3V21.7l0.1-6.8V8.2c0-2.5,0.1-5,0.3-7.5c-0.7,0-2,0.1-2,0.1C85.6,1,81.4,1.1,79.1,1.1H22.1
				z"/>
			<path class="st1" d="M56.7,56.6l0.1,0.3v45.3c0.8-0.3,1.4-0.6,2-1l4.4-2.1c24-11.7,29.4-18.6,29.4-41.3v-1H56.9L56.7,56.6z
				 M1.2,56.7v1c0,22.6,5.3,29.5,29.2,41.3l4.4,2.1c0.7,0.3,1.4,0.6,2,1V56.9l0.1-0.3l-0.1,0.1H1.2z M91,0.7C85.5,0.9,81.3,1,78.9,1
				H56.8v35.9l-0.1,0.3l0.3-0.1h35.6V21.7l0.1-6.8V8.2c0-2.5,0.1-5,0.3-7.5H91 M1.2,37.2h35.5l0.3,0.1L36.9,37V1.1H14.8
				C12.4,1.1,8.2,1,2.7,0.8c-0.7,0-1.3,0-2-0.1c0.3,2.5,0.4,5,0.3,7.5v6.7l0.1,6.8V37.2z"/>
			<path id="_Path_2" class="st2" d="M29.3,19.1l0.1,0.4c0.1,0.3,0.2,0.7,0.2,1c0.4,1.7,0.8,2.2,1.6,2.2c0.4,0,0.8-0.2,1-0.6
				l0.2-0.6c0-0.1,0.1-0.2,0.3-0.2s0.5,0.3,0.5,1.1c0,0.2,0.1,0.7,0.2,1.5c0.1,0.4,0.1,0.9,0.1,1.3c0,0.3,0,0.7-0.2,1
				c0.1,0.6,0.2,1.2,0.2,1.8c0,0.6-0.1,1.2-0.3,1.8c0.1,0.4,0.1,0.8,0.1,1.2c0,0.4,0,0.7-0.1,1.1c-0.1,0.4-0.1,0.7-0.1,1.1
				c0,0.1,0,0.3,0.1,0.4c0.1,0.1,0.1,0.2,0.1,0.3c0,0.1,0,0.1-0.1,0.1l-0.7-0.2L32,33.3c-0.3-0.2-0.5-0.3-0.8-0.5
				c-0.7,0.6-1.5,1-2.4,1.1c-0.2,0.1-0.5,0.2-0.6,0.3c-0.2,0.1-0.3,0.2-0.4,0.2s-0.4-0.4-0.4-1.3c0-0.6,0.1-1.1,0.2-1.7
				c-0.3-0.2-0.7-0.3-1.1-0.3c-0.1,0-0.3,0-0.4,0.1H26c-0.1,0-0.2-0.1-0.2-0.3c0-0.2,0.1-0.4,0.2-0.6l0.3-0.7
				c0.2-0.3,0.4-0.6,0.8-0.9c0.3-0.2,0.5-0.4,0.8-0.4l1.1-0.2c0.6-0.1,1.1-0.4,1.1-1s-0.3-0.8-1-1l-1.3-0.5
				c-0.4-0.2-0.8-0.3-1.2-0.5c-0.8-0.4-0.9-0.5-1.1-0.5c-0.3,0-0.5,0.3-0.4,0.5c-0.1,0.5,0.3,0.9,0.7,1c0,0,0.1,0,0.1,0
				c0.1,0,0.2,0,0.3-0.1c0.1-0.1,0.2-0.1,0.3-0.1c0.1,0,0.2,0.1,0.2,0.2V26l-0.1,0.5c-0.2,0.7-0.5,1.3-1,1.8l-0.3,0.3
				c-0.2,1-0.8,1.8-1.6,2.5c-0.1,0.1-0.2,0.1-0.3,0.2l-0.2,0.4c-0.2,0.3-0.4,0.5-0.6,0.8c-0.2,0.3-0.5,0.5-0.8,0.8
				c-0.2,0.2-0.5,0.3-0.6,0.5l-0.3,0.5c0,0.1-0.1,0.1-0.2,0.1s-0.5-0.3-0.6-0.8s-0.2-0.4-0.4-0.4c-0.2,0-0.4,0-0.5,0.1l-0.4,0.1h-1
				c-0.6,0-1.2,0.1-1.7,0.3c-0.1,0.1-0.2,0.1-0.3,0.1c-0.1,0-0.1,0-0.2-0.2s-0.1-0.1-0.1-0.2c0.1-0.9,0.5-1.7,1-2.5
				c0.2-0.4,0.5-0.7,0.9-1c-0.1-0.5-0.4-0.9-0.9-1l-0.5-0.1c-0.1-0.1-0.1-0.1-0.1-0.2s0.2-0.3,0.7-0.6c0.5-0.3,1.1-0.5,1.7-0.5
				c0.6,0,1.2,0.3,1.6,0.6c0.9,0.6,1.1,0.7,1.5,0.7c0.7,0,1.2-0.5,1.3-1.2c0-0.4-0.2-0.9-0.9-1.6c-0.7-0.7-1-1.5-1.1-2.5
				c0-0.5,0.1-1,0.3-1.4l0.3-0.4c0.1-0.1,0.1-0.2,0.1-0.3c0-0.2-0.2-0.3-0.5-0.3c-0.8,0.1-1.5,0.4-2.2,0.8c-0.3,0.2-0.6,0.5-0.6,0.6
				s0,0.2,0.1,0.2l0.3,0.2l0.1,0.1c0,0.1,0,0.2-0.1,0.2l-0.6,0.8c-0.4,0.5-0.8,1-1.3,1.4l-0.3,0.3c-0.1,0.1-0.2,0.3-0.2,0.4
				c-0.4,0.6-0.8,1-1.4,1.4c-0.2,0.1-0.3,0.3-0.4,0.3s-0.1,0.2-0.2,0.4c-0.2,0.2-0.3,0.4-0.4,0.6c-0.2,0.4-0.5,0.7-0.8,1l-1,0.9
				c-0.4,0.6-0.7,1.2-0.9,1.9c-0.2,0.6-0.4,1.1-0.5,1.1l-0.2-0.2c-0.4-0.5-0.9-0.8-1.4-1.1c-0.1,0-0.2,0-0.3,0.1
				c-0.2,0.1-0.5,0.2-0.9,0.3l-1.2,0.2c-0.7,0-1.3,0.4-1.7,1l-0.2,0.2c-0.1,0-0.2-0.1-0.2-0.3v-0.3l0.1-0.8c0.1-0.7,0.3-1.4,0.6-2
				l0.5-1c0.1-0.2,0.1-0.3,0.1-0.5C5.3,28.6,4.6,28,3.7,28c-0.2,0-0.3-0.1-0.3-0.2C3.5,27.5,3.7,27.2,4,27c0.6-0.4,1.2-0.7,1.9-0.8
				c0.5,0,1,0.1,1.4,0.3L8,26.9C8.2,27,8.4,27,8.6,27c0.8,0,1.4-0.6,2.3-2.1c0.3-0.5,0.5-1,0.5-1.6c0-0.8-0.3-1.3-1-1.3
				c-0.5,0-0.9,0.2-1.3,0.5c-0.3,0.3-0.4,0.6-0.4,1v0.4c0,0.3-0.1,0.4-0.2,0.4c-0.3,0-0.8-0.4-1.9-1.8C5.9,21.9,5.4,21,5.4,20
				c-1.1-1.4-1.3-2-1.3-2.9v-0.6c-0.6-0.5-1-1.3-1-2.1c0-0.3,0.1-0.6,0.2-0.9c-0.2-0.4-0.4-0.8-0.5-1.2l-0.1-0.6
				c-0.1-0.4-0.3-0.8-0.5-1.2c-0.3-0.4-0.3-0.4-0.3-0.5c0-0.3,0.2-0.5,1.3-0.8c0-0.2,0-0.4-0.1-0.6c0-0.3,0-0.5,0.1-0.8l0.2-1.2
				c0.1-0.3,0.1-0.7,0.1-1c0-0.3-0.1-0.7-0.2-1C3.1,4.5,3,4.2,2.9,4C2.8,3.9,2.7,3.7,2.7,3.6c0-0.1,0.1-0.2,0.2-0.2
				C3.6,3.6,4.3,4,4.8,4.6c1.7,1.5,2.2,2,2.4,3.7c0,0.2,0,0.4,0.1,0.6c0.7,0.5,1.2,1.3,1.3,2.1c0,0.7-0.2,1.4-0.6,1.9l-0.7,1
				C7.1,14.3,7,14.6,7,15c0.1,0.6,0.2,1.3,0.5,1.8C8,17.7,8.4,18,9,18c0.8,0,1.5-1.4,1.5-3v-0.7c0-0.3,0-0.7,0.1-1
				c0.5-0.1,0.5-0.4,0.5-0.5v-1.3c0-0.2-0.1-0.3-0.3-0.5l-0.6-0.8C9.3,9.4,8.8,8.4,8.6,7.3c0-0.8,0.6-1.6,1.4-1.6c0.1,0,0.1,0,0.2,0
				c0.2,0,0.4,0,0.6,0.1V5.6c0-1.4,0.3-2.3,0.6-2.3h0.1l0.5,0.5l0.6,0.4L13,4.4C13,4,13,4,13.5,3.6c0.1-0.2,0.3-0.4,0.4-0.5
				c0.1-0.2,0.2-0.4,0.3-0.4s0.1-0.2,0.1-0.3l0.2-0.2c0.1,0,0.1,0.1,0.2,0.4s0.1,0.2,0.6,0.7c0.2,0.2,0.3,0.3,0.3,0.4
				c0.1,0.2,0.1,0.4,0.2,0.6c0,0.1,0,0.2,0.1,0.2c0.1-0.3,0.4-0.5,0.7-0.5l0.4-0.3c0.1-0.1,0.2-0.1,0.3-0.1c0.1,0.1,0.1,0.1,0.1,0.2
				c0,0.1,0.1,0.2,0.2,0.4c0.2,0.3,0.4,0.7,0.4,1.1v0.6c0.9,0.2,1.5,1,1.4,1.9c-0.1,1-0.5,1.9-1.2,2.6c-0.5,0.6-0.5,0.8-0.5,1.2
				c0,2.2,1.6,3.5,4.3,3.6h2c1.1,0,2.3,0.1,3.3,0.5c0.7,0.3,1.5,0.4,2.3,0.5c0.2,0,0.3,0,0.4-0.1c0.1-0.1,0.2-0.2,0.2-0.3
				c0-0.4-0.8-0.7-3.2-1.5C22.2,13,20,11,20,7.7C20.1,5,22.3,3,24.9,3.1c0,0,0.1,0,0.1,0c1.1,0,2.1,0.2,3.1,0.5L29.4,4
				c0.2,0.1,0.4,0.1,0.6,0.1c0.4,0,0.6-0.3,0.6-1.1c0-0.4,0.1-0.5,0.3-0.5s0.9,0.4,1.4,1.2c0.5,0.6,0.8,1.3,0.9,2
				c0,0.7-0.4,1.3-1.1,1.6c-0.5,1-1.6,1.6-2.7,1.5c-0.9,0-2.2-0.5-4.2-1.7c-0.4-0.3-1-0.5-1.5-0.5c-0.4,0-0.8,0.3-0.9,0.7
				c0,0,0,0.1,0,0.1c0,0.4,0.3,0.8,1.3,1.1c0.8,0.2,1.6,0.6,2.1,1.2c1.2,0.1,2.3,0.5,3.2,1.3c2.7,0.9,4.3,2.7,4.3,4.8
				c0.1,1.8-1.3,3.4-3.1,3.5c-0.1,0-0.2,0-0.2,0C30.4,19.2,30.1,19.1,29.3,19.1"/>
			<path id="_Path_3" class="st2" d="M86.7,19.1l0.1,0.4c0.1,0.3,0.2,0.7,0.2,1c0.4,1.7,0.8,2.2,1.6,2.2c0.4,0,0.8-0.2,1-0.6
				l0.2-0.6c0-0.1,0.1-0.2,0.3-0.2s0.5,0.3,0.5,1.1c0,0.3,0.1,0.7,0.2,1.5c0.1,0.5,0.1,0.9,0.1,1.4c0,0.3,0,0.6-0.2,0.9l0.1,0.3
				c0.1,0.4,0.1,0.7,0.1,1.1c0.1,0.8,0,1.5-0.3,2.2c0.1,0.4,0.1,0.7,0.1,1.1c0,0.4,0,0.7-0.1,1.1l-0.1,1v0.5
				c0.1,0.1,0.1,0.2,0.1,0.3c0,0.1,0,0.1-0.1,0.1l-0.6-0.2l-0.7-0.3c-0.3-0.2-0.5-0.3-0.8-0.5c-0.4,0.4-0.9,0.7-1.4,0.7
				c-1,0.3-1.4,0.4-1.6,0.5s-0.3,0.2-0.4,0.2s-0.4-0.4-0.4-1.2c0-0.6,0-1.2,0.2-1.8c-0.3-0.1-0.7-0.3-1.1-0.3c-0.1,0-0.1,0-0.4,0.1
				h-0.1c-0.1,0-0.1-0.1-0.1-0.3c0.1-0.5,0.3-1,0.5-1.4c0.4-0.6,1-1.3,1.5-1.4l1.1-0.2c0.7-0.1,1.1-0.4,1.1-1s-0.3-0.8-1-1l-1.3-0.2
				c-0.4-0.1-0.8-0.3-1.2-0.5c-0.3-0.2-0.5-0.3-0.7-0.4c-0.1-0.1-0.3-0.1-0.4-0.1c-0.3,0-0.5,0.3-0.4,0.5c0,0.5,0.3,1,0.9,1
				c0.1,0,0.2,0,0.3-0.1c0.1-0.1,0.2-0.1,0.3-0.1c0.1,0,0.2,0.1,0.2,0.3c0,0.7-0.3,1.4-0.8,1.9L83,28.4l-0.3,0.3
				c-0.2,1-0.8,1.8-1.6,2.5c-0.1,0.1-0.2,0.1-0.3,0.2l-0.2,0.4c-0.2,0.3-0.4,0.5-0.7,0.8c-0.2,0.3-0.5,0.5-0.8,0.8
				c-0.2,0.2-0.5,0.3-0.7,0.5l-0.3,0.5c-0.1,0.1-0.1,0.1-0.2,0.1c-0.3,0-0.5-0.3-0.7-0.8s-0.2-0.4-0.4-0.4c-0.2,0-0.4,0-0.5,0.1
				l-0.5,0.1h-1.1c-0.6,0-1.2,0.1-1.7,0.3c-0.1,0.1-0.2,0.1-0.3,0.1c-0.1,0-0.2-0.1-0.2-0.4c0.2-1.3,0.8-2.5,1.7-3.4
				c-0.1-0.5-0.4-0.9-0.9-1.1c-0.2-0.1-0.3-0.1-0.5-0.1c-0.1,0-0.1,0-0.1-0.1c0,0,0,0,0,0c0-0.2,0.2-0.4,0.8-0.6
				c0.5-0.3,1-0.5,1.6-0.5c0.6,0,1.2,0.3,1.6,0.6c0.9,0.6,1.1,0.8,1.5,0.8c0.7,0,1.2-0.5,1.3-1.2c0-0.4-0.2-0.9-0.9-1.6
				c-0.7-0.7-1.1-1.6-1.1-2.6c0-0.6,0.1-0.9,0.7-1.8c0.1-0.1,0.1-0.2,0.1-0.3c0-0.2-0.3-0.3-0.5-0.3c-0.4,0-0.9,0.1-1.3,0.3
				c-1,0.4-1.5,0.9-1.5,1.1c0,0.1,0.1,0.2,0.1,0.2l0.3,0.2l0.1,0.1c0,0.1,0,0.2-0.1,0.2c-0.2,0.3-0.4,0.5-0.6,0.8
				c-0.4,0.5-0.8,1-1.3,1.4l-0.3,0.3l-0.2,0.4c-0.4,0.5-0.8,1-1.3,1.4c-0.2,0.2-0.3,0.3-0.4,0.3s-0.1,0.2-0.3,0.4
				c-0.3,0.6-0.7,1.1-1.2,1.7l-0.8,0.9c-0.4,0.6-0.7,1.2-0.9,1.9c-0.2,0.8-0.4,1.1-0.5,1.1l-0.2-0.2c-0.7-0.6-1.1-1.1-1.4-1.1
				c-0.1,0-0.2,0-0.3,0.1c-0.2,0.1-0.5,0.2-0.9,0.3l-1.1,0.2c-1,0.2-1.3,0.3-1.7,1l-0.2,0.2c-0.1,0-0.2-0.1-0.2-0.4v-0.2
				c0.1-0.3,0.1-0.6,0.1-0.8c0.1-0.7,0.3-1.4,0.7-2l0.5-1c0.1-0.1,0.1-0.2,0.1-0.4c0-0.8-0.7-1.3-1.6-1.4c-0.2,0-0.3-0.1-0.3-0.2
				c0.1-0.3,0.3-0.5,0.6-0.6c0.5-0.4,1.2-0.7,1.8-0.7c0.5,0,1,0.1,1.4,0.3l0.7,0.3c0.2,0.1,0.4,0.1,0.6,0.1c0.8,0,1.4-0.6,2.3-2.1
				c0.3-0.5,0.5-1,0.5-1.6c0-0.8-0.3-1.3-1-1.3c-0.5,0-0.9,0.2-1.3,0.5c-0.3,0.2-0.5,0.6-0.5,1v0.4c0,0.2-0.1,0.3-0.2,0.3
				s-0.5-0.2-1.1-0.9c-0.2-0.2-0.5-0.6-0.9-1c-0.7-0.7-1.1-1.6-1.1-2.6c-1.1-1.3-1.3-1.9-1.3-2.8v-0.6c-0.6-0.5-0.9-1.3-0.9-2.1
				c0-0.3,0-0.6,0.2-0.9c-0.2-0.4-0.4-0.8-0.5-1.2l-0.1-0.6c-0.1-0.4-0.2-0.8-0.5-1.2c-0.3-0.4-0.3-0.4-0.3-0.5
				c0-0.3,0.3-0.5,1.1-0.7l0.3,0.1c0-0.2-0.1-0.4-0.1-0.6c0-0.3,0-0.5,0.1-0.7l0.2-1.2C61,6.5,61,6.2,61,5.9c0-0.3-0.1-0.7-0.2-1
				c-0.1-0.3-0.2-0.5-0.3-0.8c-0.1-0.2-0.2-0.3-0.2-0.4c0-0.1,0.1-0.2,0.2-0.2c0.1,0,0.2,0,0.3,0.1c1.1,0.6,2.1,1.4,3,2.3
				c0.7,0.7,0.9,1.4,1.1,3.1c0.9,0.5,1.4,1.4,1.3,2.3c0,0.7-0.2,1.3-0.7,1.8c-0.2,0.4-0.4,0.7-0.6,1c-0.2,0.3-0.3,0.7-0.3,1.1
				c0.1,0.6,0.2,1.2,0.5,1.8c0.4,0.9,0.9,1.2,1.4,1.2c0.8,0,1.5-1.4,1.5-2.9v-1.1l0.1-0.7l0.1-0.9l0.1-0.7v-0.4c0-0.3-0.1-0.4-1-1.4
				c-0.9-0.7-1.4-1.8-1.5-2.9c0-0.9,0.8-1.5,1.6-1.5c0,0,0,0,0,0c0.2,0,0.4,0,0.7,0.1v-1l0.2-0.7c0.1-0.6,0.2-0.8,0.4-0.8h0.1
				l0.5,0.5L70,4.3l0.2,0.2c0-0.4,0.1-0.4,0.4-0.8c0.1-0.2,0.3-0.4,0.4-0.5l0.3-0.4l0.2-0.3c0.1-0.2,0.2-0.2,0.2-0.2
				s0.1,0.1,0.2,0.4c0,0.2,0.1,0.3,0.3,0.4l0.4,0.3c0.4,0.3,0.6,0.8,0.7,1.3c0.1-0.3,0.4-0.5,0.7-0.5l0.5-0.3c0.1,0,0.2-0.1,0.3-0.1
				c0.1,0.1,0.1,0.1,0.1,0.2c0.1,0.1,0.1,0.3,0.2,0.4c0.4,0.6,0.4,0.8,0.4,1.2v0.5c0.9,0.1,1.6,1,1.4,1.9c0,0,0,0,0,0
				c-0.1,1-0.5,1.9-1.2,2.5c-0.5,0.6-0.7,0.9-0.7,1.3c0,2.1,1.6,3.4,4.4,3.5h2c1.1,0,2.3,0.1,3.3,0.5c0.7,0.3,1.5,0.5,2.3,0.5
				c0.3,0.1,0.5-0.1,0.6-0.4c0,0,0,0,0,0c0-0.4-0.8-0.8-3.2-1.5c-5.1-1.4-7.2-3.4-7.2-6.7c0.1-2.6,2.2-4.7,4.9-4.6c0,0,0.1,0,0.1,0
				c1,0,2,0.2,3,0.5l1.3,0.4c0.2,0.1,0.4,0.1,0.7,0.1c0.4,0,0.6-0.2,0.6-1.1c0-0.3,0.1-0.5,0.3-0.5s1,0.5,1.4,1.2
				c0.4,0.6,0.7,1.3,0.8,2c0,0.7-0.4,1.3-1.1,1.5c-0.5,1-1.6,1.6-2.7,1.5c-1.5-0.2-3-0.8-4.2-1.7c-0.4-0.3-1-0.5-1.5-0.5
				c-0.4-0.1-0.8,0.2-0.9,0.7c0,0,0,0.1,0,0.1c0,0.4,0.3,0.8,1.3,1.1c1.4,0.5,1.7,0.6,2.2,1.2c1.2,0.1,2.3,0.5,3.2,1.3
				c2.8,0.9,4.3,2.6,4.3,4.8c0.1,1.8-1.2,3.3-3,3.4c-0.1,0-0.2,0-0.2,0C87.7,19.3,87.5,19.2,86.7,19.1"/>
			<path id="_Path_4" class="st2" d="M30,76.5c0.2,0.6,0.3,1,0.4,1.4l0.1,1.3c0,1.3,0.4,1.9,1.3,1.9c0.2,0,0.5-0.1,0.7-0.2l0.3-0.3
				h0.1c0.2,0,0.3,0.1,0.3,0.4v0.5c0,0.5,0,0.9,0.1,1.4c0.1,0.4,0.1,0.9,0.1,1.3c0.1,0.5-0.1,1-0.3,1.5c0.2,0.6,0.3,1.2,0.3,1.8
				c0,0.5-0.1,1-0.3,1.5c0.1,0.3,0.1,0.7,0.1,1c0,0.4,0,0.8-0.1,1.2c-0.1,0.5-0.1,1-0.1,1.5v0.1c0,0.2-0.1,0.3-0.2,0.3
				s-0.2-0.1-0.3-0.2s-0.3-0.3-0.4-0.3s-0.3,0.1-0.5,1.1c-0.2,0.4-0.4,0.8-0.8,1.2c-0.3,0.2-0.5,0.5-0.5,0.9
				c-0.1,0.3-0.1,0.5-0.2,0.6s-0.1,0.1-0.2,0.1l0,0c-0.5,0-1.1-1.1-1.7-3.1c-0.2-0.5-0.4-0.8-0.6-0.8c-0.2,0-0.4,0.1-0.5,0.3
				l-0.2,0.4c0,0.1,0,0.1-0.1,0.1c0,0,0,0,0,0c-0.2,0-0.6-0.4-0.9-1c-0.2-0.4-0.3-0.9-0.3-1.3c0-1,0.8-1.7,2.8-2.9
				c0.9-0.4,1.4-1.4,1.3-2.3c0-0.8-0.4-1.7-1.1-2.1C28,83.3,27.5,83.1,27,83c-0.3,0-0.5,0.2-0.5,0.4c0,0.3,0.2,0.4,0.5,0.6
				s0.6,0.3,0.6,0.5c-0.1,0.4-0.3,0.8-0.5,1.1c-0.2,0.4-0.6,0.8-1,1c-0.2,0.9-0.7,1.6-1.5,2c-0.2,0.4-0.4,0.8-0.6,1.2l-0.6,0.8
				c-0.2,0.3-0.4,0.6-0.4,1c-0.1,0.4-0.1,0.5-0.3,0.5s-0.8-0.4-1.3-1.1c-0.2-0.3-0.4-0.6-0.4-1c-0.3,0.2-0.7,0.4-1.1,0.3
				c-0.3,0-0.6,0.1-0.9,0.2c-0.2-0.2-0.3-0.1-0.4-0.1s-0.2-0.1-0.2-0.3v-0.7c0-1,0.3-1.9,1-2.7c-0.4-0.4-0.9-0.7-1.5-0.8
				c-0.2,0-0.2,0-0.2-0.1c0.1-0.2,0.2-0.4,0.3-0.5c0.2-0.2,0.3-0.4,0.5-0.6c0.5-0.4,1.2-0.6,1.8-0.6c0.6,0,1.2,0.2,1.7,0.4
				c0.2,0.1,0.5,0.1,0.8,0.1c0.3,0,0.5-0.2,0.5-0.6c-0.2-1-0.5-1.9-0.9-2.8c-0.3-0.6-0.6-1.3-0.6-2c0-1,0.4-1.9,1.2-2.4
				c-0.3-0.2-0.6-0.2-0.9-0.2c-0.4,0-0.7,0.1-1,0.3c-0.4,0.2-0.8,0.5-0.8,0.7s0.1,0.1,0.2,0.2s0.3,0.2,0.3,0.4
				c-0.2,1-0.7,1.9-1.5,2.4c-0.1,1-0.7,1.8-1.6,2.1c-0.1,0.5-0.3,1-0.7,1.4c-0.5,0.6-0.9,1.4-1.2,2.1c-0.1,0.3-0.1,0.4-0.2,0.4
				c-0.3-0.1-0.5-0.3-0.6-0.5c-0.2-0.2-0.3-0.4-0.5-0.5c-0.2-0.3-0.3-0.7-0.3-1c-0.1,0.1-0.3,0.1-0.4,0.1h-0.8
				c-0.6,0-1.2,0.1-1.7,0.3c-0.1,0.1-0.1,0.1-0.2,0.1c-0.2,0-0.3-0.4-0.3-1c0-1.1,0.4-2.2,1.1-3l-0.5-0.5L11,80.6l-0.3-0.2
				c-0.1-0.1-0.2-0.1-0.2-0.2c0.3-0.4,0.6-0.7,1-1c0.4-0.4,1-0.5,1.5-0.5c0.5,0,0.8,0.1,1.4,0.6c0.2,0.3,0.6,0.5,1,0.5
				c0.2,0,0.3-0.1,0.4-0.3c0.1-0.1,0.1-0.3,0.1-0.4c-0.2-0.9-0.7-1.6-1.5-2c-0.5-0.4-1.2-0.6-1.8-0.5c-0.8,0-1.5,0.4-1.9,1.1
				l-0.5,0.7c-0.1,0.2-0.2,0.2-0.3,0.2s-0.3-0.1-1-0.9l-0.8-1c-0.2-0.2-0.4-0.5-0.6-0.7c-0.1-0.1-0.1-0.3-0.1-0.4
				c-0.1-0.1-0.2-0.1-0.3-0.2c-0.8-0.6-1.2-1.6-1.3-2.6c0-0.1,0-0.3-0.1-0.4c-0.7-0.8-1.1-1.9-1.2-3c0-0.1,0-0.3,0.1-0.4
				c-0.4-0.4-0.5-0.5-0.9-1.7c-0.1-0.6-0.4-1.1-0.8-1.6c-0.1-0.1-0.1-0.1-0.1-0.2c0-0.1,0.2-0.3,0.8-0.3C3.8,65.1,4,65,4.2,65.1h0.7
				v-0.9c0-0.5,0-0.9,0.1-1.4c0.1-0.4,0.1-0.8,0-1.2c0-0.1,0-0.3-0.1-0.4c0-0.1-0.1-0.2-0.2-0.2c0-0.1,0.1-0.1,0.2-0.1
				c0.2,0,0.3,0,0.4,0.1c0.5,0.2,0.9,0.4,1.3,0.8c1,0.7,1.7,1.7,1.9,2.9v0.2c0,0.2,0,0.3-0.1,0.4c0,0.2,0.1,0.4,0.2,0.5l0.3,0.4
				c0.3,0.3,0.5,0.7,0.5,1.2c0,0.3-0.1,0.4-0.5,1.1c-0.3,0.4-0.5,0.9-0.5,1.4c0,0.7,0.3,1.4,0.6,1.9c0.3,0.6,0.8,1,1.2,1
				c0.6,0,1-0.6,1.1-2.2c0-0.8,0.1-1.6,0.2-2.3v-0.4c0-0.2-0.1-0.3-0.3-0.6l-1-1.1c-0.8-1-1.2-1.5-1.2-2.3c-0.1-0.7,0.5-1.3,1.2-1.4
				c0.1,0,0.1,0,0.2,0h0.3v-0.2c0-0.3,0-0.6,0.1-0.8c0.2-0.6,0.4-1.2,0.5-1.2c0.1,0,0.2,0,0.3,0.1c0.2,0.1,0.4,0.2,0.5,0.2
				c0.2,0.1,0.4,0.2,0.6,0.3c0-0.4,0.2-0.8,0.5-1.1c0.3-0.4,0.6-0.7,1-1c0.2,0,0.4,0.2,0.5,0.3l0.5,0.6c0.1,0.2,0.2,0.3,0.3,0.5
				l0.1,0.3c0.1-0.1,0.2-0.1,0.3-0.2c0.2-0.1,0.4-0.2,0.5-0.3c0.3-0.2,0.5-0.3,0.5-0.3c0.1-0.1,0.2-0.1,0.3-0.1
				c0.1,0,0.1,0.2,0.4,1.2c0.1,0.5,0.2,0.9,0.2,1.4c1,0.1,1.4,0.6,1.4,1.7c-0.1,1.2-0.6,2.4-1.5,3.2c-0.2,0.2-0.4,0.5-0.3,0.8
				c0,2.7,1,3.5,4.3,3.8c1.8,0.1,3.5,0.5,5.2,1.1c0.8,0.3,1.7,0.5,2.6,0.5c0.5,0,0.9-0.2,0.9-0.5c0-0.5-0.4-0.8-2.9-1.3
				c-5.7-1.2-8-3.1-8-6.8c0-2.5,1.9-4.5,4.4-4.6c0.1,0,0.1,0,0.2,0c1.4,0,2.7,0.5,3.9,1.3c1.5,0.9,1.8,1.1,2.3,1.1s0.5-0.2,0.5-1
				c0-0.4,0.1-0.6,0.4-0.6c0.4,0.1,0.8,0.3,1,0.6c0.5,0.4,0.7,1.1,0.8,1.7c0,1-0.7,2-1.7,2.1l-0.3,0.3c-0.5,0.7-1.3,1.1-2.2,1
				c-1,0-1.9-0.3-2.7-0.8l-1.5-1.1c-0.4-0.4-1-0.6-1.5-0.6c-0.5-0.1-0.9,0.2-1,0.7c0,0.1,0,0.2,0,0.3c0,0.6,0.5,1.2,1.1,1.3l1.4,0.4
				c0.5,0.1,0.9,0.3,1.3,0.5c0.2,0,0.4-0.1,0.6-0.1c0.9,0,1.8,0.2,2.6,0.7c0.2,0.1,0.3,0.2,0.5,0.2l0.8,0.2c1.8,0.7,3,2.3,3.1,4.3
				c0.1,1.9-1.3,3.4-3.2,3.5c-0.2,0-0.3,0-0.5,0L30,76.5z"/>
			<path id="_Path_5" class="st2" d="M83.3,75.9c0.6,1,1.7,1.4,2.8,1.1c0.2,0,0.3-0.1,0.4-0.1s0.2,0,0.2,0.2c0,0.2-0.1,0.4-0.1,0.5
				c-0.1,0.2-0.1,0.4-0.2,0.5l-0.1,0.6L86,79.3l-0.5,0.5L85.4,80v0.4c0.1,0.7-0.3,1.3-0.9,1.6c-0.1,0.1-0.1,0.1-0.2,0.1l-0.1,0.2
				c0,0.4-0.2,0.7-0.3,1.1c-0.1,0.2-0.3,0.4-0.5,0.8c-0.3,0.4-0.6,0.8-0.8,1.3c-0.1,0.3-0.2,0.4-0.4,0.4s-0.6-0.3-0.6-0.9
				c-0.1,0.1-0.1,0.1-0.1,0.2l-0.3,0.2L80.5,86c-0.1,0.2-0.3,0.3-0.5,0.3l-0.3,0.3c-0.1,0.1-0.1,0.1-0.2,0.1S79.1,86.5,79,86l-0.3-1
				c-0.1-0.3-0.1-0.7-0.1-1c0-0.3,0.1-0.7,0.2-1c-0.4,0-0.7,0.1-1.1,0.2c-0.1,0-0.2,0.1-0.2,0.1c-0.1,0-0.2-0.1-0.2-0.2
				c0-0.1,0.1-0.3,0.1-0.4l0.4-1.1c0.3-0.8,1.1-1.4,2-1.5c0.3,0,0.5,0,0.8,0.1c0.1,0.1,0.3,0.1,0.4,0.1c0.3,0,0.6-0.2,0.6-0.5
				c0-0.2-0.1-0.3-0.2-0.4c0,0-0.4-0.1-1.1-0.3s-0.8-0.3-1.4-1c-0.4-0.4-0.5-0.6-0.8-0.6c-0.1,0-0.2,0.1-0.2,0.2v0.6
				c0,1-0.3,1.9-0.9,2.8l-0.9,1.6c-0.3,0.5-0.5,1.2-0.5,1.8c0,0.6,0.2,1.2,0.7,1.3l0.4,0.1c0.1,0,0.1,0,0.1,0.1S77,86,77,86.2
				c0,0.1,0,0.2-0.1,0.3c0,0.1-0.2,0.3-0.5,0.8c-0.4,0.5-0.9,1-1.5,1.2c-0.4,0.9-1.1,1.5-2,1.8l-0.1,0.2c-0.4,0.7-1,1.1-1.8,1.2
				h-0.1c-0.1,0.7-0.5,1.2-1.1,1.6c-0.4,0.3-0.7,0.4-0.8,0.5c-0.1,0.1-0.1,0.2-0.1,0.3c-0.1,0.3-0.2,0.4-0.4,0.4s-0.7-0.3-0.8-0.8
				c-0.1,0.1-0.2,0.1-0.3,0.2c-0.2,0.1-0.4,0.3-0.5,0.4c-0.3,0.2-0.7,0.3-1.1,0.3c-0.6,0.1-1.1,0.4-1.6,0.8l-0.3,0.4h-0.1
				c-0.1,0-0.3-0.2-0.4-0.4c-0.2-0.5-0.3-1.1-0.3-1.7c0-1.1,0.6-2.2,1.5-2.9v-0.2c0-1.7,1.3-2.8,3.2-2.8h0.3l1.1,0.1h0.1
				c0.6,0,1.2-0.2,1.6-0.6c0.8-0.6,1-1,1-1.7c-0.1-0.4-0.2-0.9-0.3-1.3c0-1.2-0.1-1.7-0.1-2.1c0.1-1.5,0.9-2.8,2.2-3.6
				c0.2-0.1,0.4-0.4,0.5-0.6c0-0.1,0-0.1-0.1-0.1s-0.2,0.1-0.4,0.2c-0.2,0.2-0.5,0.3-0.8,0.4l-0.3,0.2l-0.7,0.2
				c-0.2,0.1-0.2,0.1-0.2,0.3c0,0.1,0,0.2,0.1,0.3c0,0.1,0,0.2,0.1,0.2c0,0.1,0,0.2-0.1,0.3l-0.4,0.8c-0.3,0.5-0.7,0.9-1.3,1.2
				c-0.2,0.8-0.8,1.5-1.6,1.6c-0.3,1-1.1,1.7-2.2,1.7c-0.2,0.5-0.5,1-1,1.4c-0.2,0.2-0.3,0.3-0.4,0.5c-0.2,0.4-0.2,0.4-0.3,0.4
				c-0.3-0.1-0.5-0.2-0.8-0.4l-0.3-0.3l-0.3-0.5c-0.1-0.1-0.2-0.2-0.3-0.2h-0.2l-0.6,0.1c-0.4,0.1-1.1,0.4-1.2,0.8l-0.3,0.5
				l-0.1,0.1c-0.3,0-0.4-0.6-0.4-1.6c-0.1-0.7,0.1-1.3,0.4-1.9l0.9-1.2c0.1-0.2,0.2-0.3,0.2-0.4c0-0.2,0-0.3-0.1-0.4
				c-0.2-0.2-0.3-0.3-0.5-0.3l-0.7-0.1c-0.1,0-0.2,0-0.2-0.1c0-0.1,0-0.2,0.1-0.2c0.2-0.3,0.5-0.5,0.8-0.6c0.5-0.3,1.1-0.6,1.8-0.6
				c0.6,0,1.1,0.2,1.6,0.5l0.9,0.5c0.1,0.1,0.3,0.1,0.4,0.1c0.5,0,0.9-0.3,1-0.8c0.3-0.4,0.4-0.9,0.4-1.4c0-1-0.8-1.9-1.8-1.9
				c0,0-0.1,0-0.1,0c-0.6,0-1.2,0.3-1.6,0.6L63,78l-0.1,0.2c-0.1,0.1-0.1,0.2-0.2,0.2c-0.4-0.2-0.6-0.6-0.8-1
				c-0.2-0.3-0.3-0.7-0.4-1.1c-0.2-0.4-0.2-0.9-0.2-1.4v-0.9c-0.4-0.6-0.6-1.2-0.5-1.9c0-0.4,0.1-0.7,0.2-1.1
				c-0.2-0.4-0.4-0.9-0.3-1.4v-0.4l0.1-0.4l0.1-0.3c-0.3-0.4-0.4-0.6-0.7-2c-0.2-0.8-0.2-1.1-0.4-1.3c-0.1,0-0.1,0-0.1-0.1
				s0.4-0.3,0.9-0.3h0.4c-0.1-0.2-0.1-0.4-0.1-0.6c0-0.4,0.1-0.8,0.2-1.3c0.1-0.4,0.2-0.6,0.2-0.8c0-0.3,0-0.7-0.1-1l-0.2-0.6
				c0-0.1-0.1-0.2-0.1-0.3s0-0.1,0.1-0.1c1,0.2,2,0.7,2.7,1.5c0.8,0.7,1.3,1.7,1.2,2.8v0.6c0.7,0.4,1.1,1.2,1.2,2
				c0,0.5-0.2,1-0.6,1.3c-0.7,0.5-1.1,1.4-1,2.2c0,1.6,0.5,2.4,1.4,2.4s1.4-0.8,1.5-2.1l0.1-1.2c0-0.3,0.1-0.6,0.1-1.1
				c0-0.3,0.1-0.5,0.1-0.8c0-0.4-0.3-0.8-1.1-1.8c-0.7-0.6-1.1-1.4-1.2-2.3c-0.1-0.8,0.6-1.5,1.4-1.6c0,0,0.1,0,0.1,0
				c0.2,0,0.5,0.1,0.6,0.2c0-0.5,0.1-1,0.3-1.4c0.2-0.6,0.5-1,0.6-1c0.1,0,0.2,0,0.2,0.1c0.1,0.1,0.3,0.2,0.4,0.3
				c0.1,0.1,0.2,0.1,0.3,0.2l0.3,0.3c0.2-0.6,0.5-1.2,1-1.6c0.4-0.4,0.5-0.5,0.6-0.5s0.1,0,0.2,0.1l0.3,0.5l0.5,0.5
				c0.3,0.3,0.4,0.6,0.3,1l0.3-0.2l0.5-0.3c0.1,0,0.2-0.1,0.3-0.2s0.1-0.1,0.2-0.1c0.1,0.1,0.1,0.1,0.1,0.2l0.2,0.7l0.4,0.8
				c0.1,0.2,0.1,0.5,0.1,0.8v0.2h0.2c0.6,0,1.1,0.8,1.1,1.5c-0.1,1.3-0.9,2.5-2,3.2c-0.1,0.3-0.1,0.6-0.1,0.8c0,2.4,0.6,2.9,4.4,3.5
				c0.8,0.1,1.7,0.3,2.5,0.5c0.1,0,1,0.3,2.5,0.8c0.6,0.3,1.2,0.4,1.8,0.4c0.4,0,0.8-0.1,0.8-0.3c0-0.4-0.6-0.8-2.5-1.5l-2.7-1
				c-2.7-1.1-4-2.7-4-5.1c0-2.7,2.1-4.9,4.8-4.9c0.1,0,0.1,0,0.2,0c1.3,0,2.5,0.3,3.7,0.7c1.9,0.8,2,0.8,2.3,0.8s0.5-0.2,0.6-0.8
				s0.2-0.6,0.4-0.6s0.8,0.3,1.1,1c0.2,0.5,0.4,1,0.4,1.6c0.1,0.9-0.6,1.7-1.5,1.8c-0.6,0.8-1.5,1.3-2.5,1.3c-1.2,0-1.8-0.2-3.9-1.5
				c-0.5-0.4-1.1-0.6-1.7-0.6c-0.8,0-1.3,0.4-1.3,1.1s0.4,1,1.5,1.2c0.4,0,0.8,0.2,1,0.5c0-0.2,0.1-0.2,0.2-0.2
				c1.2,0.1,2.3,0.6,3.2,1.4c1.9,0.6,3.3,2.3,3.6,4.3c0,1.9-1.5,3.5-3.4,3.5C85,76.3,84.2,76.2,83.3,75.9"/>
			<path id="_Path_6" class="st3" d="M32.5,32.4c-0.1-0.2-0.1-0.5-0.1-0.7v-0.2l0.1-0.5v-0.4c0-0.3-0.1-0.7-0.2-1L31.9,29
				c-0.1-0.2-0.2-0.3-0.3-0.5c0-0.1,0-0.2-0.1-0.2c0-0.1,0.1-0.2,0.2-0.2c0.1,0,0.1,0,0.4,0.2c0.1,0.1,0.2,0.1,0.3,0.1
				c0.2,0,0.3-0.3,0.3-0.9c0-0.4,0-0.7-0.2-1.1l-0.4-0.5l-0.5-0.3c-0.1-0.1-0.1-0.1-0.1-0.2c0-0.1,0.1-0.2,0.2-0.2
				c0.1,0,0.4,0.1,0.6,0.1h0.1c0.1,0,0.2-0.1,0.2-0.2v-0.8l-0.2-0.6c-0.1-0.2-0.1-0.2-0.2-0.2h-0.1l-0.8,0.1h-0.1
				c-1.1-0.1-2-0.9-2.4-1.9l-0.6-1.9c-0.3-0.8-0.8-1.4-1.5-1.8c-0.2-0.2-0.4-0.3-0.6-0.3l-0.5-0.1c-0.1,0-0.2,0-0.2-0.1
				c0-0.1,0.1-0.2,0.4-0.2l1,0.1c0.6,0.1,1.1,0.2,1.6,0.4c0.6,0.3,1.3,0.4,2,0.4c1.2,0.1,2.3-0.7,2.5-1.9c0-0.1,0-0.2,0-0.3
				c0-1-0.5-2-1.3-2.7c-0.3-0.3-0.6-0.5-1-0.6c-0.1,0-0.1,0.1-0.1,0.2v0.4l0,0c0,0.1-0.1,0.3-0.2,0.3s-0.3-0.2-0.5-0.6
				c-0.4-1-1.3-1.8-2.4-1.9c-0.2,0-0.3,0.1-0.3,0.2c0,0.2,0,0.3,0.1,0.4l0.2,0.5c0.1,0.1,0.1,0.2,0.1,0.3l-0.1,0.1
				c-0.2,0-0.4-0.2-0.5-0.3l-0.2-0.6L26.1,11c-0.3-0.5-0.7-0.9-1.3-1.1c-0.3-0.1-0.6-0.3-0.8-0.5c-0.1-0.1-0.3-0.1-0.4-0.1
				c-0.1,0-0.2,0-0.2,0.1c0,0.1,0,0.2,0.1,0.3c0.2,0.2,0.3,0.4,0.3,0.6c0,0.1,0,0.2-0.1,0.2c-0.2,0-0.8-0.4-1.2-1.2
				C22.2,8.9,22,8.4,22,7.8c0-1.2,0.9-2.2,2.1-2.3c0,0,0.1,0,0.1,0c0.8,0.1,1.6,0.3,2.3,0.8l1.4,0.8c0.5,0.3,1.1,0.5,1.7,0.5
				c0.2,0,0.6-0.1,0.9-0.1s0.2-0.1,0.3-0.1S31,7.3,31,7.2s0-0.1-0.1-0.1L30.6,7L30,6.9c-0.3,0-0.6-0.2-0.9-0.3
				c-0.5-0.2-1-0.4-1.5-0.8c-0.3-0.2-0.6-0.4-1-0.5c-0.2-0.1-0.4-0.2-0.4-0.3s0-0.1,0.1-0.1c0.1,0,0.2,0,0.3,0.1
				c0.3,0.3,0.8,0.4,1.2,0.4l1.3,0.4c0.6,0.2,1.3,0.4,2,0.4c0.6,0,1-0.4,1-1c0,0,0,0,0,0c-0.1-0.5-0.2-0.9-0.5-1.3
				c-0.1-0.1-0.1-0.1-0.2-0.1c-0.1,0-0.2,0.1-0.2,0.2v0.5c0,0.4-0.2,0.8-0.6,0.8c-0.2,0-0.3,0-0.4-0.1l-2-0.6C27,4.2,26,4,24.8,3.9
				c-2.2-0.2-4,1.5-4.2,3.6c0,0,0,0.1,0,0.1c0,2.4,1.7,3.9,5.9,5.4s4.7,1.8,4.7,2.9c-0.1,0.6-0.6,1.1-1.3,1.1c-0.3,0-0.5,0-0.8-0.1
				c-0.1,0-0.9-0.2-2-0.5c-1.2-0.3-2.5-0.4-3.8-0.4c-3,0-4.6,0.5-6.1,1.9c-0.3,0.3-0.4,0.4-0.9,0.4h-0.6c-0.4,0-0.7,0.2-0.9,0.5
				c-0.2,0.3-0.4,0.6-0.5,0.9c-0.1,0.1-0.2,0.2-0.3,0.2c-0.3,0-0.4-0.2-0.8-1c-0.1-0.4-0.4-0.7-0.6-1L12,17.6
				c0.2-0.1,0.2-0.2,0.2-0.2c0-0.1,0-0.2,0.1-0.3c0.3-0.4,0.4-0.6,0.4-0.8c0.1-0.4,0.1-0.4,0.2-0.4s0.2,0.2,0.2,0.9
				c0,0.3,0.1,0.6,0.2,0.9l0.3,0.8c0,0.1,0.1,0.1,0.3,0.1s0.8-0.8,0.9-1.5s0.1-0.9,0.3-0.9c0,0,0.1,0,0.1,0.1
				c0.1,0.2,0.2,0.4,0.3,0.5c0.1,0.2,0.2,0.3,0.4,0.4c0.1,0.1,0.2,0.1,0.3,0.2l0,0c0.2,0,0.3-0.1,0.4-0.8v-1.1
				c0-0.2,0.1-0.3,0.2-0.3s0.1,0,0.2,0.1l0.3,0.3c0.2,0.2,0.4,0.3,0.6,0.3c0.2,0,0.4-0.1,0.4-0.3c-0.1-0.3-0.2-0.5-0.3-0.8l-0.2-0.4
				c-0.2-0.4-0.4-0.6-0.6-0.6h-0.3l-0.3,0.1c-0.1,0-0.2,0-0.2,0.1c-0.1,0-0.1,0-0.1-0.1l0,0c0.1-0.5,0.2-0.9,0.5-1.3
				c0.3-0.7,0.5-1.5,0.5-2.3c0.1-1.6,0.3-2.7,0.5-2.7s0.2,0.1,0.2,0.4v0.7c0,0.2,0,0.4,0.1,0.5c0.2,0,0.5-0.4,0.9-1.1
				c0.1-0.2,0.1-0.4,0.1-0.6V7.5l-0.6-1.2l-0.6-0.2c-0.1,0-0.2,0-0.2-0.1V5.3l-0.2-0.1l-0.1-0.3l-0.1-0.3c-0.5,0.2-0.9,0.6-1.2,1
				C16,5.9,15.9,6,15.7,6c-0.1,0-0.1,0-0.1-0.1c0-0.2,0-0.4,0.1-0.5V5.1c-0.1-0.7-0.5-1.4-1.1-1.7l-0.3,0.2l-0.2,0.3l-0.3,0.4
				c-0.2,0.2-0.3,0.4-0.3,0.6c0,0.1-0.1,0.2-0.1,0.3l0,0v0.1c0,0.2,0,0.3-0.1,0.3h-0.1l-0.2-0.3l-0.3-0.3L12,4.8l-0.3-0.2
				c0,0.1-0.1,0.2-0.1,0.3c-0.1,0.2-0.1,0.4-0.1,0.5v1.2c0,0.2-0.1,0.3-0.2,0.3S11.1,6.8,11,6.8c-0.1-0.1-0.3-0.1-0.4-0.1
				c-0.4,0-0.8,0.3-0.8,0.8c0,0,0,0.1,0,0.1c0,0.6,0.2,1.1,0.5,1.6l0.4,0.5c0.1,0.1,0.2,0.2,0.3,0.2l0.1-0.6l-0.1-0.5V8.5
				c0-0.2,0.1-0.3,0.2-0.3s0.3,0.2,0.4,0.8l0.3,1.2l0.2,1.4c0.1,0.4,0.2,0.8,0.3,1.2c0.1,0.4,0.3,0.7,0.5,1.1
				c0.1,0.2,0.3,0.4,0.4,0.5c0,0.1,0,0.1-0.1,0.1c-0.1,0-0.1,0-0.3-0.1s-0.2-0.1-0.3-0.1h-0.2c-0.5,0-0.6,0.4-0.6,2.4
				c0,1.3,0.2,2.5,0.5,3.7L13,22c0.1,0.2,0.1,0.5,0.1,0.7c0,2.2-3,5.7-6.2,7.3c-1,0.4-1.7,1.3-1.7,2.4v0.4c0.3-0.2,0.7-0.3,1.1-0.4
				c0.9-0.2,1.1-0.3,1.2-0.7l0.1-0.4c0-0.1,0.1-0.2,0.9-0.5c0.2-0.1,0.4-0.2,0.6-0.4c0.1-0.2,0.2-0.3,0.3-0.4c0.1,0,0.1,0,0.1,0.1
				v0.1l-0.5,0.7V31c0,0.7,0.4,1.2,1,1.5c0-0.5,0.2-0.9,0.4-1.3l0.5-0.9c0.2-0.4,0.3-0.8,0.3-1.3c0-0.3,0-0.7-0.1-1v-0.2
				c0-0.1,0.1-0.2,0.2-0.2c0.1,0,0.2,0,0.2,0.1l0.1,0.5c0,0.1,0.1,0.2,0.3,0.2s0.6-0.3,1.1-1.1c0.1-0.3,0.2-0.6,0.2-0.9v-0.4
				L13,25.8v-0.1c0-0.2,0.1-0.3,0.3-0.3c0,0,0.1,0,0.1,0c0.1,0,0.1,0,0.1,0.1l0.2,0.7c0.1,0.2,0.2,0.4,0.4,0.4s0.5-0.3,0.8-0.8
				c0.2-0.4,0.3-0.8,0.3-1.3c0-0.6,0.1-0.9,0.3-0.9s0.1,0,0.1,0.1l0.1,0.4c0,0.1,0.1,0.2,0.2,0.2c0.1,0,0.4-0.3,0.7-0.8
				c0.1-0.1,0.1-0.2,0.1-0.3c0-0.1-0.1-0.2-0.3-0.4S16,22.7,16,22.3c0-0.4,0.1-0.7,0.3-1.1c0.1-0.2,0.3-0.5,0.4-0.8
				c0.4-0.7,0.5-1,0.6-1c0.1,0,0.2,0.1,0.2,0.2c0,0.1,0,0.2-0.1,0.2c-0.1,0.1-0.1,0.2-0.1,0.3c0,0.1,0.1,0.2,0.2,0.2
				c0.2,0,0.4-0.1,0.5-0.2c0.3-0.1,0.6-0.2,0.9-0.3l1-0.3c0.2-0.1,0.4-0.1,0.6-0.1c0.2,0,0.4,0,0.5,0.1c0.2,0.1,0.5,0.1,0.8,0.1
				c0.3,0,0.5-0.2,0.5-0.5c0,0,0,0,0-0.1c-0.1-0.4-0.3-0.7-0.5-1c-0.1,0-0.1,0-0.1-0.1c0,0,0,0,0,0v0c0-0.1,0.1-0.1,0.2-0.1
				s0.6,0.5,1.1,1.2c2.7,4.2,3.5,5.1,5.4,5.6s2.3,1,2.3,2c-0.1,0.8-0.5,1.5-1,2.1c-1.3,1.8-1.6,2.6-1.6,3.8v0.2
				c0.1-0.1,0.2-0.1,0.3-0.1c0.2-0.1,0.3-0.2,0.5-0.2l0.8-0.1c0.2,0,0.4-0.3,0.4-0.6v-0.1l-0.1-0.6V31c0-0.3,0.1-0.5,0.3-0.6
				l0.1-0.1c0.1,0,0.2,0.1,0.2,0.2l0.5,1.1C31.6,31.9,32,32.2,32.5,32.4"/>
			<path id="_Path_7" class="st3" d="M7.7,10.3c-0.2,0-0.3,0.2-0.3,0.6l-0.1,0.5c-0.1,0.2-0.1,0.5-0.1,0.8c0,0.4,0.1,0.7,0.3,0.7
				s0.5-0.3,0.6-0.7c0.1-0.2,0.1-0.5,0.1-0.8c0-0.2,0-0.4-0.1-0.6C8,10.5,7.9,10.3,7.7,10.3"/>
			<path id="_Path_8" class="st3" d="M4.8,5.6v0.2c-0.1,0.7-0.2,1.4-0.4,2C4.3,8,4.3,8.2,4.3,8.4c0,0.2,0.1,0.4,0.2,0.6l0.3,0.3
				l0.3,0.2L5.3,10c0,0.2,0,0.4,0.1,0.6c0.1,0.3,0.1,0.6,0.1,0.9c0,0.2,0,0.3-0.1,0.3S5.1,11.5,4.9,11c-0.3-0.7-0.5-1-1-1
				c-0.3,0-0.7,0-1,0.2C3,10.3,3,10.5,3.1,10.5c0.1,0.2,0.2,0.4,0.3,0.5l0.4,0.9c0.3,0.5,0.4,0.9,0.5,1c0.1,0.2,0.2,0.3,0.4,0.4
				c0.2,0.1,0.4,0.2,0.5,0.3c0.1,0.1,0.2,0.2,0.2,0.3c0,0.1-0.1,0.2-0.2,0.2l0,0L5,14.1H4.7c-0.1,0-0.2,0.1-0.2,0.3
				c0.1,1.1,0.8,2.1,1.8,2.6c0.1,0.1,0.2,0.2,0.2,0.3c0,0.1-0.1,0.2-0.2,0.2c-0.1,0-0.2-0.1-0.4-0.1s-0.1-0.1-0.2-0.1
				s-0.2,0.1-0.2,0.3c0.1,0.5,0.3,1,0.5,1.4c0.2,0.5,0.6,0.8,1.1,1l1.4,0.5c0.1,0,0.1,0.1,0.1,0.2c0,0.1-0.1,0.2-0.2,0.2h-1
				c-0.2,0-0.2,0-0.2,0.1c0.1,0.3,0.3,0.7,0.4,1c0.3,0.5,0.6,0.9,0.8,0.9s0.1-0.1,0.2-0.1L8.8,22c0.2-0.2,0.5-0.4,0.8-0.6
				c0.2-0.2,0.6-0.3,0.9-0.3l0.5-0.1c0.1,0,0.2-0.1,0.2-0.3v-0.4l-0.1-0.6v-1.2c0-0.2-0.1-0.2-0.1-0.2s-0.2,0.1-0.3,0.2
				c-0.4,0.8-0.9,1-1.3,1c-1.6,0-2.9-2.9-2.9-6.6c0-0.4,0-0.9,0.1-1.3c0.1-0.5,0.1-1.1,0.1-1.6c0.1-1.3-0.2-2.6-1.1-3.6L5.2,5.8
				L4.8,5.6z"/>
			<path id="_Path_9" class="st3" d="M8.8,27.8c-0.3,0-0.6-0.1-0.8-0.2c-0.2-0.1-0.4-0.1-0.5-0.2c-0.4-0.2-0.8-0.3-1.2-0.3
				c-0.5,0-0.9,0.2-1.3,0.5l0.3,0.2L6,28.2l0.5,0.4c0.1,0.1,0.3,0.2,0.5,0.2C7.5,28.9,8.1,28.6,8.8,27.8"/>
			<path id="_Path_10" class="st3" d="M20.6,33.4c0.1-0.3,0.4-0.6,0.6-0.7c0.9-0.8,1.3-1.3,1.3-1.7v-0.6c0-0.4,0.1-0.5,0.3-0.5
				s0.2,0,0.2,0.1l0.1,0.3c0,0.1,0.1,0.1,0.2,0.1c0.2,0,0.3-0.1,0.4-0.3l0.3-0.4c0.1-0.2,0.2-0.4,0.2-0.6c0-0.1,0-0.2-0.1-0.3
				c0-0.1-0.1-0.2-0.2-0.5c-0.1-0.1-0.1-0.3-0.1-0.4c0-0.2,0.1-0.3,0.3-0.3c0,0,0.1,0,0.1,0c0.1,0,0.2,0,0.2,0.1l0.2,0.3
				c0.1,0.1,0.1,0.1,0.2,0.1s0.2-0.1,0.3-0.2l0.2-0.5c0.1-0.1,0.1-0.2,0.1-0.3c0-0.1-0.1-0.2-0.3-0.3l-0.4-0.2c-0.7-0.4-1-1.1-1-1.9
				c0-0.1,0-0.2,0.1-0.3l0.2-0.5c0.1-0.2,0.1-0.3,0.1-0.5c0-0.4-0.1-0.7-0.3-1l-0.4-0.6c-0.2-0.4-0.3-0.6-0.4-0.6h0l-0.2,0.1
				l-0.2,0.4l-0.4,0.5l-0.4,0.2c-0.3,0.3-0.6,0.7-0.6,1.1c0,0.8,0.1,1,1.2,2.8c0.4,0.5,0.6,1.1,0.7,1.7c0,1.3-1.1,2.1-3.3,2.7
				l-1.4,0.3c-1,0.2-1.8,1.1-1.8,2.1c0.4-0.2,0.9-0.3,1.4-0.2h0.5c0.4,0,0.4,0,0.8-0.4c0.3-0.3,0.6-0.6,1-0.9l0.5-0.2l0.2-0.1H21
				c0.1,0,0.2,0,0.2,0.1c0,0.2-0.2,0.4-0.3,0.5c-0.3,0.3-0.5,0.7-0.5,1.2C20.4,32.9,20.5,33.2,20.6,33.4"/>
			<path id="_Path_11" class="st3" d="M16.7,28.7c0.4,0.2,0.7,0.5,1,0.9C18,30,18,30,18.4,30c0.2,0,0.3,0,0.4-0.1l0.3-0.1
				c0.5-0.1,0.6-0.2,0.6-0.3s0-0.2-0.1-0.2l-0.3-0.3L19,28.6c-0.3-0.2-0.6-0.3-1-0.3C17.5,28.2,17.1,28.4,16.7,28.7"/>
			<path id="_Path_12" class="st3" d="M26.7,30.3h1c0.7,0,1.2-0.5,1.3-1.2c0-0.2-0.2-0.3-0.5-0.3C27.5,28.8,27.1,29.2,26.7,30.3"/>
			<path id="_Path_13" class="st3" d="M89.7,32.4c-0.1-0.2-0.1-0.3-0.1-0.5v-0.4c0.1-0.4,0.1-0.8,0.1-1.2c0-0.2-0.1-0.4-0.2-0.6
				l-0.3-0.5c-0.2-0.2-0.3-0.5-0.3-0.9c0-0.2,0-0.2,0.2-0.2h0.1c0.1,0.1,0.2,0.1,0.3,0.1c0.1,0.1,0.2,0.1,0.3,0.1
				c0.2,0,0.3-0.3,0.3-0.9c0-0.8-0.1-1.2-0.6-1.5L89,25.6c-0.1-0.1-0.1-0.1-0.1-0.2c0-0.1,0.1-0.2,0.2-0.2c0.1,0,0.2,0,0.3,0.1
				l0.3,0.1h0.1c0.1,0,0.1-0.1,0.1-0.2V25l-0.1-0.6c-0.1-0.6-0.2-1-0.4-1l0,0l-0.8,0.1h-0.1c-1.1-0.1-2-0.9-2.4-1.9l-0.5-1.9
				c-0.3-0.8-0.8-1.4-1.5-1.8c-0.2-0.2-0.4-0.3-0.6-0.3L83,17.4c-0.1,0-0.2,0-0.2-0.1c0-0.1,0.1-0.2,0.3-0.2c0.9,0,1.8,0.2,2.7,0.5
				c0.6,0.3,1.3,0.4,2,0.4c1.5,0,2.5-0.8,2.5-2.1c0-0.7-0.2-1.4-0.5-2c-0.4-0.5-0.9-1-1.4-1.4c-0.1-0.1-0.1-0.1-0.2-0.1
				c-0.1,0-0.1,0-0.1,0.1l0,0V13l0,0c0,0.1-0.1,0.3-0.2,0.3s-0.3-0.2-0.5-0.6c-0.4-1-1.2-1.7-2.2-1.9c-0.2,0-0.3,0.1-0.3,0.2
				s0.1,0.2,0.1,0.4c0.1,0.2,0.2,0.3,0.3,0.5c0,0.1,0,0.2,0.1,0.2c0,0.1,0,0.1-0.1,0.1c-0.2,0-0.4-0.2-0.5-0.3
				c-0.2-0.2-0.3-0.3-0.4-0.5l-0.4-0.6c-0.3-0.4-0.7-0.8-1.2-1.1l-1.1-0.2c-0.1-0.1-0.3-0.1-0.4-0.1c-0.1,0-0.1,0-0.1,0.1
				c0,0.1,0,0.2,0.1,0.3c0.1,0.2,0.2,0.4,0.3,0.6c0,0.1,0,0.2-0.1,0.2c-0.2,0-0.6-0.4-1.2-1.2c-0.4-0.5-0.6-1.1-0.5-1.7
				c0-1.2,0.9-2.2,2.1-2.3c0,0,0.1,0,0.1,0c0.8,0.1,1.6,0.3,2.2,0.8l1.5,0.8c0.5,0.3,1.1,0.5,1.7,0.5c0.3,0,0.6,0,0.9-0.1
				c0.2,0,0.3-0.1,0.4-0.1s0.1-0.1,0.1-0.2c0-0.1-0.1-0.2-0.2-0.2c-1.1-0.2-2.1-0.6-3-1.2c-0.3-0.2-0.6-0.4-1-0.5
				C84.2,5.2,84,5.1,84,5s0-0.1,0.1-0.1h0.2l1.3,0.5l1.3,0.4c0.6,0.2,1.3,0.4,2,0.4c0.6,0,1-0.4,1-1c0-0.3-0.1-0.6-0.2-0.8
				c-0.2-0.3-0.4-0.6-0.5-0.6s-0.2,0.1-0.2,0.3v0.5c0,0.4-0.2,0.6-0.5,0.6c-0.2,0-0.4,0-0.5-0.1l-2-0.6c-1-0.4-2.1-0.7-3.2-0.7
				c-2.2-0.2-4,1.4-4.2,3.6c0,0,0,0.1,0,0.1c0,2.5,1.7,4,6,5.4s4.7,1.8,4.7,2.9c-0.1,0.7-0.6,1.2-1.3,1.2c-0.3,0-0.5,0-0.8-0.1
				c-0.7-0.1-1.3-0.3-2-0.5c-1.3-0.3-2.5-0.4-3.8-0.4c-3,0-4.5,0.4-6.1,1.9c-0.2,0.3-0.6,0.5-1,0.4h-0.7c-0.4,0-0.7,0.2-0.9,0.5
				l-0.5,0.9C72,19.8,71.9,20,71.8,20c-0.3,0-0.5-0.2-0.8-1c-0.1-0.4-0.3-0.8-0.7-1l-0.6-0.5c-0.1-0.1-0.1-0.1-0.1-0.2
				c0-0.1,0-0.2,0.1-0.3c0.1-0.1,0.2-0.3,0.3-0.4c0.1-0.1,0.1-0.2,0.1-0.3v-0.3c0-0.1,0.1-0.1,0.2-0.1s0.2,0.1,0.2,0.9
				c0,0.3,0.1,0.6,0.2,0.9l0.3,0.7c0,0.1,0.1,0.1,0.3,0.1s0.8-0.8,0.9-1.5s0.1-0.9,0.3-0.9s0.2,0.1,0.4,0.6c0.1,0.2,0.2,0.3,0.3,0.4
				c0.1,0.1,0.2,0.2,0.3,0.2l0,0c0.2,0,0.3-0.1,0.4-0.8v-0.3L74,15.8v-0.3c0-0.2,0.1-0.3,0.2-0.3s0.1,0,0.2,0.1l0.3,0.3
				c0.2,0.2,0.4,0.3,0.7,0.3c0.2,0,0.4-0.1,0.4-0.3s0-0.2-0.3-0.6l-0.2-0.4c-0.3-0.5-0.4-0.6-0.6-0.6h-0.3L73.9,14
				c-0.1,0-0.2,0-0.2,0.1L73.6,14c0.1-0.5,0.3-0.9,0.5-1.3c0.3-0.7,0.5-1.5,0.5-2.3L74.8,9c0.1-0.9,0.2-1.2,0.3-1.2s0.1,0,0.1,0.1
				l0.1,0.4v0.3c0,0.4,0,0.7,0.1,0.7S75.8,9.3,76,9l0.3-0.6c0.1-0.2,0.1-0.5,0.1-0.8c0-0.8-0.3-1-1.3-1.3c-0.1,0-0.1-0.1-0.2-0.1v-1
				l-0.1-0.3l-0.1-0.3l-0.2,0.1c-0.4,0.2-0.7,0.5-1,0.8c-0.3,0.3-0.4,0.4-0.5,0.4c-0.1,0-0.1,0-0.1-0.1c0,0,0,0,0,0L73,5.2V5.1
				c-0.1-0.7-0.5-1.4-1.1-1.8l-0.2,0.2l-0.2,0.4l-0.3,0.4c-0.2,0.2-0.3,0.5-0.3,0.8v0.2c0,0.2,0,0.3-0.1,0.3h-0.1l-0.2-0.3l-0.3-0.3
				l-0.5-0.3l-0.3-0.2c-0.3,0.4-0.4,1-0.3,1.5v0.2c0,0.3-0.1,0.4-0.2,0.4c-0.1,0-0.2,0-0.3-0.1c-0.1-0.1-0.3-0.1-0.4-0.1
				c-0.4,0-0.8,0.4-0.8,0.9c0,0.5,0.2,1.1,0.5,1.5c0.2,0.4,0.5,0.8,0.8,0.8c0.1-0.2,0.1-0.4,0.1-0.6l-0.1-0.5V8.2
				c0-0.2,0.1-0.3,0.2-0.3s0.3,0.2,0.4,0.8l0.2,1.2l0.2,1.4c0.1,0.4,0.2,0.8,0.3,1.2c0.1,0.4,0.3,0.7,0.5,1.1
				c0.3,0.4,0.3,0.5,0.3,0.5c0,0.1,0,0.1-0.1,0.1l0,0c-0.1,0-0.1,0-0.3-0.1s-0.2-0.1-0.3-0.1h-0.2c-0.5,0-0.7,0.4-0.7,2.5
				c0,1.3,0.2,2.5,0.5,3.7l0.7,1.6c0.1,0.2,0.1,0.5,0.1,0.7c0,2.2-3,5.8-6.2,7.3c-1.3,0.6-1.6,1.2-1.7,2.9c0.5-0.2,0.8-0.3,1.1-0.4
				c0.9-0.2,1.1-0.4,1.2-0.7l0.1-0.4c0-0.2,0.2-0.2,0.8-0.5c0.2-0.1,0.4-0.2,0.5-0.4c0.1-0.2,0.2-0.3,0.3-0.4c0.1,0,0.1,0.1,0.1,0.1
				l0,0l-0.3,1.2V31c0,0.7,0.4,1.2,1,1.5c0-0.1,0-0.2,0.1-0.3c0.1-0.3,0.2-0.7,0.3-1l0.5-0.9c0.2-0.3,0.2-0.5,0.2-1.3v-1.1
				c0-0.1,0.1-0.2,0.2-0.2c0.1,0,0.2,0,0.2,0.1l0.1,0.5c0,0.1,0.1,0.2,0.3,0.2s0.7-0.3,1.1-1.1c0.1-0.2,0.2-0.5,0.2-0.8
				c0-0.3,0-0.7-0.1-1v-0.2c0-0.1,0.1-0.2,0.2-0.2c0.1,0,0.1,0,0.1,0.1l0.2,0.7c0.1,0.2,0.2,0.4,0.4,0.4c0.4,0,1-1,1-2
				c0-0.6,0.1-0.9,0.3-0.9s0.1,0,0.1,0.1l0.1,0.4c0,0.1,0.1,0.2,0.2,0.2c0.1,0,0.2-0.1,0.4-0.3c0.1-0.1,0.2-0.3,0.3-0.4
				c0.1-0.1,0.1-0.2,0.1-0.3c0-0.1,0-0.2-0.3-0.4c-0.2-0.2-0.3-0.4-0.3-0.6c0.1-0.7,0.4-1.3,0.8-1.8c0.5-0.9,0.5-1,0.7-1
				c0.1,0,0.2,0.1,0.2,0.2c0,0.1,0,0.2-0.1,0.3c-0.1,0.1-0.1,0.2-0.1,0.3c0,0.1,0.1,0.2,0.2,0.2c0.2,0,0.4-0.1,0.5-0.2
				c0.3-0.2,0.6-0.3,0.9-0.3c0.3-0.1,0.7-0.3,1.1-0.3c0.2-0.1,0.4-0.1,0.7-0.1c0.2,0,0.4,0,0.5,0.1c0.2,0.1,0.5,0.1,0.8,0.1
				c0.3,0,0.5-0.2,0.5-0.5c0,0,0,0,0-0.1c0-0.2-0.1-0.4-0.2-0.5c-0.1-0.2-0.2-0.4-0.3-0.4s-0.2-0.2-0.2-0.3V18
				c0-0.1,0.1-0.1,0.2-0.1s0.8,0.5,1.2,1.2c2.4,3.8,3.6,5.1,5.4,5.6s2.3,1,2.3,2c-0.1,0.8-0.5,1.5-1,2.1c-1.2,1.7-1.6,2.7-1.6,3.8
				v0.2c0.1-0.1,0.2-0.1,0.3-0.1c0.2-0.1,0.3-0.2,0.5-0.2l0.8-0.1c0.2,0,0.4-0.3,0.4-0.6v-0.1l-0.1-0.6V31c0-0.4,0.2-0.6,0.4-0.6
				c0.1,0,0.2,0.1,0.2,0.2l0.5,1.1C88.9,31.8,89.1,32.1,89.7,32.4"/>
			<path id="_Path_14" class="st3" d="M64.6,11.5v0.9c0,0.5,0.1,0.8,0.2,0.8s0.5-0.4,0.7-0.8c0.1-0.3,0.1-0.6,0.1-0.9
				c0-0.2,0-0.4-0.1-0.5c-0.1-0.3-0.3-0.5-0.4-0.5C64.7,10.3,64.6,10.6,64.6,11.5"/>
			<path id="_Path_15" class="st3" d="M62.1,5.6v0.2c0,0.4-0.1,0.9-0.2,1.3c-0.1,0.2-0.1,0.5-0.1,0.8c0,0.2-0.1,0.3-0.1,0.5
				c0,0.4,0.2,0.8,0.5,1l0.3,0.2l0.1,0.4c0,0.2,0,0.4,0.1,0.6c0.1,0.3,0.1,0.7,0.1,1c0,0.2,0,0.3-0.1,0.3s-0.3-0.3-0.5-0.8
				c-0.3-0.8-0.5-1-1-1c-0.3,0-0.7,0-1,0.2c0.4,0.5,0.7,1,0.9,1.6c0.5,1.1,0.7,1.3,1.4,1.7c0.2,0.1,0.3,0.2,0.3,0.3
				s-0.1,0.2-0.3,0.2c-0.1,0-0.3,0-0.4-0.1h-0.2c-0.1,0-0.2,0.1-0.2,0.3c0.2,1.1,0.9,2,1.9,2.5c0.1,0.1,0.2,0.2,0.2,0.3
				c0,0.1,0,0.1-0.1,0.1l0,0c-0.1,0.1-0.1,0.1-0.2,0.1c-0.1,0-0.2,0-0.3-0.1c-0.1,0-0.2-0.1-0.2-0.1c-0.1,0-0.2,0.1-0.2,0.3
				c0.1,0.5,0.3,1,0.5,1.4c0.2,0.4,0.6,0.8,1,1l1.4,0.5c0.1,0,0.1,0.1,0.1,0.2c0,0.1-0.1,0.2-0.2,0.2h-1c-0.2,0-0.2,0-0.2,0.1
				c0.1,0.4,0.2,0.7,0.4,1c0.3,0.5,0.5,0.9,0.8,0.9s0.1-0.1,0.2-0.1L66,22c0-0.1,0.3-0.3,0.8-0.6c0.2-0.2,0.5-0.3,0.9-0.3
				c0.8-0.1,0.8-0.1,0.8-0.4c0-0.2,0-0.4-0.1-0.6c-0.1-0.2-0.1-0.4-0.1-0.6L68,18.8l-0.1-0.6c0-0.2,0-0.2-0.1-0.2
				c-0.1,0-0.2,0.1-0.2,0.2c-0.2,0.5-0.7,0.9-1.3,1c-1.7,0-2.9-2.7-2.9-6.7v-1.2l0.1-1.4V9.2c0-1.1-0.4-2.2-1.1-3.1L62,5.7L62.1,5.6
				z"/>
			<path id="_Path_16" class="st3" d="M66.1,27.8c-0.5-0.1-1-0.2-1.5-0.4c-0.4-0.2-0.8-0.3-1.2-0.3c-0.5,0-1,0.2-1.3,0.5l0.3,0.2
				l0.6,0.4l0.5,0.4c0.1,0.1,0.3,0.2,0.5,0.2C64.8,28.9,65.2,28.6,66.1,27.8"/>
			<path id="_Path_17" class="st3" d="M77.9,33.4c0.1-0.3,0.4-0.6,0.7-0.7c0.9-0.8,1.3-1.3,1.3-1.7v-0.6c0-0.4,0.1-0.5,0.3-0.5
				s0.1,0,0.2,0.1l0.1,0.3c0,0.1,0.1,0.1,0.2,0.1s0.3-0.1,0.8-0.8c0.1-0.2,0.2-0.4,0.2-0.6c0-0.1,0-0.2-0.1-0.3
				c0-0.1-0.1-0.2-0.2-0.5c-0.1-0.1-0.2-0.3-0.2-0.4c0-0.2,0.1-0.3,0.3-0.3c0,0,0.1,0,0.1,0c0.1,0,0.2,0,0.2,0.1l0.2,0.3
				c0,0.1,0,0.1,0.1,0.1l0,0c0.2,0,0.3-0.1,0.4-0.2l0.2-0.5c0.1-0.1,0.1-0.2,0.1-0.3c0-0.1-0.1-0.2-0.2-0.3l-0.4-0.2
				c-0.7-0.4-1-1.1-1-1.9c0-0.1,0-0.3,0.1-0.4l0.2-0.5c0.1-0.2,0.1-0.3,0.1-0.5c0-0.4-0.1-0.7-0.3-1c-0.1-0.2-0.2-0.4-0.3-0.6
				c-0.2-0.4-0.3-0.6-0.4-0.6c-0.2,0-0.3,0-0.4,0.1l-0.3,0.5l-0.4,0.5L78.9,22c-0.3,0.3-0.5,0.7-0.5,1.2c0,0.6,0.1,1.1,1.2,2.8
				c0.4,0.5,0.6,1.1,0.6,1.7c0,1.3-1.3,2.2-3.3,2.7c-2.5,0.5-3,1-3.3,2.4c0.4-0.2,0.9-0.3,1.4-0.2h0.5c0.4,0,0.4,0,0.8-0.4
				c0.3-0.3,0.6-0.6,1-0.9l0.5-0.2l0.4-0.2h0.1c0.1,0,0.2,0,0.2,0.1c0,0.2-0.2,0.4-0.3,0.5c-0.3,0.3-0.4,0.6-0.4,1
				C77.6,32.8,77.7,33.2,77.9,33.4"/>
			<path id="_Path_18" class="st3" d="M74.1,28.7c0.4,0.2,0.7,0.5,1,0.9c0.3,0.4,0.3,0.4,0.7,0.4c0.2,0,0.3,0,0.4-0.1l0.3-0.1
				c0.5-0.1,0.7-0.2,0.7-0.3s0-0.2-0.1-0.2l-0.3-0.3l-0.3-0.3c-0.3-0.2-0.6-0.3-1-0.3C74.9,28.2,74.4,28.4,74.1,28.7"/>
			<path id="_Path_19" class="st3" d="M84,30.3h1c0.2,0,0.4,0,0.6-0.1c0.3-0.2,0.5-0.4,0.5-0.7c0.1-0.1,0.1-0.2,0.1-0.3
				c0-0.2-0.2-0.3-0.5-0.3C84.9,28.8,84.3,29.2,84,30.3"/>
			<path id="_Path_20" class="st3" d="M29.4,94.5l0.2-0.3l0.4-0.4c0.4-0.5,0.5-1,0.5-1.6c0-0.3,0-0.7-0.1-1
				c-0.1-0.2-0.1-0.4-0.1-0.5c0-0.2,0.1-0.3,0.3-0.3c0,0,0,0,0.1,0c0.1,0,0.1,0,0.2,0.1l0.4,0.5c0.3,0.3,0.4,0.4,0.8,0.4v-1
				c0-0.7-0.3-1.4-0.6-2c-0.2-0.2-0.3-0.4-0.3-0.6c0-0.1,0.1-0.2,0.2-0.2c0.1,0,0.1,0,0.1,0.1l0,0c0.3,0.2,0.4,0.3,0.5,0.3
				s0.3-0.3,0.3-0.8c0-0.6-0.2-1.2-0.6-1.7c-0.1-0.1-0.2-0.3-0.3-0.4c-0.1-0.1-0.1-0.1-0.1-0.2c0-0.1,0.1-0.2,0.2-0.2
				c0.1,0,0.3,0,0.4,0.1c0.1,0.1,0.1,0.1,0.2,0.1c0.2,0,0.3-0.3,0.3-1.3v-1c0-0.6-0.1-0.8-0.3-0.8h-0.2c-1.5,0-2.2-1-2.6-3.4
				c-0.3-1.8-1-3.1-1.8-3.4c-0.5-0.2-0.6-0.3-0.6-0.4s0.1-0.2,0.3-0.2c0.2,0,0.4,0.1,0.5,0.1c1,0.5,2,0.7,3.1,0.8
				c1.4,0.1,2.5-1,2.6-2.3c0,0,0-0.1,0-0.1c0-1.1-0.6-2.2-1.4-3c-0.2-0.2-0.5-0.4-0.8-0.4h-0.2l0.1,0.4l0.1,0.3v0.1
				c0,0.1,0,0.1-0.1,0.1c0,0,0,0,0,0c-0.1,0-0.2,0-0.2-0.1l-0.5-0.8c-0.5-0.7-1.3-1.1-2.2-1.2c-0.2,0-0.4,0.1-0.4,0.3
				s0.1,0.2,0.2,0.3c0.1,0.2,0.2,0.3,0.3,0.4v0.1c0,0.1,0,0.1-0.1,0.1c0,0,0,0,0,0l0,0c-0.1,0-0.2-0.1-0.9-0.9
				c-0.6-0.7-1.4-1.1-2.3-1.2c-0.1,0-0.2,0-0.2,0.1l-0.1,0.1c0,0.1,0.1,0.2,0.2,0.3c0.1,0.1,0.2,0.3,0.3,0.4c0,0.1-0.1,0.1-0.2,0.1
				s-0.5-0.2-1.3-0.9c-1-0.6-1.6-1.6-1.6-2.7c-0.1-1.1,0.8-2.1,1.9-2.1c0,0,0.1,0,0.1,0c0.7,0,1.5,0.3,2,0.8l1.5,1.2
				c0.7,0.5,1.5,0.8,2.4,0.8c0.2,0,0.4,0,0.5-0.1c0.1-0.1,0.2-0.1,0.2-0.2c-0.1-0.1-0.2-0.1-0.3-0.1c-0.5-0.1-0.9-0.3-1.3-0.5
				l-1.5-1.1c-0.4-0.3-0.8-0.6-1.2-0.8c-0.9-0.4-1-0.5-1-0.6c0.1-0.1,0.1-0.1,0.2-0.1c0.1,0,0.2,0,0.2,0.1l0.8,0.3
				c0.4,0.2,0.9,0.5,1.3,0.7c1.6,1.1,2.5,1.4,3.5,1.4c0.9,0,1.6-0.6,1.6-1.5c0-0.2,0-0.4-0.1-0.5L32.8,62c0-0.1-0.1-0.2-0.2-0.1
				L32.5,62l-0.1,0.6c0,0.1,0,0.2-0.1,0.2c-0.1,0.1-0.1,0.2-0.2,0.3c-0.2,0.1-0.3,0.2-0.5,0.2c-0.4,0-1-0.2-2.5-1.2
				c-1.1-0.8-2.4-1.3-3.8-1.4c-2.2,0-4,1.8-4,4l0,0c0,3.1,1.8,4.4,7.8,5.7c2.3,0.4,3.2,1.2,3.2,2.1s-0.8,1.5-1.9,1.5
				c-0.3,0-0.6,0-0.9-0.1c-1.1-0.2-2.1-0.5-3.1-0.9c-1.3-0.3-2.7-0.5-4.1-0.5c-2.3,0-3.9,0.6-4.9,2.1c-0.1,0.2-0.2,0.3-0.3,0.3
				s-0.1,0-0.2-0.1l-0.4-0.3c-0.3-0.2-0.7-0.4-1.1-0.4c-0.2,0-0.5,0.1-0.6,0.2c-0.1,0.1-0.2,0.2-0.3,0.2s-0.5-0.4-0.8-0.9
				c-0.3-0.6-0.5-1.3-0.5-2c0-0.3,0.1-0.5,0.2-0.5c0.1,0,0.2,0.1,0.2,0.2l0.2,0.8c0.1,0.5,0.4,0.8,0.6,0.8s0.2-0.1,0.4-0.3
				c0.1-0.1,0.2-0.3,0.2-0.4c0.2-0.5,0.2-0.6,0.4-0.6s0.3,0.1,0.4,0.6c0.1,0.2,0.1,0.4,0.2,0.5c0.1,0.2,0.2,0.4,0.3,0.5
				c0.1,0.1,0.2,0.1,0.3,0.1c0.2,0,0.5-0.4,0.5-1V72c0-0.2,0-0.3,0.1-0.3s0.1,0,0.2,0.1c0.1,0.2,0.3,0.3,0.5,0.4
				c0.1,0.1,0.3,0.1,0.4,0.1c0.1,0,0.2-0.1,0.3-0.1c0.1,0,0.1-0.1,0.2-0.2c0-0.1-0.1-0.2-0.4-0.5c-0.3-0.4-0.5-0.8-0.6-1.2
				c-0.2,0.1-0.3,0-0.4,0c-0.1,0-0.2,0-0.2,0.1l-0.4,0.1l-0.3,0.1h-0.1c-0.1,0-0.2-0.1-0.2-0.2c0-0.1,0.3-0.4,0.6-0.8
				c0.2-0.2,0.4-0.5,0.4-0.8c0-0.5,0.1-1,0.2-1l0.1-1.1c0-0.7,0.2-1.4,0.4-2.1c0-0.1,0-0.2,0.1-0.2c0.1,0,0.2,0.2,0.2,0.4v0.4
				c0,0.4,0.1,0.5,0.2,0.5s0.3-0.2,0.4-0.5l0.3-0.8c0.1-0.2,0.1-0.3,0.1-0.5c0-0.6-0.3-1.1-0.9-1.1h-0.2c-0.1,0-0.2,0-0.2,0.1
				c-0.2-0.1-0.3-0.2-0.3-0.4v-1.1l-0.2-0.2V61l-0.3,0.1l-0.3,0.3l-0.5,0.4L16,62.2c-0.1,0.1-0.1,0.1-0.2,0.1s-0.2-0.1-0.2-0.5v-0.1
				c0-0.4-0.2-0.6-0.8-1.4c-0.1-0.1-0.1-0.1-0.1-0.2l-0.1,0.2l-0.3,0.5l-0.3,0.8l-0.1,0.5c0,0.1-0.1,0.2-0.1,0.3
				c-0.1,0-0.2-0.1-0.3-0.2c-0.3-0.4-0.8-0.7-1.3-0.8L12,61.6c-0.1,0.2-0.2,0.4-0.2,0.6v1c0,0.2-0.1,0.2-0.1,0.2l0,0
				c-0.1-0.1-0.1-0.1-0.2-0.1c-0.1-0.1-0.2-0.1-0.3-0.1c-0.5,0-1,0.3-1,0.8s0.1,0.6,0.6,1.5c0.1,0.3,0.4,0.5,0.6,0.6
				c0.1,0,0.1-0.2,0.1-0.4v-0.3c-0.1-0.1-0.1-0.3-0.1-0.4c0-0.2,0-0.2,0.1-0.2c0.3,0,0.5,0.8,0.6,1.9l0.1,1.2
				c0.1,0.4,0.2,0.8,0.3,1.1c0.2,0.4,0.5,0.8,0.8,1.2c0.3,0.2,0.4,0.4,0.4,0.5c0,0.1,0,0.2-0.1,0.2c-0.2-0.1-0.4-0.2-0.6-0.2h-0.2
				c-0.6,0-0.9,0.3-0.9,1.4c0.1,1.5,0.7,2.8,1.8,3.8l1.4,1.2c0.7,0.5,1.2,1.3,1.3,2.2c0,0.9-1,1.8-2.7,2.3l-1,0.3
				c-0.8,0.3-1.1,0.8-1.4,2.2c0.3-0.1,0.6-0.1,0.9-0.1h0.5c0.4,0,0.8-0.2,0.8-0.6v-0.3c0-0.1,0.1-0.2,0.3-0.3c0.2,0,0.3-0.1,0.4-0.2
				l0.3-0.3c0.1,0,0.1-0.1,0.2-0.1c0.1,0,0.2,0.1,0.2,0.2c0,0.1,0,0.2-0.1,0.3c-0.1,0.3-0.1,0.7-0.1,1.1c-0.1,0.6,0.1,1.2,0.5,1.7
				c0-0.2,0.1-0.3,0.1-0.4s0.2-0.4,0.5-0.8c0.4-0.5,0.7-1.2,0.8-1.8v-0.1l-0.1-0.8c0-0.1,0-0.2,0.1-0.3c0.1-0.1,0.1-0.1,0.2-0.1
				s0.2,0.1,0.3,0.3s0.1,0.3,0.2,0.3s0.3-0.3,0.4-0.6c0.1-0.2,0.1-0.4,0.1-0.6c0-0.1,0-0.3-0.1-0.4c-0.1-0.1-0.1-0.2-0.1-0.3
				c0-0.1,0-0.1,0.1-0.2l0.1-0.1c0.1,0,0.1,0,0.2,0.1l0.3,0.2c0.1,0.1,0.1,0.1,0.2,0.1c0.2,0,0.3-0.2,0.4-0.3
				c0.2-0.3,0.3-0.6,0.4-0.9c0-0.1,0-0.1-0.2-0.2c-0.6-0.3-1-0.9-1-1.6c0-0.2,0-0.3,0.1-0.4l0.3-0.8c0.1-0.2,0.1-0.4,0.2-0.6h0.1
				c0.1,0,0.2,0.1,0.2,0.2c0,0.1,0,0.2-0.1,0.3c-0.1,0.2-0.1,0.3-0.1,0.5c0,0.2,0.1,0.3,0.2,0.3c0,0,0.1,0,0.1,0
				c0.2,0,0.4,0,0.5-0.1c0.7-0.4,1.4-0.6,2.1-0.6c0.4,0,0.8,0.1,1.1,0.4c0.1,0.1,0.2,0.1,0.3,0.1c0.1,0,0.2,0,0.2-0.1l0.1-0.1
				c0-0.1-0.1-0.2-0.2-0.4s-0.2-0.3-0.2-0.4s0.1-0.1,0.2-0.1c0.4,0,1.2,1.5,1.9,4c0.5,1.9,0.8,2,2.6,3.1c1.5,0.8,2.2,1.7,2.2,3.1
				c-0.1,1.9-0.5,3.7-1.2,5.4c-0.2,0.5-0.3,1.1-0.3,1.6c0.1,0.5,0.2,1,0.3,1.5C29.4,94.1,29.5,94.3,29.4,94.5
				C29.2,94.1,29.3,94.3,29.4,94.5"/>
			<path id="_Path_21" class="st3" d="M22.3,90.2c0.2-0.4,0.3-0.7,0.5-1.1c0.4-0.4,0.6-0.9,0.6-1.5v-0.5c0-0.4,0.1-0.6,0.2-0.6
				s0.1,0,0.2,0.1l0.1,0.2c0,0.1,0.1,0.1,0.2,0.1s0.2-0.1,0.3-0.2c0.2-0.3,0.3-0.7,0.3-1.1V85c0-0.2,0.1-0.2,0.2-0.2s0.2,0,0.2,0.3
				c0.1,0.1,0.1,0.2,0.2,0.2c0.1,0,0.2-0.1,0.2-0.2l0.2-0.3l0.2-0.3v-0.1c0-0.1-0.1-0.2-0.2-0.3c-0.6-0.5-0.9-1.3-0.9-2.1
				c0-0.8-0.1-1.4-0.1-1.7c-0.2-0.4-0.3-0.9-0.5-1.3c-0.1-0.3-0.2-0.6-0.3-1.1s-0.1-0.3-0.4-0.3c-0.9,0-1.5,0.7-1.5,1.6c0,0,0,0,0,0
				c0.1,0.8,0.3,1.7,0.6,2.4c0.4,0.8,0.7,1.7,0.8,2.6c0,1.1-0.4,1.6-2,2.1c-1.5,0.4-2.6,1.6-2.9,3.1c0.1,0,0.2-0.1,0.3-0.1
				c0.1-0.1,0.3-0.1,0.4-0.1l0.5-0.1c0.3-0.1,0.7-0.2,0.9-0.5l0.1-0.4c0-0.1,0.1-0.2,0.2-0.2l0.3-0.1l0.3-0.1l0.1,0.1V88
				c-0.1,0.2-0.1,0.5-0.1,0.7C21.7,89.3,21.9,89.8,22.3,90.2"/>
			<path id="_Path_22" class="st3" d="M5.8,62.1c0,0.1,0,0.2,0.1,0.3c0,0.3,0,0.5-0.1,0.7l-0.1,0.8c0,0.5,0.1,1.1,0.3,1.6
				c0.1,0.2,0.2,0.5,0.2,0.8v0.1c0,0.1,0,0.2-0.1,0.2c-0.1,0-0.2-0.1-0.3-0.2C5.5,66,5,65.9,4.6,65.9c-0.2,0-0.4,0-0.5,0.1l0.1,0.3
				l0.4,1.2l0.6,1l0.7,0.4C6,68.9,6,69,6.1,69.2s0.1,0.1,0.1,0.2s0,0.1-0.1,0.1H5.5c-0.1,0-0.2,0-0.2,0.1c0,0.1,0.1,0.4,0.2,0.8
				l0.3,0.8l0.5,0.5l0.5,0.4c0.1,0.1,0.2,0.2,0.2,0.3s0,0.2-0.1,0.2H6.7c-0.1,0-0.1,0.1-0.1,0.2c0.1,0.4,0.3,0.8,0.6,1.2
				C7.5,74.7,8,75,8.6,75h0.4c0.2,0,0.3,0.1,0.3,0.2c0,0,0,0.1,0,0.1c0,0.1-0.1,0.2-0.3,0.3c-0.4,0.1-0.5,0.2-0.5,0.3
				c0,0.1,0,0.2,0.1,0.3l0.2,0.3C9.1,76.9,9.3,77,9.4,77c0.2,0,0.4-0.1,0.4-0.3c0.3-0.3,0.6-0.5,1-0.6c1.1-0.3,1.3-0.4,1.3-0.6
				c0-0.1,0-0.2-0.1-0.3c-0.3-0.4-0.4-1-0.4-1.5c0-0.4-0.1-0.6-0.2-0.6s-0.1,0.1-0.2,0.2c-0.2,0.4-0.7,0.6-1.1,0.6
				c-1,0-2.3-1.6-3-3.8c-0.1-0.5-0.2-1.1-0.2-1.6c0-0.6,0.1-1.2,0.2-1.8c0.1-0.5,0.2-1,0.3-1.5v-0.4C7.6,63.9,6.9,62.9,5.8,62.1"/>
			<path id="_Path_23" class="st3" d="M8,66.3c-0.3,0.6-0.4,1.3-0.4,2c0,0.3,0.1,0.6,0.2,0.6c0.1,0,0.1-0.1,0.2-0.1l0.3-0.6
				c0.1-0.1,0.1-0.2,0.2-0.3s0.2-0.3,0.2-0.4C8.8,67,8.5,66.5,8,66.3"/>
			<path id="_Path_24" class="st3" d="M11.4,80.1l0.1,0.1l0.2,0.2c0.6,0.6,0.6,0.6,1,0.6c0.4,0,0.8-0.1,1.2-0.3
				c0.1-0.1,0.2-0.1,0.2-0.2l-0.3-0.3l-0.3-0.3c-0.2-0.2-0.5-0.4-0.9-0.4C12.2,79.6,11.8,79.8,11.4,80.1"/>
			<path id="_Path_25" class="st3" d="M18.5,85.5c0.2,0.1,0.4,0.2,0.6,0.3c0.3,0.2,0.4,0.3,0.5,0.3s0.2,0.1,0.4,0.1
				c0.1,0,0.2,0,0.3-0.1l0.6-0.2l0.6-0.2c0.2-0.1,0.3-0.1,0.3-0.2c-0.1-0.1-0.2-0.2-0.3-0.2c-0.1,0-0.3-0.1-0.4-0.1
				c-0.4-0.2-0.8-0.3-1.2-0.3C19.5,84.8,18.9,85.1,18.5,85.5"/>
			<path id="_Path_26" class="st3" d="M26.3,91.6c0.2-0.5,0.3-0.5,1.1-0.6s1.5-1.5,1.5-2.3c0-0.1,0-0.2-0.1-0.2
				c-0.1,0-0.2,0-0.2,0.1c-0.2,0.1-0.3,0.2-0.4,0.3l-0.9,0.4c-0.6,0.4-1,1-1.1,1.7C26.1,91.1,26.2,91.3,26.3,91.6"/>
			<path id="_Path_27" class="st3" d="M82.2,84.4l0.1-0.3l0.1-0.4c0-0.1,0.1-0.2,0.3-0.5c0.3-0.4,0.5-1,0.4-1.5c0-0.2,0-0.4-0.1-0.5
				C83,81,83,80.9,83,80.7c0,0,0-0.1,0.1-0.1l0.1-0.1l0,0c0.1,0,0.2,0.1,0.3,0.2c0.1,0.1,0.2,0.2,0.3,0.2c0.1,0,0.3-0.2,0.3-0.5
				c0-0.1,0-0.2,0.1-0.3c0-0.3-0.2-0.6-0.3-0.8c-0.1-0.1-0.1-0.2-0.1-0.3c0-0.1,0.1-0.2,0.2-0.2c0.1,0,0.2,0.1,0.4,0.2
				s0.1,0.1,0.2,0.1s0.3-0.2,0.4-0.6c0.1-0.1,0.1-0.3,0.1-0.4c0-0.1,0-0.1-0.1-0.1h-0.4c-0.7-0.1-1.3-0.4-1.7-0.9l-0.9-1.1
				c-0.3-0.4-0.8-1-0.8-1l-0.7-0.4l-0.2-0.2c0-0.1,0.1-0.2,0.3-0.2s0.7,0.2,1.6,0.5c1,0.4,2.1,0.6,3.1,0.6c1.5,0,2.7-1.1,2.7-2.6
				c-0.1-0.9-0.5-1.8-1.2-2.5c-0.1-0.2-0.3-0.3-0.5-0.3c-0.1,0-0.2,0.1-0.2,0.2c0,0.1,0,0.2,0.1,0.3c0,0.1,0.1,0.2,0.1,0.3
				s0,0.2-0.1,0.2s-0.4-0.3-0.5-0.8c-0.3-0.7-0.8-1.3-1.5-1.6c-0.4-0.2-0.8-0.4-1.2-0.4c-0.1,0-0.1,0-0.1,0.1l0,0
				c0,0.1,0,0.2,0.1,0.3c0.1,0.2,0.2,0.3,0.2,0.5l0,0c0,0.1-0.1,0.2-0.2,0.2c-0.2,0-0.2,0-0.6-0.7c-0.4-0.5-0.9-0.8-1.4-1.1
				c-0.2-0.1-0.3-0.1-0.5-0.1l0,0c-0.1,0-0.2,0-0.2,0.1c0,0.1,0.1,0.2,0.1,0.3V68c0,0.1,0,0.2-0.1,0.2c-0.2,0-0.8-0.4-1.2-1
				c-0.5-0.5-0.7-1.1-0.8-1.8c0.1-1.3,1.1-2.2,2.4-2.2c0.3,0,0.5,0.1,0.8,0.1l1.1,0.5l1.3,0.9c0.7,0.5,1.5,0.8,2.4,0.9
				c0.3,0,0.7-0.1,1-0.2c0.3-0.1,0.5-0.2,0.5-0.3h-0.2L87,65c-0.7-0.2-1.3-0.5-1.9-0.9l-1.4-1l-1.3-0.5c-0.1,0-0.1,0-0.1-0.1l0,0
				c0-0.1,0.1-0.1,0.1-0.1c0.1,0,0.2,0,0.3,0.1l1.2,0.3c0.5,0.2,0.9,0.4,1.4,0.6c0.8,0.5,1.7,0.8,2.7,1c0.6,0,1.1-0.4,1.2-1.1
				c0,0,0-0.1,0-0.1c0-0.3,0-0.6-0.1-0.8c0-0.2-0.1-0.3-0.2-0.4c0-0.1,0-0.1-0.1-0.1l0,0c-0.1,0-0.1,0.1-0.1,0.2v0.4
				c0,0.5-0.2,0.8-0.9,0.8c-1-0.1-1.9-0.4-2.8-0.8c-1.1-0.5-2.2-0.7-3.3-0.8c-2.3,0-4.1,1.7-4.3,4c0,1.8,1.2,3.2,3.8,4.3l2.6,1.1
				c2.2,0.9,2.9,1.5,2.9,2.3c0,0.6-0.6,1.2-1.6,1.2c-0.7-0.1-1.3-0.3-1.9-0.5c-1.7-0.6-3.5-0.9-5.4-1c-1.9-0.1-3.8,0.6-5.2,1.9
				c-0.2,0.2-0.3,0.2-0.4,0.2s-0.2,0-0.4-0.2c-0.2-0.1-0.4-0.2-0.7-0.2c-0.3,0.1-0.6,0.2-0.8,0.4L70,75.7c-0.1,0.1-0.2,0.2-0.3,0.2
				S69,75.4,68.8,75c-0.1-0.3-0.2-0.5-0.3-0.8c0-0.2-0.1-0.5-0.1-0.8v-0.5l0.1-0.6c0-0.2,0.1-0.4,0.1-0.5c0-0.1,0-0.1,0.1-0.1l0,0
				c0.1,0,0.2,0.1,0.2,0.4v0.3c0,0.8,0.3,1.7,0.8,1.7s0.5-0.5,0.8-1.6c0-0.2,0.1-0.3,0.2-0.3s0.2,0.1,0.3,0.6c0.1,0.4,0.2,0.7,0.4,1
				c0.1,0.1,0.2,0.2,0.3,0.2s0.4-0.4,0.5-1.3c0-0.3,0.1-0.5,0.2-0.5s0.1,0,0.1,0.1c0.1,0.1,0.2,0.2,0.2,0.3l0.3,0.3
				c0.1,0.1,0.2,0.1,0.3,0.1c0.1,0,0.2,0,0.3-0.1l0.2-0.2c-0.1-0.1-0.2-0.2-0.2-0.3c-0.2-0.3-0.4-0.6-0.5-1
				c-0.1-0.3-0.2-0.5-0.3-0.8c0-0.1,0-0.2-0.1-0.2h-0.3c-0.2,0.1-0.4,0.2-0.6,0.2h-0.2c-0.1,0-0.1,0-0.1-0.1c0,0,0,0,0,0
				c0-0.1,0.1-0.2,0.2-0.3c0.9-0.8,1.4-1.9,1.4-3.1c0-0.7,0.2-1.3,0.7-1.8c0.1-0.1,0.1-0.2,0.2-0.2s0.2,0.1,0.2,0.3
				c0,0.2,0,0.3-0.1,0.4c0,0.1-0.1,0.2-0.1,0.3v0.1l0.1,0.2l0.3-0.1l0.3-0.4c0.3-0.4,0.4-0.8,0.4-1.3c0-0.3-0.1-0.5-0.2-0.8
				c-0.2-0.2-0.3-0.3-0.4-0.3h-0.4c-0.2,0-0.3-0.1-0.3-0.2v-0.5l-0.2-0.7l0.2-0.3l-0.1-0.3l-0.2,0.1L73,61.9l-0.3,0.3
				c-0.4,0.5-0.4,0.5-0.7,0.5s-0.2,0-0.2-0.1v-0.1c0.1-0.2,0.1-0.4,0.1-0.6c-0.1-0.7-0.4-1.4-0.9-1.9c-0.6,0.5-0.9,1.2-1,1.9v0.3
				c0,0.1,0,0.2-0.1,0.2l0,0c-0.1,0-0.1-0.1-0.2-0.1L69.3,62c-0.2-0.2-0.3-0.3-0.5-0.4c-0.1,0-0.1-0.1-0.2-0.2l-0.1,0.2
				C68.2,62,68,62.5,68,63c0,0.4,0,0.5-0.1,0.5c-0.1,0-0.2,0-0.2-0.1c-0.4-0.2-0.5-0.3-0.8-0.3c-0.6,0-1,0.4-1,1
				c0,0.4,0.2,0.7,0.4,1c0.2,0.4,0.5,0.8,0.9,1c0,0,0.1,0,0.1-0.2v-0.6L67.3,65l0,0c0-0.1,0-0.2,0.1-0.2c0.3,0,0.5,0.9,0.8,2.5
				c0.1,1.1,0.5,2.2,1.2,3c0.1,0.1,0.2,0.2,0.2,0.3l-0.1,0.1c-0.1,0-0.3,0-0.4-0.1c0-0.2-0.1-0.2-0.2-0.2c-0.4,0-0.7,0.3-0.8,0.7
				l-0.3,1.7l-0.2,2.4c0,0.6,0.1,1.2,0.2,1.8c0.1,0.5,0.2,1,0.2,1.5c0,1.8-1.2,3.4-3,3.8L63,82.9c-1.2,0.3-2,1.4-2,2.7
				c0.2-0.2,0.5-0.3,0.9-0.3l0.5-0.1c0.2,0,0.4-0.1,0.5-0.1c0.1-0.1,0.2-0.2,0.3-0.3l0.5-0.5c0.2-0.2,0.3-0.3,0.4-0.3
				s0.1,0.1,0.1,0.2c0,0.2-0.1,0.4-0.2,0.5c-0.1,0.2-0.2,0.5-0.2,0.8c0,0.4,0.1,0.6,0.5,1.2c0-0.1,0-0.2,0.1-0.3
				c0-0.1,0.2-0.3,0.4-0.6c0.4-0.4,0.6-0.9,0.8-1.4c0-0.4,0-0.6,0.2-0.6s0.1,0,0.2,0.3c0,0.1,0,0.1,0.1,0.2s0.1,0.1,0.2,0.1
				c0.1,0,0.2,0,0.2-0.1c0.2-0.1,0.4-0.3,0.5-0.4c0.1-0.2,0.2-0.3,0.3-0.5c0.1-0.2,0.1-0.4,0.1-0.5v-0.4c0-0.1,0-0.2,0.1-0.2
				s0.2,0.1,0.3,0.3s0.1,0.1,0.2,0.1l0,0c0.1,0,0.2-0.1,0.3-0.1c0.4-0.3,0.6-0.7,0.7-1.2v-0.5l-0.1-0.4l0,0c0-0.1,0-0.2,0.1-0.2
				c0.1,0,0.3,0.2,0.5,0.6c0.1,0.2,0.2,0.3,0.3,0.3s0.2-0.1,0.5-0.5l0.3-0.4c0.1-0.1,0.1-0.2,0.1-0.3c0-0.1,0-0.2-0.1-0.3l-0.2-0.3
				c0-0.1-0.1-0.2-0.1-0.3c0-0.5,0.1-1,0.3-1.4c0.1-0.3,0.3-0.5,0.4-0.8c0-0.1,0.1-0.2,0.2-0.2l0.1,0.1v0.3l0,0v0.2
				c0,0.1,0.1,0.1,0.2,0.1c0.1,0,0.2,0,0.3-0.1l0.8-0.3c0.2-0.1,0.5-0.2,0.8-0.3c0.6-0.5,1.4-0.7,2.2-0.8c0.5,0,1,0.2,1.5,0.4
				c0.1,0.1,0.2,0.1,0.3,0.1c0.1,0,0.2,0,0.2-0.1c0.1-0.1,0.1-0.1,0.1-0.2c0-0.1,0-0.3-0.1-0.4l-0.2-0.4c0-0.1,0-0.1,0.1-0.1
				c0.1,0,0.2,0.1,0.2,0.2c0.1,0.1,0.3,0.5,0.8,1.2c0.4,0.9,1.1,1.5,1.9,1.8l1.4,0.3c0.4,0.1,0.5,0.2,0.5,0.7c0,0.9-0.4,1.8-1.2,2.2
				L80.5,82c-0.5,0.3-0.8,0.9-0.8,1.5c0,0.5,0.1,1.1,0.2,1.6l0.2-0.2l0.5-0.3l0.4-0.4l0.2-0.6l0.2-0.6c0.1-0.3,0.2-0.5,0.3-0.5
				s0.2,0.2,0.2,0.4V83C81.8,83.5,81.9,83.8,82.2,84.4"/>
			<path id="_Path_28" class="st3" d="M64.1,93.7c0.3-0.3,0.4-0.3,1.5-0.5c0.7-0.1,1.3-0.7,1.4-1.4c0-0.5,0.3-0.9,0.8-1.1
				c0.2-0.1,0.3-0.2,0.4-0.3l0.1-0.1c0.1,0,0.1,0,0.1,0.1c0,0.2-0.1,0.4-0.2,0.5c-0.1,0.1-0.1,0.3-0.1,0.5c0,0.4,0.1,0.8,0.3,1.2
				c0.2-0.4,0.4-0.6,0.8-0.8c0.7-0.4,0.9-1,1-2c0-0.4,0.1-0.7,0.2-0.7s0.1,0,0.1,0.1l0.2,0.4c0,0.1,0.1,0.1,0.2,0.1s0.2-0.1,0.4-0.2
				l0.4-0.4c0.3-0.4,0.4-0.8,0.3-1.3c0-0.2,0.1-0.4,0.2-0.4c0.1,0,0.1,0,0.1,0.1l0,0l0.2,0.6c0,0.1,0.1,0.2,0.2,0.2
				c0.1,0,0.2,0,0.2-0.1c0.2-0.1,0.3-0.3,0.4-0.4c0.1-0.2,0.2-0.4,0.2-0.7v-0.6c0-0.1,0-0.2,0.1-0.3l0.1-0.1c0.1,0,0.1,0.1,0.2,0.1
				l0.1,0.3c0,0.1,0.2,0.2,0.3,0.2s0.3-0.1,0.5-0.5c0.1-0.1,0.1-0.2,0.2-0.2c0.1-0.2,0.2-0.3,0.2-0.4c0-0.1,0-0.2-0.1-0.2
				c-0.4-0.6-0.7-1.3-0.7-2c0-1,0.4-1.8,1.6-3.4c0.6-0.7,1-1.5,1.1-2.5c0-0.2-0.1-0.2-0.2-0.2c-0.1,0-0.2,0-0.3,0.1
				c-0.1,0.1-0.1,0.1-0.2,0.1c-0.1,0-0.1,0-0.2-0.1l-0.2-0.2l-0.1-0.2c-0.1-0.1-0.1-0.1-0.2-0.1c-0.1,0-0.2,0-0.2,0.1h-0.3
				c-0.3,0-0.4,0.1-0.4,0.4v0.3c0,0.4-0.2,0.8-0.5,1L74,79.2c-0.7,0.6-1.2,1.4-1.3,2.3c0,0.4,0.1,0.9,0.2,1.3
				c0.2,0.5,0.3,1.1,0.3,1.6c0,1.5-2.3,3.4-6.5,5.4c-2.2,1-2.7,1.6-2.7,3L64.1,93.7z"/>
			<path id="_Path_29" class="st3" d="M62.1,61.8v0.7c0,0.2,0,0.3-0.1,0.5c-0.1,0.2-0.1,0.4-0.1,0.6c0,0.5,0.2,1,0.4,1.5
				c0.2,0.3,0.3,0.7,0.3,1.1c0,0.1,0,0.2-0.1,0.2c-0.1,0-0.1,0-0.1-0.1c0,0,0,0,0,0L62.2,66c-0.2-0.2-0.5-0.3-0.9-0.3h-0.5
				c0.2,0.3,0.3,0.7,0.3,1.1c0.1,0.6,0.4,1.2,0.9,1.6c0.5,0.5,0.6,0.5,0.6,0.8c0,0.1-0.1,0.2-0.2,0.2h-0.3c-0.2,0-0.3,0.3-0.3,0.6
				c0,0.3,0.1,0.5,0.2,0.8c0.1,0.2,0.1,0.3,0.2,0.3l0.3,0.3c0.1,0.1,0.1,0.2,0.1,0.3c0,0.1-0.1,0.3-0.2,0.3s-0.1,0-0.3-0.1
				s-0.1-0.1-0.2-0.1c-0.1,0-0.2,0.1-0.2,0.2v0.4l0.2,0.7c0,0.2,0.1,0.3,0.3,0.5c0.1,0.2,0.2,0.3,0.4,0.3c0.4,0.2,0.5,0.2,0.7,0.3
				s0.1,0.1,0.1,0.2c0,0.1-0.1,0.2-0.2,0.2c-0.1,0-0.2,0-0.3-0.1h-0.3c-0.3,0-0.3,0-0.3,0.2c0,0.2,0,0.3,0.1,0.4l0.1,0.5
				c0.1,0.5,0.3,0.8,0.4,0.8c0.1,0,0.2,0,0.2-0.1c0.6-0.4,1.2-0.6,1.9-0.6c0.5,0,1.2,0.1,1.5,0.1c0.1,0,0.2,0.1,0.3,0.1
				s0.1-0.1,0.1-0.3l0.1-0.5l0.1-1l0.1-0.8V73l-0.2,0.2c-0.3,0.4-0.9,0.7-1.4,0.6c-1.4,0-2.3-1.6-2.3-4.3c0.1-1.5,0.2-3.1,0.4-4.6
				c0.1-0.3,0.1-0.6,0.1-0.8C63.7,63.1,63,62.2,62.1,61.8"/>
			<path id="_Path_30" class="st3" d="M64.1,68.6l0.3-0.3l0.3-0.2c0.3-0.3,0.4-0.6,0.4-1c0-0.2,0-0.3-0.1-0.4
				c-0.1-0.2-0.3-0.4-0.4-0.4s-0.2,0.2-0.2,0.6l-0.1,0.4l-0.1,0.4v0.9L64.1,68.6z"/>
			<path id="_Path_31" class="st3" d="M61.5,81c0.3,0.1,0.6,0.3,0.8,0.5c0.2,0.4,0.7,0.7,1.2,0.6c0.2,0,0.3,0,0.4-0.1l0.4-0.1
				l0.3-0.1c0.1,0,0.2,0,0.2-0.1c0-0.1-0.2-0.2-0.7-0.5c-0.2-0.2-0.5-0.3-0.8-0.4c-0.2-0.1-0.4-0.2-0.7-0.2
				C62.3,80.6,61.8,80.8,61.5,81"/>
			<path id="_Path_32" class="st3" d="M65.7,89.9c0.5-0.2,0.8-0.3,1.4-0.6s0.9-0.4,0.9-0.5c0.5-0.3,0.9-0.5,0.9-0.6s-0.3-0.3-1-0.3
				c-1.1-0.1-2.1,0.7-2.2,1.8L65.7,89.9z"/>
			<path id="_Path_33" class="st3" d="M78.2,82.1c0.4-0.1,0.5-0.2,0.8-0.2h0.5c0.1,0,0.2-0.1,0.3-0.2c0.1-0.1,0.3-0.2,0.4-0.3
				c0.7-0.4,0.7-0.4,0.7-0.5s-0.2-0.2-0.8-0.2C79.2,80.6,78.4,81.2,78.2,82.1"/>
			<path id="_Path_34" class="st2" d="M15.2,8.9l-0.1-0.4V8.3c0-0.3,0.2-0.5,0.4-0.5c0.4-0.1,0.8-0.3,1.1-0.5l0.3-0.3l0,0
				C17,6.9,17,7,17,7.1c-0.2,0.7-0.5,1.3-0.9,1.8c-0.3,0.5-0.4,0.9-0.6,0.9s-0.3-0.2-0.3-0.5L15.2,8.9z"/>
			<path id="_Path_35" class="st2" d="M13.4,7.7L13.9,8c0.1,0.1,0.2,0.2,0.2,0.3v0.2c-0.1,0.2,0,0.5,0,0.6c0,0.5-0.4,0.5-0.6,0.5
				s0-0.1-0.3-0.3l-0.6-0.8c-0.3-0.4-0.5-0.9-0.4-1.4V7.1c0-0.2,0-0.2,0.2-0.2S12.5,7,12.6,7L13.4,7.7z"/>
			<path id="_Path_36" class="st2" d="M72.6,9l-0.2-0.5V8.3c0-0.2,0.1-0.4,0.5-0.5c0.4-0.1,0.7-0.2,1-0.5l0.3-0.3l0,0
				c0.1,0,0.1,0.1,0.1,0.2c0,0.4-0.4,1-0.9,1.7c-0.3,0.5-0.4,1-0.5,1s-0.3-0.2-0.3-0.5L72.6,9z"/>
			<path id="_Path_37" class="st2" d="M70.6,7.7L71.2,8c0.1,0.1,0.2,0.2,0.2,0.3v0.1l-0.1,0.5l-0.1,0.6c0,0.1-0.1,0.1-0.2,0.1l0,0
				c-0.2-0.1-0.5-0.2-0.6-0.4l-0.5-0.8c-0.2-0.2-0.3-0.5-0.3-0.8c0-0.1-0.1-0.3-0.1-0.4V7.1c0-0.1,0.1-0.2,0.2-0.2
				c0.1,0,0.2,0.1,0.3,0.1L70.6,7.7z"/>
			<path id="_Path_38" class="st2" d="M12.6,64.5l-0.1-0.4V64l0.1-0.1c0.1,0,0.2,0.1,0.3,0.2s0.2,0.1,0.4,0.1c0.9,0.2,1,0.3,1,0.8
				v0.5l-0.1,0.4c0,0.2-0.1,0.2-0.2,0.2s-0.4-0.2-0.6-0.4L13,65.3L12.6,64.5z"/>
			<path id="_Path_39" class="st2" d="M16.3,65.3l-0.4,0.6c-0.1,0.1-0.1,0.1-0.1,0.2l0,0c-0.2,0-0.3-0.3-0.3-0.8l-0.1-0.6
				c0-0.2,0.2-0.3,0.5-0.4c0.2,0,0.5-0.1,0.6-0.2c0.3-0.2,0.4-0.3,0.5-0.3l0,0c0.1,0,0.1,0,0.1,0.1l0,0l0,0l-0.2,0.5L16.3,65.3z"/>
			<path id="_Path_40" class="st2" d="M68.9,63.7l0.4,0.2l0.6,0.3c0.4,0.2,0.7,0.3,0.7,0.5s0,0.1-0.1,0.3s-0.1,0.3-0.1,0.4
				c0,0.2-0.1,0.5-0.4,0.5c-0.2,0-0.4-0.3-0.8-1c-0.1-0.4-0.3-0.8-0.5-1.2v-0.1C68.7,63.6,68.7,63.6,68.9,63.7L68.9,63.7z"/>
			<path id="_Path_41" class="st2" d="M73,64.7l-0.8,0.6C72,65.7,72,66,71.9,66c-0.1,0.1-0.1,0.1-0.2,0.1l0,0
				c-0.2,0-0.3-0.1-0.3-0.2c0,0,0-0.1,0-0.1v-1.1l0,0c0-0.2,0.1-0.3,0.2-0.3l0.7-0.2l0.6-0.3c0.2-0.1,0.2-0.1,0.3-0.1
				s0.1,0.1,0.1,0.2c0,0.1,0,0.2-0.1,0.2L73,64.7z"/>
			<path class="st2" d="M16,10.6l-0.2-0.1l-0.5,0.3H14c-0.1-0.1-0.2-0.2-0.3-0.2c-0.1-0.1-0.3-0.1-0.4-0.1c-0.3,0-0.4,0.1-0.4,0.4
				c0.1,0.5,0.2,0.9,0.4,1.4l0.4,1c0.3,0.9,0.6,1.2,1.2,1.2s0.4-0.4,0.8-1.1c0.6-1.5,1-1.7,1-2.2C16.4,10.8,16.3,10.7,16,10.6
				 M15.2,12.6l-0.1,0.6c0,0.4-0.2,0.5-0.5,0.5s-0.4-0.1-0.4-0.5v-0.5L14,11.9l0.1-0.1c0-0.1,0-0.1,0.1-0.1h0.4l0.5-0.1l0,0
				c0.1,0,0.1,0,0.1,0.1s0.1,0.1,0.1,0.2S15.3,12.1,15.2,12.6"/>
			<path class="st2" d="M73.2,10.5H73l-0.4,0.3h-1.2c-0.1-0.1-0.2-0.2-0.3-0.2c-0.2-0.1-0.4-0.1-0.5-0.1c-0.2,0-0.4,0.1-0.4,0.3
				c0,0,0,0.1,0,0.1c0.1,0.5,0.2,0.9,0.4,1.3c0.1,0.2,0.2,0.5,0.4,1c0.3,0.9,0.7,1.2,1.2,1.2s0.8-0.3,1-1l0.3-1.4
				c0.2-0.4,0.5-0.6,0.5-1C73.8,10.7,73.5,10.5,73.2,10.5 M72.6,12.5l-0.1,0.6c0,0.3-0.2,0.5-0.5,0.5c0,0,0,0-0.1,0
				c-0.2,0-0.3-0.1-0.4-0.5l-0.1-0.5l-0.1-0.7c0,0,0-0.1,0.1-0.1c0-0.1,0-0.1,0.1-0.1l0,0h0.3l0.5-0.1l0,0c0,0,0.1,0,0.1,0.1
				s0.1,0.1,0.1,0.2V12.5"/>
			<path class="st2" d="M16.3,67c-0.1,0-0.1,0-0.2,0.1l-0.5,0.2c-0.1,0.1-0.3,0.1-0.5,0.1c-0.3,0-0.5-0.1-0.8-0.2L13.9,67
				c-0.1-0.1-0.2-0.1-0.3-0.1c-0.3,0-0.5,0.2-0.5,0.6c0,0.3,0.1,0.6,0.2,0.8c0.6,1.2,1.2,1.8,1.7,1.8c0.3,0,0.6-0.5,1.1-1.2
				c0.3-0.4,0.5-0.9,0.6-1.4C16.7,67.3,16.5,67,16.3,67 M15.4,68.4v0.4c-0.1,0.6-0.2,1-0.4,1s-0.2,0-0.2-0.1
				c-0.3-0.4-0.5-0.8-0.5-1.3c0-0.2,0.1-0.3,0.3-0.3c0,0,0,0,0.1,0l0,0l0.3,0.1l0.3-0.2h0.1C15.4,67.9,15.4,68,15.4,68.4L15.4,68.4z
				"/>
			<path class="st2" d="M72.1,66.8c-0.1,0-0.1,0-0.2,0.1L71.5,67c-0.2,0.1-0.5,0.2-0.8,0.2c-0.2,0-0.3,0-0.4-0.1l-0.4-0.3
				c-0.1-0.1-0.2-0.1-0.3-0.1c-0.3,0-0.5,0.3-0.4,0.5c0,0.6,0.2,1.1,0.5,1.6c0.5,1.1,0.8,1.3,1.1,1.3s0.4-0.1,0.6-0.5l0.3-0.8
				c0.4-0.5,0.6-1,0.8-1.6C72.6,67,72.3,66.8,72.1,66.8 M71.4,68.5c-0.1,0.6-0.3,1.1-0.6,1.1c-0.3,0-0.5-0.3-0.4-0.5v-0.6
				c0-0.4,0.1-0.5,0.2-0.5H71c0.3,0,0.3,0.1,0.3,0.3C71.4,68.2,71.4,68.2,71.4,68.5"/>
			<path id="_Path_42" class="st2" d="M41.3,4.9l0.2,0.3l0.2,0.2L42,5.7c0.1,0.1,0.2,0.2,0.3,0.2l-0.1,0.1l-0.3,0.3l-0.3,0.2
				l-0.1,0.1v0.2c0,2.5,0.9,4.6,2,5.2c0.2,0.1,0.2,0.2,0.2,0.2l0,0l-0.2,0.1h-0.3c-0.5,0-0.9-0.1-1.4-0.2l-0.3,2.1H41l-0.3-2.1
				c-0.5,0.1-0.9,0.2-1.4,0.2h-0.2c-0.2,0-0.2,0-0.2-0.1c0-0.1,0.1-0.2,0.2-0.2c1.2-0.6,2-2.8,2-5.2V6.7L41,6.6l-0.3-0.2L40.3,6
				l-0.1-0.1c0.1-0.1,0.2-0.2,0.3-0.2L41,5.4l0.2-0.2L41.3,4.9z"/>
			<path id="_Path_43" class="st2" d="M52.4,4.9l0.2,0.3l0.2,0.2l0.3,0.3c0.1,0.1,0.2,0.2,0.3,0.2l-0.1,0.1L53,6.4l-0.3,0.2
				l-0.1,0.1v0.2c0,2.5,0.9,4.6,2,5.2c0.2,0.1,0.2,0.2,0.2,0.2l0,0l-0.2,0.1h-0.3c-0.5,0-0.9-0.1-1.4-0.2l-0.3,2.1h-0.4l-0.3-2.1
				c-0.5,0.1-0.9,0.2-1.4,0.2H50c-0.2,0-0.2,0-0.2-0.1c0-0.1,0.1-0.2,0.2-0.2c1.2-0.6,2-2.8,2-5.2V6.7l-0.1-0.1l-0.3-0.2L51.3,6
				l-0.1-0.1c0.1-0.1,0.2-0.2,0.3-0.2L52,5.4l0.2-0.2L52.4,4.9z"/>
			<path id="_Path_44" class="st2" d="M41.3,24l0.2,0.3l0.2,0.2c0.1,0.2,0.2,0.2,0.3,0.3c0.1,0.1,0.2,0.2,0.3,0.2l-0.1,0.1l-0.4,0.3
				l-0.3,0.2l-0.1,0.1V26c0,2.5,0.9,4.6,2,5.2c0.2,0.1,0.2,0.2,0.2,0.3l0,0l-0.2,0.1h-0.3c-0.5,0-0.9-0.1-1.4-0.2l-0.3,2.2H41
				l-0.3-2.2c-0.5,0.1-0.9,0.2-1.4,0.2h-0.1c-0.2,0-0.2,0-0.2-0.1c0-0.1,0.1-0.2,0.2-0.2c1.2-0.6,2-2.8,2-5.2v-0.2l-0.1-0.1
				l-0.3-0.3l-0.3-0.3L40.3,25c0.1-0.1,0.2-0.2,0.3-0.2l0.3-0.3l0.2-0.2L41.3,24z"/>
			<path id="_Path_45" class="st2" d="M52.4,24l0.2,0.3l0.2,0.2c0.1,0.2,0.2,0.2,0.3,0.3c0.1,0.1,0.2,0.2,0.3,0.2l-0.1,0.1l-0.4,0.3
				l-0.3,0.2l-0.1,0.1V26c0,2.5,0.9,4.6,2,5.2c0.2,0.1,0.2,0.2,0.2,0.3l0,0l-0.2,0.1h-0.3c-0.5,0-0.9-0.1-1.4-0.2l-0.3,2.2H52
				l-0.3-2.2c-0.5,0.1-0.9,0.2-1.4,0.2H50c-0.2,0-0.2,0-0.2-0.1c0-0.1,0.1-0.2,0.2-0.2c1.2-0.6,2-2.8,2-5.2v-0.4l-0.2-0.2l-0.3-0.3
				l0-0.2c0.1-0.1,0.2-0.2,0.3-0.2l0.3-0.3l0.2-0.2L52.4,24z"/>
			<path id="_Path_46" class="st2" d="M46.8,14.5l0.2,0.3l0.2,0.2c0.1,0.2,0.2,0.2,0.3,0.3c0.1,0.1,0.2,0.2,0.3,0.2l-0.1,0.1
				L47.4,16l-0.3,0.2L47,16.3v0.2c0,2.5,0.9,4.6,2,5.2c0.2,0.1,0.2,0.2,0.2,0.2l0,0L49,22h-0.3c-0.5,0-0.9-0.1-1.4-0.2L47,24h-0.4
				l-0.3-2.1c-0.5,0.1-0.9,0.2-1.4,0.2h-0.3c-0.2,0-0.2,0-0.2-0.1c0-0.1,0.1-0.2,0.2-0.2c1.2-0.6,2-2.8,2-5.2v-0.2l-0.1-0.1L46.1,16
				l-0.3-0.3l-0.1-0.1c0.1-0.1,0.2-0.2,0.3-0.2l0.3-0.3l0.2-0.2L46.8,14.5z"/>
			<path id="_Path_47" class="st2" d="M41.3,70.3l0.2,0.3l0.2,0.2c0.1,0.2,0.2,0.2,0.3,0.3c0.1,0.1,0.2,0.2,0.3,0.2l-0.1,0.1
				l-0.3,0.3L41.6,72l-0.1,0.1v0.2c0,2.4,0.9,4.6,2,5.2c0.2,0.1,0.2,0.2,0.2,0.3l0,0L43.5,78h-0.3c-0.5,0-0.9-0.1-1.4-0.2l-0.3,2.1
				H41l-0.3-2.1c-0.5,0.1-0.9,0.2-1.4,0.2h-0.2c-0.2,0-0.2,0-0.2-0.1c0-0.1,0.1-0.2,0.2-0.2c1.2-0.7,2-2.8,2-5.2v-0.2L41,72.1
				l-0.3-0.2l-0.3-0.3l-0.1-0.2c0.1-0.1,0.2-0.2,0.3-0.2l0.3-0.3l0.2-0.2L41.3,70.3z"/>
			<path id="_Path_48" class="st2" d="M52.4,70.3l0.2,0.3l0.2,0.2c0.1,0.2,0.2,0.2,0.3,0.3c0.1,0.1,0.2,0.2,0.3,0.2l-0.1,0.1
				L53,71.8L52.7,72l-0.1,0.1v0.3c0,2.4,0.9,4.6,2,5.2c0.1,0,0.2,0.2,0.2,0.3l0,0l-0.2,0.1h-0.3c-0.5,0-0.9-0.1-1.4-0.2L52.6,80
				h-0.4l-0.3-2.1c-0.5,0.1-0.9,0.2-1.4,0.2h-0.3c-0.2,0-0.2,0-0.2-0.1c0-0.1,0.1-0.2,0.2-0.2c1.2-0.6,2-2.8,2-5.2v-0.2L52.1,72
				l-0.3-0.2l-0.3-0.3v-0.1c0.1-0.1,0.2-0.2,0.3-0.2l0.3-0.3l0.2-0.2L52.4,70.3z"/>
			<path id="_Path_49" class="st2" d="M41.3,90.2l0.2,0.3l0.2,0.2c0.1,0.2,0.2,0.2,0.3,0.3c0.1,0.1,0.2,0.2,0.3,0.2l-0.1,0.1
				l-0.3,0.3l-0.3,0.2L41.5,92v0.2c0,2.5,0.9,4.6,2,5.2c0.2,0.1,0.2,0.2,0.2,0.2l0,0l-0.2,0.1h-0.3c-0.5,0-0.9-0.1-1.4-0.2l-0.3,2.1
				H41l-0.3-2.1c-0.5,0.1-0.9,0.2-1.4,0.2h-0.2c-0.2,0-0.2,0-0.2-0.1c0-0.1,0.1-0.2,0.2-0.2c1.2-0.6,2-2.8,2-5.2V92L41,91.9
				l-0.3-0.2l-0.3-0.3l-0.1-0.1c0.1-0.1,0.2-0.2,0.3-0.2l0.3-0.3l0.2-0.2L41.3,90.2z"/>
			<path id="_Path_50" class="st2" d="M52.4,90.2l0.2,0.3l0.2,0.2c0.1,0.2,0.2,0.2,0.3,0.3s0.1,0.1,0.3,0.2l-0.1,0.1L53,91.7
				l-0.3,0.2L52.6,92v0.2c0,2.5,0.9,4.6,2,5.2c0.2,0.1,0.2,0.2,0.2,0.2l0,0l-0.2,0.1h-0.3c-0.5,0-0.9-0.1-1.4-0.2l-0.3,2.1h-0.4
				l-0.3-2.1c-0.5,0.1-0.9,0.2-1.4,0.2h-0.3c-0.2,0-0.2,0-0.2-0.1c0-0.1,0.1-0.2,0.2-0.2c1.2-0.6,2-2.8,2-5.2V92L52,91.9l-0.3-0.2
				l-0.3-0.3l-0.1-0.1c0.1-0.1,0.2-0.2,0.3-0.2l0.3-0.3l0.2-0.2L52.4,90.2z"/>
			<path id="_Path_51" class="st2" d="M46.8,80.2l0.2,0.3l0.2,0.2c0.1,0.2,0.2,0.2,0.3,0.3c0.1,0.1,0.2,0.2,0.3,0.2l-0.1,0.1
				l-0.3,0.3l-0.3,0.2L47,82v0.2c0,2.5,0.9,4.6,2,5.2c0.2,0.1,0.2,0.2,0.2,0.2l0,0L49,87.8h-0.3c-0.5,0-0.9-0.1-1.4-0.2L47,89.7
				h-0.4l-0.3-2.1c-0.5,0.1-0.9,0.2-1.4,0.2h-0.3c-0.2,0-0.2,0-0.2-0.1c0-0.1,0.1-0.2,0.2-0.2c1.2-0.6,2-2.8,2-5.2V82l-0.1-0.1
				l-0.3-0.2l-0.3-0.3l-0.1-0.1c0.1-0.1,0.2-0.2,0.3-0.2l0.3-0.3l0.2-0.2L46.8,80.2z"/>
			<path id="_Path_52" class="st2" d="M46.8,60.5l0.2,0.3l0.2,0.2c0.1,0.2,0.2,0.2,0.3,0.3c0.1,0.1,0.2,0.2,0.3,0.2l-0.1,0.1
				L47.4,62l-0.3,0.2L47,62.3v0.2c0,2.5,0.9,4.6,2,5.2c0.2,0.1,0.2,0.2,0.2,0.2l0,0L49,68.2h-0.3c-0.5,0-0.9-0.1-1.4-0.2L47,70.1
				h-0.4l-0.3-2.1c-0.5,0.1-0.9,0.2-1.4,0.2h-0.3c-0.2,0-0.2,0-0.2-0.1c0-0.1,0.1-0.2,0.2-0.2c1.2-0.6,2-2.8,2-5.2v-0.2l-0.1-0.1
				l-0.3-0.2l-0.3-0.3l-0.1-0.1c0.1-0.1,0.2-0.2,0.3-0.2l0.3-0.3l0.2-0.2L46.8,60.5z"/>
			<path id="_Path_53" class="st2" d="M6.9,38.9l0.2,0.3l0.2,0.2c0.1,0.2,0.2,0.2,0.3,0.3C7.7,39.9,7.9,39.9,8,40l-0.1,0.1l-0.3,0.3
				l-0.3,0.2l-0.1,0.1V41c0,2.5,0.9,4.6,2,5.2c0.2,0.1,0.2,0.2,0.2,0.2l0,0l-0.2,0.1H8.8c-0.5,0-0.9-0.1-1.4-0.2l-0.3,2.2H6.8
				l-0.3-2.2c-0.5,0.1-0.9,0.2-1.4,0.2H4.7c-0.2,0-0.2,0-0.2-0.1c0-0.1,0.1-0.2,0.2-0.2c1.2-0.6,2.1-2.8,2.1-5.2v-0.2l-0.1-0.1
				l-0.3-0.2L6,40.1L5.9,40c0.1-0.1,0.2-0.2,0.3-0.2l0.3-0.3l0.2-0.2L6.9,38.9z"/>
			<path id="_Path_54" class="st2" d="M18.6,38.9l0.2,0.3l0.2,0.2c0.1,0.2,0.2,0.2,0.3,0.3c0.1,0.1,0.2,0.2,0.3,0.2l-0.1,0.1
				l-0.4,0.3l-0.3,0.2l-0.1,0.1v0.2c0,2.5,0.9,4.6,2,5.2c0.2,0.1,0.2,0.2,0.2,0.2l0,0l-0.2,0.3h-0.3c-0.5,0-0.9-0.1-1.4-0.2
				l-0.3,2.2h-0.4L18,46.5c-0.5,0.1-0.9,0.2-1.4,0.2h-0.3c-0.2,0-0.2,0-0.2-0.1c0-0.1,0.1-0.2,0.2-0.2c1.2-0.6,2-2.8,2-5.2v-0.2
				l-0.1-0.1L18,40.4l-0.3-0.3L17.6,40c0.1-0.1,0.2-0.2,0.3-0.2l0.3-0.3l0.2-0.2L18.6,38.9z"/>
			<path id="_Path_55" class="st2" d="M30.3,38.9l0.2,0.3l0.2,0.2c0.1,0.2,0.2,0.2,0.3,0.3c0.1,0.1,0.2,0.2,0.3,0.2l-0.1,0.1
				l-0.4,0.3l-0.3,0.2l-0.1,0.1v0.2c0,2.5,0.9,4.6,2,5.2c0.2,0.1,0.2,0.2,0.2,0.2l0,0l-0.2,0.1h-0.3c-0.5,0-0.9-0.1-1.4-0.2
				l-0.2,2.3h-0.4l-0.3-2.2c-0.5,0.1-0.9,0.2-1.4,0.2H28c-0.2,0-0.2,0-0.2-0.1c0-0.1,0.1-0.2,0.2-0.2c1.2-0.6,2-2.8,2-5.2v-0.2
				l-0.1-0.1l-0.3-0.3l-0.2-0.2l-0.1-0.1c0.1-0.1,0.2-0.2,0.3-0.2l0.3-0.3l0.2-0.2L30.3,38.9z"/>
			<path id="_Path_56" class="st2" d="M24.5,45.6l0.2,0.3l0.2,0.2l0.3,0.3c0.1,0.1,0.2,0.2,0.3,0.2l-0.3,0.1l-0.3,0.3l-0.3,0.2
				l-0.1,0.1v0.2c0,2.5,0.9,4.6,2,5.2c0.2,0.1,0.2,0.2,0.2,0.2l0,0l-0.2,0.1h-0.3c-0.5,0-0.9-0.1-1.4-0.2l-0.1,2.3h-0.4l-0.3-2.2
				c-0.5,0.1-0.9,0.2-1.4,0.2h-0.3c-0.2,0-0.2,0-0.2-0.1c0-0.1,0.1-0.2,0.2-0.2c1.2-0.6,2-2.8,2-5.2v-0.2l-0.1-0.1l-0.3-0.2
				l-0.2-0.4l-0.1-0.1c0.1-0.1,0.2-0.2,0.3-0.2l0.3-0.3l0.2-0.2L24.5,45.6z"/>
			<path id="_Path_57" class="st2" d="M12.8,45.6L13,46l0.2,0.2l0.3,0.3c0.1,0.1,0.2,0.2,0.3,0.2l-0.3,0.1l-0.3,0.3l-0.3,0.2
				l-0.1,0.1v0.2c0,2.5,0.9,4.6,2.1,5.2c0.2,0.1,0.2,0.2,0.2,0.2l0,0l-0.2,0.1h-0.3c-0.5,0-0.9-0.1-1.4-0.2L13,55.3h-0.4l-0.3-2.2
				c-0.5,0.1-0.9,0.2-1.4,0.2h-0.3c-0.2,0-0.2,0-0.2-0.1c0-0.1,0.1-0.2,0.2-0.2c1.2-0.6,2-2.8,2-5.2v-0.2l-0.1-0.1l-0.3-0.3L12,46.8
				l-0.1-0.1c0.1-0.1,0.2-0.2,0.3-0.2l0.3-0.3l0.2-0.2L12.8,45.6z"/>
			<path id="_Path_58" class="st2" d="M63.5,38.9l0.2,0.3l0.2,0.2c0.1,0.2,0.2,0.2,0.3,0.3c0.1,0.1,0.2,0.2,0.3,0.2l-0.1,0.1
				L64,40.4l-0.3,0.2l-0.1,0.1v0.2c0,2.5,0.9,4.6,2.1,5.2c0.2,0.1,0.2,0.2,0.2,0.2l0,0l-0.2,0.1h-0.3c-0.5,0-0.9-0.1-1.4-0.2
				l-0.3,2.2h-0.4l-0.3-2.2c-0.5,0.1-0.9,0.2-1.4,0.2h-0.3c-0.2,0-0.2,0-0.2-0.1c0-0.1,0.1-0.2,0.2-0.2c1.2-0.6,2-2.8,2-5.2v-0.2
				l-0.1-0.1L63,40.4l-0.3-0.3L62.5,40c0.1-0.1,0.2-0.2,0.3-0.2l0.3-0.3l0.2-0.2L63.5,38.9z"/>
			<path id="_Path_59" class="st2" d="M75.1,38.9l0.2,0.3l0.2,0.2c0.1,0.2,0.2,0.2,0.3,0.3c0.1,0.1,0.2,0.2,0.3,0.2l-0.1,0.1
				l-0.4,0.3l-0.3,0.2l-0.1,0.1v0.2c0,2.5,0.9,4.6,2,5.2c0.2,0.1,0.2,0.2,0.2,0.2l0,0l-0.2,0.1H77c-0.5,0-0.9-0.1-1.4-0.2l-0.3,2.2
				h-0.4l-0.3-2.2c-0.5,0.1-0.9,0.2-1.4,0.2h-0.3c-0.2,0-0.2,0-0.2-0.1c0-0.1,0.1-0.2,0.2-0.2c1.2-0.6,2-2.8,2-5.2v-0.2l-0.1-0.1
				l-0.1-0.2l-0.3-0.3L74.2,40c0.1-0.1,0.2-0.2,0.3-0.2l0.3-0.3l0.2-0.2L75.1,38.9z"/>
			<path id="_Path_60" class="st2" d="M86.8,38.9l0.2,0.3l0.2,0.2c0.1,0.2,0.2,0.2,0.3,0.3c0.1,0.1,0.2,0.2,0.3,0.2l-0.2,0.2
				l-0.3,0.2L87,40.6l-0.1,0.1v0.2c0,2.5,0.9,4.6,2,5.2c0.2,0.1,0.2,0.2,0.2,0.2l0,0l-0.2,0.1h-0.2c-0.5,0-0.9-0.1-1.4-0.2L87,48.5
				h-0.4l-0.3-2.2c-0.5,0.1-0.9,0.2-1.4,0.2h-0.3c-0.2,0-0.2,0-0.2-0.1c0-0.1,0.1-0.2,0.2-0.2c1.2-0.6,2-2.8,2-5.2v-0.3l-0.3-0.2
				l-0.3-0.3L85.8,40c0.1-0.1,0.2-0.2,0.3-0.2l0.3-0.3l0.2-0.2L86.8,38.9z"/>
			<path id="_Path_61" class="st2" d="M81,45.6l0.2,0.3l0.2,0.2l0.3,0.3c0.1,0.1,0.2,0.2,0.3,0.2l-0.2,0.1l-0.3,0.3l-0.3,0.2v0.3
				c0,2.5,0.9,4.6,2,5.2c0.2,0.1,0.2,0.2,0.2,0.2l0,0l-0.2,0.1h-0.3c-0.5,0-0.9-0.1-1.4-0.2l-0.3,2.3h-0.4l-0.3-2.2
				c-0.5,0.1-0.9,0.2-1.4,0.2h-0.3c-0.2,0-0.2,0-0.2-0.1c0-0.1,0.1-0.2,0.2-0.2c1.2-0.6,2-2.8,2-5.2v-0.2l-0.1-0.1l-0.3-0.2L80,46.8
				l0-0.1c0.1-0.1,0.2-0.2,0.3-0.2l0.3-0.3l0.2-0.2L81,45.6z"/>
			<path id="_Path_62" class="st2" d="M69.3,45.6l0.2,0.3l0.2,0.2l0.3,0.3c0.1,0.1,0.2,0.2,0.3,0.2l-0.2,0.1l-0.3,0.3l-0.3,0.2
				l-0.1,0.1v0.2c0,2.5,0.9,4.6,2,5.2c0.2,0.1,0.2,0.2,0.2,0.2l0,0l-0.2,0.1h-0.3c-0.5,0-0.9-0.1-1.4-0.2l-0.2,2.3h-0.4l-0.3-2.2
				c-0.5,0.1-0.9,0.2-1.4,0.2h-0.2c-0.2,0-0.2,0-0.2-0.1c0-0.1,0.1-0.2,0.2-0.2c1.2-0.6,2-2.8,2-5.2v-0.2L69,47.5l-0.3-0.2l-0.3-0.4
				l-0.1-0.1c0.1-0.1,0.2-0.2,0.3-0.2l0.3-0.3l0.2-0.2L69.3,45.6z"/>
			<path id="_Path_63" class="st2" d="M35.9,39h3.2c0.3-0.6,0.9-1.1,1.6-1c0.7,0,1.4,0.4,1.7,1h2.7c0.3-0.7,1-1.1,1.7-1
				c0.7,0,1.3,0.4,1.6,1H51c0.3-0.6,0.9-1,1.6-1c0.7,0,1.3,0.4,1.6,1l0.1,0.2h3.5v15.7h-3V61h-3.6v-6.1h-8.8V61h-3.6v-6.1h-2.9V39z"
				/>
			<path class="st1" d="M37.1,40.7h19.5v-0.5H37.1V40.7z M37.1,53.4h19.5V41.7H37.1V53.4z"/>
			<path id="_Path_64" class="st3" d="M39.1,43.3c-0.6,0-1,0.4-1,1s0.4,1,1,1s1-0.4,1-1S39.7,43.3,39.1,43.3"/>
			<path id="_Path_65" class="st3" d="M54.5,43.3c-0.6,0-1,0.4-1,1s0.4,1,1,1s1-0.4,1-1S55.1,43.3,54.5,43.3"/>
			<path id="_Path_66" class="st3" d="M39.1,50.5c-0.5-0.2-1.1,0.1-1.2,0.7s0.1,1.1,0.7,1.2c0.2,0.1,0.4,0.1,0.6,0
				c0.5,0,0.9-0.4,0.9-0.9c0,0,0-0.1,0-0.1c0.1-0.4-0.2-0.9-0.6-1C39.3,50.5,39.2,50.5,39.1,50.5"/>
			<path id="_Path_67" class="st3" d="M54.5,50.5c-0.6,0-1,0.4-1,1s0.4,1,1,1s1-0.4,1-1S55.1,50.5,54.5,50.5"/>
			<path id="_Path_68" class="st3" d="M42,47.8c1.1,1.5,2.9,2.4,4.8,2.3c1.8,0,3-0.6,4.5-2.3c-1.2-1.4-2.8-2.1-4.6-2.1
				C44.9,45.6,43.2,46.4,42,47.8"/>
			<rect id="_Path_69" x="39.5" y="56.1" class="st3" width="1.8" height="2.3"/>
			<rect id="_Path_70" x="39.5" y="59" class="st3" width="1.8" height="0.8"/>
			<rect id="_Path_71" x="52" y="56.1" class="st3" width="1.8" height="2.3"/>
			<rect id="_Path_72" x="52" y="59" class="st3" width="1.8" height="0.8"/>
			<path id="_Path_73" class="st3" d="M40.8,38.9c-0.5,0-0.9,0.4-0.9,0.8c0,0,0,0,0,0v2.1c0,0.5,0.4,0.9,0.9,0.9s0.9-0.4,0.9-0.9
				v-2.1C41.6,39.3,41.2,38.9,40.8,38.9"/>
			<path id="_Path_74" class="st3" d="M46.9,38.9c-0.5,0-0.9,0.4-0.9,0.8c0,0,0,0,0,0v2.1c0,0.5,0.4,0.8,0.8,0.9c0,0,0,0,0,0
				c0.5,0,0.9-0.4,0.9-0.8c0,0,0,0,0,0v-2.1C47.6,39.3,47.3,38.9,46.9,38.9"/>
			<path id="_Path_75" class="st3" d="M52.6,38.9c-0.5,0-0.9,0.4-0.9,0.8c0,0,0,0,0,0v2.1c0.1,0.5,0.5,0.8,1,0.8
				c0.4,0,0.7-0.4,0.8-0.8v-2.1C53.4,39.3,53.1,38.9,52.6,38.9"/>
			<path class="st2" d="M53.2,51.4c0,0.7,0.6,1.3,1.3,1.3c0.7,0,1.3-0.6,1.3-1.3c0-0.7-0.6-1.3-1.3-1.3c0,0,0,0,0,0
				C53.8,50.1,53.3,50.7,53.2,51.4 M54,51.4c0-0.3,0.2-0.5,0.5-0.5c0,0,0,0,0.1,0c0.3,0,0.5,0.2,0.5,0.5c0,0,0,0,0,0.1
				c0,0.3-0.2,0.5-0.5,0.5c0,0,0,0-0.1,0C54.3,52,54,51.8,54,51.4C54,51.5,54,51.4,54,51.4"/>
			<path class="st2" d="M46.7,46.3c-1.4,0-2.7,0.5-3.8,1.4c1,1,2.4,1.6,3.8,1.6c1.4,0.1,2.8-0.5,3.8-1.6
				C49.4,46.8,48.1,46.3,46.7,46.3 M46.7,48.1c-0.8,0-1.5-0.2-2.2-0.6c0.7-0.3,1.4-0.5,2.2-0.5c0.8,0,1.6,0.2,2.3,0.5
				C48.3,47.9,47.5,48.1,46.7,48.1"/>
			<path class="st2" d="M37.8,44.2c0,0.7,0.5,1.3,1.2,1.3c0.7,0,1.3-0.5,1.3-1.2c0-0.7-0.5-1.3-1.2-1.3c0,0,0,0-0.1,0
				C38.4,43,37.9,43.5,37.8,44.2C37.8,44.2,37.8,44.2,37.8,44.2 M38.6,44.3c0-0.3,0.2-0.5,0.5-0.5c0,0,0,0,0.1,0
				c0.3,0,0.5,0.2,0.5,0.5c0,0,0,0,0,0.1c0,0.3-0.2,0.5-0.5,0.5c0,0,0,0-0.1,0C38.8,44.8,38.6,44.6,38.6,44.3
				C38.6,44.3,38.6,44.3,38.6,44.3"/>
			<path class="st2" d="M37.8,51.4c0,0.7,0.6,1.3,1.3,1.3c0.7,0,1.3-0.6,1.3-1.3c0-0.7-0.6-1.3-1.3-1.3l0,0
				C38.4,50.1,37.9,50.7,37.8,51.4 M38.6,51.4c0-0.3,0.2-0.5,0.5-0.5c0,0,0,0,0.1,0c0.3,0,0.5,0.2,0.5,0.5c0,0,0,0,0,0.1
				c0,0.3-0.2,0.5-0.5,0.5c0,0,0,0-0.1,0C38.8,51.9,38.6,51.7,38.6,51.4C38.6,51.4,38.6,51.4,38.6,51.4"/>
			<path class="st2" d="M53.2,44.2c0,0.7,0.5,1.3,1.2,1.3s1.3-0.5,1.3-1.2S55.3,43,54.6,43c0,0,0,0,0,0C53.9,43,53.3,43.5,53.2,44.2
				C53.2,44.2,53.2,44.2,53.2,44.2 M54,44.3c0-0.3,0.2-0.5,0.5-0.5c0,0,0,0,0.1,0c0.3,0,0.5,0.2,0.5,0.5c0,0,0,0,0,0.1
				c0,0.3-0.2,0.5-0.5,0.5c0,0,0,0-0.1,0C54.3,44.8,54,44.6,54,44.3C54,44.3,54,44.3,54,44.3"/>
			<path class="st2" d="M91,0.2c-5.5,0.2-9.7,0.3-12.1,0.3H14.8c-2.4,0-6.6-0.1-12.1-0.3L0,0.1l0.1,0.5c0.3,2.7,0.4,5.3,0.4,8v6.7
				l0.1,6.4v35.4c0,22.8,5.2,30.4,29.4,42.3l4.4,2.1c3.1,1.5,6.6,3.1,9.9,4.9l2.5,1.3l2.5-1.3c3.3-1.7,6.9-3.4,9.9-4.9l4.4-2.1
				c24.2-11.8,29.4-19.3,29.4-42.3V21.7l0.1-6.3V8.7c0-2.7,0.1-5.3,0.4-8l0.1-0.5L91,0.2z M92.2,8.6v6.7l-0.1,6.3V57
				c0,22.6-4.8,29.6-28.8,41.3l-4.4,2.1c-3.1,1.5-6.6,3.1-10,4.9c0,0-1.7,1-2,1.1c-0.3-0.1-2-1.1-2-1.1c-3.3-1.7-6.9-3.4-10-4.9
				l-4.4-2.1C6.4,86.6,1.5,79.7,1.5,57V21.7l-0.1-6.4V8.6c0-2.5-0.1-5-0.3-7.5c0.5,0,1,0,1.5,0.1c5.5,0.2,9.7,0.3,12.1,0.3h64.1
				c2.4,0,6.6-0.1,12.1-0.3c0.5,0,1,0,1.5-0.1C92.3,3.8,92.2,4.9,92.2,8.6"/>
		</g>
		<path class="st4" d="M217.5,25.9c-0.4,1.5,1.1,4.4-1.1,5.2c-1.3,0.5-2.5-2.4-3.6-3.9c-7.3-9.8-15.9-12-27.1-6.9
			c-0.6,0.3-1.2,0.6-1.9,0.8c-0.5,0.2-1.2,0.4-1.6-0.1c-0.4-0.5-0.4-1.1,0-1.6c4.4-6.8,8.6-13.8,16.1-17.6c6.9-3.6,13.4-1.1,16,6.2
			c1,2.7,1.8,5.5,2.3,8.3C217.3,19.4,217.6,22.6,217.5,25.9z"/>
		<path class="st4" d="M238,45.1c0.4,9.9-6.2,13.7-14.2,12c-6.7-1.3-13-3.8-18.8-7.3c-0.5-0.3-0.9-0.7-1.3-1.1
			c-0.4-0.4-0.9-0.9-0.6-1.5s1-0.5,1.5-0.5c2,0,4-0.2,6-0.5c10.7-2.6,16.7-8.6,17.6-19.6c0.1-1.2-0.5-3.2,1.2-3.4
			c1.6-0.2,1.8,1.8,2.4,3C234.8,32.1,237.9,38.1,238,45.1z"/>
		<path class="st4" d="M200.2,62.7c-7.1-0.5-14-1-20.3-4.5c-5.1-2.8-7.7-8.3-5.9-13.6c0.7-1.6,1.7-3,3-4.1
			c4.7-5.2,9.9-9.7,16.3-12.7c0.9-0.5,2.1-1.3,2.9-0.3s-0.5,1.7-0.9,2.5c-5.4,11.2-5,21.4,6.1,29.2c1.1,0.8,3.2,1.5,2.6,3
			S201.5,62.5,200.2,62.7z"/>
		<path class="st5" d="M215.3,98.2c-4.8,2.3-9.1,0.1-9.7-5.1c-0.3-3.1-0.3-6.1,0-9.2c0.2-1.7,0.8-2.8,2.7-2.7s2.4,1.5,2.5,3
			c0.1,2.3,0,4.6,0.1,6.9c0,1.7,0.4,3.2,2.5,3.2s2.5-1.5,2.6-3.1c0.1-2.3,0-4.6,0.1-6.9c0.1-1.5,0.3-3,2.3-3.1s2.7,1.3,2.8,2.9
			c0.4,5.3,0.3,10.6-0.2,15.8c-0.4,3.5-3.3,6.2-6.9,6.2c-1.9,0.2-3.9,0.1-5.8-0.2c-1.8-0.3-3.7-1.4-3.1-3.7c0.7-2.5,2.6-1.6,4.2-1.1
			c3.6,1.1,5.3,0.5,6.6-2.4c0-0.3,0-0.7,0-1L215.3,98.2z"/>
		<path class="st5" d="M134.8,81.8c5.8-1.5,9.1-0.3,11,3.8c2,4.1,1,9.1-2.5,12.1c-1.4,1.3-3.2,1.8-5.1,1.5c-2-0.4-3.8-1.3-6.1-0.2
			c-1.2,0.6-2.5-0.6-2.5-2.3c0-6.7,0-13.4,0-20.2c-0.1-1.3,0.8-2.4,2.1-2.5c0.1,0,0.1,0,0.2,0c1.3-0.2,2.5,0.6,2.7,1.9
			c0,0.1,0,0.2,0,0.4C134.9,78.2,134.9,80,134.8,81.8z M141.4,90.6c0-2.8-1.4-4.8-3.3-4.7c-2.4,0.2-3.2,1.8-3.3,4
			c-0.1,2.7,1.3,4.7,3.4,4.5C140.6,94.1,141.2,92.3,141.4,90.6z"/>
		<path class="st5" d="M190.7,90.2c0,2.1,0.1,4.2,0,6.3c-0.2,2.4-2,3.3-4,2c-0.6-0.5-1.6-0.5-2.2,0c-2.8,1.6-6.4,0.9-8.5-1.5
			c-2.6-3.1-3.2-7.4-1.5-11.1c1.4-2.9,3.7-4.7,7.1-4.7c1-0.1,1.9,0.1,2.8,0.6c0.7,0.6,1.8,0.6,2.5,0c2.2-1.2,3.7-0.3,3.9,2.3
			C190.8,86.1,190.7,88.1,190.7,90.2L190.7,90.2z M185.5,90.1c-0.1-2-0.9-3.9-3.3-3.9s-3.2,1.9-3.2,4.1s1,4,3.3,4
			S185.4,92.3,185.5,90.1z"/>
		<path class="st5" d="M259.7,97.4c-2.7,2.1-5.5,2.5-8.3,0.7c-3.5-2.4-4.3-6-3.8-9.9c0.4-3.3,2-5.8,5.3-7c1.6-0.7,3.5-0.6,5,0.2
			c1.1,0.6,1.7,1.1,2.8-0.2c0.9-1,2.1-0.2,2.1,1.2c0.1,6.1,0.9,12.3-0.4,18.4c-1.2,5.6-9.7,7.6-13.7,3.6c-0.6-0.6-1.2-1.4-0.5-2.3
			s1.4-0.5,2.1-0.1c0.4,0.2,0.8,0.5,1.3,0.7C256.5,105,259.7,103,259.7,97.4z M260.3,90.3c-0.2-2.7-0.6-5.3-3.5-6.5
			c-1.8-0.8-4-0.2-5.1,1.6c-1.8,2.5-1.6,7.6,0.4,9.7c1.3,1.5,3.6,1.9,5.3,0.8C259.7,94.7,260.1,92.5,260.3,90.3z"/>
		<path class="st5" d="M156.3,90.1c0-2-0.1-4,0-6c0.2-2.4,1.9-3.4,4-2.2c0.8,0.5,1.8,0.5,2.5,0c5-2.2,9.2,0.5,9.3,6
			c0,2.6,0,5.2,0,7.8c0,1.7-0.2,3.5-2.4,3.6c-2.4,0.1-2.7-1.8-2.8-3.6c-0.1-2.2,0-4.4,0-6.6c0-1.7-0.4-3.1-2.5-3.2
			c-2.2-0.1-2.7,1.5-2.8,3.2c-0.1,2.3,0,4.6-0.1,6.9c-0.1,1.8-0.6,3.3-2.8,3.2s-2.4-1.7-2.4-3.3C156.3,94,156.3,92,156.3,90.1z"/>
		<path class="st5" d="M246.3,89.8c0.1,5.4-3.1,9.3-7.7,9.4c-4.8,0.1-8.2-3.6-8.3-9.1c-0.1-5.1,3.3-9.2,7.9-9.3
			S246.3,84.6,246.3,89.8z M233.5,90.8c0.1,0.7,0.3,1.4,0.5,2.1c0.7,2.1,1.9,3.6,4.3,3.6s3.9-1.5,4.6-3.7c0.7-2.1,0.6-4.4-0.3-6.4
			c-0.6-1.7-2.1-2.8-3.9-2.9c-1.9-0.1-3.6,1-4.3,2.7C233.6,87.6,233.4,89.2,233.5,90.8L233.5,90.8z"/>
		<path class="st5" d="M196.2,81.3c1.6,1.8,3.5,0.5,5.4,0c1.2-0.3,2.4,0.4,2.8,1.6c0.5,1,0.1,2.2-0.9,2.7c-0.1,0.1-0.2,0.1-0.3,0.1
			c-5.2,1.1-4.7,4.9-4.6,8.7c0,0.8,0,1.5-0.1,2.3c-0.2,1.4-0.9,2.6-2.6,2.5c-1.3,0-2.4-1-2.5-2.3c0-0.1,0-0.2,0-0.3
			c-0.1-4.2-0.1-8.4,0-12.7C193.4,82.4,194.2,81.4,196.2,81.3z"/>
		<path class="st5" d="M273.1,89.8c0.1-6.6,5.3-10.6,10.9-8.6c1,0.4,2.2,0.7,1.9,2.1c-0.4,1.7-1.6,0.9-2.5,0.6
			c-2.4-0.8-4.4-0.4-5.9,1.7c-1.8,2.9-1.7,6.5,0.3,9.2c1.6,2,3.6,2,5.7,1.1c0.9-0.3,1.9-1,2.4,0.4c0.4,1.2-0.4,1.9-1.6,2.3
			C278.3,100.9,273,96.6,273.1,89.8z"/>
		<path class="st5" d="M153.6,90.2c0,2.1,0.1,4.2,0,6.3c-0.1,1.5-0.7,2.6-2.4,2.7c-1.3,0.1-2.5-0.8-2.6-2.1c0-0.1,0-0.3,0-0.4
			c-0.1-4.3-0.1-8.7,0-13c0-1.3,1-2.4,2.3-2.4c0.1,0,0.3,0,0.4,0c1.3,0,2.3,1,2.3,2.3c0,0.1,0,0.1,0,0.2
			C153.6,85.9,153.6,88,153.6,90.2L153.6,90.2z"/>
		<path class="st5" d="M224.4,85c0-3.2,0-6.3,0-9.5c0-1.2-0.2-2.8,1.6-2.8c1.7,0,1.3,1.6,1.3,2.7c0,6.2,0,12.3,0,18.5
			c0,1.6,0,3,2.2,2.9c0.6-0.1,1.2,0.3,1.3,1c0,0.1,0,0.1,0,0.2c0,1-0.7,1.2-1.5,1.3c-2.1,0.5-4.2-0.7-4.8-2.8
			c-0.1-0.3-0.1-0.7-0.1-1C224.3,92,224.4,88.5,224.4,85z"/>
		<path class="st5" d="M267.1,89.6v-6.9c0-1,0.1-2,1.5-2s1.6,0.9,1.6,2c0,4.8,0,9.6,0,14.4c0,1.1-0.3,2-1.5,2s-1.5-0.9-1.5-2
			C267.1,94.6,267.1,92.1,267.1,89.6L267.1,89.6z"/>
		<path class="st5" d="M151.2,74c1.6,0,2.9,1.3,2.8,2.9c0,0.1,0,0.2,0,0.4c0,1.5-1.2,2.7-2.7,2.7c-0.1,0-0.3,0-0.4,0
			c-1.5,0.1-2.9-1.1-2.9-2.6c0-0.2,0-0.4,0-0.6C148.1,75.1,149.3,74.1,151.2,74z"/>
		<path class="st5" d="M270.3,74.9c0,1.3-0.6,2-1.7,2.1c-0.9,0.1-1.8-0.5-1.9-1.5c0-0.1,0-0.1,0-0.2c-0.2-0.9,0.4-1.9,1.4-2
			c0.1,0,0.3,0,0.4,0c0.9-0.1,1.7,0.6,1.8,1.5C270.3,74.8,270.3,74.9,270.3,74.9z"/>
		<path class="st6" d="M215.3,98.2l0.7-0.3c0,0.3,0,0.7,0,1L215.3,98.2z"/>
		<path class="st7" d="M406.6,0c6.3,2.3,12.3,5.1,16.5,10.7c3.7,4.8,5.8,10.7,5.9,16.8c0.1,17.5,0,35.1,0,52.6
			c0,2.4-0.2,4.7-3.1,5.3c-3.1,0.6-4.3-1.3-5.2-3.9c-3.4-9.3-10.5-14.5-19.7-14.6s-16.6,5.2-20.1,14.6c-0.8,2.2-1.9,3.9-4.4,4
			c-2.8,0.1-3.9-1.6-4.8-4c-3.4-9.3-10.9-14.7-20.2-14.6c-9,0.1-16.2,5.4-19.7,14.7c-1.7,4.6-3.8,5.1-8.1,2.1V21.6
			c3.9-10.9,11.2-18.4,22.5-21.6h11.2c7.1,2.4,13.6,5.8,17.9,12.4c0.9,1.3,1.6,0.9,2.2-0.2c4-6.4,10.4-9.4,17-12.2H406.6z
			 M372.8,68.5c0-14.4,0.4-28.1-0.1-41.7c-0.5-12-10.5-20.5-22.1-20c-11.1,0.5-19.6,9.8-19.7,21.6c-0.1,10.5,0,21,0,31.5v8.6
			C345,56.9,358.6,57,372.8,68.5z M379.9,68.5c14-11.6,27.7-11.6,41.8-0.2c0-13.7,0-26.7,0-39.8c0-12.2-8.7-21.5-20.3-21.6
			c-11.8-0.2-21.1,9-21.4,21.2c-0.2,9,0,18.1,0,27.1L379.9,68.5z"/>
		<path class="st8" d="M449.7,28c0-5,0-10,0-15.1c0-2.2,0.2-4.5,2.8-5.2c2.3-0.6,4.3-0.1,5.1,2.5c0.5,1.6,1.2,0.9,2.2,0.4
			c8.5-5,13.6-4.4,20.6,2.5c1.5,1.5,1.9,0.8,2.9-0.3c5.2-5.7,11.6-6.7,18.5-4.2s9.7,8.2,9.9,15.2c0.2,6.3,0.1,12.6,0.1,19
			c0,2.7-0.8,4.9-4,5c-3.5,0.1-4.2-2.3-4.2-5.2c0-5.8,0-11.5,0-17.2c-0.1-7.2-3.3-10.9-9.3-10.9s-9.3,3.7-9.3,10.9
			c0,5.6,0,11.2,0,16.8c0,2.9-0.5,5.7-4.3,5.6s-4.1-2.9-4.1-5.8c0-5.8,0-11.5,0-17.2c-0.1-6.5-3.3-10.1-9.1-10.2
			c-6-0.1-9.4,3.5-9.5,10.2c-0.1,5.9,0,11.8,0,17.7c0,2.7-0.3,5.4-4,5.4s-4.3-2.6-4.3-5.6C449.7,37.5,449.7,32.8,449.7,28z"/>
		<path class="st9" d="M528.4,12.1c8.7-7,16.7-6,23.7,2.6c3.7-4.6,8.3-7.3,14.4-7.1c8,0.3,14.1,5.3,15.1,13.2
			c1.1,7.7,0.3,15.5,0.4,23.2c0,2.5-1.5,4-4.1,3.9s-3.9-1.6-3.9-4.1c0-6.6,0.1-13.2-0.1-19.8s-4.8-10.2-11.2-9.2
			c-4.6,0.7-7.5,4.5-7.6,10.5s-0.1,11.8,0,17.7c0,2.7-0.5,5-3.8,5c-3.5,0-4.2-2.2-4.2-5.2c0.1-5.9,0.1-11.8,0-17.7
			c-0.1-6.7-3.6-10.4-9.4-10.4s-9.3,3.6-9.5,10.4c-0.2,5.9-0.1,11.8,0,17.7c0,3-0.5,5.2-4.1,5.2s-3.9-2.5-3.9-5.4
			c0-9.9,0-19.8,0-29.7c0-2.4,0.2-4.8,3.3-5.1S528.1,8.8,528.4,12.1z"/>
		<text transform="matrix(1 0 0 1 449.71 75.9)" class="st8 st10 st11">pu</text>
		<text transform="matrix(1 0 0 1 477.23 75.9)" class="st8 st10 st11">b</text>
		<text transform="matrix(1 0 0 1 490.93 75.9)" class="st8 st10 st11">lic</text>
		<text transform="matrix(1 0 0 1 516.38 75.9)" class="st8 st10 st11">a</text>
		<text transform="matrix(1 0 0 1 529.13 75.9)" class="st8 st10 st11">tions</text>
		<text transform="matrix(1 0 0 1 323.77 103.25)" class="st7 st10 st12">Quality E</text>
		<text transform="matrix(1 0 0 1 399.62 103.25)" class="st7 st10 st12 st13">L</text>
		<text transform="matrix(1 0 0 1 407.98 103.25)" class="st7 st10 st12">T boo</text>
		<text transform="matrix(1 0 0 1 455.25 103.25)" class="st7 st10 st12">k</text>
		<text transform="matrix(1 0 0 1 464.82 103.25)" class="st7 st10 st12">s &amp; e-learning</text>
	</g>
</g>
</svg>
